M48
; DRILL file {KiCad 8.0.1} date 2024-04-03T15:50:49+0530
; FORMAT={-:-/ absolute / metric / decimal}
; #@! TF.CreationDate,2024-04-03T15:50:49+05:30
; #@! TF.GenerationSoftware,Kicad,Pcbnew,8.0.1
; #@! TF.FileFunction,MixedPlating,1,2
FMAT,2
METRIC
; #@! TA.AperFunction,Plated,PTH,ViaDrill
T1C0.800
; #@! TA.AperFunction,Plated,PTH,ComponentDrill
T2C0.800
; #@! TA.AperFunction,Plated,PTH,ComponentDrill
T3C1.000
; #@! TA.AperFunction,NonPlated,NPTH,ComponentDrill
T4C3.000
%
G90
G05
T1
X92.964Y-73.651
X92.964Y-75.751
X95.0Y-45.0
X95.0Y-50.0
X100.0Y-35.0
X100.0Y-40.0
X100.0Y-45.0
X100.0Y-55.0
X100.0Y-60.0
X100.0Y-65.0
X100.0Y-70.0
X103.0Y-90.0
X103.25Y-80.0
X103.75Y-102.0
X105.0Y-35.0
X105.0Y-40.0
X105.0Y-55.0
X105.0Y-60.0
X105.0Y-65.0
X105.0Y-70.0
X106.25Y-105.75
X106.75Y-86.0
X110.0Y-35.0
X110.0Y-40.0
X111.76Y-71.12
X112.5Y-90.0
X113.25Y-105.5
X114.554Y-50.8
X114.554Y-56.642
X114.554Y-62.992
X115.0Y-35.0
X115.0Y-40.0
X118.75Y-74.75
X118.75Y-81.25
X120.0Y-35.0
X121.158Y-97.4
X121.92Y-49.784
X122.0Y-104.25
X122.428Y-70.612
X125.0Y-35.0
X125.232Y-92.964
X126.0Y-101.5
X126.492Y-62.992
X127.0Y-76.2
X127.25Y-41.25
X130.0Y-35.0
X131.293Y-42.138
X131.572Y-65.024
X131.826Y-52.324
X131.826Y-61.214
X132.0Y-39.0
X133.5Y-104.0
X134.5Y-42.138
X138.0Y-85.25
X138.43Y-41.656
X138.684Y-68.072
X138.75Y-75.653
X139.0Y-34.0
X140.25Y-52.0
X140.25Y-56.25
X140.25Y-63.75
X140.25Y-82.0
X140.75Y-101.75
X143.256Y-49.784
X144.272Y-41.656
X145.0Y-70.612
X145.288Y-63.754
X146.0Y-34.0
X146.5Y-72.162
X148.0Y-98.5
X148.59Y-51.054
X149.86Y-91.948
X150.0Y-87.0
X150.368Y-41.656
X150.5Y-64.05
X152.5Y-66.0
X152.75Y-89.25
X153.5Y-49.75
X154.0Y-34.0
X156.464Y-41.656
X157.5Y-71.75
X157.5Y-80.0
X158.0Y-100.75
X160.0Y-106.68
X162.0Y-34.0
X162.052Y-41.656
X163.25Y-71.75
X163.25Y-89.25
X163.5Y-98.25
X164.0Y-78.5
X165.1Y-45.466
X166.878Y-71.452
X166.878Y-86.859
X167.64Y-41.656
X170.0Y-34.0
X170.0Y-76.0
X170.0Y-82.975
X170.18Y-55.118
X171.196Y-68.072
X172.212Y-104.14
X173.45Y-58.42
X173.482Y-41.656
X175.006Y-49.784
X175.26Y-61.722
X176.022Y-79.502
X178.0Y-34.0
X178.25Y-87.0
X178.25Y-98.75
X178.25Y-103.5
X179.5Y-69.5
X181.102Y-57.658
X181.864Y-65.024
X181.864Y-90.062
X184.404Y-42.672
X185.166Y-80.264
X185.5Y-87.25
X186.0Y-34.0
X186.612Y-71.452
X189.0Y-99.25
X189.738Y-60.198
X189.992Y-42.672
X193.04Y-59.525
X193.04Y-98.75
X194.0Y-34.0
X194.75Y-47.75
X195.326Y-42.672
X195.5Y-94.0
X196.25Y-67.564
X197.866Y-76.962
X198.374Y-81.788
X198.75Y-102.0
X198.75Y-105.0
X199.25Y-67.5
X200.5Y-51.5
X201.168Y-91.948
X202.0Y-34.0
X202.184Y-73.152
X204.0Y-106.0
X204.75Y-67.25
X206.248Y-42.672
X206.75Y-98.5
X207.772Y-49.276
X209.0Y-106.0
X209.5Y-69.5
X210.0Y-34.0
X210.25Y-87.0
X213.5Y-69.5
X214.25Y-87.0
X216.2Y-44.2
X216.5Y-99.25
X217.0Y-50.5
X218.0Y-34.0
X219.964Y-71.452
X223.0Y-52.07
X223.5Y-100.0
X223.658Y-44.842
X225.75Y-88.25
X226.0Y-34.0
X227.902Y-81.598
X228.0Y-77.5
X229.3Y-99.9
X229.921Y-55.524
X231.0Y-46.0
X234.0Y-34.0
X234.29Y-58.877
X234.899Y-81.788
X241.7Y-99.9
X242.0Y-34.0
X244.5Y-56.75
X244.5Y-84.5
X245.0Y-70.0
X246.0Y-112.0
X250.0Y-65.0
X250.0Y-70.0
X250.0Y-75.0
X252.0Y-84.0
X253.0Y-45.0
X253.0Y-50.0
X253.0Y-55.0
X253.0Y-60.0
X253.0Y-105.0
T2
X99.568Y-73.66
X99.568Y-76.2
X99.568Y-78.74
X99.568Y-81.28
X107.188Y-73.66
X107.188Y-76.2
X107.188Y-78.74
X107.188Y-81.28
X110.49Y-47.244
X110.49Y-49.784
X110.49Y-52.324
X110.49Y-54.864
X110.49Y-57.404
X110.49Y-59.944
X110.49Y-62.484
X110.49Y-65.024
X115.58Y-73.66
X115.58Y-76.2
X115.58Y-78.74
X115.58Y-81.28
X118.11Y-47.244
X118.11Y-49.784
X118.11Y-52.324
X118.11Y-54.864
X118.11Y-57.404
X118.11Y-59.944
X118.11Y-62.484
X118.11Y-65.024
X123.2Y-73.66
X123.2Y-76.2
X123.2Y-78.74
X123.2Y-81.28
X144.775Y-46.98
X144.775Y-54.6
X144.78Y-75.692
X144.78Y-83.312
X145.044Y-94.732
X145.044Y-102.352
X147.315Y-46.98
X147.315Y-54.6
X147.32Y-75.692
X147.32Y-83.312
X147.584Y-94.732
X147.584Y-102.352
X149.855Y-46.98
X149.855Y-54.6
X149.86Y-75.692
X149.86Y-83.312
X150.124Y-94.732
X150.124Y-102.352
X152.395Y-46.98
X152.395Y-54.6
X152.4Y-75.692
X152.4Y-83.312
X152.664Y-94.732
X152.664Y-102.352
X154.935Y-46.98
X154.935Y-54.6
X154.94Y-75.692
X154.94Y-83.312
X157.475Y-46.98
X157.475Y-54.6
X157.48Y-75.692
X157.48Y-83.312
X160.015Y-46.98
X160.015Y-54.6
X160.02Y-75.692
X160.02Y-83.312
X174.244Y-46.736
X174.244Y-54.356
X174.244Y-75.692
X174.244Y-83.312
X176.784Y-46.736
X176.784Y-54.356
X176.784Y-75.692
X176.784Y-83.312
X179.324Y-46.736
X179.324Y-54.356
X179.324Y-75.692
X179.324Y-83.312
X181.864Y-46.736
X181.864Y-54.356
X181.864Y-75.692
X181.864Y-83.312
X184.404Y-46.736
X184.404Y-54.356
X184.404Y-75.692
X184.404Y-83.312
X186.944Y-46.736
X186.944Y-54.356
X186.944Y-75.692
X186.944Y-83.312
X189.484Y-46.736
X189.484Y-54.356
X189.484Y-75.692
X189.484Y-83.312
X204.724Y-46.736
X204.724Y-54.356
X204.724Y-75.692
X204.724Y-83.312
X204.724Y-94.488
X204.724Y-102.108
X207.264Y-46.736
X207.264Y-54.356
X207.264Y-75.692
X207.264Y-83.312
X207.264Y-94.488
X207.264Y-102.108
X209.804Y-46.736
X209.804Y-54.356
X209.804Y-75.692
X209.804Y-83.312
X209.804Y-94.488
X209.804Y-102.108
X212.344Y-46.736
X212.344Y-54.356
X212.344Y-75.692
X212.344Y-83.312
X212.344Y-94.488
X212.344Y-102.108
X214.884Y-46.736
X214.884Y-54.356
X214.884Y-75.692
X214.884Y-83.312
X214.884Y-94.488
X214.884Y-102.108
X217.424Y-46.736
X217.424Y-54.356
X217.424Y-75.692
X217.424Y-83.312
X217.424Y-94.488
X217.424Y-102.108
X219.964Y-46.736
X219.964Y-54.356
X219.964Y-75.692
X219.964Y-83.312
X219.964Y-94.488
X219.964Y-102.108
T3
X100.0Y-94.46
X100.0Y-97.0
X102.54Y-94.46
X102.54Y-97.0
X105.08Y-94.46
X105.08Y-97.0
X107.62Y-94.46
X107.62Y-97.0
X110.16Y-94.46
X110.16Y-97.0
X112.7Y-94.46
X112.7Y-97.0
X227.3Y-104.0
X229.84Y-104.0
X232.38Y-104.0
X234.92Y-104.0
X237.46Y-104.0
X237.998Y-46.177
X237.998Y-48.717
X237.998Y-51.257
X237.998Y-53.797
X237.998Y-56.337
X237.998Y-58.877
X237.998Y-61.417
X237.998Y-63.957
X237.998Y-66.497
X237.998Y-69.037
X237.998Y-71.577
X237.998Y-74.117
X237.998Y-76.657
X237.998Y-79.197
X237.998Y-81.737
X237.998Y-84.277
X237.998Y-86.817
X237.998Y-89.357
X237.998Y-91.897
X237.998Y-94.437
X240.0Y-104.0
X240.538Y-46.177
X240.538Y-48.717
X240.538Y-51.257
X240.538Y-53.797
X240.538Y-56.337
X240.538Y-58.877
X240.538Y-61.417
X240.538Y-63.957
X240.538Y-66.497
X240.538Y-69.037
X240.538Y-71.577
X240.538Y-74.117
X240.538Y-76.657
X240.538Y-79.197
X240.538Y-81.737
X240.538Y-84.277
X240.538Y-86.817
X240.538Y-89.357
X240.538Y-91.897
X240.538Y-94.437
T4
X94.0Y-110.0
X94.742Y-36.322
X250.698Y-36.068
X251.0Y-110.0
M30
