%TF.GenerationSoftware,KiCad,Pcbnew,7.0.10*%
%TF.CreationDate,2024-04-03T15:56:10+05:30*%
%TF.ProjectId,power converter,706f7765-7220-4636-9f6e-766572746572,rev?*%
%TF.SameCoordinates,Original*%
%TF.FileFunction,Copper,L1,Top*%
%TF.FilePolarity,Positive*%
%FSLAX46Y46*%
G04 Gerber Fmt 4.6, Leading zero omitted, Abs format (unit mm)*
G04 Created by KiCad (PCBNEW 7.0.10) date 2024-04-03 15:56:10*
%MOMM*%
%LPD*%
G01*
G04 APERTURE LIST*
G04 Aperture macros list*
%AMRoundRect*
0 Rectangle with rounded corners*
0 $1 Rounding radius*
0 $2 $3 $4 $5 $6 $7 $8 $9 X,Y pos of 4 corners*
0 Add a 4 corners polygon primitive as box body*
4,1,4,$2,$3,$4,$5,$6,$7,$8,$9,$2,$3,0*
0 Add four circle primitives for the rounded corners*
1,1,$1+$1,$2,$3*
1,1,$1+$1,$4,$5*
1,1,$1+$1,$6,$7*
1,1,$1+$1,$8,$9*
0 Add four rect primitives between the rounded corners*
20,1,$1+$1,$2,$3,$4,$5,0*
20,1,$1+$1,$4,$5,$6,$7,0*
20,1,$1+$1,$6,$7,$8,$9,0*
20,1,$1+$1,$8,$9,$2,$3,0*%
G04 Aperture macros list end*
%TA.AperFunction,ComponentPad*%
%ADD10R,1.700000X1.700000*%
%TD*%
%TA.AperFunction,ComponentPad*%
%ADD11O,1.700000X1.700000*%
%TD*%
%TA.AperFunction,ComponentPad*%
%ADD12R,1.600000X1.600000*%
%TD*%
%TA.AperFunction,ComponentPad*%
%ADD13C,1.600000*%
%TD*%
%TA.AperFunction,ComponentPad*%
%ADD14R,1.905000X2.000000*%
%TD*%
%TA.AperFunction,ComponentPad*%
%ADD15O,1.905000X2.000000*%
%TD*%
%TA.AperFunction,ComponentPad*%
%ADD16O,2.000000X3.000000*%
%TD*%
%TA.AperFunction,SMDPad,CuDef*%
%ADD17RoundRect,0.150000X-0.150000X0.825000X-0.150000X-0.825000X0.150000X-0.825000X0.150000X0.825000X0*%
%TD*%
%TA.AperFunction,SMDPad,CuDef*%
%ADD18RoundRect,0.250000X0.350000X-0.850000X0.350000X0.850000X-0.350000X0.850000X-0.350000X-0.850000X0*%
%TD*%
%TA.AperFunction,SMDPad,CuDef*%
%ADD19RoundRect,0.250000X1.125000X-1.275000X1.125000X1.275000X-1.125000X1.275000X-1.125000X-1.275000X0*%
%TD*%
%TA.AperFunction,SMDPad,CuDef*%
%ADD20RoundRect,0.249997X2.650003X-2.950003X2.650003X2.950003X-2.650003X2.950003X-2.650003X-2.950003X0*%
%TD*%
%TA.AperFunction,ComponentPad*%
%ADD21O,3.000000X2.000000*%
%TD*%
%TA.AperFunction,ComponentPad*%
%ADD22R,3.500000X3.500000*%
%TD*%
%TA.AperFunction,ComponentPad*%
%ADD23RoundRect,0.750000X-1.000000X0.750000X-1.000000X-0.750000X1.000000X-0.750000X1.000000X0.750000X0*%
%TD*%
%TA.AperFunction,ComponentPad*%
%ADD24RoundRect,0.875000X-0.875000X0.875000X-0.875000X-0.875000X0.875000X-0.875000X0.875000X0.875000X0*%
%TD*%
%TA.AperFunction,SMDPad,CuDef*%
%ADD25RoundRect,0.150000X0.150000X-0.825000X0.150000X0.825000X-0.150000X0.825000X-0.150000X-0.825000X0*%
%TD*%
%TA.AperFunction,ViaPad*%
%ADD26C,1.600000*%
%TD*%
%TA.AperFunction,Conductor*%
%ADD27C,0.500000*%
%TD*%
G04 APERTURE END LIST*
D10*
%TO.P,J4,1,Pin_1*%
%TO.N,/15 V*%
X170050000Y-95930000D03*
D11*
%TO.P,J4,2,Pin_2*%
%TO.N,GND*%
X170050000Y-98470000D03*
%TD*%
D12*
%TO.P,C3,1*%
%TO.N,Net-(U5-CAP+)*%
X140713000Y-73070000D03*
D13*
%TO.P,C3,2*%
%TO.N,Net-(U5-CAP-)*%
X140713000Y-70570000D03*
%TD*%
D14*
%TO.P,U6,1,IN*%
%TO.N,/15 V*%
X173250000Y-70750000D03*
D15*
%TO.P,U6,2,GND*%
%TO.N,GND*%
X175790000Y-70750000D03*
%TO.P,U6,3,OUT*%
%TO.N,/9 V*%
X178330000Y-70750000D03*
%TD*%
D10*
%TO.P,J3,1,Pin_1*%
%TO.N,/15 V*%
X142110000Y-98470000D03*
D11*
%TO.P,J3,2,Pin_2*%
%TO.N,/-15 V*%
X139570000Y-98470000D03*
%TO.P,J3,3,Pin_3*%
%TO.N,GND*%
X137030000Y-98470000D03*
%TD*%
D16*
%TO.P,SW1,1,A*%
%TO.N,/9 V*%
X190850000Y-109150000D03*
%TO.P,SW1,2,B*%
%TO.N,Net-(J5-Pin_3)*%
X186850000Y-109150000D03*
%TO.P,SW1,3,C*%
%TO.N,/5 V*%
X182850000Y-109150000D03*
%TD*%
D17*
%TO.P,U5,1,BOOST*%
%TO.N,unconnected-(U5-BOOST-Pad1)*%
X151635000Y-70595000D03*
%TO.P,U5,2,CAP+*%
%TO.N,Net-(U5-CAP+)*%
X150365000Y-70595000D03*
%TO.P,U5,3,GND*%
%TO.N,GND*%
X149095000Y-70595000D03*
%TO.P,U5,4,CAP-*%
%TO.N,Net-(U5-CAP-)*%
X147825000Y-70595000D03*
%TO.P,U5,5,VOUT*%
%TO.N,/-15 V*%
X147825000Y-75545000D03*
%TO.P,U5,6,LV*%
%TO.N,unconnected-(U5-LV-Pad6)*%
X149095000Y-75545000D03*
%TO.P,U5,7,OSC*%
%TO.N,unconnected-(U5-OSC-Pad7)*%
X150365000Y-75545000D03*
%TO.P,U5,8,V+*%
%TO.N,/15 V*%
X151635000Y-75545000D03*
%TD*%
D12*
%TO.P,C2,1*%
%TO.N,Net-(U4-CAP+)*%
X133855000Y-83165113D03*
D13*
%TO.P,C2,2*%
%TO.N,Net-(U4-CAP-)*%
X133855000Y-80665113D03*
%TD*%
D10*
%TO.P,J6,1,Pin_1*%
%TO.N,/1.8 V*%
X157350000Y-98470000D03*
D11*
%TO.P,J6,2,Pin_2*%
%TO.N,GND*%
X159890000Y-98470000D03*
%TO.P,J6,3,Pin_3*%
%TO.N,/3.3 V*%
X162430000Y-98470000D03*
%TO.P,J6,4,Pin_4*%
%TO.N,/9 V*%
X164970000Y-98470000D03*
%TD*%
D10*
%TO.P,J2,1,Pin_1*%
%TO.N,/5 V*%
X152270000Y-98470000D03*
D11*
%TO.P,J2,2,Pin_2*%
%TO.N,/-5 V*%
X149730000Y-98470000D03*
%TO.P,J2,3,Pin_3*%
%TO.N,GND*%
X147190000Y-98470000D03*
%TD*%
D18*
%TO.P,U3,1,GND*%
%TO.N,GND*%
X148975000Y-90395000D03*
%TO.P,U3,2,VO*%
%TO.N,/1.8 V*%
X151255000Y-90395000D03*
D19*
X149730000Y-85770000D03*
X152780000Y-85770000D03*
D20*
X151255000Y-84095000D03*
D19*
X149730000Y-82420000D03*
X152780000Y-82420000D03*
D18*
%TO.P,U3,3,VI*%
%TO.N,/15 V*%
X153535000Y-90395000D03*
%TD*%
D21*
%TO.P,SW2,1,A*%
%TO.N,/15 V*%
X192450000Y-88350000D03*
%TO.P,SW2,2,B*%
%TO.N,Net-(SW2-B)*%
X192450000Y-84350000D03*
%TO.P,SW2,3,C*%
%TO.N,unconnected-(SW2-C-Pad3)*%
X192450000Y-80350000D03*
%TD*%
D10*
%TO.P,J5,1,Pin_1*%
%TO.N,/15 V*%
X179170000Y-95750000D03*
D11*
%TO.P,J5,2,Pin_2*%
%TO.N,/5 V*%
X181710000Y-95750000D03*
%TO.P,J5,3,Pin_3*%
%TO.N,Net-(J5-Pin_3)*%
X184250000Y-95750000D03*
%TO.P,J5,4,Pin_4*%
%TO.N,GND*%
X186790000Y-95750000D03*
%TO.P,J5,5,Pin_5*%
%TO.N,Net-(J5-Pin_5)*%
X189330000Y-95750000D03*
%TO.P,J5,6,Pin_6*%
%TO.N,/-15 V*%
X191870000Y-95750000D03*
%TD*%
D12*
%TO.P,C4,1*%
%TO.N,GND*%
X140840000Y-76944888D03*
D13*
%TO.P,C4,2*%
%TO.N,/-15 V*%
X140840000Y-79444888D03*
%TD*%
D22*
%TO.P,J1,1*%
%TO.N,Net-(SW2-B)*%
X190500000Y-75500000D03*
D23*
%TO.P,J1,2*%
%TO.N,GND*%
X190500000Y-69500000D03*
D24*
%TO.P,J1,3*%
%TO.N,N/C*%
X185800000Y-72500000D03*
%TD*%
D18*
%TO.P,U2,1,GND*%
%TO.N,GND*%
X157610000Y-90810000D03*
%TO.P,U2,2,VO*%
%TO.N,/3.3 V*%
X159890000Y-90810000D03*
D19*
X158365000Y-86185000D03*
X161415000Y-86185000D03*
D20*
X159890000Y-84510000D03*
D19*
X158365000Y-82835000D03*
X161415000Y-82835000D03*
D18*
%TO.P,U2,3,VI*%
%TO.N,/15 V*%
X162170000Y-90810000D03*
%TD*%
D14*
%TO.P,U1,1,VI*%
%TO.N,/15 V*%
X156750000Y-70750000D03*
D15*
%TO.P,U1,2,GND*%
%TO.N,GND*%
X159290000Y-70750000D03*
%TO.P,U1,3,VO*%
%TO.N,/5 V*%
X161830000Y-70750000D03*
%TD*%
D12*
%TO.P,C1,1*%
%TO.N,GND*%
X133728000Y-93071113D03*
D13*
%TO.P,C1,2*%
%TO.N,/-5 V*%
X133728000Y-90571113D03*
%TD*%
D16*
%TO.P,SW3,1,A*%
%TO.N,GND*%
X164050000Y-109150000D03*
%TO.P,SW3,2,B*%
%TO.N,Net-(J5-Pin_5)*%
X160050000Y-109150000D03*
%TO.P,SW3,3,C*%
%TO.N,/-5 V*%
X156050000Y-109150000D03*
%TD*%
D25*
%TO.P,U4,1,NC*%
%TO.N,unconnected-(U4-NC-Pad1)*%
X139697000Y-91420000D03*
%TO.P,U4,2,CAP+*%
%TO.N,Net-(U4-CAP+)*%
X140967000Y-91420000D03*
%TO.P,U4,3,GND*%
%TO.N,GND*%
X142237000Y-91420000D03*
%TO.P,U4,4,CAP-*%
%TO.N,Net-(U4-CAP-)*%
X143507000Y-91420000D03*
%TO.P,U4,5,VOUT*%
%TO.N,/-5 V*%
X143507000Y-86470000D03*
%TO.P,U4,6,LV*%
%TO.N,unconnected-(U4-LV-Pad6)*%
X142237000Y-86470000D03*
%TO.P,U4,7,OSC*%
%TO.N,unconnected-(U4-OSC-Pad7)*%
X140967000Y-86470000D03*
%TO.P,U4,8,V+*%
%TO.N,/5 V*%
X139697000Y-86470000D03*
%TD*%
D26*
%TO.N,GND*%
X179250000Y-104750000D03*
X176750000Y-87350000D03*
X139697000Y-95041000D03*
X133250000Y-75750000D03*
X157604000Y-94660000D03*
X148250000Y-109750000D03*
X149603000Y-94787000D03*
X140250000Y-65750000D03*
X129250000Y-70750000D03*
X162250000Y-76500000D03*
X159250000Y-105750000D03*
X168250000Y-106750000D03*
X147250000Y-65350000D03*
X161668000Y-101264000D03*
X134250000Y-105750000D03*
X136522000Y-75737000D03*
X185250000Y-92750000D03*
X170500000Y-75250000D03*
X150250000Y-78750000D03*
X173250000Y-82500000D03*
X191250000Y-101750000D03*
X184250000Y-81950000D03*
X154250000Y-100750000D03*
X165750000Y-70500000D03*
X129250000Y-100750000D03*
%TO.N,/15 V*%
X144396000Y-103550000D03*
X155750000Y-78000000D03*
%TO.N,/5 V*%
X151000000Y-67250000D03*
X139824000Y-83484000D03*
X136943000Y-67950000D03*
%TO.N,/9 V*%
X176250000Y-100750000D03*
%TO.N,Net-(J5-Pin_5)*%
X171050000Y-102300000D03*
%TD*%
D27*
%TO.N,GND*%
X147250000Y-65350000D02*
X149095000Y-67195000D01*
X149095000Y-67195000D02*
X149095000Y-70595000D01*
X140222214Y-95041000D02*
X139697000Y-95041000D01*
X142237000Y-93026214D02*
X140222214Y-95041000D01*
X142237000Y-91420000D02*
X142237000Y-93026214D01*
%TO.N,Net-(U4-CAP+)*%
X140250000Y-89450000D02*
X140967000Y-90167000D01*
X135650000Y-89450000D02*
X140250000Y-89450000D01*
X133850000Y-87650000D02*
X135650000Y-89450000D01*
X140967000Y-90167000D02*
X140967000Y-91420000D01*
X133855000Y-83165113D02*
X133855000Y-87645000D01*
X133855000Y-87645000D02*
X133850000Y-87650000D01*
%TO.N,Net-(U4-CAP-)*%
X137574113Y-87274113D02*
X138750000Y-88450000D01*
X137574113Y-82474113D02*
X137574113Y-87274113D01*
X141518948Y-88450000D02*
X143507000Y-90438052D01*
X133855000Y-80665113D02*
X135765113Y-80665113D01*
X143507000Y-90438052D02*
X143507000Y-91420000D01*
X138750000Y-88450000D02*
X141518948Y-88450000D01*
X135765113Y-80665113D02*
X137574113Y-82474113D01*
%TO.N,Net-(U5-CAP+)*%
X149252948Y-72689000D02*
X150365000Y-71576948D01*
X140713000Y-73070000D02*
X141094000Y-72689000D01*
X150365000Y-71576948D02*
X150365000Y-70595000D01*
X141094000Y-72689000D02*
X149252948Y-72689000D01*
%TO.N,Net-(U5-CAP-)*%
X140713000Y-70570000D02*
X147800000Y-70570000D01*
X147800000Y-70570000D02*
X147825000Y-70595000D01*
%TO.N,/-5 V*%
X132305000Y-89148113D02*
X133728000Y-90571113D01*
X143507000Y-86470000D02*
X143507000Y-84303920D01*
X143507000Y-84303920D02*
X138318193Y-79115113D01*
X138318193Y-79115113D02*
X133016887Y-79115113D01*
X133016887Y-79115113D02*
X132305000Y-79827000D01*
X132305000Y-79827000D02*
X132305000Y-89148113D01*
%TO.N,/15 V*%
X186570000Y-88350000D02*
X179170000Y-95750000D01*
X158590000Y-74250000D02*
X166000000Y-74250000D01*
X166000000Y-74250000D02*
X166750000Y-74250000D01*
X154160000Y-76090000D02*
X153615000Y-75545000D01*
X154080000Y-76010000D02*
X154080000Y-75080000D01*
X192450000Y-88350000D02*
X186570000Y-88350000D01*
X157295000Y-72955000D02*
X158590000Y-74250000D01*
X166750000Y-75000000D02*
X166000000Y-74250000D01*
X156205000Y-72955000D02*
X154080000Y-75080000D01*
X170250000Y-70750000D02*
X173250000Y-70750000D01*
X166750000Y-74250000D02*
X170250000Y-70750000D01*
X168820000Y-95930000D02*
X170050000Y-95930000D01*
X164462000Y-78538000D02*
X166750000Y-76250000D01*
X164462000Y-88518000D02*
X164462000Y-78538000D01*
X167650000Y-100350000D02*
X167650000Y-97100000D01*
X167650000Y-97100000D02*
X168820000Y-95930000D01*
X155826000Y-77756000D02*
X154160000Y-76090000D01*
X153535000Y-90395000D02*
X155826000Y-88104000D01*
X156205000Y-72955000D02*
X157295000Y-72955000D01*
X166750000Y-76250000D02*
X166750000Y-75000000D01*
X155826000Y-88104000D02*
X155826000Y-77756000D01*
X144396000Y-103550000D02*
X164450000Y-103550000D01*
X156750000Y-72410000D02*
X156750000Y-70750000D01*
X151700000Y-75610000D02*
X151635000Y-75545000D01*
X164450000Y-103550000D02*
X167650000Y-100350000D01*
X156750000Y-72410000D02*
X156205000Y-72955000D01*
X153615000Y-75545000D02*
X151635000Y-75545000D01*
X156750000Y-72410000D02*
X157295000Y-72955000D01*
X154080000Y-75080000D02*
X153615000Y-75545000D01*
X162170000Y-90810000D02*
X164462000Y-88518000D01*
X154160000Y-76090000D02*
X154080000Y-76010000D01*
X166750000Y-75000000D02*
X166750000Y-74250000D01*
%TO.N,/-15 V*%
X147825000Y-76753000D02*
X147825000Y-75545000D01*
X139570000Y-98470000D02*
X139570000Y-97962000D01*
X144750000Y-79444888D02*
X140840000Y-79444888D01*
X145350000Y-80044888D02*
X145950000Y-79444888D01*
X145950000Y-79444888D02*
X140840000Y-79444888D01*
X145350000Y-80044888D02*
X144750000Y-79444888D01*
X139570000Y-97962000D02*
X145350000Y-92182000D01*
X145350000Y-92182000D02*
X145350000Y-80044888D01*
X145955112Y-79444888D02*
X145950000Y-79444888D01*
X147825000Y-75545000D02*
X147825000Y-77575000D01*
X147825000Y-77575000D02*
X145955112Y-79444888D01*
%TO.N,/5 V*%
X136014000Y-101137000D02*
X149603000Y-101137000D01*
X139697000Y-86470000D02*
X139697000Y-83611000D01*
X149603000Y-101137000D02*
X152270000Y-98470000D01*
X181650000Y-95810000D02*
X181710000Y-95750000D01*
X128775000Y-75864000D02*
X128775000Y-93898000D01*
X128775000Y-93898000D02*
X136014000Y-101137000D01*
X136689000Y-67950000D02*
X136268000Y-68371000D01*
X136943000Y-67950000D02*
X136689000Y-67950000D01*
X136689000Y-67950000D02*
X128775000Y-75864000D01*
X151000000Y-67250000D02*
X151250000Y-67000000D01*
X161830000Y-68830000D02*
X161830000Y-70750000D01*
X151250000Y-67000000D02*
X160000000Y-67000000D01*
X139697000Y-83611000D02*
X139824000Y-83484000D01*
X160000000Y-67000000D02*
X161830000Y-68830000D01*
%TO.N,/1.8 V*%
X157350000Y-98470000D02*
X151255000Y-92375000D01*
X151255000Y-92375000D02*
X151255000Y-90395000D01*
X151255000Y-90395000D02*
X151255000Y-87295000D01*
X151255000Y-87295000D02*
X149730000Y-85770000D01*
%TO.N,/3.3 V*%
X159890000Y-87710000D02*
X161415000Y-86185000D01*
X159890000Y-93390000D02*
X159890000Y-90810000D01*
X162430000Y-98470000D02*
X162430000Y-95930000D01*
X162430000Y-95930000D02*
X159890000Y-93390000D01*
X159890000Y-90810000D02*
X159890000Y-87710000D01*
%TO.N,/9 V*%
X178330000Y-73420000D02*
X178330000Y-70750000D01*
X166250000Y-97190000D02*
X166250000Y-85500000D01*
X176250000Y-100750000D02*
X182450000Y-100750000D01*
X166250000Y-85500000D02*
X178330000Y-73420000D01*
X164970000Y-98470000D02*
X166250000Y-97190000D01*
X182450000Y-100750000D02*
X190850000Y-109150000D01*
%TO.N,Net-(SW2-B)*%
X192450000Y-84350000D02*
X189850000Y-84350000D01*
X189850000Y-84350000D02*
X187250000Y-81750000D01*
X187250000Y-78750000D02*
X190500000Y-75500000D01*
X187250000Y-81750000D02*
X187250000Y-78750000D01*
%TO.N,Net-(J5-Pin_5)*%
X187450000Y-99150000D02*
X189330000Y-97270000D01*
X171050000Y-101350000D02*
X173250000Y-99150000D01*
X173250000Y-99150000D02*
X187450000Y-99150000D01*
X189330000Y-97270000D02*
X189330000Y-95750000D01*
X171050000Y-102300000D02*
X171050000Y-101350000D01*
%TD*%
%TA.AperFunction,Conductor*%
%TO.N,GND*%
G36*
X153254859Y-76414454D02*
G01*
X153335641Y-76468430D01*
X153468092Y-76600881D01*
X153472794Y-76605713D01*
X153526150Y-76662040D01*
X153536441Y-76670781D01*
X153535821Y-76671510D01*
X153552522Y-76685311D01*
X153977210Y-77109999D01*
X154318792Y-77451580D01*
X154372769Y-77532362D01*
X154391723Y-77627650D01*
X154384104Y-77688775D01*
X154363867Y-77768689D01*
X154363866Y-77768692D01*
X154344700Y-78000000D01*
X154363866Y-78231308D01*
X154363868Y-78231315D01*
X154420508Y-78454979D01*
X154420843Y-78456300D01*
X154442449Y-78505556D01*
X154514074Y-78668846D01*
X154641019Y-78863151D01*
X154641022Y-78863155D01*
X154760947Y-78993428D01*
X154798216Y-79033913D01*
X154879437Y-79097130D01*
X154942991Y-79170612D01*
X154973587Y-79262823D01*
X154975500Y-79293626D01*
X154975500Y-80412030D01*
X154956546Y-80507318D01*
X154902570Y-80588100D01*
X154821788Y-80642076D01*
X154726500Y-80661030D01*
X154631212Y-80642076D01*
X154550430Y-80588100D01*
X154532428Y-80568033D01*
X154509947Y-80540066D01*
X154509944Y-80540063D01*
X154509941Y-80540059D01*
X154506585Y-80537362D01*
X154365755Y-80424158D01*
X154365753Y-80424157D01*
X154200024Y-80341963D01*
X154105579Y-80318476D01*
X154020497Y-80297317D01*
X154020493Y-80297316D01*
X154020484Y-80297315D01*
X153978984Y-80294501D01*
X153978959Y-80294500D01*
X153978956Y-80294500D01*
X148531044Y-80294500D01*
X148531040Y-80294500D01*
X148531015Y-80294501D01*
X148489515Y-80297315D01*
X148489504Y-80297316D01*
X148489503Y-80297317D01*
X148429661Y-80312199D01*
X148309975Y-80341963D01*
X148144246Y-80424157D01*
X148144244Y-80424158D01*
X148000063Y-80540055D01*
X148000055Y-80540063D01*
X147884158Y-80684244D01*
X147884157Y-80684246D01*
X147801963Y-80849975D01*
X147757317Y-81029504D01*
X147757315Y-81029515D01*
X147754501Y-81071015D01*
X147754500Y-81071047D01*
X147754500Y-87118952D01*
X147754501Y-87118984D01*
X147757315Y-87160484D01*
X147757316Y-87160493D01*
X147757317Y-87160497D01*
X147774458Y-87229422D01*
X147801963Y-87340024D01*
X147884157Y-87505753D01*
X147884158Y-87505755D01*
X147971437Y-87614334D01*
X148000059Y-87649941D01*
X148023682Y-87668930D01*
X148144244Y-87765841D01*
X148144246Y-87765842D01*
X148309977Y-87848037D01*
X148489503Y-87892683D01*
X148489513Y-87892683D01*
X148489515Y-87892684D01*
X148524698Y-87895069D01*
X148531044Y-87895500D01*
X148531046Y-87895500D01*
X150155500Y-87895500D01*
X150250788Y-87914454D01*
X150331570Y-87968430D01*
X150385546Y-88049212D01*
X150404500Y-88144500D01*
X150404500Y-88736788D01*
X150385546Y-88832076D01*
X150331570Y-88912858D01*
X150311507Y-88930857D01*
X150300065Y-88940054D01*
X150300055Y-88940064D01*
X150242517Y-89011645D01*
X150168045Y-89074038D01*
X150075365Y-89103183D01*
X149978586Y-89094643D01*
X149892442Y-89049716D01*
X149872374Y-89031713D01*
X149793345Y-88952684D01*
X149793341Y-88952681D01*
X149644121Y-88860641D01*
X149644120Y-88860640D01*
X149477701Y-88805495D01*
X149477694Y-88805494D01*
X149374981Y-88795000D01*
X149225001Y-88795000D01*
X149225000Y-88795001D01*
X149225000Y-91994998D01*
X149225001Y-91994999D01*
X149374968Y-91994999D01*
X149374984Y-91994998D01*
X149477699Y-91984505D01*
X149477702Y-91984504D01*
X149644119Y-91929359D01*
X149644121Y-91929358D01*
X149793341Y-91837318D01*
X149793344Y-91837316D01*
X149872373Y-91758287D01*
X149953155Y-91704311D01*
X150048443Y-91685356D01*
X150143731Y-91704309D01*
X150224513Y-91758285D01*
X150242516Y-91778353D01*
X150300060Y-91849940D01*
X150311502Y-91859137D01*
X150373894Y-91933607D01*
X150403040Y-92026287D01*
X150404500Y-92053210D01*
X150404500Y-92330309D01*
X150403679Y-92350515D01*
X150399799Y-92398165D01*
X150399799Y-92398172D01*
X150410276Y-92475075D01*
X150411095Y-92481764D01*
X150419484Y-92558904D01*
X150421969Y-92570192D01*
X150424775Y-92581475D01*
X150451536Y-92654320D01*
X150453773Y-92660673D01*
X150478557Y-92734227D01*
X150483417Y-92744732D01*
X150488567Y-92755114D01*
X150488568Y-92755116D01*
X150518070Y-92801272D01*
X150530364Y-92820505D01*
X150533906Y-92826216D01*
X150573665Y-92892296D01*
X150573931Y-92892737D01*
X150580935Y-92901951D01*
X150588197Y-92910986D01*
X150643092Y-92965881D01*
X150647794Y-92970713D01*
X150701150Y-93027040D01*
X150711441Y-93035781D01*
X150710821Y-93036510D01*
X150727520Y-93050309D01*
X155826570Y-98149358D01*
X155880546Y-98230140D01*
X155899500Y-98325428D01*
X155899500Y-99359360D01*
X155899501Y-99359362D01*
X155914955Y-99476761D01*
X155940537Y-99538521D01*
X155975464Y-99622841D01*
X155975465Y-99622843D01*
X155975466Y-99622844D01*
X156067995Y-99743431D01*
X156071718Y-99748282D01*
X156071722Y-99748285D01*
X156071723Y-99748286D01*
X156143741Y-99803547D01*
X156197159Y-99844536D01*
X156343238Y-99905044D01*
X156460639Y-99920500D01*
X158239360Y-99920499D01*
X158356762Y-99905044D01*
X158502841Y-99844536D01*
X158628282Y-99748282D01*
X158724536Y-99622841D01*
X158724535Y-99622841D01*
X158734471Y-99609894D01*
X158736545Y-99611485D01*
X158784618Y-99556655D01*
X158871748Y-99513672D01*
X158968694Y-99507305D01*
X159060697Y-99538521D01*
X159079048Y-99550210D01*
X159212423Y-99643600D01*
X159426511Y-99743431D01*
X159640000Y-99800635D01*
X159640000Y-98905501D01*
X159747685Y-98954680D01*
X159854237Y-98970000D01*
X159925763Y-98970000D01*
X160032315Y-98954680D01*
X160140000Y-98905501D01*
X160140000Y-99800635D01*
X160353488Y-99743431D01*
X160567576Y-99643600D01*
X160761079Y-99508107D01*
X160917601Y-99351586D01*
X160998382Y-99297609D01*
X161093670Y-99278655D01*
X161188958Y-99297609D01*
X161269740Y-99351585D01*
X161276867Y-99359012D01*
X161281426Y-99363964D01*
X161281429Y-99363969D01*
X161444236Y-99540825D01*
X161633933Y-99688472D01*
X161845344Y-99802882D01*
X162072703Y-99880934D01*
X162309808Y-99920500D01*
X162550192Y-99920500D01*
X162787297Y-99880934D01*
X163014656Y-99802882D01*
X163226067Y-99688472D01*
X163415764Y-99540825D01*
X163516806Y-99431062D01*
X163595285Y-99373796D01*
X163689709Y-99350920D01*
X163785699Y-99365919D01*
X163868642Y-99416511D01*
X163883184Y-99431053D01*
X163925260Y-99476760D01*
X163984229Y-99540818D01*
X163984231Y-99540819D01*
X163984236Y-99540825D01*
X164173933Y-99688472D01*
X164385344Y-99802882D01*
X164612703Y-99880934D01*
X164849808Y-99920500D01*
X165090192Y-99920500D01*
X165327297Y-99880934D01*
X165554656Y-99802882D01*
X165766067Y-99688472D01*
X165955764Y-99540825D01*
X166118571Y-99363969D01*
X166250049Y-99162728D01*
X166322472Y-98997619D01*
X166378107Y-98917971D01*
X166459986Y-98865676D01*
X166555646Y-98848695D01*
X166650522Y-98869614D01*
X166730171Y-98925249D01*
X166782466Y-99007128D01*
X166799500Y-99097642D01*
X166799500Y-99894571D01*
X166780546Y-99989859D01*
X166726570Y-100070641D01*
X164170641Y-102626570D01*
X164089859Y-102680546D01*
X163994571Y-102699500D01*
X145625849Y-102699500D01*
X145530561Y-102680546D01*
X145449779Y-102626570D01*
X145442654Y-102619143D01*
X145347785Y-102516088D01*
X145347779Y-102516083D01*
X145241029Y-102432996D01*
X145177475Y-102359512D01*
X145146880Y-102267300D01*
X145153902Y-102170399D01*
X145197472Y-102083561D01*
X145270956Y-102020007D01*
X145363168Y-101989412D01*
X145393968Y-101987500D01*
X149558310Y-101987500D01*
X149578516Y-101988321D01*
X149584205Y-101988784D01*
X149626167Y-101992201D01*
X149703098Y-101981718D01*
X149709685Y-101980911D01*
X149786910Y-101972514D01*
X149786911Y-101972513D01*
X149798217Y-101970024D01*
X149809461Y-101967227D01*
X149809468Y-101967227D01*
X149872565Y-101944046D01*
X149882321Y-101940462D01*
X149888681Y-101938223D01*
X149923567Y-101926468D01*
X149962221Y-101913444D01*
X149962230Y-101913438D01*
X149972754Y-101908570D01*
X149983104Y-101903436D01*
X149983116Y-101903432D01*
X150048570Y-101861593D01*
X150054209Y-101858096D01*
X150120736Y-101818070D01*
X150120746Y-101818059D01*
X150129942Y-101811071D01*
X150138978Y-101803806D01*
X150138989Y-101803800D01*
X150193893Y-101748893D01*
X150198650Y-101744263D01*
X150255041Y-101690849D01*
X150255043Y-101690844D01*
X150263781Y-101680558D01*
X150264514Y-101681181D01*
X150278311Y-101664475D01*
X151949358Y-99993429D01*
X152030140Y-99939453D01*
X152125428Y-99920499D01*
X153159361Y-99920499D01*
X153159361Y-99920498D01*
X153276762Y-99905044D01*
X153422841Y-99844536D01*
X153548282Y-99748282D01*
X153644536Y-99622841D01*
X153705044Y-99476762D01*
X153720500Y-99359361D01*
X153720499Y-97580640D01*
X153705044Y-97463238D01*
X153644536Y-97317159D01*
X153594178Y-97251531D01*
X153548286Y-97191723D01*
X153548285Y-97191722D01*
X153548282Y-97191718D01*
X153548277Y-97191714D01*
X153548276Y-97191713D01*
X153422844Y-97095466D01*
X153422843Y-97095465D01*
X153422841Y-97095464D01*
X153276762Y-97034956D01*
X153276760Y-97034955D01*
X153159362Y-97019500D01*
X151380639Y-97019500D01*
X151380637Y-97019501D01*
X151263238Y-97034955D01*
X151154475Y-97080006D01*
X151117159Y-97095464D01*
X151117158Y-97095464D01*
X151117155Y-97095466D01*
X150991723Y-97191713D01*
X150991716Y-97191720D01*
X150941499Y-97257165D01*
X150868454Y-97321223D01*
X150776455Y-97352453D01*
X150679508Y-97346098D01*
X150592372Y-97303128D01*
X150591014Y-97302078D01*
X150526072Y-97251531D01*
X150526068Y-97251528D01*
X150526067Y-97251528D01*
X150415539Y-97191713D01*
X150314655Y-97137117D01*
X150087297Y-97059066D01*
X150087294Y-97059065D01*
X149850192Y-97019500D01*
X149609808Y-97019500D01*
X149372705Y-97059065D01*
X149372702Y-97059066D01*
X149145344Y-97137117D01*
X148933931Y-97251529D01*
X148855907Y-97312258D01*
X148744236Y-97399175D01*
X148744234Y-97399176D01*
X148744234Y-97399177D01*
X148744228Y-97399182D01*
X148576866Y-97580987D01*
X148498384Y-97638256D01*
X148403961Y-97661131D01*
X148307971Y-97646131D01*
X148225028Y-97595539D01*
X148217601Y-97588414D01*
X148061076Y-97431889D01*
X147867576Y-97296399D01*
X147653484Y-97196566D01*
X147440001Y-97139363D01*
X147440000Y-97139364D01*
X147440000Y-98034498D01*
X147332315Y-97985320D01*
X147225763Y-97970000D01*
X147154237Y-97970000D01*
X147047685Y-97985320D01*
X146940000Y-98034498D01*
X146940000Y-97139364D01*
X146939998Y-97139363D01*
X146726516Y-97196566D01*
X146726505Y-97196570D01*
X146512428Y-97296396D01*
X146512420Y-97296400D01*
X146318923Y-97431889D01*
X146151889Y-97598923D01*
X146016400Y-97792420D01*
X146016396Y-97792428D01*
X145916570Y-98006505D01*
X145916566Y-98006516D01*
X145859363Y-98219998D01*
X145859364Y-98220000D01*
X146756314Y-98220000D01*
X146730507Y-98260156D01*
X146690000Y-98398111D01*
X146690000Y-98541889D01*
X146730507Y-98679844D01*
X146756314Y-98720000D01*
X145859364Y-98720000D01*
X145859363Y-98720001D01*
X145916566Y-98933483D01*
X145916566Y-98933485D01*
X146016399Y-99147576D01*
X146151889Y-99341076D01*
X146318923Y-99508110D01*
X146512423Y-99643600D01*
X146726510Y-99743431D01*
X146926374Y-99796984D01*
X147013509Y-99839955D01*
X147077568Y-99913000D01*
X147108798Y-100004999D01*
X147102444Y-100101946D01*
X147059473Y-100189081D01*
X146986428Y-100253140D01*
X146894429Y-100284370D01*
X146861928Y-100286500D01*
X143420393Y-100286500D01*
X143325105Y-100267546D01*
X143244323Y-100213570D01*
X143190347Y-100132788D01*
X143171393Y-100037500D01*
X143190347Y-99942212D01*
X143244323Y-99861430D01*
X143268811Y-99839955D01*
X143280393Y-99831068D01*
X143388282Y-99748282D01*
X143484536Y-99622841D01*
X143545044Y-99476762D01*
X143560500Y-99359361D01*
X143560499Y-97580640D01*
X143545044Y-97463238D01*
X143484536Y-97317159D01*
X143434178Y-97251531D01*
X143388286Y-97191723D01*
X143388285Y-97191722D01*
X143388282Y-97191718D01*
X143388277Y-97191714D01*
X143388276Y-97191713D01*
X143262844Y-97095466D01*
X143262843Y-97095465D01*
X143262841Y-97095464D01*
X143116762Y-97034956D01*
X143116760Y-97034955D01*
X142999362Y-97019500D01*
X142999361Y-97019500D01*
X142316428Y-97019500D01*
X142221140Y-97000546D01*
X142140358Y-96946570D01*
X142086382Y-96865788D01*
X142067428Y-96770500D01*
X142086382Y-96675212D01*
X142140358Y-96594430D01*
X144022899Y-94711889D01*
X145919813Y-92814974D01*
X145934659Y-92801289D01*
X145971100Y-92770337D01*
X146018086Y-92708525D01*
X146022218Y-92703242D01*
X146036120Y-92685948D01*
X146070841Y-92642754D01*
X146070844Y-92642746D01*
X146077075Y-92632998D01*
X146083056Y-92623060D01*
X146115643Y-92552622D01*
X146118559Y-92546536D01*
X146153036Y-92477021D01*
X146153038Y-92477009D01*
X146157048Y-92466098D01*
X146160732Y-92455166D01*
X146163787Y-92441287D01*
X146177428Y-92379309D01*
X146178943Y-92372847D01*
X146197684Y-92297495D01*
X146197684Y-92297493D01*
X146199242Y-92286056D01*
X146200500Y-92274495D01*
X146200500Y-92196912D01*
X146200591Y-92190171D01*
X146201307Y-92163734D01*
X146202693Y-92112568D01*
X146202691Y-92112560D01*
X146201597Y-92099110D01*
X146202549Y-92099032D01*
X146200500Y-92077465D01*
X146200500Y-91294984D01*
X147875001Y-91294984D01*
X147885494Y-91397699D01*
X147885495Y-91397702D01*
X147940640Y-91564119D01*
X147940641Y-91564121D01*
X148032681Y-91713341D01*
X148032684Y-91713345D01*
X148156654Y-91837315D01*
X148156658Y-91837318D01*
X148305878Y-91929358D01*
X148305879Y-91929359D01*
X148472298Y-91984504D01*
X148472305Y-91984505D01*
X148575023Y-91994999D01*
X148724999Y-91994998D01*
X148725000Y-91994998D01*
X148725000Y-90645001D01*
X148724999Y-90645000D01*
X147875002Y-90645000D01*
X147875001Y-90645001D01*
X147875001Y-91294984D01*
X146200500Y-91294984D01*
X146200500Y-90144999D01*
X147875000Y-90144999D01*
X147875001Y-90145000D01*
X148724999Y-90145000D01*
X148725000Y-90144999D01*
X148725000Y-88794999D01*
X148575024Y-88795000D01*
X148472300Y-88805494D01*
X148472297Y-88805495D01*
X148305880Y-88860640D01*
X148305878Y-88860641D01*
X148156658Y-88952681D01*
X148156654Y-88952684D01*
X148032684Y-89076654D01*
X148032681Y-89076658D01*
X147940641Y-89225878D01*
X147940640Y-89225879D01*
X147885495Y-89392298D01*
X147885494Y-89392305D01*
X147875000Y-89495018D01*
X147875000Y-90144999D01*
X146200500Y-90144999D01*
X146200500Y-80500315D01*
X146219454Y-80405027D01*
X146273428Y-80324248D01*
X146456198Y-80141477D01*
X146463067Y-80135483D01*
X146462938Y-80135346D01*
X146464003Y-80134336D01*
X146467646Y-80131487D01*
X146480602Y-80120181D01*
X146480576Y-80120149D01*
X146481385Y-80119498D01*
X146481654Y-80119264D01*
X146482071Y-80118946D01*
X146491098Y-80111690D01*
X146491098Y-80111689D01*
X146491101Y-80111688D01*
X146546006Y-80056781D01*
X146550764Y-80052150D01*
X146607153Y-79998737D01*
X146607156Y-79998731D01*
X146615894Y-79988446D01*
X146616627Y-79989069D01*
X146630420Y-79972367D01*
X148394802Y-78207984D01*
X148409664Y-78194285D01*
X148446100Y-78163337D01*
X148493064Y-78101555D01*
X148497201Y-78096263D01*
X148545842Y-78035754D01*
X148545843Y-78035752D01*
X148552057Y-78026029D01*
X148558050Y-78016069D01*
X148558054Y-78016064D01*
X148588774Y-77949663D01*
X148590645Y-77945619D01*
X148593560Y-77939535D01*
X148603881Y-77918725D01*
X148628036Y-77870021D01*
X148628038Y-77870010D01*
X148632052Y-77859086D01*
X148635732Y-77848166D01*
X148638620Y-77835044D01*
X148652428Y-77772309D01*
X148653943Y-77765847D01*
X148672684Y-77690495D01*
X148672684Y-77690493D01*
X148674242Y-77679056D01*
X148675500Y-77667495D01*
X148675500Y-77589912D01*
X148675591Y-77583171D01*
X148676412Y-77552844D01*
X148677693Y-77505568D01*
X148677691Y-77505560D01*
X148676597Y-77492110D01*
X148677549Y-77492032D01*
X148675500Y-77470465D01*
X148675500Y-77369499D01*
X148694454Y-77274211D01*
X148748430Y-77193429D01*
X148829212Y-77139453D01*
X148924495Y-77120499D01*
X149295008Y-77120499D01*
X149397797Y-77109999D01*
X149564334Y-77054814D01*
X149599282Y-77033257D01*
X149690331Y-76999366D01*
X149787422Y-77002897D01*
X149860716Y-77033257D01*
X149895666Y-77054814D01*
X149895668Y-77054815D01*
X150056570Y-77108132D01*
X150062203Y-77109999D01*
X150164991Y-77120500D01*
X150565008Y-77120499D01*
X150667797Y-77109999D01*
X150834334Y-77054814D01*
X150869282Y-77033257D01*
X150960331Y-76999366D01*
X151057422Y-77002897D01*
X151130716Y-77033257D01*
X151165666Y-77054814D01*
X151165668Y-77054815D01*
X151326570Y-77108132D01*
X151332203Y-77109999D01*
X151434991Y-77120500D01*
X151835008Y-77120499D01*
X151937797Y-77109999D01*
X152104334Y-77054814D01*
X152253656Y-76962712D01*
X152377712Y-76838656D01*
X152469814Y-76689334D01*
X152498340Y-76603249D01*
X152510624Y-76566178D01*
X152558588Y-76481689D01*
X152635234Y-76421985D01*
X152728893Y-76396158D01*
X152746985Y-76395500D01*
X153159571Y-76395500D01*
X153254859Y-76414454D01*
G37*
%TD.AperFunction*%
%TA.AperFunction,Conductor*%
G36*
X156931626Y-88260783D02*
G01*
X156931876Y-88259779D01*
X156943161Y-88262585D01*
X156944182Y-88262745D01*
X156944347Y-88262806D01*
X156944973Y-88263036D01*
X156944976Y-88263036D01*
X156944977Y-88263037D01*
X157124503Y-88307683D01*
X157124513Y-88307683D01*
X157124515Y-88307684D01*
X157159698Y-88310069D01*
X157166044Y-88310500D01*
X157166046Y-88310500D01*
X158790500Y-88310500D01*
X158885788Y-88329454D01*
X158966570Y-88383430D01*
X159020546Y-88464212D01*
X159039500Y-88559500D01*
X159039500Y-89151788D01*
X159020546Y-89247076D01*
X158966570Y-89327858D01*
X158946507Y-89345857D01*
X158935065Y-89355054D01*
X158935055Y-89355064D01*
X158877517Y-89426645D01*
X158803045Y-89489038D01*
X158710365Y-89518183D01*
X158613586Y-89509643D01*
X158527442Y-89464716D01*
X158507374Y-89446713D01*
X158428345Y-89367684D01*
X158428341Y-89367681D01*
X158279121Y-89275641D01*
X158279120Y-89275640D01*
X158112701Y-89220495D01*
X158112694Y-89220494D01*
X158009981Y-89210000D01*
X157860001Y-89210000D01*
X157860000Y-89210001D01*
X157860000Y-92409998D01*
X157860001Y-92409999D01*
X158009968Y-92409999D01*
X158009984Y-92409998D01*
X158112699Y-92399505D01*
X158112702Y-92399504D01*
X158279119Y-92344359D01*
X158279121Y-92344358D01*
X158428341Y-92252318D01*
X158428344Y-92252316D01*
X158507373Y-92173287D01*
X158588155Y-92119311D01*
X158683443Y-92100356D01*
X158778731Y-92119309D01*
X158859513Y-92173285D01*
X158877516Y-92193353D01*
X158935060Y-92264940D01*
X158946502Y-92274137D01*
X159008894Y-92348607D01*
X159038040Y-92441287D01*
X159039500Y-92468210D01*
X159039500Y-93345309D01*
X159038679Y-93365515D01*
X159034799Y-93413165D01*
X159034799Y-93413172D01*
X159045276Y-93490075D01*
X159046095Y-93496764D01*
X159054484Y-93573904D01*
X159056969Y-93585192D01*
X159059775Y-93596475D01*
X159086536Y-93669320D01*
X159088773Y-93675673D01*
X159113557Y-93749227D01*
X159118417Y-93759732D01*
X159123567Y-93770114D01*
X159165364Y-93835505D01*
X159168919Y-93841236D01*
X159208931Y-93907737D01*
X159215935Y-93916951D01*
X159223197Y-93925986D01*
X159278092Y-93980881D01*
X159282794Y-93985713D01*
X159336150Y-94042040D01*
X159346441Y-94050781D01*
X159345821Y-94051510D01*
X159362520Y-94065309D01*
X161506570Y-96209359D01*
X161560546Y-96290141D01*
X161579500Y-96385429D01*
X161579500Y-97172165D01*
X161560546Y-97267453D01*
X161506570Y-97348235D01*
X161483441Y-97368659D01*
X161444243Y-97399168D01*
X161444234Y-97399176D01*
X161276866Y-97580987D01*
X161198384Y-97638256D01*
X161103961Y-97661131D01*
X161007971Y-97646131D01*
X160925028Y-97595539D01*
X160917601Y-97588414D01*
X160761076Y-97431889D01*
X160567576Y-97296399D01*
X160353484Y-97196566D01*
X160140001Y-97139363D01*
X160140000Y-97139364D01*
X160140000Y-98034498D01*
X160032315Y-97985320D01*
X159925763Y-97970000D01*
X159854237Y-97970000D01*
X159747685Y-97985320D01*
X159640000Y-98034498D01*
X159640000Y-97139364D01*
X159639998Y-97139363D01*
X159426516Y-97196566D01*
X159426505Y-97196570D01*
X159212428Y-97296396D01*
X159212414Y-97296404D01*
X159079047Y-97389789D01*
X158990120Y-97428918D01*
X158892988Y-97431037D01*
X158802439Y-97395824D01*
X158732258Y-97328640D01*
X158726938Y-97320289D01*
X158628286Y-97191723D01*
X158628285Y-97191722D01*
X158628282Y-97191718D01*
X158628277Y-97191714D01*
X158628276Y-97191713D01*
X158502844Y-97095466D01*
X158502843Y-97095465D01*
X158502841Y-97095464D01*
X158356762Y-97034956D01*
X158356760Y-97034955D01*
X158239362Y-97019500D01*
X158239361Y-97019500D01*
X157205429Y-97019500D01*
X157110141Y-97000546D01*
X157029359Y-96946570D01*
X152457838Y-92375049D01*
X152403862Y-92294267D01*
X152384908Y-92198979D01*
X152403862Y-92103691D01*
X152457838Y-92022909D01*
X152538620Y-91968933D01*
X152633908Y-91949979D01*
X152729196Y-91968933D01*
X152744534Y-91975903D01*
X152889979Y-92048037D01*
X153069505Y-92092683D01*
X153069515Y-92092683D01*
X153069517Y-92092684D01*
X153104700Y-92095069D01*
X153111046Y-92095500D01*
X153111050Y-92095500D01*
X153958950Y-92095500D01*
X153958954Y-92095500D01*
X153978108Y-92094201D01*
X154000482Y-92092684D01*
X154000483Y-92092683D01*
X154000495Y-92092683D01*
X154180021Y-92048037D01*
X154180022Y-92048036D01*
X154180024Y-92048036D01*
X154180025Y-92048035D01*
X154231086Y-92022711D01*
X154345753Y-91965842D01*
X154489940Y-91849940D01*
X154602441Y-91709984D01*
X156510001Y-91709984D01*
X156520494Y-91812699D01*
X156520495Y-91812702D01*
X156575640Y-91979119D01*
X156575641Y-91979121D01*
X156667681Y-92128341D01*
X156667684Y-92128345D01*
X156791654Y-92252315D01*
X156791658Y-92252318D01*
X156940878Y-92344358D01*
X156940879Y-92344359D01*
X157107298Y-92399504D01*
X157107305Y-92399505D01*
X157210023Y-92409999D01*
X157359999Y-92409998D01*
X157360000Y-92409998D01*
X157360000Y-91060001D01*
X157359999Y-91060000D01*
X156510002Y-91060000D01*
X156510001Y-91060001D01*
X156510001Y-91709984D01*
X154602441Y-91709984D01*
X154605842Y-91705753D01*
X154688037Y-91540021D01*
X154732683Y-91360495D01*
X154735500Y-91318954D01*
X154735500Y-90559999D01*
X156510000Y-90559999D01*
X156510001Y-90560000D01*
X157359999Y-90560000D01*
X157360000Y-90559999D01*
X157360000Y-89209999D01*
X157210024Y-89210000D01*
X157107300Y-89220494D01*
X157107297Y-89220495D01*
X156940880Y-89275640D01*
X156940878Y-89275641D01*
X156791658Y-89367681D01*
X156791654Y-89367684D01*
X156667684Y-89491654D01*
X156667681Y-89491658D01*
X156575641Y-89640878D01*
X156575640Y-89640879D01*
X156520495Y-89807298D01*
X156520494Y-89807305D01*
X156510000Y-89910018D01*
X156510000Y-90559999D01*
X154735500Y-90559999D01*
X154735500Y-90500428D01*
X154754454Y-90405140D01*
X154808428Y-90324360D01*
X156395813Y-88736974D01*
X156410659Y-88723289D01*
X156447100Y-88692337D01*
X156494086Y-88630525D01*
X156498218Y-88625242D01*
X156546841Y-88564754D01*
X156546844Y-88564746D01*
X156553075Y-88554998D01*
X156559056Y-88545060D01*
X156591643Y-88474622D01*
X156594559Y-88468536D01*
X156596704Y-88464212D01*
X156629036Y-88399021D01*
X156629036Y-88399018D01*
X156635036Y-88386922D01*
X156638294Y-88388538D01*
X156675287Y-88327891D01*
X156753769Y-88270622D01*
X156848192Y-88247746D01*
X156931626Y-88260783D01*
G37*
%TD.AperFunction*%
%TA.AperFunction,Conductor*%
G36*
X176040000Y-72228365D02*
G01*
X176147786Y-72210380D01*
X176147789Y-72210379D01*
X176375465Y-72132217D01*
X176375467Y-72132216D01*
X176587159Y-72017656D01*
X176777118Y-71869803D01*
X176777128Y-71869794D01*
X176808519Y-71835695D01*
X176887000Y-71778425D01*
X176981424Y-71755549D01*
X177077414Y-71770548D01*
X177160357Y-71821139D01*
X177178094Y-71839218D01*
X177250694Y-71921166D01*
X177250696Y-71921168D01*
X177250699Y-71921171D01*
X177387979Y-72033256D01*
X177449802Y-72108201D01*
X177478239Y-72201101D01*
X177479500Y-72226132D01*
X177479500Y-72964570D01*
X177460546Y-73059858D01*
X177406570Y-73140640D01*
X165737570Y-84809640D01*
X165656788Y-84863616D01*
X165561500Y-84882570D01*
X165466212Y-84863616D01*
X165385430Y-84809640D01*
X165331454Y-84728858D01*
X165312500Y-84633570D01*
X165312500Y-78993428D01*
X165331454Y-78898140D01*
X165385430Y-78817358D01*
X166352290Y-77850498D01*
X167319811Y-76882976D01*
X167334654Y-76869293D01*
X167371100Y-76838337D01*
X167418090Y-76776520D01*
X167422186Y-76771281D01*
X167470842Y-76710753D01*
X167470845Y-76710746D01*
X167477063Y-76701018D01*
X167483047Y-76691072D01*
X167483054Y-76691064D01*
X167515672Y-76620558D01*
X167518511Y-76614632D01*
X167553037Y-76545021D01*
X167553037Y-76545017D01*
X167557037Y-76534129D01*
X167560728Y-76523174D01*
X167560732Y-76523167D01*
X167577433Y-76447289D01*
X167578933Y-76440890D01*
X167597684Y-76365494D01*
X167597684Y-76365486D01*
X167599244Y-76354041D01*
X167600500Y-76342495D01*
X167600500Y-76264911D01*
X167600591Y-76258170D01*
X167602693Y-76180568D01*
X167602691Y-76180560D01*
X167601597Y-76167110D01*
X167602549Y-76167032D01*
X167600500Y-76145465D01*
X167600500Y-75044690D01*
X167601321Y-75024484D01*
X167604694Y-74983054D01*
X167605201Y-74976833D01*
X167602779Y-74959055D01*
X167600500Y-74925443D01*
X167600500Y-74705429D01*
X167619454Y-74610141D01*
X167673430Y-74529359D01*
X170529359Y-71673430D01*
X170610141Y-71619454D01*
X170705429Y-71600500D01*
X171453770Y-71600500D01*
X171549058Y-71619454D01*
X171629840Y-71673430D01*
X171683816Y-71754212D01*
X171700639Y-71817000D01*
X171702440Y-71830680D01*
X171712455Y-71906761D01*
X171718422Y-71921166D01*
X171772964Y-72052841D01*
X171772965Y-72052843D01*
X171772966Y-72052844D01*
X171863246Y-72170500D01*
X171869218Y-72178282D01*
X171869222Y-72178285D01*
X171869223Y-72178286D01*
X171937451Y-72230639D01*
X171994659Y-72274536D01*
X172140738Y-72335044D01*
X172258139Y-72350500D01*
X174241860Y-72350499D01*
X174359262Y-72335044D01*
X174505341Y-72274536D01*
X174630782Y-72178282D01*
X174694821Y-72094823D01*
X174767865Y-72030765D01*
X174859863Y-71999535D01*
X174956810Y-72005889D01*
X175010876Y-72027416D01*
X175204533Y-72132216D01*
X175204534Y-72132217D01*
X175432210Y-72210379D01*
X175432213Y-72210380D01*
X175540000Y-72228366D01*
X175540000Y-71241683D01*
X175568819Y-71259209D01*
X175714404Y-71300000D01*
X175827622Y-71300000D01*
X175939783Y-71284584D01*
X176040000Y-71241053D01*
X176040000Y-72228365D01*
G37*
%TD.AperFunction*%
%TA.AperFunction,Conductor*%
G36*
X156934859Y-73824454D02*
G01*
X157015640Y-73878430D01*
X157957010Y-74819799D01*
X157970720Y-74834671D01*
X158001662Y-74871099D01*
X158001663Y-74871100D01*
X158063458Y-74918076D01*
X158068769Y-74922228D01*
X158129247Y-74970842D01*
X158129253Y-74970845D01*
X158139006Y-74977079D01*
X158148933Y-74983052D01*
X158148936Y-74983054D01*
X158219407Y-75015657D01*
X158225419Y-75018538D01*
X158294979Y-75053037D01*
X158294983Y-75053038D01*
X158305867Y-75057036D01*
X158316822Y-75060727D01*
X158316833Y-75060732D01*
X158392655Y-75077421D01*
X158399142Y-75078941D01*
X158474506Y-75097684D01*
X158474507Y-75097684D01*
X158485969Y-75099245D01*
X158497501Y-75100499D01*
X158497503Y-75100500D01*
X158575088Y-75100500D01*
X158581829Y-75100591D01*
X158583065Y-75100624D01*
X158659433Y-75102693D01*
X158659441Y-75102691D01*
X158672891Y-75101597D01*
X158672968Y-75102550D01*
X158694535Y-75100500D01*
X165544571Y-75100500D01*
X165639859Y-75119454D01*
X165720641Y-75173430D01*
X165826570Y-75279359D01*
X165880546Y-75360141D01*
X165899500Y-75455429D01*
X165899500Y-75794570D01*
X165880546Y-75889858D01*
X165826570Y-75970640D01*
X163892190Y-77905019D01*
X163877322Y-77918725D01*
X163840900Y-77949662D01*
X163793954Y-78011417D01*
X163789807Y-78016721D01*
X163741163Y-78077238D01*
X163734936Y-78086980D01*
X163728943Y-78096941D01*
X163696353Y-78167381D01*
X163693444Y-78173451D01*
X163658961Y-78242984D01*
X163654960Y-78253872D01*
X163651268Y-78264830D01*
X163634587Y-78340613D01*
X163633049Y-78347175D01*
X163614315Y-78422506D01*
X163612758Y-78433926D01*
X163611500Y-78445506D01*
X163611500Y-78523086D01*
X163611409Y-78529826D01*
X163609307Y-78607436D01*
X163610403Y-78620895D01*
X163609449Y-78620972D01*
X163611500Y-78642537D01*
X163611500Y-80828274D01*
X163592546Y-80923562D01*
X163538570Y-81004344D01*
X163457788Y-81058320D01*
X163362500Y-81077274D01*
X163267212Y-81058320D01*
X163186430Y-81004344D01*
X163168428Y-80984277D01*
X163144947Y-80955066D01*
X163144945Y-80955064D01*
X163144941Y-80955059D01*
X163103499Y-80921747D01*
X163000755Y-80839158D01*
X163000753Y-80839157D01*
X162835024Y-80756963D01*
X162775181Y-80742081D01*
X162655497Y-80712317D01*
X162655493Y-80712316D01*
X162655484Y-80712315D01*
X162613984Y-80709501D01*
X162613959Y-80709500D01*
X162613956Y-80709500D01*
X157166044Y-80709500D01*
X157166040Y-80709500D01*
X157166015Y-80709501D01*
X157124515Y-80712315D01*
X157124501Y-80712317D01*
X156985592Y-80746862D01*
X156888546Y-80751465D01*
X156797126Y-80718579D01*
X156725250Y-80653212D01*
X156683860Y-80565314D01*
X156676500Y-80505222D01*
X156676500Y-79158538D01*
X156695454Y-79063250D01*
X156742302Y-78989898D01*
X156858979Y-78863153D01*
X156985924Y-78668849D01*
X157079157Y-78456300D01*
X157136134Y-78231305D01*
X157155300Y-78000000D01*
X157136134Y-77768695D01*
X157079157Y-77543700D01*
X156985924Y-77331151D01*
X156895946Y-77193429D01*
X156858980Y-77136848D01*
X156858977Y-77136844D01*
X156701785Y-76966088D01*
X156701779Y-76966083D01*
X156518628Y-76823531D01*
X156314507Y-76713065D01*
X156094985Y-76637703D01*
X156094979Y-76637701D01*
X155952217Y-76613878D01*
X155861349Y-76579498D01*
X155817133Y-76544344D01*
X155003430Y-75730641D01*
X154949454Y-75649859D01*
X154930500Y-75554571D01*
X154930500Y-75535428D01*
X154949454Y-75440140D01*
X155003430Y-75359358D01*
X156484358Y-73878430D01*
X156565140Y-73824454D01*
X156660428Y-73805500D01*
X156839571Y-73805500D01*
X156934859Y-73824454D01*
G37*
%TD.AperFunction*%
%TA.AperFunction,Conductor*%
G36*
X159639859Y-67869454D02*
G01*
X159720641Y-67923430D01*
X160898529Y-69101317D01*
X160952505Y-69182099D01*
X160971459Y-69277387D01*
X160952505Y-69372675D01*
X160898529Y-69453457D01*
X160863912Y-69482306D01*
X160844617Y-69495625D01*
X160668496Y-69664792D01*
X160661112Y-69671884D01*
X160579260Y-69724222D01*
X160483610Y-69741254D01*
X160388723Y-69720384D01*
X160309044Y-69664792D01*
X160305430Y-69660948D01*
X160277131Y-69630207D01*
X160277118Y-69630196D01*
X160087159Y-69482343D01*
X159875467Y-69367783D01*
X159875465Y-69367782D01*
X159647790Y-69289620D01*
X159647785Y-69289619D01*
X159540000Y-69271632D01*
X159540000Y-70258316D01*
X159511181Y-70240791D01*
X159365596Y-70200000D01*
X159252378Y-70200000D01*
X159140217Y-70215416D01*
X159040000Y-70258946D01*
X159040000Y-69271633D01*
X159039999Y-69271632D01*
X158932214Y-69289619D01*
X158932209Y-69289620D01*
X158704535Y-69367781D01*
X158510875Y-69472584D01*
X158418050Y-69501266D01*
X158321315Y-69492242D01*
X158235397Y-69446886D01*
X158194821Y-69405175D01*
X158130786Y-69321723D01*
X158130785Y-69321722D01*
X158130782Y-69321718D01*
X158130777Y-69321714D01*
X158130776Y-69321713D01*
X158005344Y-69225466D01*
X158005343Y-69225465D01*
X158005341Y-69225464D01*
X157868347Y-69168719D01*
X157859260Y-69164955D01*
X157741862Y-69149500D01*
X155758139Y-69149500D01*
X155758137Y-69149501D01*
X155640738Y-69164955D01*
X155537545Y-69207700D01*
X155494659Y-69225464D01*
X155494658Y-69225464D01*
X155494655Y-69225466D01*
X155369223Y-69321713D01*
X155369213Y-69321723D01*
X155272966Y-69447155D01*
X155272964Y-69447158D01*
X155272964Y-69447159D01*
X155264852Y-69466744D01*
X155212455Y-69593239D01*
X155197000Y-69710637D01*
X155197000Y-71789360D01*
X155197001Y-71789362D01*
X155212455Y-71906761D01*
X155218422Y-71921166D01*
X155272964Y-72052841D01*
X155272965Y-72052843D01*
X155272966Y-72052844D01*
X155363246Y-72170500D01*
X155369218Y-72178282D01*
X155369222Y-72178285D01*
X155369223Y-72178286D01*
X155375787Y-72183323D01*
X155439845Y-72256369D01*
X155471073Y-72348368D01*
X155464718Y-72445315D01*
X155421746Y-72532450D01*
X155400273Y-72556936D01*
X153510190Y-74447019D01*
X153495322Y-74460725D01*
X153458900Y-74491662D01*
X153458897Y-74491665D01*
X153448033Y-74505956D01*
X153425885Y-74531325D01*
X153335640Y-74621570D01*
X153254864Y-74675545D01*
X153159576Y-74694500D01*
X152746986Y-74694500D01*
X152651698Y-74675546D01*
X152570916Y-74621570D01*
X152516940Y-74540788D01*
X152510625Y-74523823D01*
X152476854Y-74421912D01*
X152469814Y-74400666D01*
X152377712Y-74251344D01*
X152253656Y-74127288D01*
X152104334Y-74035186D01*
X152104332Y-74035185D01*
X152104330Y-74035184D01*
X152104332Y-74035184D01*
X151937802Y-73980002D01*
X151937798Y-73980001D01*
X151937797Y-73980001D01*
X151835009Y-73969500D01*
X151835005Y-73969500D01*
X151434993Y-73969500D01*
X151332199Y-73980001D01*
X151165665Y-74035185D01*
X151165664Y-74035186D01*
X151130717Y-74056742D01*
X151039665Y-74090633D01*
X150942575Y-74087101D01*
X150869283Y-74056742D01*
X150834335Y-74035186D01*
X150834332Y-74035184D01*
X150667802Y-73980002D01*
X150667798Y-73980001D01*
X150667797Y-73980001D01*
X150565009Y-73969500D01*
X150565005Y-73969500D01*
X150164993Y-73969500D01*
X150062199Y-73980001D01*
X149895665Y-74035185D01*
X149895664Y-74035186D01*
X149860717Y-74056742D01*
X149769665Y-74090633D01*
X149672575Y-74087101D01*
X149599283Y-74056742D01*
X149564335Y-74035186D01*
X149564334Y-74035185D01*
X149446098Y-73996006D01*
X149361609Y-73948041D01*
X149301906Y-73871395D01*
X149276079Y-73777736D01*
X149288060Y-73681322D01*
X149336025Y-73596833D01*
X149412671Y-73537130D01*
X149446945Y-73524442D01*
X149446740Y-73523884D01*
X149532269Y-73492462D01*
X149538629Y-73490223D01*
X149570353Y-73479533D01*
X149612169Y-73465444D01*
X149612178Y-73465438D01*
X149622702Y-73460570D01*
X149633052Y-73455436D01*
X149633064Y-73455432D01*
X149698518Y-73413593D01*
X149704157Y-73410096D01*
X149770684Y-73370070D01*
X149770694Y-73370059D01*
X149779929Y-73363041D01*
X149788934Y-73355802D01*
X149788934Y-73355801D01*
X149788937Y-73355800D01*
X149843843Y-73300892D01*
X149848601Y-73296261D01*
X149904989Y-73242849D01*
X149904990Y-73242848D01*
X149913729Y-73232559D01*
X149914462Y-73233182D01*
X149928256Y-73216479D01*
X150934814Y-72209921D01*
X150949661Y-72196235D01*
X150981041Y-72169581D01*
X151065936Y-72122342D01*
X151162448Y-72111186D01*
X151220554Y-72123002D01*
X151332203Y-72159999D01*
X151434991Y-72170500D01*
X151835008Y-72170499D01*
X151937797Y-72159999D01*
X152104334Y-72104814D01*
X152253656Y-72012712D01*
X152377712Y-71888656D01*
X152469814Y-71739334D01*
X152524999Y-71572797D01*
X152535500Y-71470009D01*
X152535499Y-69719992D01*
X152524999Y-69617203D01*
X152509983Y-69571889D01*
X152477077Y-69472584D01*
X152469814Y-69450666D01*
X152377712Y-69301344D01*
X152253656Y-69177288D01*
X152251462Y-69175935D01*
X152165157Y-69122702D01*
X152104334Y-69085186D01*
X152104332Y-69085185D01*
X152104330Y-69085184D01*
X152104332Y-69085184D01*
X151937802Y-69030002D01*
X151937798Y-69030001D01*
X151937797Y-69030001D01*
X151886403Y-69024750D01*
X151835011Y-69019500D01*
X151651014Y-69019500D01*
X151555726Y-69000546D01*
X151474944Y-68946570D01*
X151420968Y-68865788D01*
X151402014Y-68770500D01*
X151420968Y-68675212D01*
X151474944Y-68594430D01*
X151555726Y-68540454D01*
X151561228Y-68538372D01*
X151564500Y-68536936D01*
X151564503Y-68536936D01*
X151768626Y-68426470D01*
X151951784Y-68283913D01*
X152108979Y-68113153D01*
X152108981Y-68113151D01*
X152146517Y-68055695D01*
X152206876Y-67963309D01*
X152274860Y-67893906D01*
X152364230Y-67855800D01*
X152415330Y-67850500D01*
X159544571Y-67850500D01*
X159639859Y-67869454D01*
G37*
%TD.AperFunction*%
%TA.AperFunction,Conductor*%
G36*
X195097103Y-63768954D02*
G01*
X195177885Y-63822930D01*
X195231861Y-63903712D01*
X195250813Y-63998182D01*
X195410181Y-112600184D01*
X195391539Y-112695533D01*
X195337828Y-112776491D01*
X195257224Y-112830732D01*
X195161998Y-112849999D01*
X195161182Y-112850000D01*
X126697988Y-112850000D01*
X126602700Y-112831046D01*
X126521918Y-112777070D01*
X126467942Y-112696288D01*
X126448990Y-112602014D01*
X126433300Y-108750000D01*
X127244390Y-108750000D01*
X127264804Y-109035428D01*
X127323800Y-109306631D01*
X127325631Y-109315045D01*
X127425631Y-109583158D01*
X127425633Y-109583161D01*
X127562774Y-109834315D01*
X127734261Y-110063395D01*
X127936605Y-110265739D01*
X128165685Y-110437226D01*
X128416839Y-110574367D01*
X128416841Y-110574368D01*
X128458703Y-110589981D01*
X128684954Y-110674369D01*
X128964572Y-110735196D01*
X129178552Y-110750500D01*
X129178557Y-110750500D01*
X129321443Y-110750500D01*
X129321448Y-110750500D01*
X129535428Y-110735196D01*
X129815046Y-110674369D01*
X130083161Y-110574367D01*
X130334315Y-110437226D01*
X130563395Y-110265739D01*
X130765739Y-110063395D01*
X130937226Y-109834315D01*
X131003528Y-109712893D01*
X154449500Y-109712893D01*
X154464316Y-109901145D01*
X154523126Y-110146108D01*
X154523129Y-110146116D01*
X154619533Y-110378858D01*
X154619537Y-110378864D01*
X154751158Y-110593652D01*
X154751160Y-110593654D01*
X154751163Y-110593657D01*
X154751164Y-110593659D01*
X154914776Y-110785224D01*
X155106341Y-110948836D01*
X155106345Y-110948839D01*
X155106347Y-110948841D01*
X155236125Y-111028368D01*
X155321141Y-111080466D01*
X155553889Y-111176873D01*
X155798852Y-111235683D01*
X155870608Y-111241330D01*
X156049995Y-111255449D01*
X156050000Y-111255449D01*
X156050005Y-111255449D01*
X156206967Y-111243095D01*
X156301148Y-111235683D01*
X156546111Y-111176873D01*
X156778859Y-111080466D01*
X156900974Y-111005633D01*
X156993652Y-110948841D01*
X156993654Y-110948839D01*
X156993653Y-110948839D01*
X156993659Y-110948836D01*
X157185224Y-110785224D01*
X157348836Y-110593659D01*
X157348839Y-110593653D01*
X157348841Y-110593652D01*
X157405633Y-110500974D01*
X157480466Y-110378859D01*
X157576873Y-110146111D01*
X157635683Y-109901148D01*
X157650499Y-109712893D01*
X158449500Y-109712893D01*
X158464316Y-109901145D01*
X158523126Y-110146108D01*
X158523129Y-110146116D01*
X158619533Y-110378858D01*
X158619537Y-110378864D01*
X158751158Y-110593652D01*
X158751160Y-110593654D01*
X158751163Y-110593657D01*
X158751164Y-110593659D01*
X158914776Y-110785224D01*
X159106341Y-110948836D01*
X159106345Y-110948839D01*
X159106347Y-110948841D01*
X159236125Y-111028368D01*
X159321141Y-111080466D01*
X159553889Y-111176873D01*
X159798852Y-111235683D01*
X159870608Y-111241330D01*
X160049995Y-111255449D01*
X160050000Y-111255449D01*
X160050005Y-111255449D01*
X160206967Y-111243095D01*
X160301148Y-111235683D01*
X160546111Y-111176873D01*
X160778859Y-111080466D01*
X160900974Y-111005633D01*
X160993652Y-110948841D01*
X160993654Y-110948839D01*
X160993653Y-110948839D01*
X160993659Y-110948836D01*
X161185224Y-110785224D01*
X161348836Y-110593659D01*
X161348839Y-110593653D01*
X161348841Y-110593652D01*
X161405633Y-110500974D01*
X161480466Y-110378859D01*
X161576873Y-110146111D01*
X161635683Y-109901148D01*
X161650500Y-109712882D01*
X161650500Y-109712041D01*
X162549999Y-109712041D01*
X162565387Y-109897741D01*
X162565389Y-109897748D01*
X162626411Y-110138716D01*
X162651205Y-110195240D01*
X163487226Y-109359219D01*
X163525901Y-109452588D01*
X163622075Y-109577925D01*
X163747412Y-109674099D01*
X163840779Y-109712772D01*
X162918237Y-110635314D01*
X162918236Y-110635315D01*
X163030593Y-110757365D01*
X163226762Y-110910050D01*
X163226769Y-110910055D01*
X163445392Y-111028368D01*
X163680509Y-111109083D01*
X163680512Y-111109084D01*
X163925706Y-111150000D01*
X164174294Y-111150000D01*
X164419487Y-111109084D01*
X164419490Y-111109083D01*
X164654607Y-111028368D01*
X164873230Y-110910055D01*
X164873237Y-110910050D01*
X165069399Y-110757370D01*
X165069411Y-110757360D01*
X165181761Y-110635315D01*
X164259219Y-109712773D01*
X164352588Y-109674099D01*
X164477925Y-109577925D01*
X164574099Y-109452589D01*
X164612773Y-109359220D01*
X165448793Y-110195240D01*
X165448794Y-110195240D01*
X165473587Y-110138720D01*
X165473588Y-110138718D01*
X165534610Y-109897748D01*
X165534612Y-109897741D01*
X165550000Y-109712041D01*
X165550000Y-108750000D01*
X171164390Y-108750000D01*
X171184804Y-109035428D01*
X171243800Y-109306631D01*
X171245631Y-109315045D01*
X171345631Y-109583158D01*
X171345633Y-109583161D01*
X171482774Y-109834315D01*
X171654261Y-110063395D01*
X171856605Y-110265739D01*
X172085685Y-110437226D01*
X172336839Y-110574367D01*
X172336841Y-110574368D01*
X172378703Y-110589981D01*
X172604954Y-110674369D01*
X172884572Y-110735196D01*
X173098552Y-110750500D01*
X173098557Y-110750500D01*
X173241443Y-110750500D01*
X173241448Y-110750500D01*
X173455428Y-110735196D01*
X173735046Y-110674369D01*
X174003161Y-110574367D01*
X174254315Y-110437226D01*
X174483395Y-110265739D01*
X174685739Y-110063395D01*
X174857226Y-109834315D01*
X174923528Y-109712893D01*
X181249500Y-109712893D01*
X181264316Y-109901145D01*
X181323126Y-110146108D01*
X181323129Y-110146116D01*
X181419533Y-110378858D01*
X181419537Y-110378864D01*
X181551158Y-110593652D01*
X181551160Y-110593654D01*
X181551163Y-110593657D01*
X181551164Y-110593659D01*
X181714776Y-110785224D01*
X181906341Y-110948836D01*
X181906345Y-110948839D01*
X181906347Y-110948841D01*
X182036125Y-111028368D01*
X182121141Y-111080466D01*
X182353889Y-111176873D01*
X182598852Y-111235683D01*
X182670608Y-111241330D01*
X182849995Y-111255449D01*
X182850000Y-111255449D01*
X182850005Y-111255449D01*
X183006967Y-111243095D01*
X183101148Y-111235683D01*
X183346111Y-111176873D01*
X183578859Y-111080466D01*
X183700974Y-111005633D01*
X183793652Y-110948841D01*
X183793654Y-110948839D01*
X183793653Y-110948839D01*
X183793659Y-110948836D01*
X183985224Y-110785224D01*
X184148836Y-110593659D01*
X184148839Y-110593653D01*
X184148841Y-110593652D01*
X184205633Y-110500974D01*
X184280466Y-110378859D01*
X184376873Y-110146111D01*
X184435683Y-109901148D01*
X184450500Y-109712882D01*
X184450500Y-108587118D01*
X184435683Y-108398852D01*
X184376873Y-108153889D01*
X184280466Y-107921141D01*
X184254624Y-107878971D01*
X184148841Y-107706347D01*
X184148839Y-107706345D01*
X184114112Y-107665685D01*
X183985224Y-107514776D01*
X183793659Y-107351164D01*
X183793657Y-107351163D01*
X183793654Y-107351160D01*
X183793652Y-107351158D01*
X183578864Y-107219537D01*
X183578858Y-107219533D01*
X183346116Y-107123129D01*
X183346108Y-107123126D01*
X183101145Y-107064316D01*
X182850005Y-107044551D01*
X182849995Y-107044551D01*
X182598854Y-107064316D01*
X182353891Y-107123126D01*
X182353883Y-107123129D01*
X182121141Y-107219533D01*
X182121135Y-107219537D01*
X181906347Y-107351158D01*
X181906345Y-107351160D01*
X181714779Y-107514773D01*
X181714773Y-107514779D01*
X181551160Y-107706345D01*
X181551158Y-107706347D01*
X181419537Y-107921135D01*
X181419533Y-107921141D01*
X181323129Y-108153883D01*
X181323126Y-108153891D01*
X181264316Y-108398854D01*
X181249500Y-108587106D01*
X181249500Y-109712893D01*
X174923528Y-109712893D01*
X174994367Y-109583161D01*
X175094369Y-109315046D01*
X175155196Y-109035428D01*
X175175610Y-108750000D01*
X175155196Y-108464572D01*
X175094369Y-108184954D01*
X174995972Y-107921141D01*
X174994368Y-107916841D01*
X174857224Y-107665682D01*
X174765111Y-107542634D01*
X174685739Y-107436605D01*
X174483395Y-107234261D01*
X174306102Y-107101541D01*
X174254317Y-107062775D01*
X174003158Y-106925631D01*
X173857970Y-106871479D01*
X173735046Y-106825631D01*
X173735047Y-106825631D01*
X173455429Y-106764804D01*
X173241448Y-106749500D01*
X173098552Y-106749500D01*
X173098551Y-106749500D01*
X172884570Y-106764804D01*
X172604954Y-106825631D01*
X172336841Y-106925631D01*
X172085682Y-107062775D01*
X171961797Y-107155515D01*
X171856605Y-107234261D01*
X171856604Y-107234262D01*
X171654262Y-107436604D01*
X171654260Y-107436607D01*
X171482775Y-107665682D01*
X171345631Y-107916841D01*
X171245631Y-108184954D01*
X171198360Y-108402258D01*
X171184804Y-108464572D01*
X171164390Y-108750000D01*
X165550000Y-108750000D01*
X165550000Y-108587958D01*
X165534612Y-108402258D01*
X165534610Y-108402251D01*
X165473588Y-108161284D01*
X165448793Y-108104759D01*
X164612772Y-108940779D01*
X164574099Y-108847412D01*
X164477925Y-108722075D01*
X164352588Y-108625901D01*
X164259219Y-108587226D01*
X165181761Y-107664684D01*
X165069406Y-107542634D01*
X164873237Y-107389949D01*
X164873230Y-107389944D01*
X164654607Y-107271631D01*
X164419490Y-107190916D01*
X164419487Y-107190915D01*
X164174294Y-107150000D01*
X163925706Y-107150000D01*
X163680512Y-107190915D01*
X163680509Y-107190916D01*
X163445392Y-107271631D01*
X163226769Y-107389944D01*
X163226762Y-107389949D01*
X163030593Y-107542634D01*
X163030592Y-107542634D01*
X162918237Y-107664683D01*
X163840780Y-108587226D01*
X163747412Y-108625901D01*
X163622075Y-108722075D01*
X163525901Y-108847411D01*
X163487226Y-108940780D01*
X162651205Y-108104759D01*
X162626411Y-108161285D01*
X162626410Y-108161287D01*
X162565387Y-108402259D01*
X162550000Y-108587958D01*
X162550000Y-109712041D01*
X162549999Y-109712041D01*
X161650500Y-109712041D01*
X161650500Y-108587118D01*
X161635683Y-108398852D01*
X161576873Y-108153889D01*
X161480466Y-107921141D01*
X161454624Y-107878971D01*
X161348841Y-107706347D01*
X161348839Y-107706345D01*
X161314112Y-107665685D01*
X161185224Y-107514776D01*
X160993659Y-107351164D01*
X160993657Y-107351163D01*
X160993654Y-107351160D01*
X160993652Y-107351158D01*
X160778864Y-107219537D01*
X160778858Y-107219533D01*
X160546116Y-107123129D01*
X160546108Y-107123126D01*
X160301145Y-107064316D01*
X160050005Y-107044551D01*
X160049995Y-107044551D01*
X159798854Y-107064316D01*
X159553891Y-107123126D01*
X159553883Y-107123129D01*
X159321141Y-107219533D01*
X159321135Y-107219537D01*
X159106347Y-107351158D01*
X159106345Y-107351160D01*
X158914779Y-107514773D01*
X158914773Y-107514779D01*
X158751160Y-107706345D01*
X158751158Y-107706347D01*
X158619537Y-107921135D01*
X158619533Y-107921141D01*
X158523129Y-108153883D01*
X158523126Y-108153891D01*
X158464316Y-108398854D01*
X158449500Y-108587106D01*
X158449500Y-109712893D01*
X157650499Y-109712893D01*
X157650500Y-109712882D01*
X157650500Y-108587118D01*
X157635683Y-108398852D01*
X157576873Y-108153889D01*
X157480466Y-107921141D01*
X157454624Y-107878971D01*
X157348841Y-107706347D01*
X157348839Y-107706345D01*
X157314112Y-107665685D01*
X157185224Y-107514776D01*
X156993659Y-107351164D01*
X156993657Y-107351163D01*
X156993654Y-107351160D01*
X156993652Y-107351158D01*
X156778864Y-107219537D01*
X156778858Y-107219533D01*
X156546116Y-107123129D01*
X156546108Y-107123126D01*
X156301145Y-107064316D01*
X156050005Y-107044551D01*
X156049995Y-107044551D01*
X155798854Y-107064316D01*
X155553891Y-107123126D01*
X155553883Y-107123129D01*
X155321141Y-107219533D01*
X155321135Y-107219537D01*
X155106347Y-107351158D01*
X155106345Y-107351160D01*
X154914779Y-107514773D01*
X154914773Y-107514779D01*
X154751160Y-107706345D01*
X154751158Y-107706347D01*
X154619537Y-107921135D01*
X154619533Y-107921141D01*
X154523129Y-108153883D01*
X154523126Y-108153891D01*
X154464316Y-108398854D01*
X154449500Y-108587106D01*
X154449500Y-109712893D01*
X131003528Y-109712893D01*
X131074367Y-109583161D01*
X131174369Y-109315046D01*
X131235196Y-109035428D01*
X131255610Y-108750000D01*
X131235196Y-108464572D01*
X131174369Y-108184954D01*
X131075972Y-107921141D01*
X131074368Y-107916841D01*
X130937224Y-107665682D01*
X130845111Y-107542634D01*
X130765739Y-107436605D01*
X130563395Y-107234261D01*
X130386102Y-107101541D01*
X130334317Y-107062775D01*
X130083158Y-106925631D01*
X129937970Y-106871479D01*
X129815046Y-106825631D01*
X129815047Y-106825631D01*
X129535429Y-106764804D01*
X129321448Y-106749500D01*
X129178552Y-106749500D01*
X129178551Y-106749500D01*
X128964570Y-106764804D01*
X128684954Y-106825631D01*
X128416841Y-106925631D01*
X128165682Y-107062775D01*
X128041797Y-107155515D01*
X127936605Y-107234261D01*
X127936604Y-107234262D01*
X127734262Y-107436604D01*
X127734260Y-107436607D01*
X127562775Y-107665682D01*
X127425631Y-107916841D01*
X127325631Y-108184954D01*
X127278360Y-108402258D01*
X127264804Y-108464572D01*
X127244390Y-108750000D01*
X126433300Y-108750000D01*
X126396633Y-99748283D01*
X126372897Y-93921172D01*
X127919799Y-93921172D01*
X127930276Y-93998075D01*
X127931095Y-94004764D01*
X127939484Y-94081904D01*
X127941969Y-94093192D01*
X127944775Y-94104475D01*
X127971536Y-94177320D01*
X127973773Y-94183673D01*
X127998557Y-94257227D01*
X128003417Y-94267732D01*
X128008567Y-94278114D01*
X128008568Y-94278116D01*
X128047526Y-94339066D01*
X128050364Y-94343505D01*
X128053906Y-94349216D01*
X128069699Y-94375464D01*
X128093931Y-94415737D01*
X128100935Y-94424951D01*
X128108197Y-94433986D01*
X128163092Y-94488881D01*
X128167794Y-94493713D01*
X128221150Y-94550040D01*
X128231441Y-94558781D01*
X128230821Y-94559510D01*
X128247520Y-94573309D01*
X135381010Y-101706798D01*
X135394708Y-101721657D01*
X135425663Y-101758100D01*
X135459623Y-101783916D01*
X135487428Y-101805052D01*
X135492705Y-101809176D01*
X135553246Y-101857842D01*
X135553249Y-101857843D01*
X135553251Y-101857845D01*
X135562967Y-101864056D01*
X135572936Y-101870054D01*
X135643385Y-101902647D01*
X135649446Y-101905552D01*
X135718968Y-101940031D01*
X135718971Y-101940032D01*
X135718979Y-101940036D01*
X135718987Y-101940038D01*
X135729897Y-101944046D01*
X135740827Y-101947729D01*
X135740833Y-101947732D01*
X135740838Y-101947733D01*
X135816628Y-101964415D01*
X135823165Y-101965946D01*
X135898505Y-101984684D01*
X135898508Y-101984684D01*
X135909953Y-101986243D01*
X135921501Y-101987499D01*
X135921503Y-101987500D01*
X135999087Y-101987500D01*
X136005828Y-101987591D01*
X136007064Y-101987624D01*
X136083432Y-101989693D01*
X136083440Y-101989691D01*
X136096890Y-101988597D01*
X136096967Y-101989550D01*
X136118534Y-101987500D01*
X143398032Y-101987500D01*
X143493320Y-102006454D01*
X143574102Y-102060430D01*
X143628078Y-102141212D01*
X143647032Y-102236500D01*
X143628078Y-102331788D01*
X143574102Y-102412570D01*
X143550971Y-102432996D01*
X143444220Y-102516083D01*
X143444214Y-102516088D01*
X143287022Y-102686844D01*
X143287019Y-102686848D01*
X143160074Y-102881153D01*
X143066842Y-103093702D01*
X143066841Y-103093706D01*
X143009868Y-103318684D01*
X143009866Y-103318691D01*
X142990700Y-103550000D01*
X143009866Y-103781308D01*
X143009868Y-103781315D01*
X143066841Y-104006293D01*
X143066842Y-104006297D01*
X143160074Y-104218846D01*
X143287019Y-104413151D01*
X143287022Y-104413155D01*
X143444214Y-104583911D01*
X143444216Y-104583913D01*
X143627374Y-104726470D01*
X143724863Y-104779228D01*
X143831487Y-104836931D01*
X143831489Y-104836931D01*
X143831497Y-104836936D01*
X144051019Y-104912298D01*
X144279951Y-104950500D01*
X144512049Y-104950500D01*
X144740981Y-104912298D01*
X144960503Y-104836936D01*
X145164626Y-104726470D01*
X145347784Y-104583913D01*
X145400823Y-104526296D01*
X145442654Y-104480857D01*
X145521136Y-104423588D01*
X145615559Y-104400713D01*
X145625849Y-104400500D01*
X164405310Y-104400500D01*
X164425516Y-104401321D01*
X164431205Y-104401784D01*
X164473167Y-104405201D01*
X164550098Y-104394718D01*
X164556685Y-104393911D01*
X164633910Y-104385514D01*
X164633911Y-104385513D01*
X164645217Y-104383024D01*
X164656461Y-104380227D01*
X164656468Y-104380227D01*
X164710447Y-104360395D01*
X164729321Y-104353462D01*
X164735681Y-104351223D01*
X164767405Y-104340533D01*
X164809221Y-104326444D01*
X164809230Y-104326438D01*
X164819754Y-104321570D01*
X164830104Y-104316436D01*
X164830116Y-104316432D01*
X164895570Y-104274593D01*
X164901209Y-104271096D01*
X164967736Y-104231070D01*
X164967746Y-104231059D01*
X164976981Y-104224041D01*
X164985986Y-104216802D01*
X164985986Y-104216801D01*
X164985989Y-104216800D01*
X165040895Y-104161892D01*
X165045653Y-104157261D01*
X165102041Y-104103849D01*
X165102042Y-104103848D01*
X165110781Y-104093559D01*
X165111514Y-104094182D01*
X165125308Y-104077479D01*
X166902787Y-102300000D01*
X169644700Y-102300000D01*
X169663866Y-102531308D01*
X169663868Y-102531315D01*
X169720841Y-102756293D01*
X169720842Y-102756297D01*
X169814074Y-102968846D01*
X169941019Y-103163151D01*
X169941022Y-103163155D01*
X170084197Y-103318684D01*
X170098216Y-103333913D01*
X170281374Y-103476470D01*
X170378863Y-103529228D01*
X170485487Y-103586931D01*
X170485489Y-103586931D01*
X170485497Y-103586936D01*
X170705019Y-103662298D01*
X170933951Y-103700500D01*
X171166049Y-103700500D01*
X171394981Y-103662298D01*
X171614503Y-103586936D01*
X171818626Y-103476470D01*
X172001784Y-103333913D01*
X172158979Y-103163153D01*
X172285924Y-102968849D01*
X172379157Y-102756300D01*
X172436134Y-102531305D01*
X172455300Y-102300000D01*
X172436134Y-102068695D01*
X172379157Y-101843700D01*
X172379154Y-101843695D01*
X172379154Y-101843692D01*
X172300539Y-101664470D01*
X172285924Y-101631151D01*
X172272323Y-101610334D01*
X172236075Y-101520195D01*
X172237080Y-101423045D01*
X172275186Y-101333675D01*
X172304705Y-101298082D01*
X173529358Y-100073430D01*
X173610140Y-100019454D01*
X173705428Y-100000500D01*
X174675176Y-100000500D01*
X174770464Y-100019454D01*
X174851246Y-100073430D01*
X174905222Y-100154212D01*
X174924176Y-100249500D01*
X174916556Y-100310627D01*
X174863868Y-100518684D01*
X174863866Y-100518691D01*
X174844700Y-100750000D01*
X174863866Y-100981308D01*
X174863868Y-100981315D01*
X174920841Y-101206293D01*
X174920843Y-101206300D01*
X174947066Y-101266082D01*
X175014074Y-101418846D01*
X175141019Y-101613151D01*
X175141022Y-101613155D01*
X175298214Y-101783911D01*
X175298220Y-101783916D01*
X175452581Y-101904060D01*
X175481374Y-101926470D01*
X175556686Y-101967227D01*
X175685487Y-102036931D01*
X175685489Y-102036931D01*
X175685497Y-102036936D01*
X175905019Y-102112298D01*
X176133951Y-102150500D01*
X176366049Y-102150500D01*
X176594981Y-102112298D01*
X176814503Y-102036936D01*
X177018626Y-101926470D01*
X177201784Y-101783913D01*
X177272773Y-101706798D01*
X177296654Y-101680857D01*
X177375136Y-101623588D01*
X177469559Y-101600713D01*
X177479849Y-101600500D01*
X181994571Y-101600500D01*
X182089859Y-101619454D01*
X182170641Y-101673430D01*
X185447711Y-104950500D01*
X187123598Y-106626386D01*
X187177574Y-106707168D01*
X187196528Y-106802456D01*
X187177574Y-106897744D01*
X187123598Y-106978526D01*
X187042816Y-107032502D01*
X186947528Y-107051456D01*
X186927994Y-107050689D01*
X186888052Y-107047545D01*
X186850000Y-107044551D01*
X186849998Y-107044551D01*
X186849996Y-107044551D01*
X186849995Y-107044551D01*
X186598854Y-107064316D01*
X186353891Y-107123126D01*
X186353883Y-107123129D01*
X186121141Y-107219533D01*
X186121135Y-107219537D01*
X185906347Y-107351158D01*
X185906345Y-107351160D01*
X185714779Y-107514773D01*
X185714773Y-107514779D01*
X185551160Y-107706345D01*
X185551158Y-107706347D01*
X185419537Y-107921135D01*
X185419533Y-107921141D01*
X185323129Y-108153883D01*
X185323126Y-108153891D01*
X185264316Y-108398854D01*
X185249500Y-108587106D01*
X185249500Y-109712893D01*
X185264316Y-109901145D01*
X185323126Y-110146108D01*
X185323129Y-110146116D01*
X185419533Y-110378858D01*
X185419537Y-110378864D01*
X185551158Y-110593652D01*
X185551160Y-110593654D01*
X185551163Y-110593657D01*
X185551164Y-110593659D01*
X185714776Y-110785224D01*
X185906341Y-110948836D01*
X185906345Y-110948839D01*
X185906347Y-110948841D01*
X186036125Y-111028368D01*
X186121141Y-111080466D01*
X186353889Y-111176873D01*
X186598852Y-111235683D01*
X186670608Y-111241330D01*
X186849995Y-111255449D01*
X186850000Y-111255449D01*
X186850005Y-111255449D01*
X187006967Y-111243095D01*
X187101148Y-111235683D01*
X187346111Y-111176873D01*
X187578859Y-111080466D01*
X187700974Y-111005633D01*
X187793652Y-110948841D01*
X187793654Y-110948839D01*
X187793653Y-110948839D01*
X187793659Y-110948836D01*
X187985224Y-110785224D01*
X188148836Y-110593659D01*
X188148839Y-110593653D01*
X188148841Y-110593652D01*
X188205633Y-110500974D01*
X188280466Y-110378859D01*
X188376873Y-110146111D01*
X188435683Y-109901148D01*
X188450500Y-109712882D01*
X188450500Y-108587118D01*
X188449311Y-108572009D01*
X188460729Y-108475527D01*
X188508201Y-108390760D01*
X188584498Y-108330611D01*
X188678005Y-108304239D01*
X188774487Y-108315657D01*
X188859254Y-108363129D01*
X188873613Y-108376401D01*
X189176570Y-108679358D01*
X189230546Y-108760140D01*
X189249500Y-108855428D01*
X189249500Y-109712893D01*
X189264316Y-109901145D01*
X189323126Y-110146108D01*
X189323129Y-110146116D01*
X189419533Y-110378858D01*
X189419537Y-110378864D01*
X189551158Y-110593652D01*
X189551160Y-110593654D01*
X189551163Y-110593657D01*
X189551164Y-110593659D01*
X189714776Y-110785224D01*
X189906341Y-110948836D01*
X189906345Y-110948839D01*
X189906347Y-110948841D01*
X190036125Y-111028368D01*
X190121141Y-111080466D01*
X190353889Y-111176873D01*
X190598852Y-111235683D01*
X190670608Y-111241330D01*
X190849995Y-111255449D01*
X190850000Y-111255449D01*
X190850005Y-111255449D01*
X191006967Y-111243095D01*
X191101148Y-111235683D01*
X191346111Y-111176873D01*
X191578859Y-111080466D01*
X191700974Y-111005633D01*
X191793652Y-110948841D01*
X191793654Y-110948839D01*
X191793653Y-110948839D01*
X191793659Y-110948836D01*
X191985224Y-110785224D01*
X192148836Y-110593659D01*
X192148839Y-110593653D01*
X192148841Y-110593652D01*
X192205633Y-110500974D01*
X192280466Y-110378859D01*
X192376873Y-110146111D01*
X192435683Y-109901148D01*
X192450500Y-109712882D01*
X192450500Y-108587118D01*
X192435683Y-108398852D01*
X192376873Y-108153889D01*
X192280466Y-107921141D01*
X192254624Y-107878971D01*
X192148841Y-107706347D01*
X192148839Y-107706345D01*
X192114112Y-107665685D01*
X191985224Y-107514776D01*
X191793659Y-107351164D01*
X191793657Y-107351163D01*
X191793654Y-107351160D01*
X191793652Y-107351158D01*
X191578864Y-107219537D01*
X191578858Y-107219533D01*
X191346116Y-107123129D01*
X191346108Y-107123126D01*
X191101145Y-107064316D01*
X190850005Y-107044551D01*
X190849995Y-107044551D01*
X190598854Y-107064316D01*
X190353891Y-107123126D01*
X190353885Y-107123128D01*
X190275684Y-107155519D01*
X190180395Y-107174471D01*
X190085107Y-107155515D01*
X190004330Y-107101541D01*
X183328359Y-100425570D01*
X183274383Y-100344788D01*
X183255429Y-100249500D01*
X183274383Y-100154212D01*
X183328359Y-100073430D01*
X183409141Y-100019454D01*
X183504429Y-100000500D01*
X187405310Y-100000500D01*
X187425516Y-100001321D01*
X187431205Y-100001784D01*
X187473167Y-100005201D01*
X187550098Y-99994718D01*
X187556685Y-99993911D01*
X187633910Y-99985514D01*
X187633911Y-99985513D01*
X187645217Y-99983024D01*
X187656461Y-99980227D01*
X187656468Y-99980227D01*
X187710447Y-99960395D01*
X187729321Y-99953462D01*
X187735681Y-99951223D01*
X187767405Y-99940533D01*
X187809221Y-99926444D01*
X187809230Y-99926438D01*
X187819754Y-99921570D01*
X187830104Y-99916436D01*
X187830116Y-99916432D01*
X187895570Y-99874593D01*
X187901209Y-99871096D01*
X187967736Y-99831070D01*
X187967746Y-99831059D01*
X187976981Y-99824041D01*
X187985986Y-99816802D01*
X187985986Y-99816801D01*
X187985989Y-99816800D01*
X188040895Y-99761892D01*
X188045653Y-99757261D01*
X188102041Y-99703849D01*
X188102042Y-99703848D01*
X188110781Y-99693559D01*
X188111514Y-99694182D01*
X188125308Y-99677479D01*
X189899813Y-97902974D01*
X189914659Y-97889289D01*
X189951100Y-97858337D01*
X189998086Y-97796525D01*
X190002218Y-97791242D01*
X190013448Y-97777272D01*
X190050841Y-97730754D01*
X190050844Y-97730746D01*
X190057065Y-97721015D01*
X190063049Y-97711070D01*
X190063054Y-97711064D01*
X190095679Y-97640543D01*
X190098518Y-97634617D01*
X190133036Y-97565022D01*
X190133038Y-97565011D01*
X190137044Y-97554108D01*
X190140728Y-97543174D01*
X190140732Y-97543167D01*
X190157429Y-97467302D01*
X190158935Y-97460876D01*
X190177684Y-97385495D01*
X190177684Y-97385491D01*
X190179242Y-97374056D01*
X190180500Y-97362495D01*
X190180500Y-97284912D01*
X190180591Y-97278171D01*
X190181160Y-97257165D01*
X190182693Y-97200568D01*
X190182691Y-97200560D01*
X190181597Y-97187110D01*
X190182549Y-97187032D01*
X190180500Y-97165465D01*
X190180500Y-97047833D01*
X190199454Y-96952545D01*
X190253430Y-96871763D01*
X190276551Y-96851345D01*
X190315764Y-96820825D01*
X190416806Y-96711062D01*
X190495285Y-96653796D01*
X190589709Y-96630920D01*
X190685699Y-96645919D01*
X190768642Y-96696511D01*
X190783184Y-96711053D01*
X190804834Y-96734571D01*
X190884229Y-96820818D01*
X190884231Y-96820819D01*
X190884236Y-96820825D01*
X191073933Y-96968472D01*
X191285344Y-97082882D01*
X191512703Y-97160934D01*
X191749808Y-97200500D01*
X191990192Y-97200500D01*
X192227297Y-97160934D01*
X192454656Y-97082882D01*
X192666067Y-96968472D01*
X192855764Y-96820825D01*
X193018571Y-96643969D01*
X193150049Y-96442728D01*
X193246610Y-96222591D01*
X193305620Y-95989563D01*
X193325471Y-95750000D01*
X193305620Y-95510437D01*
X193246610Y-95277409D01*
X193216573Y-95208931D01*
X193150050Y-95057274D01*
X193150049Y-95057272D01*
X193139181Y-95040637D01*
X193018571Y-94856031D01*
X192855764Y-94679175D01*
X192666067Y-94531528D01*
X192485831Y-94433989D01*
X192454655Y-94417117D01*
X192227297Y-94339066D01*
X192227294Y-94339065D01*
X191990192Y-94299500D01*
X191749808Y-94299500D01*
X191512705Y-94339065D01*
X191512702Y-94339066D01*
X191285344Y-94417117D01*
X191073931Y-94531529D01*
X190884235Y-94679176D01*
X190876354Y-94687736D01*
X190783193Y-94788937D01*
X190704714Y-94846204D01*
X190610290Y-94869079D01*
X190514300Y-94854079D01*
X190431357Y-94803488D01*
X190416815Y-94788946D01*
X190315764Y-94679175D01*
X190126067Y-94531528D01*
X189945831Y-94433989D01*
X189914655Y-94417117D01*
X189687297Y-94339066D01*
X189687294Y-94339065D01*
X189450192Y-94299500D01*
X189209808Y-94299500D01*
X188972705Y-94339065D01*
X188972702Y-94339066D01*
X188745344Y-94417117D01*
X188533931Y-94531529D01*
X188476281Y-94576400D01*
X188344236Y-94679175D01*
X188344234Y-94679176D01*
X188344234Y-94679177D01*
X188344228Y-94679182D01*
X188176866Y-94860987D01*
X188098384Y-94918256D01*
X188003961Y-94941131D01*
X187907971Y-94926131D01*
X187825028Y-94875539D01*
X187817601Y-94868414D01*
X187661076Y-94711889D01*
X187467576Y-94576399D01*
X187253484Y-94476566D01*
X187040001Y-94419363D01*
X187040000Y-94419364D01*
X187040000Y-95314498D01*
X186932315Y-95265320D01*
X186825763Y-95250000D01*
X186754237Y-95250000D01*
X186647685Y-95265320D01*
X186540000Y-95314498D01*
X186540000Y-94419364D01*
X186539998Y-94419363D01*
X186326516Y-94476566D01*
X186326505Y-94476570D01*
X186112428Y-94576396D01*
X186112420Y-94576400D01*
X185918919Y-94711892D01*
X185762397Y-94868414D01*
X185681615Y-94922390D01*
X185586327Y-94941344D01*
X185491039Y-94922390D01*
X185410258Y-94868413D01*
X185403132Y-94860987D01*
X185398574Y-94856035D01*
X185398571Y-94856031D01*
X185235764Y-94679175D01*
X185046067Y-94531528D01*
X184865831Y-94433989D01*
X184834655Y-94417117D01*
X184607297Y-94339066D01*
X184607294Y-94339065D01*
X184370192Y-94299500D01*
X184129808Y-94299500D01*
X183892705Y-94339065D01*
X183892702Y-94339066D01*
X183665344Y-94417117D01*
X183453931Y-94531529D01*
X183264235Y-94679176D01*
X183256354Y-94687736D01*
X183163193Y-94788937D01*
X183084714Y-94846204D01*
X182990290Y-94869079D01*
X182894300Y-94854079D01*
X182811357Y-94803488D01*
X182796815Y-94788946D01*
X182695764Y-94679175D01*
X182506067Y-94531528D01*
X182404514Y-94476570D01*
X182294654Y-94417116D01*
X182233474Y-94396114D01*
X182149503Y-94347247D01*
X182090624Y-94269966D01*
X182065802Y-94176035D01*
X182078814Y-94079756D01*
X182127681Y-93995785D01*
X182138237Y-93984551D01*
X186849359Y-89273430D01*
X186930141Y-89219454D01*
X187025429Y-89200500D01*
X190456808Y-89200500D01*
X190552096Y-89219454D01*
X190632878Y-89273430D01*
X190646149Y-89287787D01*
X190651163Y-89293658D01*
X190651164Y-89293659D01*
X190814776Y-89485224D01*
X190997025Y-89640879D01*
X191006345Y-89648839D01*
X191006347Y-89648841D01*
X191161348Y-89743825D01*
X191221141Y-89780466D01*
X191453889Y-89876873D01*
X191698852Y-89935683D01*
X191887118Y-89950500D01*
X191887119Y-89950500D01*
X193012881Y-89950500D01*
X193012882Y-89950500D01*
X193201148Y-89935683D01*
X193446111Y-89876873D01*
X193678859Y-89780466D01*
X193800974Y-89705633D01*
X193893652Y-89648841D01*
X193893654Y-89648839D01*
X193893653Y-89648839D01*
X193893659Y-89648836D01*
X194085224Y-89485224D01*
X194248836Y-89293659D01*
X194248839Y-89293653D01*
X194248841Y-89293652D01*
X194305924Y-89200500D01*
X194380466Y-89078859D01*
X194476873Y-88846111D01*
X194535683Y-88601148D01*
X194546460Y-88464212D01*
X194555449Y-88350005D01*
X194555449Y-88349994D01*
X194535683Y-88098854D01*
X194532973Y-88087562D01*
X194476873Y-87853889D01*
X194380466Y-87621141D01*
X194351305Y-87573554D01*
X194248841Y-87406347D01*
X194248839Y-87406345D01*
X194248836Y-87406341D01*
X194085224Y-87214776D01*
X193893659Y-87051164D01*
X193893657Y-87051163D01*
X193893654Y-87051160D01*
X193893652Y-87051158D01*
X193678864Y-86919537D01*
X193678858Y-86919533D01*
X193446116Y-86823129D01*
X193446108Y-86823126D01*
X193201145Y-86764316D01*
X193012893Y-86749500D01*
X193012882Y-86749500D01*
X191887118Y-86749500D01*
X191887106Y-86749500D01*
X191698854Y-86764316D01*
X191453891Y-86823126D01*
X191453883Y-86823129D01*
X191221141Y-86919533D01*
X191221135Y-86919537D01*
X191006347Y-87051158D01*
X191006345Y-87051160D01*
X190814779Y-87214773D01*
X190814773Y-87214779D01*
X190646149Y-87412213D01*
X190569851Y-87472361D01*
X190476344Y-87498732D01*
X190456808Y-87499500D01*
X186614690Y-87499500D01*
X186594484Y-87498679D01*
X186546834Y-87494799D01*
X186546828Y-87494799D01*
X186469927Y-87505276D01*
X186463238Y-87506095D01*
X186386090Y-87514485D01*
X186374800Y-87516970D01*
X186363530Y-87519773D01*
X186290669Y-87546540D01*
X186284315Y-87548777D01*
X186210781Y-87573554D01*
X186200264Y-87578419D01*
X186189883Y-87583568D01*
X186124493Y-87625365D01*
X186118783Y-87628906D01*
X186083824Y-87649941D01*
X186052264Y-87668930D01*
X186043042Y-87675940D01*
X186034010Y-87683200D01*
X185979151Y-87738059D01*
X185974324Y-87742757D01*
X185917962Y-87796146D01*
X185909224Y-87806435D01*
X185908498Y-87805819D01*
X185894694Y-87822516D01*
X179490639Y-94226570D01*
X179409857Y-94280546D01*
X179314569Y-94299500D01*
X178280639Y-94299500D01*
X178280637Y-94299501D01*
X178163238Y-94314955D01*
X178054475Y-94360006D01*
X178017159Y-94375464D01*
X178017158Y-94375464D01*
X178017155Y-94375466D01*
X177891723Y-94471713D01*
X177891713Y-94471723D01*
X177795466Y-94597155D01*
X177734955Y-94743239D01*
X177719500Y-94860637D01*
X177719500Y-96639360D01*
X177719501Y-96639362D01*
X177734955Y-96756761D01*
X177760885Y-96819361D01*
X177795464Y-96902841D01*
X177795465Y-96902843D01*
X177795466Y-96902844D01*
X177887995Y-97023431D01*
X177891718Y-97028282D01*
X177891722Y-97028285D01*
X177891723Y-97028286D01*
X177979274Y-97095466D01*
X178017159Y-97124536D01*
X178163238Y-97185044D01*
X178280639Y-97200500D01*
X180059360Y-97200499D01*
X180176762Y-97185044D01*
X180322841Y-97124536D01*
X180448282Y-97028282D01*
X180498502Y-96962832D01*
X180571542Y-96898777D01*
X180663541Y-96867547D01*
X180760488Y-96873900D01*
X180847624Y-96916869D01*
X180848985Y-96917921D01*
X180913927Y-96968468D01*
X180913929Y-96968469D01*
X180913933Y-96968472D01*
X181125344Y-97082882D01*
X181352703Y-97160934D01*
X181589808Y-97200500D01*
X181830192Y-97200500D01*
X182067297Y-97160934D01*
X182294656Y-97082882D01*
X182506067Y-96968472D01*
X182695764Y-96820825D01*
X182796806Y-96711062D01*
X182875285Y-96653796D01*
X182969709Y-96630920D01*
X183065699Y-96645919D01*
X183148642Y-96696511D01*
X183163184Y-96711053D01*
X183184834Y-96734571D01*
X183264229Y-96820818D01*
X183264231Y-96820819D01*
X183264236Y-96820825D01*
X183453933Y-96968472D01*
X183665344Y-97082882D01*
X183892703Y-97160934D01*
X184129808Y-97200500D01*
X184370192Y-97200500D01*
X184607297Y-97160934D01*
X184834656Y-97082882D01*
X185046067Y-96968472D01*
X185235764Y-96820825D01*
X185398571Y-96643969D01*
X185398574Y-96643964D01*
X185403132Y-96639013D01*
X185481613Y-96581744D01*
X185576037Y-96558868D01*
X185672027Y-96573867D01*
X185754970Y-96624459D01*
X185762398Y-96631585D01*
X185918923Y-96788110D01*
X186112423Y-96923600D01*
X186326511Y-97023431D01*
X186540000Y-97080635D01*
X186540000Y-96185501D01*
X186647685Y-96234680D01*
X186754237Y-96250000D01*
X186825763Y-96250000D01*
X186932315Y-96234680D01*
X187040000Y-96185501D01*
X187040000Y-97080635D01*
X187253488Y-97023431D01*
X187467576Y-96923600D01*
X187661079Y-96788107D01*
X187817601Y-96631586D01*
X187898382Y-96577609D01*
X187993670Y-96558655D01*
X188088958Y-96577609D01*
X188169740Y-96631585D01*
X188176867Y-96639012D01*
X188181426Y-96643964D01*
X188181429Y-96643969D01*
X188293699Y-96765927D01*
X188344290Y-96848869D01*
X188359289Y-96944859D01*
X188336413Y-97039282D01*
X188286572Y-97110638D01*
X187170641Y-98226570D01*
X187089859Y-98280546D01*
X186994571Y-98299500D01*
X173294690Y-98299500D01*
X173274484Y-98298679D01*
X173226834Y-98294799D01*
X173226828Y-98294799D01*
X173149927Y-98305276D01*
X173143238Y-98306095D01*
X173066090Y-98314485D01*
X173054800Y-98316970D01*
X173043530Y-98319773D01*
X172970669Y-98346540D01*
X172964315Y-98348777D01*
X172890781Y-98373554D01*
X172880220Y-98378440D01*
X172869885Y-98383566D01*
X172804472Y-98425377D01*
X172798759Y-98428920D01*
X172784945Y-98437232D01*
X172732267Y-98468927D01*
X172723028Y-98475950D01*
X172714012Y-98483198D01*
X172659132Y-98538077D01*
X172654305Y-98542775D01*
X172597962Y-98596146D01*
X172589224Y-98606435D01*
X172588498Y-98605818D01*
X172574696Y-98622513D01*
X170480190Y-100717019D01*
X170465322Y-100730725D01*
X170428900Y-100761662D01*
X170381954Y-100823417D01*
X170377807Y-100828721D01*
X170329163Y-100889238D01*
X170322936Y-100898980D01*
X170316943Y-100908941D01*
X170284353Y-100979381D01*
X170281444Y-100985451D01*
X170246961Y-101054984D01*
X170242960Y-101065872D01*
X170239268Y-101076831D01*
X170237477Y-101084969D01*
X170198479Y-101173953D01*
X170147240Y-101227929D01*
X170098221Y-101266082D01*
X170098214Y-101266088D01*
X169941018Y-101436849D01*
X169814074Y-101631153D01*
X169720842Y-101843702D01*
X169720841Y-101843706D01*
X169663868Y-102068684D01*
X169663866Y-102068691D01*
X169644700Y-102300000D01*
X166902787Y-102300000D01*
X168219813Y-100982974D01*
X168234659Y-100969289D01*
X168271100Y-100938337D01*
X168318086Y-100876525D01*
X168322218Y-100871242D01*
X168356398Y-100828721D01*
X168370841Y-100810754D01*
X168370844Y-100810746D01*
X168377075Y-100800998D01*
X168383056Y-100791060D01*
X168415643Y-100720622D01*
X168418559Y-100714536D01*
X168453036Y-100645021D01*
X168453038Y-100645009D01*
X168457048Y-100634098D01*
X168460732Y-100623166D01*
X168477428Y-100547309D01*
X168478943Y-100540847D01*
X168497684Y-100465495D01*
X168497684Y-100465493D01*
X168499242Y-100454056D01*
X168500500Y-100442495D01*
X168500500Y-100364912D01*
X168500591Y-100358171D01*
X168502693Y-100280568D01*
X168502691Y-100280560D01*
X168501597Y-100267110D01*
X168502549Y-100267032D01*
X168500500Y-100245465D01*
X168500500Y-99400464D01*
X168519454Y-99305176D01*
X168573430Y-99224394D01*
X168654212Y-99170418D01*
X168749500Y-99151464D01*
X168844788Y-99170418D01*
X168925570Y-99224394D01*
X168953469Y-99257644D01*
X169011887Y-99341074D01*
X169178923Y-99508110D01*
X169372423Y-99643600D01*
X169586511Y-99743431D01*
X169800000Y-99800635D01*
X169800000Y-98905501D01*
X169907685Y-98954680D01*
X170014237Y-98970000D01*
X170085763Y-98970000D01*
X170192315Y-98954680D01*
X170300000Y-98905501D01*
X170300000Y-99800635D01*
X170513488Y-99743431D01*
X170727576Y-99643600D01*
X170921076Y-99508110D01*
X171088110Y-99341076D01*
X171223600Y-99147576D01*
X171323433Y-98933485D01*
X171323433Y-98933483D01*
X171380636Y-98720001D01*
X171380636Y-98720000D01*
X170483686Y-98720000D01*
X170509493Y-98679844D01*
X170550000Y-98541889D01*
X170550000Y-98398111D01*
X170509493Y-98260156D01*
X170483686Y-98220000D01*
X171380636Y-98220000D01*
X171380636Y-98219998D01*
X171323433Y-98006516D01*
X171323429Y-98006505D01*
X171223603Y-97792428D01*
X171223599Y-97792421D01*
X171130210Y-97659048D01*
X171091081Y-97570121D01*
X171088962Y-97472989D01*
X171124174Y-97382440D01*
X171191358Y-97312258D01*
X171199716Y-97306933D01*
X171202838Y-97304537D01*
X171202841Y-97304536D01*
X171328282Y-97208282D01*
X171424536Y-97082841D01*
X171485044Y-96936762D01*
X171500500Y-96819361D01*
X171500499Y-95040640D01*
X171485044Y-94923238D01*
X171424536Y-94777159D01*
X171349351Y-94679176D01*
X171328286Y-94651723D01*
X171328285Y-94651722D01*
X171328282Y-94651718D01*
X171328277Y-94651714D01*
X171328276Y-94651713D01*
X171202844Y-94555466D01*
X171202843Y-94555465D01*
X171202841Y-94555464D01*
X171056762Y-94494956D01*
X171056760Y-94494955D01*
X170939362Y-94479500D01*
X169160639Y-94479500D01*
X169160637Y-94479501D01*
X169043238Y-94494955D01*
X168954943Y-94531529D01*
X168897159Y-94555464D01*
X168897158Y-94555464D01*
X168897155Y-94555466D01*
X168771723Y-94651713D01*
X168771713Y-94651723D01*
X168675466Y-94777155D01*
X168614955Y-94923238D01*
X168610561Y-94956619D01*
X168579331Y-95048617D01*
X168515271Y-95121662D01*
X168468243Y-95150102D01*
X168450226Y-95158437D01*
X168439885Y-95163566D01*
X168374472Y-95205377D01*
X168368759Y-95208920D01*
X168354945Y-95217232D01*
X168302267Y-95248927D01*
X168293028Y-95255950D01*
X168284012Y-95263198D01*
X168229132Y-95318077D01*
X168224305Y-95322775D01*
X168167962Y-95376146D01*
X168159224Y-95386435D01*
X168158498Y-95385818D01*
X168144696Y-95402512D01*
X167525570Y-96021639D01*
X167444788Y-96075616D01*
X167349500Y-96094570D01*
X167254212Y-96075616D01*
X167173431Y-96021640D01*
X167119454Y-95940858D01*
X167100500Y-95845570D01*
X167100500Y-85955427D01*
X167119454Y-85860139D01*
X167173427Y-85779359D01*
X178899806Y-74052980D01*
X178914652Y-74039294D01*
X178951100Y-74008337D01*
X178998090Y-73946520D01*
X179002186Y-73941281D01*
X179050842Y-73880753D01*
X179050845Y-73880746D01*
X179057063Y-73871018D01*
X179063047Y-73861072D01*
X179063054Y-73861064D01*
X179095672Y-73790558D01*
X179098511Y-73784632D01*
X179133037Y-73715021D01*
X179133037Y-73715017D01*
X179137037Y-73704129D01*
X179140728Y-73693174D01*
X179140732Y-73693167D01*
X179157433Y-73617289D01*
X179158933Y-73610890D01*
X179177684Y-73535494D01*
X179177684Y-73535486D01*
X179179244Y-73524041D01*
X179180500Y-73512495D01*
X179180500Y-73456446D01*
X183449500Y-73456446D01*
X183449501Y-73456480D01*
X183455812Y-73558126D01*
X183455813Y-73558138D01*
X183505993Y-73797459D01*
X183594881Y-74025256D01*
X183594883Y-74025261D01*
X183633837Y-74090633D01*
X183720051Y-74235317D01*
X183878088Y-74421912D01*
X184064683Y-74579949D01*
X184134532Y-74621570D01*
X184274738Y-74705116D01*
X184274740Y-74705117D01*
X184274744Y-74705119D01*
X184502543Y-74794007D01*
X184741866Y-74844187D01*
X184843548Y-74850500D01*
X184843554Y-74850500D01*
X186756446Y-74850500D01*
X186756452Y-74850500D01*
X186858134Y-74844187D01*
X187097457Y-74794007D01*
X187325256Y-74705119D01*
X187535317Y-74579949D01*
X187721912Y-74421912D01*
X187721923Y-74421898D01*
X187724430Y-74419393D01*
X187726586Y-74417952D01*
X187729771Y-74415255D01*
X187730078Y-74415618D01*
X187805212Y-74365417D01*
X187900500Y-74346463D01*
X187995788Y-74365417D01*
X188076570Y-74419393D01*
X188130546Y-74500175D01*
X188149500Y-74595463D01*
X188149500Y-76544570D01*
X188130546Y-76639858D01*
X188076570Y-76720640D01*
X186680190Y-78117019D01*
X186665322Y-78130725D01*
X186628900Y-78161662D01*
X186581954Y-78223417D01*
X186577807Y-78228721D01*
X186529163Y-78289238D01*
X186522936Y-78298980D01*
X186516943Y-78308941D01*
X186484353Y-78379381D01*
X186481444Y-78385451D01*
X186446961Y-78454984D01*
X186442960Y-78465872D01*
X186439268Y-78476830D01*
X186422587Y-78552613D01*
X186421049Y-78559175D01*
X186402315Y-78634506D01*
X186400758Y-78645926D01*
X186399500Y-78657506D01*
X186399500Y-78735086D01*
X186399409Y-78741826D01*
X186397307Y-78819436D01*
X186398403Y-78832895D01*
X186397449Y-78832972D01*
X186399500Y-78854537D01*
X186399500Y-81705309D01*
X186398679Y-81725515D01*
X186394799Y-81773165D01*
X186394799Y-81773172D01*
X186405276Y-81850075D01*
X186406095Y-81856764D01*
X186414484Y-81933904D01*
X186416969Y-81945192D01*
X186419775Y-81956475D01*
X186446536Y-82029320D01*
X186448773Y-82035673D01*
X186473557Y-82109227D01*
X186478417Y-82119732D01*
X186483567Y-82130114D01*
X186483568Y-82130116D01*
X186522884Y-82191626D01*
X186525364Y-82195505D01*
X186528906Y-82201216D01*
X186568875Y-82267645D01*
X186568931Y-82267737D01*
X186575935Y-82276951D01*
X186583197Y-82285986D01*
X186638092Y-82340881D01*
X186642794Y-82345713D01*
X186696150Y-82402040D01*
X186706441Y-82410781D01*
X186705821Y-82411510D01*
X186722520Y-82425309D01*
X189217016Y-84919805D01*
X189230713Y-84934664D01*
X189261663Y-84971100D01*
X189315599Y-85012101D01*
X189323448Y-85018067D01*
X189328747Y-85022210D01*
X189389246Y-85070841D01*
X189389248Y-85070842D01*
X189399004Y-85077077D01*
X189408933Y-85083052D01*
X189408936Y-85083054D01*
X189479472Y-85115687D01*
X189485401Y-85118528D01*
X189554979Y-85153036D01*
X189554986Y-85153037D01*
X189565893Y-85157045D01*
X189576827Y-85160729D01*
X189576833Y-85160732D01*
X189576838Y-85160733D01*
X189652628Y-85177415D01*
X189659165Y-85178946D01*
X189734505Y-85197684D01*
X189734508Y-85197684D01*
X189745953Y-85199243D01*
X189757501Y-85200499D01*
X189757503Y-85200500D01*
X189835087Y-85200500D01*
X189841828Y-85200591D01*
X189843064Y-85200624D01*
X189919432Y-85202693D01*
X189919440Y-85202691D01*
X189932890Y-85201597D01*
X189932967Y-85202550D01*
X189954534Y-85200500D01*
X190456808Y-85200500D01*
X190552096Y-85219454D01*
X190632878Y-85273430D01*
X190646149Y-85287787D01*
X190651163Y-85293658D01*
X190651164Y-85293659D01*
X190814776Y-85485224D01*
X190943297Y-85594991D01*
X191006345Y-85648839D01*
X191006347Y-85648841D01*
X191178971Y-85754624D01*
X191221141Y-85780466D01*
X191453889Y-85876873D01*
X191698852Y-85935683D01*
X191887118Y-85950500D01*
X191887119Y-85950500D01*
X193012881Y-85950500D01*
X193012882Y-85950500D01*
X193201148Y-85935683D01*
X193446111Y-85876873D01*
X193678859Y-85780466D01*
X193800974Y-85705633D01*
X193893652Y-85648841D01*
X193893654Y-85648839D01*
X193893653Y-85648839D01*
X193893659Y-85648836D01*
X194085224Y-85485224D01*
X194248836Y-85293659D01*
X194248839Y-85293653D01*
X194248841Y-85293652D01*
X194319626Y-85178141D01*
X194380466Y-85078859D01*
X194476873Y-84846111D01*
X194535683Y-84601148D01*
X194544458Y-84489647D01*
X194555449Y-84350005D01*
X194555449Y-84349994D01*
X194535683Y-84098854D01*
X194535347Y-84097452D01*
X194476873Y-83853889D01*
X194380466Y-83621141D01*
X194354624Y-83578971D01*
X194248841Y-83406347D01*
X194248839Y-83406345D01*
X194248836Y-83406341D01*
X194085224Y-83214776D01*
X193893659Y-83051164D01*
X193893657Y-83051163D01*
X193893654Y-83051160D01*
X193893652Y-83051158D01*
X193678864Y-82919537D01*
X193678858Y-82919533D01*
X193446116Y-82823129D01*
X193446108Y-82823126D01*
X193201145Y-82764316D01*
X193012893Y-82749500D01*
X193012882Y-82749500D01*
X191887118Y-82749500D01*
X191887106Y-82749500D01*
X191698854Y-82764316D01*
X191453891Y-82823126D01*
X191453883Y-82823129D01*
X191221141Y-82919533D01*
X191221135Y-82919537D01*
X191006347Y-83051158D01*
X191006345Y-83051160D01*
X190814779Y-83214773D01*
X190814773Y-83214779D01*
X190646149Y-83412213D01*
X190569851Y-83472361D01*
X190476344Y-83498732D01*
X190456808Y-83499500D01*
X190305428Y-83499500D01*
X190210140Y-83480546D01*
X190129358Y-83426570D01*
X188173430Y-81470641D01*
X188119454Y-81389859D01*
X188100500Y-81294571D01*
X188100500Y-80350005D01*
X190344551Y-80350005D01*
X190364316Y-80601145D01*
X190423126Y-80846108D01*
X190423129Y-80846116D01*
X190519533Y-81078858D01*
X190519537Y-81078864D01*
X190651158Y-81293652D01*
X190651160Y-81293654D01*
X190651163Y-81293657D01*
X190651164Y-81293659D01*
X190814776Y-81485224D01*
X191006341Y-81648836D01*
X191006345Y-81648839D01*
X191006347Y-81648841D01*
X191131469Y-81725515D01*
X191221141Y-81780466D01*
X191453889Y-81876873D01*
X191698852Y-81935683D01*
X191887118Y-81950500D01*
X191887119Y-81950500D01*
X193012881Y-81950500D01*
X193012882Y-81950500D01*
X193201148Y-81935683D01*
X193446111Y-81876873D01*
X193678859Y-81780466D01*
X193811757Y-81699026D01*
X193893652Y-81648841D01*
X193893654Y-81648839D01*
X193893653Y-81648839D01*
X193893659Y-81648836D01*
X194085224Y-81485224D01*
X194248836Y-81293659D01*
X194248839Y-81293653D01*
X194248841Y-81293652D01*
X194305633Y-81200974D01*
X194380466Y-81078859D01*
X194476873Y-80846111D01*
X194535683Y-80601148D01*
X194553423Y-80375745D01*
X194555449Y-80350005D01*
X194555449Y-80349994D01*
X194538251Y-80131487D01*
X194535683Y-80098852D01*
X194476873Y-79853889D01*
X194380466Y-79621141D01*
X194354624Y-79578971D01*
X194248841Y-79406347D01*
X194248839Y-79406345D01*
X194248836Y-79406341D01*
X194085224Y-79214776D01*
X193893659Y-79051164D01*
X193893657Y-79051163D01*
X193893654Y-79051160D01*
X193893652Y-79051158D01*
X193678864Y-78919537D01*
X193678858Y-78919533D01*
X193446116Y-78823129D01*
X193446108Y-78823126D01*
X193201145Y-78764316D01*
X193012893Y-78749500D01*
X193012882Y-78749500D01*
X191887118Y-78749500D01*
X191887106Y-78749500D01*
X191698854Y-78764316D01*
X191453891Y-78823126D01*
X191453883Y-78823129D01*
X191221141Y-78919533D01*
X191221135Y-78919537D01*
X191006347Y-79051158D01*
X191006345Y-79051160D01*
X190814779Y-79214773D01*
X190814773Y-79214779D01*
X190651160Y-79406345D01*
X190651158Y-79406347D01*
X190519537Y-79621135D01*
X190519533Y-79621141D01*
X190423129Y-79853883D01*
X190423126Y-79853891D01*
X190364316Y-80098854D01*
X190344551Y-80349994D01*
X190344551Y-80350005D01*
X188100500Y-80350005D01*
X188100500Y-79205428D01*
X188119454Y-79110140D01*
X188173428Y-79029360D01*
X189279359Y-77923428D01*
X189360141Y-77869453D01*
X189455429Y-77850499D01*
X192289361Y-77850499D01*
X192289361Y-77850498D01*
X192406762Y-77835044D01*
X192552841Y-77774536D01*
X192678282Y-77678282D01*
X192774536Y-77552841D01*
X192835044Y-77406762D01*
X192850500Y-77289361D01*
X192850499Y-73710640D01*
X192835044Y-73593238D01*
X192774536Y-73447159D01*
X192765138Y-73434911D01*
X192678286Y-73321723D01*
X192678285Y-73321722D01*
X192678282Y-73321718D01*
X192678277Y-73321714D01*
X192678276Y-73321713D01*
X192552844Y-73225466D01*
X192552843Y-73225465D01*
X192552841Y-73225464D01*
X192406762Y-73164956D01*
X192406760Y-73164955D01*
X192289362Y-73149500D01*
X188710639Y-73149500D01*
X188710637Y-73149501D01*
X188593237Y-73164955D01*
X188494788Y-73205735D01*
X188399500Y-73224689D01*
X188304212Y-73205735D01*
X188223431Y-73151759D01*
X188169454Y-73070977D01*
X188150500Y-72975689D01*
X188150500Y-71543553D01*
X188150498Y-71543519D01*
X188147796Y-71499998D01*
X188144187Y-71441866D01*
X188108907Y-71273610D01*
X188107905Y-71176463D01*
X188144155Y-71086324D01*
X188212140Y-71016919D01*
X188301511Y-70978813D01*
X188398660Y-70977810D01*
X188488799Y-71014060D01*
X188528679Y-71046444D01*
X188695670Y-71213435D01*
X188880620Y-71341568D01*
X188880624Y-71341570D01*
X189085482Y-71434622D01*
X189303665Y-71489599D01*
X189303678Y-71489601D01*
X189435803Y-71499999D01*
X190249998Y-71499999D01*
X190250000Y-71499998D01*
X190250000Y-70000000D01*
X190750000Y-70000000D01*
X190750000Y-71499998D01*
X190750001Y-71499999D01*
X191564182Y-71499999D01*
X191696334Y-71489599D01*
X191914517Y-71434622D01*
X192119375Y-71341570D01*
X192119379Y-71341568D01*
X192304329Y-71213435D01*
X192463435Y-71054329D01*
X192591568Y-70869379D01*
X192591570Y-70869375D01*
X192684622Y-70664517D01*
X192739599Y-70446334D01*
X192739601Y-70446321D01*
X192749999Y-70314202D01*
X192750000Y-70314190D01*
X192750000Y-69750001D01*
X192749999Y-69750000D01*
X191933686Y-69750000D01*
X191959493Y-69709844D01*
X192000000Y-69571889D01*
X192000000Y-69428111D01*
X191959493Y-69290156D01*
X191933686Y-69250000D01*
X192749998Y-69250000D01*
X192749999Y-69249999D01*
X192749999Y-68685818D01*
X192739599Y-68553665D01*
X192684622Y-68335482D01*
X192591570Y-68130624D01*
X192591568Y-68130620D01*
X192463435Y-67945670D01*
X192304329Y-67786564D01*
X192119379Y-67658431D01*
X192119375Y-67658429D01*
X191914517Y-67565377D01*
X191696334Y-67510400D01*
X191696321Y-67510398D01*
X191564202Y-67500000D01*
X190750001Y-67500000D01*
X190750000Y-67500001D01*
X190750000Y-69000000D01*
X190250000Y-69000000D01*
X190250000Y-67500001D01*
X190249999Y-67500000D01*
X189435818Y-67500000D01*
X189303665Y-67510400D01*
X189085482Y-67565377D01*
X188880624Y-67658429D01*
X188880620Y-67658431D01*
X188695670Y-67786564D01*
X188536564Y-67945670D01*
X188408431Y-68130620D01*
X188408429Y-68130624D01*
X188315377Y-68335482D01*
X188260400Y-68553665D01*
X188260398Y-68553678D01*
X188250000Y-68685797D01*
X188250000Y-69249999D01*
X188250001Y-69250000D01*
X189066314Y-69250000D01*
X189040507Y-69290156D01*
X189000000Y-69428111D01*
X189000000Y-69571889D01*
X189040507Y-69709844D01*
X189066314Y-69750000D01*
X188250002Y-69750000D01*
X188250001Y-69750001D01*
X188250001Y-70314181D01*
X188260400Y-70446336D01*
X188273440Y-70498085D01*
X188278343Y-70595116D01*
X188245740Y-70686637D01*
X188180595Y-70758716D01*
X188092826Y-70800377D01*
X187995795Y-70805280D01*
X187904274Y-70772677D01*
X187841982Y-70719855D01*
X187721912Y-70578088D01*
X187535317Y-70420051D01*
X187453110Y-70371066D01*
X187325261Y-70294883D01*
X187325256Y-70294881D01*
X187097459Y-70205993D01*
X186858138Y-70155813D01*
X186858126Y-70155812D01*
X186756480Y-70149501D01*
X186756457Y-70149500D01*
X186756452Y-70149500D01*
X184843548Y-70149500D01*
X184843542Y-70149500D01*
X184843519Y-70149501D01*
X184741873Y-70155812D01*
X184741861Y-70155813D01*
X184502540Y-70205993D01*
X184274743Y-70294881D01*
X184274738Y-70294883D01*
X184064686Y-70420049D01*
X184064683Y-70420051D01*
X183972548Y-70498085D01*
X183887638Y-70570000D01*
X183878088Y-70578088D01*
X183720051Y-70764683D01*
X183720049Y-70764685D01*
X183720049Y-70764686D01*
X183594883Y-70974738D01*
X183594881Y-70974743D01*
X183505993Y-71202540D01*
X183455813Y-71441861D01*
X183455812Y-71441873D01*
X183449501Y-71543519D01*
X183449500Y-71543553D01*
X183449500Y-73456446D01*
X179180500Y-73456446D01*
X179180500Y-73434911D01*
X179180591Y-73428170D01*
X179181081Y-73410070D01*
X179182693Y-73350568D01*
X179182691Y-73350560D01*
X179181597Y-73337110D01*
X179182549Y-73337032D01*
X179180500Y-73315465D01*
X179180500Y-72228163D01*
X179199454Y-72132875D01*
X179253430Y-72052093D01*
X179288049Y-72023242D01*
X179315383Y-72004375D01*
X179496219Y-71830680D01*
X179646850Y-71630226D01*
X179745709Y-71441866D01*
X179763373Y-71408210D01*
X179763373Y-71408209D01*
X179763376Y-71408204D01*
X179842778Y-71170366D01*
X179883000Y-70922871D01*
X179883000Y-70639919D01*
X179867876Y-70452571D01*
X179807869Y-70209115D01*
X179709587Y-69978437D01*
X179616225Y-69830798D01*
X179575576Y-69766516D01*
X179575570Y-69766509D01*
X179409301Y-69578829D01*
X179215074Y-69420248D01*
X179168101Y-69393128D01*
X178997926Y-69294877D01*
X178763475Y-69205962D01*
X178517807Y-69155809D01*
X178517806Y-69155808D01*
X178517802Y-69155808D01*
X178517801Y-69155807D01*
X178517796Y-69155807D01*
X178267266Y-69145712D01*
X178267265Y-69145712D01*
X178267264Y-69145712D01*
X178184292Y-69155786D01*
X178018346Y-69175935D01*
X177777506Y-69245696D01*
X177777494Y-69245701D01*
X177550981Y-69353182D01*
X177550975Y-69353186D01*
X177344614Y-69495626D01*
X177161112Y-69671883D01*
X177079260Y-69724222D01*
X176983610Y-69741254D01*
X176888723Y-69720384D01*
X176809045Y-69664792D01*
X176805430Y-69660948D01*
X176777131Y-69630207D01*
X176777118Y-69630196D01*
X176587159Y-69482343D01*
X176375467Y-69367783D01*
X176375465Y-69367782D01*
X176147790Y-69289620D01*
X176147785Y-69289619D01*
X176040000Y-69271632D01*
X176040000Y-70258316D01*
X176011181Y-70240791D01*
X175865596Y-70200000D01*
X175752378Y-70200000D01*
X175640217Y-70215416D01*
X175540000Y-70258946D01*
X175540000Y-69271633D01*
X175539999Y-69271632D01*
X175432214Y-69289619D01*
X175432209Y-69289620D01*
X175204535Y-69367781D01*
X175010875Y-69472584D01*
X174918050Y-69501266D01*
X174821315Y-69492242D01*
X174735397Y-69446886D01*
X174694821Y-69405175D01*
X174630786Y-69321723D01*
X174630785Y-69321722D01*
X174630782Y-69321718D01*
X174630777Y-69321714D01*
X174630776Y-69321713D01*
X174505344Y-69225466D01*
X174505343Y-69225465D01*
X174505341Y-69225464D01*
X174368347Y-69168719D01*
X174359260Y-69164955D01*
X174241862Y-69149500D01*
X172258139Y-69149500D01*
X172258137Y-69149501D01*
X172140738Y-69164955D01*
X172037545Y-69207700D01*
X171994659Y-69225464D01*
X171994658Y-69225464D01*
X171994655Y-69225466D01*
X171869223Y-69321713D01*
X171869213Y-69321723D01*
X171772966Y-69447155D01*
X171772964Y-69447158D01*
X171772964Y-69447159D01*
X171764852Y-69466744D01*
X171712455Y-69593239D01*
X171700639Y-69682999D01*
X171669410Y-69774998D01*
X171605352Y-69848044D01*
X171518217Y-69891015D01*
X171453769Y-69899500D01*
X170294690Y-69899500D01*
X170274484Y-69898679D01*
X170226834Y-69894799D01*
X170226828Y-69894799D01*
X170149942Y-69905274D01*
X170143255Y-69906093D01*
X170066087Y-69914486D01*
X170054850Y-69916959D01*
X170043534Y-69919773D01*
X170043532Y-69919774D01*
X170043529Y-69919774D01*
X170043525Y-69919776D01*
X169970664Y-69946542D01*
X169964312Y-69948778D01*
X169890788Y-69973552D01*
X169880212Y-69978445D01*
X169869885Y-69983566D01*
X169804492Y-70025365D01*
X169798765Y-70028917D01*
X169732268Y-70068927D01*
X169723042Y-70075940D01*
X169714010Y-70083200D01*
X169659151Y-70138059D01*
X169654324Y-70142757D01*
X169597962Y-70196146D01*
X169589224Y-70206435D01*
X169588498Y-70205819D01*
X169574694Y-70222516D01*
X166470641Y-73326570D01*
X166389859Y-73380546D01*
X166294571Y-73399500D01*
X166014913Y-73399500D01*
X166008172Y-73399409D01*
X165989948Y-73398915D01*
X165930568Y-73397307D01*
X165930567Y-73397307D01*
X165930566Y-73397307D01*
X165917110Y-73398403D01*
X165917032Y-73397449D01*
X165895466Y-73399500D01*
X159045429Y-73399500D01*
X158950141Y-73380546D01*
X158869359Y-73326570D01*
X158099725Y-72556936D01*
X158045749Y-72476154D01*
X158026795Y-72380866D01*
X158045749Y-72285578D01*
X158099725Y-72204796D01*
X158124212Y-72183323D01*
X158130782Y-72178282D01*
X158194821Y-72094823D01*
X158267865Y-72030765D01*
X158359863Y-71999535D01*
X158456810Y-72005889D01*
X158510876Y-72027416D01*
X158704533Y-72132216D01*
X158704534Y-72132217D01*
X158932210Y-72210379D01*
X158932213Y-72210380D01*
X159040000Y-72228366D01*
X159040000Y-71241683D01*
X159068819Y-71259209D01*
X159214404Y-71300000D01*
X159327622Y-71300000D01*
X159439783Y-71284584D01*
X159540000Y-71241053D01*
X159540000Y-72228365D01*
X159647786Y-72210380D01*
X159647789Y-72210379D01*
X159875465Y-72132217D01*
X159875467Y-72132216D01*
X160087159Y-72017656D01*
X160277118Y-71869803D01*
X160277128Y-71869794D01*
X160308519Y-71835695D01*
X160387000Y-71778425D01*
X160481424Y-71755549D01*
X160577414Y-71770548D01*
X160660357Y-71821139D01*
X160678094Y-71839218D01*
X160750694Y-71921166D01*
X160750698Y-71921170D01*
X160750699Y-71921171D01*
X160944926Y-72079752D01*
X161035798Y-72132217D01*
X161161508Y-72204796D01*
X161162075Y-72205123D01*
X161396523Y-72294037D01*
X161642198Y-72344192D01*
X161892736Y-72354288D01*
X162141650Y-72324065D01*
X162382493Y-72254304D01*
X162532083Y-72183323D01*
X162609018Y-72146817D01*
X162609019Y-72146816D01*
X162609026Y-72146813D01*
X162815383Y-72004375D01*
X162996219Y-71830680D01*
X163146850Y-71630226D01*
X163245709Y-71441866D01*
X163263373Y-71408210D01*
X163263373Y-71408209D01*
X163263376Y-71408204D01*
X163342778Y-71170366D01*
X163383000Y-70922871D01*
X163383000Y-70639919D01*
X163367876Y-70452571D01*
X163307869Y-70209115D01*
X163209587Y-69978437D01*
X163116225Y-69830798D01*
X163075576Y-69766516D01*
X163075570Y-69766509D01*
X162909301Y-69578829D01*
X162772020Y-69466742D01*
X162710198Y-69391797D01*
X162681761Y-69298897D01*
X162680500Y-69273867D01*
X162680500Y-68874690D01*
X162681321Y-68854484D01*
X162681750Y-68849206D01*
X162685201Y-68806833D01*
X162674725Y-68729946D01*
X162673908Y-68723280D01*
X162669832Y-68685797D01*
X162665514Y-68646090D01*
X162665513Y-68646087D01*
X162663027Y-68634793D01*
X162660227Y-68623536D01*
X162660227Y-68623532D01*
X162633455Y-68550662D01*
X162631218Y-68544306D01*
X162630852Y-68543221D01*
X162606444Y-68470779D01*
X162606440Y-68470772D01*
X162601550Y-68460204D01*
X162596432Y-68449883D01*
X162554615Y-68384461D01*
X162551082Y-68378766D01*
X162511070Y-68312264D01*
X162511069Y-68312262D01*
X162504070Y-68303056D01*
X162496800Y-68294011D01*
X162441924Y-68239135D01*
X162437223Y-68234304D01*
X162383852Y-68177962D01*
X162383851Y-68177961D01*
X162383849Y-68177959D01*
X162383846Y-68177957D01*
X162373560Y-68169220D01*
X162374178Y-68168491D01*
X162357480Y-68154691D01*
X160632988Y-66430199D01*
X160619280Y-66415329D01*
X160595087Y-66386847D01*
X160588337Y-66378900D01*
X160588335Y-66378899D01*
X160588334Y-66378897D01*
X160526568Y-66331943D01*
X160521259Y-66327793D01*
X160508130Y-66317240D01*
X160460754Y-66279158D01*
X160460750Y-66279156D01*
X160451015Y-66272933D01*
X160441060Y-66266943D01*
X160370604Y-66234347D01*
X160364564Y-66231453D01*
X160295021Y-66196964D01*
X160295019Y-66196963D01*
X160295018Y-66196963D01*
X160284102Y-66192952D01*
X160273167Y-66189268D01*
X160197368Y-66172583D01*
X160190802Y-66171044D01*
X160115494Y-66152315D01*
X160104087Y-66150760D01*
X160092500Y-66149500D01*
X160092497Y-66149500D01*
X160092493Y-66149500D01*
X160014913Y-66149500D01*
X160008172Y-66149409D01*
X159989948Y-66148915D01*
X159930568Y-66147307D01*
X159930567Y-66147307D01*
X159930566Y-66147307D01*
X159917110Y-66148403D01*
X159917032Y-66147449D01*
X159895466Y-66149500D01*
X151951714Y-66149500D01*
X151856426Y-66130546D01*
X151798776Y-66096996D01*
X151768637Y-66073538D01*
X151768627Y-66073531D01*
X151768626Y-66073530D01*
X151768619Y-66073526D01*
X151564512Y-65963068D01*
X151564507Y-65963066D01*
X151564503Y-65963064D01*
X151344981Y-65887702D01*
X151344978Y-65887701D01*
X151344974Y-65887700D01*
X151116049Y-65849500D01*
X150883951Y-65849500D01*
X150655025Y-65887700D01*
X150655019Y-65887701D01*
X150655019Y-65887702D01*
X150435497Y-65963064D01*
X150435494Y-65963065D01*
X150435487Y-65963068D01*
X150231371Y-66073531D01*
X150048220Y-66216083D01*
X150048214Y-66216088D01*
X149891022Y-66386844D01*
X149891019Y-66386848D01*
X149764074Y-66581153D01*
X149670842Y-66793702D01*
X149670841Y-66793706D01*
X149613868Y-67018684D01*
X149613866Y-67018691D01*
X149594700Y-67250000D01*
X149613866Y-67481308D01*
X149613868Y-67481315D01*
X149670841Y-67706293D01*
X149670842Y-67706297D01*
X149764074Y-67918846D01*
X149891019Y-68113151D01*
X149891022Y-68113155D01*
X150048214Y-68283911D01*
X150048220Y-68283916D01*
X150205455Y-68406297D01*
X150231374Y-68426470D01*
X150274639Y-68449884D01*
X150435492Y-68536934D01*
X150444917Y-68541068D01*
X150443972Y-68543221D01*
X150513793Y-68583847D01*
X150572677Y-68661124D01*
X150597505Y-68755053D01*
X150584499Y-68851334D01*
X150535638Y-68935308D01*
X150458361Y-68994192D01*
X150364432Y-69019020D01*
X150348986Y-69019500D01*
X150164994Y-69019500D01*
X150062199Y-69030001D01*
X149895667Y-69085185D01*
X149834523Y-69122899D01*
X149763408Y-69166762D01*
X149672358Y-69200653D01*
X149575267Y-69197121D01*
X149519675Y-69174697D01*
X149519571Y-69174938D01*
X149509965Y-69170781D01*
X149505939Y-69169157D01*
X149505193Y-69168715D01*
X149347497Y-69122901D01*
X149347486Y-69122899D01*
X149345000Y-69122702D01*
X149345000Y-70596000D01*
X149326046Y-70691288D01*
X149272070Y-70772070D01*
X149191288Y-70826046D01*
X149096000Y-70845000D01*
X149094000Y-70845000D01*
X148998712Y-70826046D01*
X148917930Y-70772070D01*
X148863954Y-70691288D01*
X148845000Y-70596000D01*
X148845000Y-69122702D01*
X148844999Y-69122702D01*
X148842513Y-69122899D01*
X148842502Y-69122901D01*
X148684806Y-69168716D01*
X148684797Y-69168719D01*
X148684043Y-69169166D01*
X148682578Y-69169680D01*
X148670429Y-69174938D01*
X148670056Y-69174076D01*
X148592373Y-69201350D01*
X148495365Y-69196005D01*
X148426589Y-69166761D01*
X148355157Y-69122702D01*
X148294334Y-69085186D01*
X148294332Y-69085185D01*
X148294330Y-69085184D01*
X148294332Y-69085184D01*
X148127802Y-69030002D01*
X148127798Y-69030001D01*
X148127797Y-69030001D01*
X148025009Y-69019500D01*
X148025005Y-69019500D01*
X147624993Y-69019500D01*
X147522199Y-69030001D01*
X147355667Y-69085185D01*
X147206346Y-69177286D01*
X147082286Y-69301346D01*
X146990184Y-69450668D01*
X146957660Y-69548822D01*
X146909696Y-69633311D01*
X146833050Y-69693015D01*
X146739391Y-69718842D01*
X146721299Y-69719500D01*
X141942849Y-69719500D01*
X141847561Y-69700546D01*
X141766779Y-69646570D01*
X141759654Y-69639143D01*
X141664785Y-69536088D01*
X141664779Y-69536083D01*
X141481628Y-69393531D01*
X141277512Y-69283068D01*
X141277507Y-69283066D01*
X141277503Y-69283064D01*
X141057981Y-69207702D01*
X141057978Y-69207701D01*
X141057974Y-69207700D01*
X140829049Y-69169500D01*
X140596951Y-69169500D01*
X140368025Y-69207700D01*
X140368019Y-69207701D01*
X140368019Y-69207702D01*
X140148497Y-69283064D01*
X140148494Y-69283065D01*
X140148487Y-69283068D01*
X139944371Y-69393531D01*
X139761220Y-69536083D01*
X139761214Y-69536088D01*
X139604022Y-69706844D01*
X139604019Y-69706848D01*
X139477074Y-69901153D01*
X139383842Y-70113702D01*
X139383841Y-70113706D01*
X139326868Y-70338684D01*
X139326866Y-70338691D01*
X139307700Y-70570000D01*
X139326866Y-70801308D01*
X139326868Y-70801315D01*
X139383841Y-71026293D01*
X139383842Y-71026297D01*
X139477074Y-71238846D01*
X139604017Y-71433149D01*
X139604505Y-71433775D01*
X139604764Y-71434291D01*
X139609654Y-71441776D01*
X139608799Y-71442334D01*
X139648077Y-71520612D01*
X139655100Y-71617513D01*
X139624507Y-71709725D01*
X139560955Y-71783211D01*
X139559595Y-71784262D01*
X139484722Y-71841714D01*
X139484713Y-71841723D01*
X139388466Y-71967155D01*
X139388464Y-71967158D01*
X139388464Y-71967159D01*
X139369595Y-72012712D01*
X139327955Y-72113239D01*
X139312500Y-72230637D01*
X139312500Y-73909360D01*
X139312501Y-73909362D01*
X139327955Y-74026761D01*
X139340374Y-74056742D01*
X139388464Y-74172841D01*
X139388465Y-74172843D01*
X139388466Y-74172844D01*
X139448702Y-74251346D01*
X139484718Y-74298282D01*
X139610159Y-74394536D01*
X139756238Y-74455044D01*
X139873639Y-74470500D01*
X141552360Y-74470499D01*
X141669762Y-74455044D01*
X141815841Y-74394536D01*
X141941282Y-74298282D01*
X142037536Y-74172841D01*
X142098044Y-74026762D01*
X142113500Y-73909361D01*
X142113500Y-73788500D01*
X142132454Y-73693212D01*
X142186430Y-73612430D01*
X142267212Y-73558454D01*
X142362500Y-73539500D01*
X147308501Y-73539500D01*
X147403789Y-73558454D01*
X147484571Y-73612430D01*
X147538547Y-73693212D01*
X147557501Y-73788500D01*
X147538547Y-73883788D01*
X147484571Y-73964570D01*
X147403789Y-74018546D01*
X147386823Y-74024861D01*
X147355668Y-74035184D01*
X147206346Y-74127286D01*
X147082286Y-74251346D01*
X146990184Y-74400668D01*
X146935002Y-74567197D01*
X146935001Y-74567204D01*
X146924500Y-74669988D01*
X146924500Y-76420006D01*
X146935001Y-76522797D01*
X146961660Y-76603249D01*
X146961861Y-76603854D01*
X146974500Y-76682177D01*
X146974500Y-77119571D01*
X146955546Y-77214859D01*
X146901570Y-77295641D01*
X145675753Y-78521458D01*
X145594971Y-78575434D01*
X145499683Y-78594388D01*
X144764913Y-78594388D01*
X144758172Y-78594297D01*
X144739948Y-78593803D01*
X144680568Y-78592195D01*
X144680567Y-78592195D01*
X144680566Y-78592195D01*
X144667110Y-78593291D01*
X144667032Y-78592337D01*
X144645466Y-78594388D01*
X142087665Y-78594388D01*
X141992377Y-78575434D01*
X141911595Y-78521458D01*
X141857619Y-78440676D01*
X141838665Y-78345388D01*
X141857619Y-78250100D01*
X141911595Y-78169318D01*
X141938443Y-78146055D01*
X141997183Y-78102081D01*
X141997189Y-78102075D01*
X142083353Y-77986975D01*
X142133596Y-77852266D01*
X142133598Y-77852259D01*
X142139999Y-77792720D01*
X142140000Y-77792713D01*
X142140000Y-77194889D01*
X142139999Y-77194888D01*
X141155686Y-77194888D01*
X141167641Y-77182933D01*
X141225165Y-77070036D01*
X141244986Y-76944888D01*
X141225165Y-76819740D01*
X141167641Y-76706843D01*
X141155686Y-76694888D01*
X142139999Y-76694888D01*
X142140000Y-76694887D01*
X142140000Y-76097063D01*
X142139999Y-76097055D01*
X142133598Y-76037516D01*
X142133596Y-76037509D01*
X142083353Y-75902800D01*
X141997189Y-75787700D01*
X141997187Y-75787698D01*
X141882087Y-75701534D01*
X141747378Y-75651291D01*
X141747371Y-75651289D01*
X141687832Y-75644888D01*
X141090001Y-75644888D01*
X141090000Y-75644889D01*
X141090000Y-76629202D01*
X141078045Y-76617247D01*
X140965148Y-76559723D01*
X140871481Y-76544888D01*
X140808519Y-76544888D01*
X140714852Y-76559723D01*
X140601955Y-76617247D01*
X140590000Y-76629202D01*
X140590000Y-75644889D01*
X140589999Y-75644888D01*
X139992167Y-75644888D01*
X139932628Y-75651289D01*
X139932621Y-75651291D01*
X139797912Y-75701534D01*
X139682812Y-75787698D01*
X139682810Y-75787700D01*
X139596646Y-75902800D01*
X139546403Y-76037509D01*
X139546401Y-76037516D01*
X139540000Y-76097055D01*
X139540000Y-76694887D01*
X139540001Y-76694888D01*
X140524314Y-76694888D01*
X140512359Y-76706843D01*
X140454835Y-76819740D01*
X140435014Y-76944888D01*
X140454835Y-77070036D01*
X140512359Y-77182933D01*
X140524314Y-77194888D01*
X139540001Y-77194888D01*
X139540000Y-77194889D01*
X139540000Y-77792720D01*
X139546401Y-77852259D01*
X139546403Y-77852266D01*
X139596646Y-77986975D01*
X139682810Y-78102075D01*
X139682815Y-78102080D01*
X139752103Y-78153949D01*
X139817026Y-78226227D01*
X139849348Y-78317848D01*
X139844147Y-78414864D01*
X139802216Y-78502504D01*
X139786079Y-78521924D01*
X139731023Y-78581731D01*
X139604960Y-78774686D01*
X139536974Y-78844091D01*
X139447604Y-78882196D01*
X139350454Y-78883201D01*
X139260315Y-78846951D01*
X139220435Y-78814566D01*
X138951181Y-78545312D01*
X138937473Y-78530442D01*
X138918301Y-78507871D01*
X138906530Y-78494013D01*
X138906528Y-78494012D01*
X138906527Y-78494010D01*
X138844761Y-78447056D01*
X138839452Y-78442906D01*
X138826323Y-78432353D01*
X138778947Y-78394271D01*
X138778943Y-78394269D01*
X138769208Y-78388046D01*
X138759253Y-78382056D01*
X138688797Y-78349460D01*
X138682757Y-78346566D01*
X138613214Y-78312077D01*
X138613212Y-78312076D01*
X138613211Y-78312076D01*
X138602295Y-78308065D01*
X138591360Y-78304381D01*
X138515561Y-78287696D01*
X138508995Y-78286157D01*
X138433687Y-78267428D01*
X138422280Y-78265873D01*
X138410693Y-78264613D01*
X138410690Y-78264613D01*
X138410686Y-78264613D01*
X138333106Y-78264613D01*
X138326365Y-78264522D01*
X138308141Y-78264028D01*
X138248761Y-78262420D01*
X138248760Y-78262420D01*
X138248759Y-78262420D01*
X138235303Y-78263516D01*
X138235225Y-78262562D01*
X138213659Y-78264613D01*
X133061577Y-78264613D01*
X133041371Y-78263792D01*
X132993721Y-78259912D01*
X132993715Y-78259912D01*
X132916814Y-78270389D01*
X132910125Y-78271208D01*
X132832977Y-78279598D01*
X132821687Y-78282083D01*
X132810417Y-78284886D01*
X132737556Y-78311653D01*
X132731202Y-78313890D01*
X132657668Y-78338667D01*
X132647151Y-78343532D01*
X132636770Y-78348681D01*
X132571380Y-78390478D01*
X132565670Y-78394019D01*
X132531027Y-78414864D01*
X132499151Y-78434043D01*
X132489929Y-78441053D01*
X132480897Y-78448313D01*
X132426037Y-78503173D01*
X132421210Y-78507871D01*
X132364849Y-78561259D01*
X132356111Y-78571548D01*
X132355385Y-78570931D01*
X132341578Y-78587632D01*
X131735196Y-79194013D01*
X131720329Y-79207719D01*
X131683900Y-79238662D01*
X131636954Y-79300417D01*
X131632807Y-79305721D01*
X131584163Y-79366238D01*
X131577936Y-79375980D01*
X131571943Y-79385941D01*
X131539353Y-79456381D01*
X131536444Y-79462451D01*
X131501961Y-79531984D01*
X131497960Y-79542872D01*
X131494268Y-79553830D01*
X131477587Y-79629613D01*
X131476049Y-79636175D01*
X131457315Y-79711506D01*
X131455758Y-79722926D01*
X131454500Y-79734506D01*
X131454500Y-79812086D01*
X131454409Y-79818826D01*
X131453460Y-79853883D01*
X131452307Y-79896436D01*
X131453403Y-79909895D01*
X131452449Y-79909972D01*
X131454500Y-79931537D01*
X131454500Y-89103422D01*
X131453679Y-89123628D01*
X131449799Y-89171278D01*
X131449799Y-89171285D01*
X131460276Y-89248188D01*
X131461095Y-89254877D01*
X131469484Y-89332017D01*
X131471969Y-89343305D01*
X131474775Y-89354588D01*
X131501536Y-89427433D01*
X131503773Y-89433786D01*
X131528557Y-89507340D01*
X131533417Y-89517845D01*
X131538567Y-89528227D01*
X131580364Y-89593618D01*
X131583906Y-89599329D01*
X131608906Y-89640879D01*
X131623931Y-89665850D01*
X131630935Y-89675064D01*
X131638197Y-89684099D01*
X131693091Y-89738993D01*
X131697793Y-89743825D01*
X131746633Y-89795385D01*
X131751151Y-89800154D01*
X131751153Y-89800155D01*
X131761440Y-89808893D01*
X131760820Y-89809622D01*
X131777521Y-89823423D01*
X132032929Y-90078831D01*
X132256584Y-90302485D01*
X132310561Y-90383267D01*
X132329515Y-90478555D01*
X132328665Y-90499113D01*
X132322700Y-90571110D01*
X132341866Y-90802421D01*
X132341868Y-90802428D01*
X132370484Y-90915428D01*
X132398843Y-91027413D01*
X132428296Y-91094560D01*
X132492074Y-91239959D01*
X132619018Y-91434263D01*
X132674078Y-91494074D01*
X132724669Y-91577017D01*
X132739669Y-91673007D01*
X132716793Y-91767431D01*
X132659525Y-91845913D01*
X132640105Y-91862050D01*
X132570813Y-91913922D01*
X132570810Y-91913925D01*
X132484646Y-92029025D01*
X132434403Y-92163734D01*
X132434401Y-92163741D01*
X132428000Y-92223280D01*
X132428000Y-92821112D01*
X132428001Y-92821113D01*
X133412314Y-92821113D01*
X133400359Y-92833068D01*
X133342835Y-92945965D01*
X133323014Y-93071113D01*
X133342835Y-93196261D01*
X133400359Y-93309158D01*
X133412314Y-93321113D01*
X132428001Y-93321113D01*
X132428000Y-93321114D01*
X132428000Y-93918945D01*
X132434401Y-93978484D01*
X132434403Y-93978491D01*
X132484646Y-94113200D01*
X132570810Y-94228300D01*
X132570812Y-94228302D01*
X132685912Y-94314466D01*
X132820621Y-94364709D01*
X132820628Y-94364711D01*
X132880167Y-94371112D01*
X132880175Y-94371113D01*
X133477999Y-94371113D01*
X133478000Y-94371112D01*
X133478000Y-93386799D01*
X133489955Y-93398754D01*
X133602852Y-93456278D01*
X133696519Y-93471113D01*
X133759481Y-93471113D01*
X133853148Y-93456278D01*
X133966045Y-93398754D01*
X133978000Y-93386799D01*
X133978000Y-94371112D01*
X133978001Y-94371113D01*
X134575825Y-94371113D01*
X134575832Y-94371112D01*
X134635371Y-94364711D01*
X134635378Y-94364709D01*
X134770087Y-94314466D01*
X134885187Y-94228302D01*
X134885189Y-94228300D01*
X134971353Y-94113200D01*
X135021596Y-93978491D01*
X135021598Y-93978484D01*
X135027999Y-93918945D01*
X135028000Y-93918938D01*
X135028000Y-93321114D01*
X135027999Y-93321113D01*
X134043686Y-93321113D01*
X134055641Y-93309158D01*
X134113165Y-93196261D01*
X134132986Y-93071113D01*
X134113165Y-92945965D01*
X134055641Y-92833068D01*
X134043686Y-92821113D01*
X135027999Y-92821113D01*
X135028000Y-92821112D01*
X135028000Y-92223288D01*
X135027999Y-92223280D01*
X135021598Y-92163741D01*
X135021596Y-92163734D01*
X134971353Y-92029025D01*
X134885189Y-91913925D01*
X134885187Y-91913923D01*
X134815895Y-91862051D01*
X134750972Y-91789773D01*
X134718651Y-91698152D01*
X134723852Y-91601136D01*
X134765783Y-91513495D01*
X134781923Y-91494073D01*
X134836977Y-91434268D01*
X134836980Y-91434264D01*
X134836981Y-91434263D01*
X134963924Y-91239962D01*
X135057157Y-91027413D01*
X135114134Y-90802418D01*
X135133300Y-90571113D01*
X135130443Y-90536638D01*
X135141464Y-90440114D01*
X135188585Y-90355151D01*
X135264633Y-90294688D01*
X135358030Y-90267929D01*
X135432110Y-90272898D01*
X135452669Y-90277424D01*
X135459184Y-90278951D01*
X135534502Y-90297684D01*
X135545953Y-90299243D01*
X135557501Y-90300499D01*
X135557503Y-90300500D01*
X135635087Y-90300500D01*
X135641828Y-90300591D01*
X135643064Y-90300624D01*
X135719432Y-90302693D01*
X135719440Y-90302691D01*
X135732890Y-90301597D01*
X135732967Y-90302550D01*
X135754534Y-90300500D01*
X138547500Y-90300500D01*
X138642788Y-90319454D01*
X138723570Y-90373430D01*
X138777546Y-90454212D01*
X138796500Y-90549500D01*
X138796500Y-92295006D01*
X138807001Y-92397800D01*
X138862185Y-92564332D01*
X138862186Y-92564334D01*
X138954288Y-92713656D01*
X139078344Y-92837712D01*
X139227666Y-92929814D01*
X139227669Y-92929815D01*
X139227667Y-92929815D01*
X139391310Y-92984040D01*
X139394203Y-92984999D01*
X139496991Y-92995500D01*
X139897008Y-92995499D01*
X139999797Y-92984999D01*
X140166334Y-92929814D01*
X140201282Y-92908257D01*
X140292331Y-92874366D01*
X140389422Y-92877897D01*
X140462716Y-92908257D01*
X140497666Y-92929814D01*
X140497668Y-92929815D01*
X140613655Y-92968249D01*
X140664203Y-92984999D01*
X140766991Y-92995500D01*
X141167008Y-92995499D01*
X141269797Y-92984999D01*
X141436334Y-92929814D01*
X141568590Y-92848238D01*
X141659640Y-92814347D01*
X141756731Y-92817879D01*
X141812325Y-92840301D01*
X141812429Y-92840062D01*
X141821998Y-92844203D01*
X141826054Y-92845839D01*
X141826806Y-92846283D01*
X141984507Y-92892099D01*
X141986999Y-92892296D01*
X141987000Y-92892295D01*
X141987000Y-91419000D01*
X142005954Y-91323712D01*
X142059930Y-91242930D01*
X142140712Y-91188954D01*
X142236000Y-91170000D01*
X142238000Y-91170000D01*
X142333288Y-91188954D01*
X142414070Y-91242930D01*
X142468046Y-91323712D01*
X142487000Y-91419000D01*
X142487000Y-92892296D01*
X142489492Y-92892099D01*
X142647193Y-92846284D01*
X142647939Y-92845843D01*
X142649390Y-92845333D01*
X142661571Y-92840062D01*
X142661944Y-92840924D01*
X142739605Y-92813651D01*
X142836614Y-92818989D01*
X142905410Y-92848238D01*
X142993368Y-92902490D01*
X143064519Y-92968645D01*
X143104938Y-93056993D01*
X143108470Y-93154084D01*
X143074579Y-93245136D01*
X143038720Y-93290489D01*
X139338052Y-96991157D01*
X139257270Y-97045133D01*
X139222334Y-97055159D01*
X139222684Y-97056539D01*
X139212701Y-97059066D01*
X138985345Y-97137116D01*
X138773931Y-97251529D01*
X138695907Y-97312258D01*
X138584236Y-97399175D01*
X138584234Y-97399176D01*
X138584234Y-97399177D01*
X138584228Y-97399182D01*
X138416866Y-97580987D01*
X138338384Y-97638256D01*
X138243961Y-97661131D01*
X138147971Y-97646131D01*
X138065028Y-97595539D01*
X138057601Y-97588414D01*
X137901076Y-97431889D01*
X137707576Y-97296399D01*
X137493484Y-97196566D01*
X137280001Y-97139363D01*
X137280000Y-97139364D01*
X137280000Y-98034498D01*
X137172315Y-97985320D01*
X137065763Y-97970000D01*
X136994237Y-97970000D01*
X136887685Y-97985320D01*
X136780000Y-98034498D01*
X136780000Y-97139364D01*
X136779998Y-97139363D01*
X136566516Y-97196566D01*
X136566505Y-97196570D01*
X136352428Y-97296396D01*
X136352420Y-97296400D01*
X136158923Y-97431889D01*
X135991889Y-97598923D01*
X135856400Y-97792420D01*
X135856396Y-97792428D01*
X135756570Y-98006505D01*
X135756566Y-98006516D01*
X135699363Y-98219998D01*
X135699364Y-98220000D01*
X136596314Y-98220000D01*
X136570507Y-98260156D01*
X136530000Y-98398111D01*
X136530000Y-98541889D01*
X136570507Y-98679844D01*
X136596314Y-98720000D01*
X135699364Y-98720000D01*
X135699363Y-98720001D01*
X135756566Y-98933483D01*
X135756566Y-98933485D01*
X135809209Y-99046377D01*
X135832301Y-99140748D01*
X135817521Y-99236772D01*
X135767120Y-99319831D01*
X135688770Y-99377280D01*
X135594399Y-99400372D01*
X135498375Y-99385592D01*
X135415316Y-99335191D01*
X135407468Y-99327679D01*
X129698430Y-93618641D01*
X129644454Y-93537859D01*
X129625500Y-93442571D01*
X129625500Y-76319428D01*
X129644454Y-76224140D01*
X129698428Y-76143360D01*
X136448662Y-69393125D01*
X136529441Y-69339152D01*
X136624729Y-69320198D01*
X136665711Y-69323593D01*
X136826951Y-69350500D01*
X137059049Y-69350500D01*
X137287981Y-69312298D01*
X137507503Y-69236936D01*
X137711626Y-69126470D01*
X137894784Y-68983913D01*
X138051979Y-68813153D01*
X138178924Y-68618849D01*
X138272157Y-68406300D01*
X138329134Y-68181305D01*
X138348300Y-67950000D01*
X138329134Y-67718695D01*
X138272157Y-67493700D01*
X138178924Y-67281151D01*
X138051979Y-67086847D01*
X138051977Y-67086844D01*
X137894785Y-66916088D01*
X137894779Y-66916083D01*
X137711628Y-66773531D01*
X137507512Y-66663068D01*
X137507507Y-66663066D01*
X137507503Y-66663064D01*
X137287981Y-66587702D01*
X137287978Y-66587701D01*
X137287974Y-66587700D01*
X137059049Y-66549500D01*
X136826951Y-66549500D01*
X136598025Y-66587700D01*
X136598019Y-66587701D01*
X136598019Y-66587702D01*
X136378497Y-66663064D01*
X136378494Y-66663065D01*
X136378487Y-66663068D01*
X136174371Y-66773531D01*
X135991220Y-66916083D01*
X135991214Y-66916088D01*
X135834022Y-67086844D01*
X135834019Y-67086848D01*
X135707074Y-67281153D01*
X135613842Y-67493702D01*
X135613841Y-67493706D01*
X135556868Y-67718684D01*
X135556864Y-67718702D01*
X135549888Y-67802895D01*
X135523130Y-67896292D01*
X135477809Y-67958401D01*
X128205190Y-75231019D01*
X128190322Y-75244725D01*
X128153900Y-75275662D01*
X128106954Y-75337417D01*
X128102807Y-75342721D01*
X128054163Y-75403238D01*
X128047936Y-75412980D01*
X128041943Y-75422941D01*
X128009353Y-75493381D01*
X128006444Y-75499451D01*
X127971961Y-75568984D01*
X127967960Y-75579872D01*
X127964268Y-75590830D01*
X127947587Y-75666613D01*
X127946049Y-75673175D01*
X127927315Y-75748506D01*
X127925758Y-75759926D01*
X127924500Y-75771506D01*
X127924500Y-75849086D01*
X127924409Y-75855826D01*
X127922307Y-75933436D01*
X127923403Y-75946895D01*
X127922449Y-75946972D01*
X127924500Y-75968537D01*
X127924500Y-93853309D01*
X127923679Y-93873515D01*
X127919799Y-93921165D01*
X127919799Y-93921172D01*
X126372897Y-93921172D01*
X126262220Y-66750000D01*
X127244390Y-66750000D01*
X127264804Y-67035428D01*
X127275989Y-67086847D01*
X127325631Y-67315045D01*
X127425631Y-67583158D01*
X127562775Y-67834317D01*
X127607349Y-67893860D01*
X127734261Y-68063395D01*
X127936605Y-68265739D01*
X128124363Y-68406293D01*
X128151316Y-68426470D01*
X128165685Y-68437226D01*
X128378950Y-68553678D01*
X128416841Y-68574368D01*
X128442256Y-68583847D01*
X128684954Y-68674369D01*
X128964572Y-68735196D01*
X129178552Y-68750500D01*
X129178557Y-68750500D01*
X129321443Y-68750500D01*
X129321448Y-68750500D01*
X129535428Y-68735196D01*
X129815046Y-68674369D01*
X130083161Y-68574367D01*
X130334315Y-68437226D01*
X130563395Y-68265739D01*
X130765739Y-68063395D01*
X130937226Y-67834315D01*
X131074367Y-67583161D01*
X131174369Y-67315046D01*
X131235196Y-67035428D01*
X131255610Y-66750000D01*
X131235196Y-66464572D01*
X131174369Y-66184954D01*
X131074367Y-65916839D01*
X130937226Y-65665685D01*
X130765739Y-65436605D01*
X130563395Y-65234261D01*
X130399661Y-65111691D01*
X130334317Y-65062775D01*
X130083158Y-64925631D01*
X129937970Y-64871479D01*
X129815046Y-64825631D01*
X129815047Y-64825631D01*
X129535429Y-64764804D01*
X129321448Y-64749500D01*
X129178552Y-64749500D01*
X129178551Y-64749500D01*
X128964570Y-64764804D01*
X128684954Y-64825631D01*
X128416841Y-64925631D01*
X128165682Y-65062775D01*
X128001951Y-65185343D01*
X127936605Y-65234261D01*
X127936604Y-65234262D01*
X127734262Y-65436604D01*
X127734260Y-65436607D01*
X127562775Y-65665682D01*
X127425631Y-65916841D01*
X127325631Y-66184954D01*
X127273838Y-66423045D01*
X127264804Y-66464572D01*
X127244390Y-66750000D01*
X126262220Y-66750000D01*
X126251018Y-64000012D01*
X126269584Y-63904650D01*
X126323231Y-63823649D01*
X126403792Y-63769344D01*
X126499002Y-63750002D01*
X126500016Y-63750000D01*
X195001815Y-63750000D01*
X195097103Y-63768954D01*
G37*
%TD.AperFunction*%
%TD*%
M02*
