%TF.GenerationSoftware,KiCad,Pcbnew,7.0.10*%
%TF.CreationDate,2024-04-03T15:56:11+05:30*%
%TF.ProjectId,power converter,706f7765-7220-4636-9f6e-766572746572,rev?*%
%TF.SameCoordinates,Original*%
%TF.FileFunction,Copper,L2,Bot*%
%TF.FilePolarity,Positive*%
%FSLAX46Y46*%
G04 Gerber Fmt 4.6, Leading zero omitted, Abs format (unit mm)*
G04 Created by KiCad (PCBNEW 7.0.10) date 2024-04-03 15:56:11*
%MOMM*%
%LPD*%
G01*
G04 APERTURE LIST*
G04 Aperture macros list*
%AMRoundRect*
0 Rectangle with rounded corners*
0 $1 Rounding radius*
0 $2 $3 $4 $5 $6 $7 $8 $9 X,Y pos of 4 corners*
0 Add a 4 corners polygon primitive as box body*
4,1,4,$2,$3,$4,$5,$6,$7,$8,$9,$2,$3,0*
0 Add four circle primitives for the rounded corners*
1,1,$1+$1,$2,$3*
1,1,$1+$1,$4,$5*
1,1,$1+$1,$6,$7*
1,1,$1+$1,$8,$9*
0 Add four rect primitives between the rounded corners*
20,1,$1+$1,$2,$3,$4,$5,0*
20,1,$1+$1,$4,$5,$6,$7,0*
20,1,$1+$1,$6,$7,$8,$9,0*
20,1,$1+$1,$8,$9,$2,$3,0*%
G04 Aperture macros list end*
%TA.AperFunction,ComponentPad*%
%ADD10R,1.700000X1.700000*%
%TD*%
%TA.AperFunction,ComponentPad*%
%ADD11O,1.700000X1.700000*%
%TD*%
%TA.AperFunction,ComponentPad*%
%ADD12R,1.600000X1.600000*%
%TD*%
%TA.AperFunction,ComponentPad*%
%ADD13C,1.600000*%
%TD*%
%TA.AperFunction,ComponentPad*%
%ADD14R,1.905000X2.000000*%
%TD*%
%TA.AperFunction,ComponentPad*%
%ADD15O,1.905000X2.000000*%
%TD*%
%TA.AperFunction,ComponentPad*%
%ADD16O,2.000000X3.000000*%
%TD*%
%TA.AperFunction,ComponentPad*%
%ADD17O,3.000000X2.000000*%
%TD*%
%TA.AperFunction,ComponentPad*%
%ADD18R,3.500000X3.500000*%
%TD*%
%TA.AperFunction,ComponentPad*%
%ADD19RoundRect,0.750000X-1.000000X0.750000X-1.000000X-0.750000X1.000000X-0.750000X1.000000X0.750000X0*%
%TD*%
%TA.AperFunction,ComponentPad*%
%ADD20RoundRect,0.875000X-0.875000X0.875000X-0.875000X-0.875000X0.875000X-0.875000X0.875000X0.875000X0*%
%TD*%
%TA.AperFunction,ViaPad*%
%ADD21C,1.600000*%
%TD*%
%TA.AperFunction,Conductor*%
%ADD22C,0.500000*%
%TD*%
G04 APERTURE END LIST*
D10*
%TO.P,J4,1,Pin_1*%
%TO.N,/15 V*%
X170050000Y-95930000D03*
D11*
%TO.P,J4,2,Pin_2*%
%TO.N,GND*%
X170050000Y-98470000D03*
%TD*%
D12*
%TO.P,C3,1*%
%TO.N,Net-(U5-CAP+)*%
X140713000Y-73070000D03*
D13*
%TO.P,C3,2*%
%TO.N,Net-(U5-CAP-)*%
X140713000Y-70570000D03*
%TD*%
D14*
%TO.P,U6,1,IN*%
%TO.N,/15 V*%
X173250000Y-70750000D03*
D15*
%TO.P,U6,2,GND*%
%TO.N,GND*%
X175790000Y-70750000D03*
%TO.P,U6,3,OUT*%
%TO.N,/9 V*%
X178330000Y-70750000D03*
%TD*%
D10*
%TO.P,J3,1,Pin_1*%
%TO.N,/15 V*%
X142110000Y-98470000D03*
D11*
%TO.P,J3,2,Pin_2*%
%TO.N,/-15 V*%
X139570000Y-98470000D03*
%TO.P,J3,3,Pin_3*%
%TO.N,GND*%
X137030000Y-98470000D03*
%TD*%
D16*
%TO.P,SW1,1,A*%
%TO.N,/9 V*%
X190850000Y-109150000D03*
%TO.P,SW1,2,B*%
%TO.N,Net-(J5-Pin_3)*%
X186850000Y-109150000D03*
%TO.P,SW1,3,C*%
%TO.N,/5 V*%
X182850000Y-109150000D03*
%TD*%
D12*
%TO.P,C2,1*%
%TO.N,Net-(U4-CAP+)*%
X133855000Y-83165113D03*
D13*
%TO.P,C2,2*%
%TO.N,Net-(U4-CAP-)*%
X133855000Y-80665113D03*
%TD*%
D10*
%TO.P,J6,1,Pin_1*%
%TO.N,/1.8 V*%
X157350000Y-98470000D03*
D11*
%TO.P,J6,2,Pin_2*%
%TO.N,GND*%
X159890000Y-98470000D03*
%TO.P,J6,3,Pin_3*%
%TO.N,/3.3 V*%
X162430000Y-98470000D03*
%TO.P,J6,4,Pin_4*%
%TO.N,/9 V*%
X164970000Y-98470000D03*
%TD*%
D10*
%TO.P,J2,1,Pin_1*%
%TO.N,/5 V*%
X152270000Y-98470000D03*
D11*
%TO.P,J2,2,Pin_2*%
%TO.N,/-5 V*%
X149730000Y-98470000D03*
%TO.P,J2,3,Pin_3*%
%TO.N,GND*%
X147190000Y-98470000D03*
%TD*%
D17*
%TO.P,SW2,1,A*%
%TO.N,/15 V*%
X192450000Y-88350000D03*
%TO.P,SW2,2,B*%
%TO.N,Net-(SW2-B)*%
X192450000Y-84350000D03*
%TO.P,SW2,3,C*%
%TO.N,unconnected-(SW2-C-Pad3)*%
X192450000Y-80350000D03*
%TD*%
D10*
%TO.P,J5,1,Pin_1*%
%TO.N,/15 V*%
X179170000Y-95750000D03*
D11*
%TO.P,J5,2,Pin_2*%
%TO.N,/5 V*%
X181710000Y-95750000D03*
%TO.P,J5,3,Pin_3*%
%TO.N,Net-(J5-Pin_3)*%
X184250000Y-95750000D03*
%TO.P,J5,4,Pin_4*%
%TO.N,GND*%
X186790000Y-95750000D03*
%TO.P,J5,5,Pin_5*%
%TO.N,Net-(J5-Pin_5)*%
X189330000Y-95750000D03*
%TO.P,J5,6,Pin_6*%
%TO.N,/-15 V*%
X191870000Y-95750000D03*
%TD*%
D12*
%TO.P,C4,1*%
%TO.N,GND*%
X140840000Y-76944888D03*
D13*
%TO.P,C4,2*%
%TO.N,/-15 V*%
X140840000Y-79444888D03*
%TD*%
D18*
%TO.P,J1,1*%
%TO.N,Net-(SW2-B)*%
X190500000Y-75500000D03*
D19*
%TO.P,J1,2*%
%TO.N,GND*%
X190500000Y-69500000D03*
D20*
%TO.P,J1,3*%
%TO.N,N/C*%
X185800000Y-72500000D03*
%TD*%
D14*
%TO.P,U1,1,VI*%
%TO.N,/15 V*%
X156750000Y-70750000D03*
D15*
%TO.P,U1,2,GND*%
%TO.N,GND*%
X159290000Y-70750000D03*
%TO.P,U1,3,VO*%
%TO.N,/5 V*%
X161830000Y-70750000D03*
%TD*%
D12*
%TO.P,C1,1*%
%TO.N,GND*%
X133728000Y-93071113D03*
D13*
%TO.P,C1,2*%
%TO.N,/-5 V*%
X133728000Y-90571113D03*
%TD*%
D16*
%TO.P,SW3,1,A*%
%TO.N,GND*%
X164050000Y-109150000D03*
%TO.P,SW3,2,B*%
%TO.N,Net-(J5-Pin_5)*%
X160050000Y-109150000D03*
%TO.P,SW3,3,C*%
%TO.N,/-5 V*%
X156050000Y-109150000D03*
%TD*%
D21*
%TO.N,GND*%
X179250000Y-104750000D03*
X176750000Y-87350000D03*
X139697000Y-95041000D03*
X133250000Y-75750000D03*
X157604000Y-94660000D03*
X148250000Y-109750000D03*
X149603000Y-94787000D03*
X140250000Y-65750000D03*
X129250000Y-70750000D03*
X162250000Y-76500000D03*
X159250000Y-105750000D03*
X168250000Y-106750000D03*
X147250000Y-65350000D03*
X161668000Y-101264000D03*
X134250000Y-105750000D03*
X136522000Y-75737000D03*
X185250000Y-92750000D03*
X170500000Y-75250000D03*
X150250000Y-78750000D03*
X173250000Y-82500000D03*
X191250000Y-101750000D03*
X184250000Y-81950000D03*
X154250000Y-100750000D03*
X165750000Y-70500000D03*
X129250000Y-100750000D03*
%TO.N,/15 V*%
X144396000Y-103550000D03*
X155750000Y-78000000D03*
%TO.N,/5 V*%
X151000000Y-67250000D03*
X139824000Y-83484000D03*
X136943000Y-67950000D03*
%TO.N,/9 V*%
X176250000Y-100750000D03*
%TO.N,Net-(J5-Pin_5)*%
X171050000Y-102300000D03*
%TD*%
D22*
%TO.N,GND*%
X159290000Y-69460000D02*
X160500000Y-68250000D01*
X165750000Y-69250000D02*
X165750000Y-70500000D01*
X159290000Y-70750000D02*
X159290000Y-69460000D01*
X164750000Y-68250000D02*
X165750000Y-69250000D01*
X160500000Y-68250000D02*
X164750000Y-68250000D01*
%TO.N,/-5 V*%
X136014000Y-91485000D02*
X136014000Y-93885113D01*
X149339016Y-100839016D02*
X149319016Y-100819016D01*
X156050000Y-106728032D02*
X156050000Y-109150000D01*
X134109000Y-99740000D02*
X140119000Y-105750000D01*
X150160984Y-100839016D02*
X156050000Y-106728032D01*
X149730000Y-100180000D02*
X149730000Y-98470000D01*
X140119000Y-105750000D02*
X144388032Y-105750000D01*
X149730000Y-100408032D02*
X149730000Y-98470000D01*
X150160984Y-100839016D02*
X149339016Y-100839016D01*
X135100113Y-90571113D02*
X136014000Y-91485000D01*
X150160984Y-100839016D02*
X149730000Y-100408032D01*
X144388032Y-105750000D02*
X149319016Y-100819016D01*
X134109000Y-95790113D02*
X134109000Y-99740000D01*
X133728000Y-90571113D02*
X135100113Y-90571113D01*
X149319016Y-100819016D02*
X149730000Y-100408032D01*
X136014000Y-93885113D02*
X134109000Y-95790113D01*
%TO.N,/15 V*%
X155750000Y-78000000D02*
X154900000Y-78000000D01*
X179170000Y-95750000D02*
X177490000Y-95750000D01*
X142110000Y-98470000D02*
X142110000Y-101264000D01*
X142110000Y-101264000D02*
X144396000Y-103550000D01*
X142110000Y-90790000D02*
X142110000Y-98470000D01*
X159740000Y-78000000D02*
X155750000Y-78000000D01*
X177490000Y-95750000D02*
X159740000Y-78000000D01*
X154900000Y-78000000D02*
X142110000Y-90790000D01*
%TO.N,/-15 V*%
X143155112Y-79444888D02*
X140840000Y-79444888D01*
X179500000Y-66750000D02*
X155850000Y-66750000D01*
X191870000Y-95750000D02*
X191870000Y-95690786D01*
X182250000Y-86130000D02*
X182250000Y-69500000D01*
X191870000Y-95750000D02*
X182250000Y-86130000D01*
X155850000Y-66750000D02*
X143155112Y-79444888D01*
X182250000Y-69500000D02*
X179500000Y-66750000D01*
%TO.N,/5 V*%
X182850000Y-96890000D02*
X181710000Y-95750000D01*
X152270000Y-96630000D02*
X152270000Y-98470000D01*
X151000000Y-67250000D02*
X150300000Y-67950000D01*
X142266000Y-83484000D02*
X150500000Y-75250000D01*
X172410000Y-93110000D02*
X155790000Y-93110000D01*
X181710000Y-96190000D02*
X179950000Y-97950000D01*
X139824000Y-83484000D02*
X142266000Y-83484000D01*
X179950000Y-97950000D02*
X177250000Y-97950000D01*
X155790000Y-93110000D02*
X152270000Y-96630000D01*
X177250000Y-97950000D02*
X172410000Y-93110000D01*
X150500000Y-75250000D02*
X159500000Y-75250000D01*
X159500000Y-75250000D02*
X161830000Y-72920000D01*
X161830000Y-72920000D02*
X161830000Y-70750000D01*
X150300000Y-67950000D02*
X136943000Y-67950000D01*
X182850000Y-109150000D02*
X182850000Y-96890000D01*
X181710000Y-95750000D02*
X181710000Y-96190000D01*
%TO.N,/9 V*%
X164910000Y-98410000D02*
X164970000Y-98470000D01*
X167250000Y-100750000D02*
X164970000Y-98470000D01*
X176250000Y-100750000D02*
X167250000Y-100750000D01*
%TO.N,Net-(J5-Pin_3)*%
X186850000Y-109150000D02*
X186850000Y-101850000D01*
X186850000Y-101850000D02*
X184250000Y-99250000D01*
X184250000Y-99250000D02*
X184250000Y-95750000D01*
%TO.N,Net-(J5-Pin_5)*%
X166900000Y-102300000D02*
X171050000Y-102300000D01*
X160050000Y-109150000D02*
X166900000Y-102300000D01*
%TD*%
%TA.AperFunction,Conductor*%
%TO.N,GND*%
G36*
X159379859Y-78869454D02*
G01*
X159460641Y-78923430D01*
X167943558Y-87406347D01*
X172371642Y-91834430D01*
X172425618Y-91915212D01*
X172444572Y-92010500D01*
X172425618Y-92105788D01*
X172371642Y-92186570D01*
X172290860Y-92240546D01*
X172195572Y-92259500D01*
X155834690Y-92259500D01*
X155814484Y-92258679D01*
X155766834Y-92254799D01*
X155766828Y-92254799D01*
X155689927Y-92265276D01*
X155683238Y-92266095D01*
X155606090Y-92274485D01*
X155594800Y-92276970D01*
X155583534Y-92279772D01*
X155510675Y-92306538D01*
X155504324Y-92308774D01*
X155430778Y-92333556D01*
X155420223Y-92338439D01*
X155409881Y-92343568D01*
X155344457Y-92385386D01*
X155338729Y-92388939D01*
X155272263Y-92428929D01*
X155263024Y-92435953D01*
X155254013Y-92443197D01*
X155199132Y-92498077D01*
X155194305Y-92502775D01*
X155137962Y-92556146D01*
X155129224Y-92566435D01*
X155128498Y-92565818D01*
X155114696Y-92582513D01*
X151700190Y-95997019D01*
X151685322Y-96010725D01*
X151648900Y-96041662D01*
X151601954Y-96103417D01*
X151597807Y-96108721D01*
X151549163Y-96169238D01*
X151542936Y-96178980D01*
X151536943Y-96188941D01*
X151504353Y-96259381D01*
X151501444Y-96265451D01*
X151466961Y-96334984D01*
X151462960Y-96345872D01*
X151459268Y-96356830D01*
X151442587Y-96432613D01*
X151441049Y-96439175D01*
X151422315Y-96514506D01*
X151420758Y-96525926D01*
X151419500Y-96537506D01*
X151419500Y-96615086D01*
X151419409Y-96621826D01*
X151417307Y-96699436D01*
X151418403Y-96712895D01*
X151417449Y-96712972D01*
X151419500Y-96734537D01*
X151419500Y-96803853D01*
X151400546Y-96899141D01*
X151346570Y-96979923D01*
X151265790Y-97033898D01*
X151117159Y-97095464D01*
X151117155Y-97095466D01*
X150991723Y-97191713D01*
X150991716Y-97191720D01*
X150941499Y-97257165D01*
X150868454Y-97321223D01*
X150776455Y-97352453D01*
X150679508Y-97346098D01*
X150592372Y-97303128D01*
X150591014Y-97302078D01*
X150526072Y-97251531D01*
X150526068Y-97251528D01*
X150526067Y-97251528D01*
X150398077Y-97182263D01*
X150314655Y-97137117D01*
X150087297Y-97059066D01*
X150087294Y-97059065D01*
X149850192Y-97019500D01*
X149609808Y-97019500D01*
X149372705Y-97059065D01*
X149372702Y-97059066D01*
X149145344Y-97137117D01*
X148933931Y-97251529D01*
X148855907Y-97312258D01*
X148744236Y-97399175D01*
X148744234Y-97399176D01*
X148744234Y-97399177D01*
X148744228Y-97399182D01*
X148576866Y-97580987D01*
X148498384Y-97638256D01*
X148403961Y-97661131D01*
X148307971Y-97646131D01*
X148225028Y-97595539D01*
X148217601Y-97588414D01*
X148061076Y-97431889D01*
X147867576Y-97296399D01*
X147653484Y-97196566D01*
X147440001Y-97139363D01*
X147440000Y-97139364D01*
X147440000Y-98034498D01*
X147332315Y-97985320D01*
X147225763Y-97970000D01*
X147154237Y-97970000D01*
X147047685Y-97985320D01*
X146940000Y-98034498D01*
X146940000Y-97139364D01*
X146939998Y-97139363D01*
X146726516Y-97196566D01*
X146726505Y-97196570D01*
X146512428Y-97296396D01*
X146512420Y-97296400D01*
X146318923Y-97431889D01*
X146151889Y-97598923D01*
X146016400Y-97792420D01*
X146016396Y-97792428D01*
X145916570Y-98006505D01*
X145916566Y-98006516D01*
X145859363Y-98219998D01*
X145859364Y-98220000D01*
X146756314Y-98220000D01*
X146730507Y-98260156D01*
X146690000Y-98398111D01*
X146690000Y-98541889D01*
X146730507Y-98679844D01*
X146756314Y-98720000D01*
X145859364Y-98720000D01*
X145859363Y-98720001D01*
X145916566Y-98933483D01*
X145916566Y-98933485D01*
X146016399Y-99147576D01*
X146151889Y-99341076D01*
X146318923Y-99508110D01*
X146512423Y-99643600D01*
X146726511Y-99743431D01*
X146940000Y-99800635D01*
X146940000Y-98905501D01*
X147047685Y-98954680D01*
X147154237Y-98970000D01*
X147225763Y-98970000D01*
X147332315Y-98954680D01*
X147440000Y-98905501D01*
X147440000Y-99800635D01*
X147653488Y-99743431D01*
X147867576Y-99643600D01*
X148061079Y-99508107D01*
X148217601Y-99351586D01*
X148298382Y-99297609D01*
X148393670Y-99278655D01*
X148488958Y-99297609D01*
X148569740Y-99351585D01*
X148576867Y-99359012D01*
X148581426Y-99363964D01*
X148581429Y-99363969D01*
X148744236Y-99540825D01*
X148783440Y-99571339D01*
X148846992Y-99644820D01*
X148877588Y-99737032D01*
X148879500Y-99767833D01*
X148879500Y-99952603D01*
X148860546Y-100047891D01*
X148806570Y-100128673D01*
X148806566Y-100128676D01*
X148780919Y-100154322D01*
X148750129Y-100180476D01*
X148747721Y-100182205D01*
X148747711Y-100182214D01*
X148705832Y-100228893D01*
X148696576Y-100238665D01*
X148689911Y-100245331D01*
X148689881Y-100245359D01*
X148689882Y-100245360D01*
X146015564Y-102919677D01*
X145934782Y-102973653D01*
X145839494Y-102992607D01*
X145744206Y-102973653D01*
X145663424Y-102919677D01*
X145631039Y-102879797D01*
X145550354Y-102756300D01*
X145504979Y-102686847D01*
X145504977Y-102686845D01*
X145504976Y-102686843D01*
X145347785Y-102516088D01*
X145347779Y-102516083D01*
X145164628Y-102373531D01*
X144960512Y-102263068D01*
X144960507Y-102263066D01*
X144960503Y-102263064D01*
X144740981Y-102187702D01*
X144740978Y-102187701D01*
X144740974Y-102187700D01*
X144512049Y-102149500D01*
X144301428Y-102149500D01*
X144206140Y-102130546D01*
X144125358Y-102076570D01*
X143582356Y-101533568D01*
X143033430Y-100984641D01*
X142979454Y-100903859D01*
X142960500Y-100808571D01*
X142960500Y-100136146D01*
X142979454Y-100040858D01*
X143033430Y-99960076D01*
X143114211Y-99906100D01*
X143116759Y-99905044D01*
X143116762Y-99905044D01*
X143262841Y-99844536D01*
X143388282Y-99748282D01*
X143484536Y-99622841D01*
X143545044Y-99476762D01*
X143560500Y-99359361D01*
X143560499Y-97580640D01*
X143545044Y-97463238D01*
X143484536Y-97317159D01*
X143484065Y-97316545D01*
X143388286Y-97191723D01*
X143388285Y-97191722D01*
X143388282Y-97191718D01*
X143388277Y-97191714D01*
X143388276Y-97191713D01*
X143262844Y-97095466D01*
X143262842Y-97095465D01*
X143262841Y-97095464D01*
X143216879Y-97076426D01*
X143114210Y-97033898D01*
X143033429Y-96979921D01*
X142979453Y-96899140D01*
X142960500Y-96803853D01*
X142960500Y-91245428D01*
X142979454Y-91150140D01*
X143033427Y-91069360D01*
X154814364Y-79288423D01*
X154895143Y-79234450D01*
X154990431Y-79215496D01*
X155085719Y-79234450D01*
X155108942Y-79245507D01*
X155185489Y-79286932D01*
X155185490Y-79286932D01*
X155185497Y-79286936D01*
X155405019Y-79362298D01*
X155633951Y-79400500D01*
X155866049Y-79400500D01*
X156094981Y-79362298D01*
X156314503Y-79286936D01*
X156518626Y-79176470D01*
X156701784Y-79033913D01*
X156754823Y-78976296D01*
X156796654Y-78930857D01*
X156875136Y-78873588D01*
X156969559Y-78850713D01*
X156979849Y-78850500D01*
X159284571Y-78850500D01*
X159379859Y-78869454D01*
G37*
%TD.AperFunction*%
%TA.AperFunction,Conductor*%
G36*
X195097103Y-63768954D02*
G01*
X195177885Y-63822930D01*
X195231861Y-63903712D01*
X195250813Y-63998182D01*
X195410181Y-112600184D01*
X195391539Y-112695533D01*
X195337828Y-112776491D01*
X195257224Y-112830732D01*
X195161998Y-112849999D01*
X195161182Y-112850000D01*
X126697988Y-112850000D01*
X126602700Y-112831046D01*
X126521918Y-112777070D01*
X126467942Y-112696288D01*
X126448990Y-112602014D01*
X126433300Y-108750000D01*
X127244390Y-108750000D01*
X127264804Y-109035428D01*
X127323800Y-109306631D01*
X127325631Y-109315045D01*
X127425631Y-109583158D01*
X127425633Y-109583161D01*
X127562774Y-109834315D01*
X127734261Y-110063395D01*
X127936605Y-110265739D01*
X128165685Y-110437226D01*
X128416839Y-110574367D01*
X128416841Y-110574368D01*
X128458703Y-110589981D01*
X128684954Y-110674369D01*
X128964572Y-110735196D01*
X129178552Y-110750500D01*
X129178557Y-110750500D01*
X129321443Y-110750500D01*
X129321448Y-110750500D01*
X129535428Y-110735196D01*
X129815046Y-110674369D01*
X130083161Y-110574367D01*
X130334315Y-110437226D01*
X130563395Y-110265739D01*
X130765739Y-110063395D01*
X130937226Y-109834315D01*
X131074367Y-109583161D01*
X131174369Y-109315046D01*
X131235196Y-109035428D01*
X131255610Y-108750000D01*
X131235196Y-108464572D01*
X131174369Y-108184954D01*
X131075972Y-107921141D01*
X131074368Y-107916841D01*
X130937224Y-107665682D01*
X130845111Y-107542634D01*
X130765739Y-107436605D01*
X130563395Y-107234261D01*
X130357755Y-107080321D01*
X130334317Y-107062775D01*
X130083158Y-106925631D01*
X129937970Y-106871479D01*
X129815046Y-106825631D01*
X129815047Y-106825631D01*
X129535429Y-106764804D01*
X129321448Y-106749500D01*
X129178552Y-106749500D01*
X129178551Y-106749500D01*
X128964570Y-106764804D01*
X128684954Y-106825631D01*
X128416841Y-106925631D01*
X128165682Y-107062775D01*
X128023670Y-107169085D01*
X127936605Y-107234261D01*
X127936604Y-107234262D01*
X127734262Y-107436604D01*
X127734260Y-107436607D01*
X127562775Y-107665682D01*
X127425631Y-107916841D01*
X127325631Y-108184954D01*
X127265079Y-108463310D01*
X127264804Y-108464572D01*
X127244390Y-108750000D01*
X126433300Y-108750000D01*
X126396633Y-99748286D01*
X126359251Y-90571113D01*
X132322700Y-90571113D01*
X132341866Y-90802421D01*
X132341868Y-90802428D01*
X132383611Y-90967264D01*
X132398843Y-91027413D01*
X132417242Y-91069358D01*
X132492074Y-91239959D01*
X132619018Y-91434263D01*
X132674078Y-91494074D01*
X132724669Y-91577017D01*
X132739669Y-91673007D01*
X132716793Y-91767431D01*
X132659525Y-91845913D01*
X132640105Y-91862050D01*
X132570813Y-91913922D01*
X132570810Y-91913925D01*
X132484646Y-92029025D01*
X132434403Y-92163734D01*
X132434401Y-92163741D01*
X132428000Y-92223280D01*
X132428000Y-92821112D01*
X132428001Y-92821113D01*
X133412314Y-92821113D01*
X133400359Y-92833068D01*
X133342835Y-92945965D01*
X133323014Y-93071113D01*
X133342835Y-93196261D01*
X133400359Y-93309158D01*
X133412314Y-93321113D01*
X132428001Y-93321113D01*
X132428000Y-93321114D01*
X132428000Y-93918945D01*
X132434401Y-93978484D01*
X132434403Y-93978491D01*
X132484646Y-94113200D01*
X132570810Y-94228300D01*
X132570812Y-94228302D01*
X132685912Y-94314466D01*
X132820621Y-94364709D01*
X132820628Y-94364711D01*
X132880167Y-94371112D01*
X132880175Y-94371113D01*
X133477999Y-94371113D01*
X133478000Y-94371112D01*
X133478000Y-93386799D01*
X133489955Y-93398754D01*
X133602852Y-93456278D01*
X133696519Y-93471113D01*
X133759481Y-93471113D01*
X133853148Y-93456278D01*
X133966045Y-93398754D01*
X133978000Y-93386799D01*
X133978000Y-94372336D01*
X134029511Y-94449429D01*
X134048465Y-94544717D01*
X134029511Y-94640005D01*
X133975535Y-94720787D01*
X133539190Y-95157132D01*
X133524322Y-95170838D01*
X133487900Y-95201775D01*
X133440954Y-95263530D01*
X133436807Y-95268834D01*
X133388163Y-95329351D01*
X133381936Y-95339093D01*
X133375943Y-95349054D01*
X133343353Y-95419494D01*
X133340444Y-95425564D01*
X133305961Y-95495097D01*
X133301960Y-95505985D01*
X133298268Y-95516943D01*
X133281587Y-95592726D01*
X133280049Y-95599288D01*
X133261315Y-95674619D01*
X133259758Y-95686039D01*
X133258500Y-95697619D01*
X133258500Y-95775199D01*
X133258409Y-95781939D01*
X133256307Y-95859549D01*
X133257403Y-95873008D01*
X133256449Y-95873085D01*
X133258500Y-95894650D01*
X133258500Y-99695309D01*
X133257679Y-99715515D01*
X133253799Y-99763165D01*
X133253799Y-99763172D01*
X133264276Y-99840075D01*
X133265095Y-99846764D01*
X133273484Y-99923904D01*
X133275969Y-99935192D01*
X133278775Y-99946475D01*
X133305536Y-100019320D01*
X133307773Y-100025673D01*
X133332557Y-100099227D01*
X133337417Y-100109732D01*
X133342567Y-100120114D01*
X133342568Y-100120116D01*
X133382254Y-100182205D01*
X133384364Y-100185505D01*
X133387906Y-100191216D01*
X133420466Y-100245331D01*
X133427931Y-100257737D01*
X133434935Y-100266951D01*
X133442197Y-100275986D01*
X133497092Y-100330881D01*
X133501794Y-100335713D01*
X133555150Y-100392040D01*
X133565441Y-100400781D01*
X133564821Y-100401510D01*
X133581520Y-100415309D01*
X139486010Y-106319798D01*
X139499708Y-106334657D01*
X139519774Y-106358280D01*
X139530664Y-106371101D01*
X139592458Y-106418076D01*
X139597769Y-106422228D01*
X139608767Y-106431068D01*
X139658247Y-106470842D01*
X139658253Y-106470845D01*
X139668006Y-106477079D01*
X139677933Y-106483052D01*
X139677936Y-106483054D01*
X139748407Y-106515657D01*
X139754419Y-106518538D01*
X139823979Y-106553037D01*
X139823983Y-106553038D01*
X139834867Y-106557036D01*
X139845822Y-106560727D01*
X139845833Y-106560732D01*
X139921655Y-106577421D01*
X139928142Y-106578941D01*
X140003506Y-106597684D01*
X140003507Y-106597684D01*
X140014969Y-106599245D01*
X140026501Y-106600499D01*
X140026503Y-106600500D01*
X140104088Y-106600500D01*
X140110829Y-106600591D01*
X140112065Y-106600624D01*
X140188433Y-106602693D01*
X140188441Y-106602691D01*
X140201891Y-106601597D01*
X140201968Y-106602550D01*
X140223535Y-106600500D01*
X144343342Y-106600500D01*
X144363548Y-106601321D01*
X144369237Y-106601784D01*
X144411199Y-106605201D01*
X144488130Y-106594718D01*
X144494717Y-106593911D01*
X144571942Y-106585514D01*
X144571943Y-106585513D01*
X144583249Y-106583024D01*
X144594493Y-106580227D01*
X144594500Y-106580227D01*
X144648479Y-106560395D01*
X144667353Y-106553462D01*
X144673713Y-106551223D01*
X144705437Y-106540533D01*
X144747253Y-106526444D01*
X144747262Y-106526438D01*
X144757786Y-106521570D01*
X144768136Y-106516436D01*
X144768148Y-106516432D01*
X144833602Y-106474593D01*
X144839241Y-106471096D01*
X144905768Y-106431070D01*
X144905778Y-106431059D01*
X144915013Y-106424041D01*
X144924018Y-106416802D01*
X144924018Y-106416801D01*
X144924021Y-106416800D01*
X144978927Y-106361892D01*
X144983685Y-106357261D01*
X145040073Y-106303849D01*
X145040074Y-106303848D01*
X145048813Y-106293559D01*
X145049546Y-106294182D01*
X145063340Y-106277479D01*
X149553934Y-101786886D01*
X149634711Y-101732914D01*
X149729999Y-101713960D01*
X149825287Y-101732914D01*
X149906069Y-101786890D01*
X155112194Y-106993015D01*
X155166170Y-107073797D01*
X155185124Y-107169085D01*
X155166170Y-107264373D01*
X155112194Y-107345155D01*
X155097838Y-107358425D01*
X154914780Y-107514772D01*
X154914773Y-107514779D01*
X154751160Y-107706345D01*
X154751158Y-107706347D01*
X154619537Y-107921135D01*
X154619533Y-107921141D01*
X154523129Y-108153883D01*
X154523126Y-108153891D01*
X154464316Y-108398854D01*
X154449500Y-108587106D01*
X154449500Y-109712893D01*
X154464316Y-109901145D01*
X154523126Y-110146108D01*
X154523129Y-110146116D01*
X154619533Y-110378858D01*
X154619537Y-110378864D01*
X154751158Y-110593652D01*
X154751160Y-110593654D01*
X154751163Y-110593657D01*
X154751164Y-110593659D01*
X154914776Y-110785224D01*
X155106341Y-110948836D01*
X155106345Y-110948839D01*
X155106347Y-110948841D01*
X155236125Y-111028368D01*
X155321141Y-111080466D01*
X155553889Y-111176873D01*
X155798852Y-111235683D01*
X155870608Y-111241330D01*
X156049995Y-111255449D01*
X156050000Y-111255449D01*
X156050005Y-111255449D01*
X156206967Y-111243095D01*
X156301148Y-111235683D01*
X156546111Y-111176873D01*
X156778859Y-111080466D01*
X156900974Y-111005633D01*
X156993652Y-110948841D01*
X156993654Y-110948839D01*
X156993653Y-110948839D01*
X156993659Y-110948836D01*
X157185224Y-110785224D01*
X157348836Y-110593659D01*
X157348839Y-110593653D01*
X157348841Y-110593652D01*
X157405633Y-110500974D01*
X157480466Y-110378859D01*
X157576873Y-110146111D01*
X157635683Y-109901148D01*
X157650500Y-109712882D01*
X157650500Y-108587118D01*
X157635683Y-108398852D01*
X157576873Y-108153889D01*
X157480466Y-107921141D01*
X157454624Y-107878971D01*
X157348841Y-107706347D01*
X157348839Y-107706345D01*
X157314112Y-107665685D01*
X157185224Y-107514776D01*
X156993659Y-107351164D01*
X156993658Y-107351163D01*
X156987787Y-107346149D01*
X156927639Y-107269851D01*
X156901268Y-107176344D01*
X156900500Y-107156808D01*
X156900500Y-106772722D01*
X156901321Y-106752516D01*
X156902733Y-106735174D01*
X156905201Y-106704865D01*
X156894725Y-106627978D01*
X156893908Y-106621312D01*
X156891373Y-106597999D01*
X156885514Y-106544122D01*
X156885513Y-106544119D01*
X156883027Y-106532825D01*
X156880227Y-106521568D01*
X156880227Y-106521564D01*
X156853455Y-106448694D01*
X156851218Y-106442338D01*
X156847421Y-106431070D01*
X156826444Y-106368811D01*
X156826440Y-106368804D01*
X156821571Y-106358280D01*
X156816433Y-106347920D01*
X156816432Y-106347916D01*
X156788264Y-106303849D01*
X156774645Y-106282542D01*
X156771088Y-106276808D01*
X156731066Y-106210290D01*
X156724116Y-106201147D01*
X156716802Y-106192048D01*
X156716799Y-106192043D01*
X156716794Y-106192038D01*
X156661942Y-106137185D01*
X156657242Y-106132356D01*
X156603853Y-106075995D01*
X156603851Y-106075994D01*
X156603849Y-106075991D01*
X156603845Y-106075988D01*
X156593564Y-106067256D01*
X156594182Y-106066528D01*
X156577479Y-106052723D01*
X153687911Y-103163155D01*
X150793972Y-100269215D01*
X150780264Y-100254345D01*
X150749320Y-100217915D01*
X150735040Y-100207060D01*
X150709656Y-100184900D01*
X150653429Y-100128672D01*
X150599453Y-100047890D01*
X150580500Y-99952604D01*
X150580500Y-99937665D01*
X150599454Y-99842377D01*
X150653430Y-99761595D01*
X150734212Y-99707619D01*
X150829500Y-99688665D01*
X150924788Y-99707619D01*
X150981082Y-99740120D01*
X150991716Y-99748280D01*
X150991718Y-99748282D01*
X151117159Y-99844536D01*
X151263238Y-99905044D01*
X151380639Y-99920500D01*
X153159360Y-99920499D01*
X153276762Y-99905044D01*
X153422841Y-99844536D01*
X153548282Y-99748282D01*
X153644536Y-99622841D01*
X153705044Y-99476762D01*
X153720500Y-99359361D01*
X153720500Y-99359360D01*
X155899500Y-99359360D01*
X155899501Y-99359362D01*
X155914955Y-99476761D01*
X155940537Y-99538521D01*
X155975464Y-99622841D01*
X155975465Y-99622843D01*
X155975466Y-99622844D01*
X156067995Y-99743431D01*
X156071718Y-99748282D01*
X156071722Y-99748285D01*
X156071723Y-99748286D01*
X156091123Y-99763172D01*
X156197159Y-99844536D01*
X156343238Y-99905044D01*
X156460639Y-99920500D01*
X158239360Y-99920499D01*
X158356762Y-99905044D01*
X158502841Y-99844536D01*
X158628282Y-99748282D01*
X158724536Y-99622841D01*
X158724535Y-99622841D01*
X158734471Y-99609894D01*
X158736545Y-99611485D01*
X158784618Y-99556655D01*
X158871748Y-99513672D01*
X158968694Y-99507305D01*
X159060697Y-99538521D01*
X159079048Y-99550210D01*
X159212423Y-99643600D01*
X159426511Y-99743431D01*
X159640000Y-99800635D01*
X159640000Y-98905501D01*
X159747685Y-98954680D01*
X159854237Y-98970000D01*
X159925763Y-98970000D01*
X160032315Y-98954680D01*
X160140000Y-98905501D01*
X160140000Y-99800635D01*
X160353488Y-99743431D01*
X160567576Y-99643600D01*
X160761079Y-99508107D01*
X160917601Y-99351586D01*
X160998382Y-99297609D01*
X161093670Y-99278655D01*
X161188958Y-99297609D01*
X161269740Y-99351585D01*
X161276867Y-99359012D01*
X161281426Y-99363964D01*
X161281429Y-99363969D01*
X161444236Y-99540825D01*
X161633933Y-99688472D01*
X161845344Y-99802882D01*
X162072703Y-99880934D01*
X162309808Y-99920500D01*
X162550192Y-99920500D01*
X162787297Y-99880934D01*
X163014656Y-99802882D01*
X163226067Y-99688472D01*
X163415764Y-99540825D01*
X163516806Y-99431062D01*
X163595285Y-99373796D01*
X163689709Y-99350920D01*
X163785699Y-99365919D01*
X163868642Y-99416511D01*
X163883184Y-99431053D01*
X163925260Y-99476760D01*
X163984229Y-99540818D01*
X163984231Y-99540819D01*
X163984236Y-99540825D01*
X164173933Y-99688472D01*
X164385344Y-99802882D01*
X164612703Y-99880934D01*
X164849808Y-99920500D01*
X165090183Y-99920500D01*
X165090192Y-99920500D01*
X165090200Y-99920498D01*
X165092921Y-99920273D01*
X165094910Y-99920500D01*
X165100491Y-99920500D01*
X165100491Y-99921136D01*
X165189450Y-99931290D01*
X165274415Y-99978407D01*
X165289563Y-99992351D01*
X166490369Y-101193158D01*
X166544344Y-101273938D01*
X166563298Y-101369226D01*
X166544344Y-101464514D01*
X166490368Y-101545296D01*
X166442672Y-101582583D01*
X166382267Y-101618927D01*
X166373028Y-101625950D01*
X166364012Y-101633198D01*
X166309132Y-101688077D01*
X166304305Y-101692775D01*
X166247962Y-101746146D01*
X166239224Y-101756435D01*
X166238498Y-101755818D01*
X166224696Y-101772513D01*
X160895668Y-107101541D01*
X160814886Y-107155517D01*
X160719598Y-107174471D01*
X160624312Y-107155518D01*
X160576317Y-107135638D01*
X160546111Y-107123127D01*
X160546109Y-107123126D01*
X160546108Y-107123126D01*
X160301145Y-107064316D01*
X160050005Y-107044551D01*
X160049995Y-107044551D01*
X159798854Y-107064316D01*
X159553891Y-107123126D01*
X159553883Y-107123129D01*
X159321141Y-107219533D01*
X159321135Y-107219537D01*
X159106347Y-107351158D01*
X159106345Y-107351160D01*
X158914779Y-107514773D01*
X158914773Y-107514779D01*
X158751160Y-107706345D01*
X158751158Y-107706347D01*
X158619537Y-107921135D01*
X158619533Y-107921141D01*
X158523129Y-108153883D01*
X158523126Y-108153891D01*
X158464316Y-108398854D01*
X158449500Y-108587106D01*
X158449500Y-109712893D01*
X158464316Y-109901145D01*
X158523126Y-110146108D01*
X158523129Y-110146116D01*
X158619533Y-110378858D01*
X158619537Y-110378864D01*
X158751158Y-110593652D01*
X158751160Y-110593654D01*
X158751163Y-110593657D01*
X158751164Y-110593659D01*
X158914776Y-110785224D01*
X159106341Y-110948836D01*
X159106345Y-110948839D01*
X159106347Y-110948841D01*
X159236125Y-111028368D01*
X159321141Y-111080466D01*
X159553889Y-111176873D01*
X159798852Y-111235683D01*
X159870608Y-111241330D01*
X160049995Y-111255449D01*
X160050000Y-111255449D01*
X160050005Y-111255449D01*
X160206967Y-111243095D01*
X160301148Y-111235683D01*
X160546111Y-111176873D01*
X160778859Y-111080466D01*
X160900974Y-111005633D01*
X160993652Y-110948841D01*
X160993654Y-110948839D01*
X160993653Y-110948839D01*
X160993659Y-110948836D01*
X161185224Y-110785224D01*
X161348836Y-110593659D01*
X161348839Y-110593653D01*
X161348841Y-110593652D01*
X161405633Y-110500974D01*
X161480466Y-110378859D01*
X161576873Y-110146111D01*
X161635683Y-109901148D01*
X161650500Y-109712882D01*
X161650500Y-108855428D01*
X161669454Y-108760140D01*
X161723430Y-108679359D01*
X162136108Y-108266680D01*
X162216890Y-108212703D01*
X162312178Y-108193749D01*
X162407466Y-108212703D01*
X162488247Y-108266679D01*
X162542224Y-108347461D01*
X162561178Y-108442749D01*
X162560328Y-108463310D01*
X162550000Y-108587953D01*
X162550000Y-109712041D01*
X162549999Y-109712041D01*
X162565387Y-109897741D01*
X162565389Y-109897748D01*
X162626411Y-110138716D01*
X162651205Y-110195240D01*
X163487226Y-109359219D01*
X163525901Y-109452588D01*
X163622075Y-109577925D01*
X163747412Y-109674099D01*
X163840779Y-109712772D01*
X162918237Y-110635314D01*
X162918236Y-110635315D01*
X163030593Y-110757365D01*
X163226762Y-110910050D01*
X163226769Y-110910055D01*
X163445392Y-111028368D01*
X163680509Y-111109083D01*
X163680512Y-111109084D01*
X163925706Y-111150000D01*
X164174294Y-111150000D01*
X164419487Y-111109084D01*
X164419490Y-111109083D01*
X164654607Y-111028368D01*
X164873230Y-110910055D01*
X164873237Y-110910050D01*
X165069399Y-110757370D01*
X165069411Y-110757360D01*
X165181761Y-110635315D01*
X164259219Y-109712773D01*
X164352588Y-109674099D01*
X164477925Y-109577925D01*
X164574099Y-109452589D01*
X164612773Y-109359220D01*
X165448793Y-110195240D01*
X165448794Y-110195240D01*
X165473587Y-110138720D01*
X165473588Y-110138718D01*
X165534610Y-109897748D01*
X165534612Y-109897741D01*
X165550000Y-109712041D01*
X165550000Y-108750000D01*
X171164390Y-108750000D01*
X171184804Y-109035428D01*
X171243800Y-109306631D01*
X171245631Y-109315045D01*
X171345631Y-109583158D01*
X171345633Y-109583161D01*
X171482774Y-109834315D01*
X171654261Y-110063395D01*
X171856605Y-110265739D01*
X172085685Y-110437226D01*
X172336839Y-110574367D01*
X172336841Y-110574368D01*
X172378703Y-110589981D01*
X172604954Y-110674369D01*
X172884572Y-110735196D01*
X173098552Y-110750500D01*
X173098557Y-110750500D01*
X173241443Y-110750500D01*
X173241448Y-110750500D01*
X173455428Y-110735196D01*
X173735046Y-110674369D01*
X174003161Y-110574367D01*
X174254315Y-110437226D01*
X174483395Y-110265739D01*
X174685739Y-110063395D01*
X174857226Y-109834315D01*
X174994367Y-109583161D01*
X175094369Y-109315046D01*
X175155196Y-109035428D01*
X175175610Y-108750000D01*
X175155196Y-108464572D01*
X175094369Y-108184954D01*
X174995972Y-107921141D01*
X174994368Y-107916841D01*
X174857224Y-107665682D01*
X174765111Y-107542634D01*
X174685739Y-107436605D01*
X174483395Y-107234261D01*
X174277755Y-107080321D01*
X174254317Y-107062775D01*
X174003158Y-106925631D01*
X173857970Y-106871479D01*
X173735046Y-106825631D01*
X173735047Y-106825631D01*
X173455429Y-106764804D01*
X173241448Y-106749500D01*
X173098552Y-106749500D01*
X173098551Y-106749500D01*
X172884570Y-106764804D01*
X172604954Y-106825631D01*
X172336841Y-106925631D01*
X172085682Y-107062775D01*
X171943670Y-107169085D01*
X171856605Y-107234261D01*
X171856604Y-107234262D01*
X171654262Y-107436604D01*
X171654260Y-107436607D01*
X171482775Y-107665682D01*
X171345631Y-107916841D01*
X171245631Y-108184954D01*
X171185079Y-108463310D01*
X171184804Y-108464572D01*
X171164390Y-108750000D01*
X165550000Y-108750000D01*
X165550000Y-108587958D01*
X165534612Y-108402258D01*
X165534610Y-108402251D01*
X165473588Y-108161284D01*
X165448793Y-108104759D01*
X164612772Y-108940779D01*
X164574099Y-108847412D01*
X164477925Y-108722075D01*
X164352588Y-108625901D01*
X164259219Y-108587226D01*
X165181762Y-107664684D01*
X165069406Y-107542634D01*
X164873237Y-107389949D01*
X164873230Y-107389944D01*
X164654607Y-107271631D01*
X164419490Y-107190916D01*
X164419487Y-107190915D01*
X164174294Y-107150000D01*
X163925705Y-107150000D01*
X163884666Y-107156848D01*
X163787558Y-107153836D01*
X163698994Y-107113892D01*
X163632458Y-107043096D01*
X163598079Y-106952227D01*
X163601091Y-106855119D01*
X163641035Y-106766555D01*
X163667607Y-106735180D01*
X167179358Y-103223430D01*
X167260140Y-103169454D01*
X167355428Y-103150500D01*
X169820151Y-103150500D01*
X169915439Y-103169454D01*
X169996221Y-103223430D01*
X170003346Y-103230857D01*
X170098214Y-103333911D01*
X170098216Y-103333913D01*
X170281374Y-103476470D01*
X170284207Y-103478003D01*
X170485487Y-103586931D01*
X170485489Y-103586931D01*
X170485497Y-103586936D01*
X170705019Y-103662298D01*
X170933951Y-103700500D01*
X171166049Y-103700500D01*
X171394981Y-103662298D01*
X171614503Y-103586936D01*
X171818626Y-103476470D01*
X172001784Y-103333913D01*
X172158979Y-103163153D01*
X172285924Y-102968849D01*
X172379157Y-102756300D01*
X172436134Y-102531305D01*
X172455300Y-102300000D01*
X172436134Y-102068695D01*
X172396104Y-101910625D01*
X172391087Y-101813601D01*
X172423581Y-101722041D01*
X172488640Y-101649886D01*
X172576360Y-101608119D01*
X172637486Y-101600500D01*
X175020151Y-101600500D01*
X175115439Y-101619454D01*
X175196221Y-101673430D01*
X175203346Y-101680857D01*
X175296212Y-101781736D01*
X175298216Y-101783913D01*
X175318867Y-101799986D01*
X175480140Y-101925510D01*
X175481374Y-101926470D01*
X175578863Y-101979228D01*
X175685487Y-102036931D01*
X175685489Y-102036931D01*
X175685497Y-102036936D01*
X175905019Y-102112298D01*
X176133951Y-102150500D01*
X176366049Y-102150500D01*
X176594981Y-102112298D01*
X176814503Y-102036936D01*
X177018626Y-101926470D01*
X177201784Y-101783913D01*
X177358979Y-101613153D01*
X177485924Y-101418849D01*
X177579157Y-101206300D01*
X177636134Y-100981305D01*
X177655300Y-100750000D01*
X177636134Y-100518695D01*
X177579157Y-100293700D01*
X177485924Y-100081151D01*
X177418798Y-99978407D01*
X177358980Y-99886848D01*
X177358977Y-99886844D01*
X177201785Y-99716088D01*
X177201779Y-99716083D01*
X177018628Y-99573531D01*
X176814512Y-99463068D01*
X176814507Y-99463066D01*
X176814503Y-99463064D01*
X176594981Y-99387702D01*
X176594978Y-99387701D01*
X176594974Y-99387700D01*
X176366049Y-99349500D01*
X176133951Y-99349500D01*
X175905025Y-99387700D01*
X175905019Y-99387701D01*
X175905019Y-99387702D01*
X175685497Y-99463064D01*
X175685494Y-99463065D01*
X175685487Y-99463068D01*
X175481371Y-99573531D01*
X175298220Y-99716083D01*
X175298214Y-99716088D01*
X175203346Y-99819143D01*
X175124864Y-99876412D01*
X175030441Y-99899287D01*
X175020151Y-99899500D01*
X171130827Y-99899500D01*
X171035539Y-99880546D01*
X170954757Y-99826570D01*
X170900781Y-99745788D01*
X170881827Y-99650500D01*
X170900781Y-99555212D01*
X170954757Y-99474430D01*
X171088110Y-99341076D01*
X171223600Y-99147576D01*
X171323433Y-98933485D01*
X171323433Y-98933483D01*
X171380636Y-98720001D01*
X171380636Y-98720000D01*
X170483686Y-98720000D01*
X170509493Y-98679844D01*
X170550000Y-98541889D01*
X170550000Y-98398111D01*
X170509493Y-98260156D01*
X170483686Y-98220000D01*
X171380636Y-98220000D01*
X171380636Y-98219998D01*
X171323433Y-98006516D01*
X171323429Y-98006505D01*
X171223603Y-97792428D01*
X171223599Y-97792421D01*
X171130210Y-97659048D01*
X171091081Y-97570121D01*
X171088962Y-97472989D01*
X171124174Y-97382440D01*
X171191358Y-97312258D01*
X171199716Y-97306933D01*
X171202838Y-97304537D01*
X171202841Y-97304536D01*
X171328282Y-97208282D01*
X171424536Y-97082841D01*
X171485044Y-96936762D01*
X171500500Y-96819361D01*
X171500499Y-95040640D01*
X171485044Y-94923238D01*
X171424536Y-94777159D01*
X171349351Y-94679176D01*
X171328286Y-94651723D01*
X171328285Y-94651722D01*
X171328282Y-94651718D01*
X171328277Y-94651714D01*
X171328276Y-94651713D01*
X171202844Y-94555466D01*
X171202843Y-94555465D01*
X171202841Y-94555464D01*
X171056762Y-94494956D01*
X171056760Y-94494955D01*
X170939362Y-94479500D01*
X169160639Y-94479500D01*
X169160637Y-94479501D01*
X169043238Y-94494955D01*
X168941341Y-94537163D01*
X168897159Y-94555464D01*
X168897158Y-94555464D01*
X168897155Y-94555466D01*
X168771723Y-94651713D01*
X168771713Y-94651723D01*
X168675466Y-94777155D01*
X168614955Y-94923239D01*
X168599500Y-95040637D01*
X168599500Y-96819360D01*
X168599501Y-96819362D01*
X168614955Y-96936761D01*
X168641345Y-97000472D01*
X168675464Y-97082841D01*
X168675465Y-97082843D01*
X168675466Y-97082844D01*
X168765746Y-97200500D01*
X168771718Y-97208282D01*
X168771722Y-97208285D01*
X168771723Y-97208286D01*
X168910106Y-97314471D01*
X168908514Y-97316545D01*
X168963353Y-97364630D01*
X169006330Y-97451762D01*
X169012692Y-97548708D01*
X168981470Y-97640710D01*
X168969789Y-97659047D01*
X168876404Y-97792414D01*
X168876396Y-97792428D01*
X168776570Y-98006505D01*
X168776566Y-98006516D01*
X168719363Y-98219998D01*
X168719364Y-98220000D01*
X169616314Y-98220000D01*
X169590507Y-98260156D01*
X169550000Y-98398111D01*
X169550000Y-98541889D01*
X169590507Y-98679844D01*
X169616314Y-98720000D01*
X168719364Y-98720000D01*
X168719363Y-98720001D01*
X168776566Y-98933483D01*
X168776566Y-98933485D01*
X168876399Y-99147576D01*
X169011889Y-99341076D01*
X169145243Y-99474430D01*
X169199219Y-99555212D01*
X169218173Y-99650500D01*
X169199219Y-99745788D01*
X169145243Y-99826570D01*
X169064461Y-99880546D01*
X168969173Y-99899500D01*
X167705429Y-99899500D01*
X167610141Y-99880546D01*
X167529359Y-99826570D01*
X166487745Y-98784956D01*
X166433769Y-98704174D01*
X166414815Y-98608886D01*
X166415666Y-98588322D01*
X166418051Y-98559540D01*
X166425471Y-98470000D01*
X166405620Y-98230437D01*
X166346610Y-97997409D01*
X166250049Y-97777272D01*
X166118571Y-97576031D01*
X165955764Y-97399175D01*
X165766067Y-97251528D01*
X165638077Y-97182263D01*
X165554655Y-97137117D01*
X165327297Y-97059066D01*
X165327294Y-97059065D01*
X165090192Y-97019500D01*
X164849808Y-97019500D01*
X164612705Y-97059065D01*
X164612702Y-97059066D01*
X164385344Y-97137117D01*
X164173931Y-97251529D01*
X164090399Y-97316545D01*
X163988542Y-97395824D01*
X163984235Y-97399176D01*
X163976354Y-97407736D01*
X163883193Y-97508937D01*
X163804714Y-97566204D01*
X163710290Y-97589079D01*
X163614300Y-97574079D01*
X163531357Y-97523488D01*
X163516815Y-97508946D01*
X163415764Y-97399175D01*
X163226067Y-97251528D01*
X163098077Y-97182263D01*
X163014655Y-97137117D01*
X162787297Y-97059066D01*
X162787294Y-97059065D01*
X162550192Y-97019500D01*
X162309808Y-97019500D01*
X162072705Y-97059065D01*
X162072702Y-97059066D01*
X161845344Y-97137117D01*
X161633931Y-97251529D01*
X161555907Y-97312258D01*
X161444236Y-97399175D01*
X161444234Y-97399176D01*
X161444234Y-97399177D01*
X161444228Y-97399182D01*
X161276866Y-97580987D01*
X161198384Y-97638256D01*
X161103961Y-97661131D01*
X161007971Y-97646131D01*
X160925028Y-97595539D01*
X160917601Y-97588414D01*
X160761076Y-97431889D01*
X160567576Y-97296399D01*
X160353484Y-97196566D01*
X160140001Y-97139363D01*
X160140000Y-97139364D01*
X160140000Y-98034498D01*
X160032315Y-97985320D01*
X159925763Y-97970000D01*
X159854237Y-97970000D01*
X159747685Y-97985320D01*
X159640000Y-98034498D01*
X159640000Y-97139364D01*
X159639998Y-97139363D01*
X159426516Y-97196566D01*
X159426505Y-97196570D01*
X159212428Y-97296396D01*
X159212414Y-97296404D01*
X159079047Y-97389789D01*
X158990120Y-97428918D01*
X158892988Y-97431037D01*
X158802439Y-97395824D01*
X158732258Y-97328640D01*
X158726938Y-97320289D01*
X158628286Y-97191723D01*
X158628285Y-97191722D01*
X158628282Y-97191718D01*
X158628277Y-97191714D01*
X158628276Y-97191713D01*
X158502844Y-97095466D01*
X158502843Y-97095465D01*
X158502841Y-97095464D01*
X158356762Y-97034956D01*
X158356760Y-97034955D01*
X158239362Y-97019500D01*
X156460639Y-97019500D01*
X156460637Y-97019501D01*
X156343238Y-97034955D01*
X156234475Y-97080006D01*
X156197159Y-97095464D01*
X156197158Y-97095464D01*
X156197155Y-97095466D01*
X156071723Y-97191713D01*
X156071713Y-97191723D01*
X155975466Y-97317155D01*
X155975464Y-97317158D01*
X155975464Y-97317159D01*
X155963477Y-97346098D01*
X155914955Y-97463239D01*
X155899500Y-97580637D01*
X155899500Y-99359360D01*
X153720500Y-99359360D01*
X153720499Y-97580640D01*
X153705044Y-97463238D01*
X153644536Y-97317159D01*
X153644065Y-97316545D01*
X153548286Y-97191723D01*
X153548285Y-97191722D01*
X153548282Y-97191718D01*
X153422841Y-97095464D01*
X153422840Y-97095463D01*
X153412987Y-97087903D01*
X153348929Y-97014858D01*
X153317699Y-96922859D01*
X153324053Y-96825912D01*
X153367024Y-96738776D01*
X153388491Y-96714296D01*
X156069358Y-94033430D01*
X156150140Y-93979454D01*
X156245428Y-93960500D01*
X171954571Y-93960500D01*
X172049859Y-93979454D01*
X172130641Y-94033430D01*
X176617010Y-98519798D01*
X176630708Y-98534657D01*
X176649874Y-98557221D01*
X176661664Y-98571101D01*
X176723458Y-98618076D01*
X176728769Y-98622228D01*
X176739767Y-98631068D01*
X176789247Y-98670842D01*
X176789253Y-98670845D01*
X176799006Y-98677079D01*
X176808933Y-98683052D01*
X176808936Y-98683054D01*
X176879407Y-98715657D01*
X176885419Y-98718538D01*
X176954979Y-98753037D01*
X176954983Y-98753038D01*
X176965867Y-98757036D01*
X176976822Y-98760727D01*
X176976833Y-98760732D01*
X177052655Y-98777421D01*
X177059142Y-98778941D01*
X177134506Y-98797684D01*
X177134507Y-98797684D01*
X177145969Y-98799245D01*
X177157501Y-98800499D01*
X177157503Y-98800500D01*
X177235087Y-98800500D01*
X177241828Y-98800591D01*
X177243064Y-98800624D01*
X177319432Y-98802693D01*
X177319440Y-98802691D01*
X177332890Y-98801597D01*
X177332967Y-98802550D01*
X177354534Y-98800500D01*
X179905310Y-98800500D01*
X179925516Y-98801321D01*
X179931205Y-98801784D01*
X179973167Y-98805201D01*
X180050098Y-98794718D01*
X180056685Y-98793911D01*
X180133910Y-98785514D01*
X180133911Y-98785513D01*
X180145217Y-98783024D01*
X180156461Y-98780227D01*
X180156468Y-98780227D01*
X180210447Y-98760395D01*
X180229321Y-98753462D01*
X180235681Y-98751223D01*
X180267405Y-98740533D01*
X180309221Y-98726444D01*
X180309230Y-98726438D01*
X180319754Y-98721570D01*
X180330104Y-98716436D01*
X180330116Y-98716432D01*
X180395570Y-98674593D01*
X180401209Y-98671096D01*
X180467736Y-98631070D01*
X180467746Y-98631059D01*
X180476981Y-98624041D01*
X180485986Y-98616802D01*
X180485986Y-98616801D01*
X180485989Y-98616800D01*
X180540894Y-98561893D01*
X180545652Y-98557262D01*
X180602041Y-98503849D01*
X180602044Y-98503843D01*
X180610782Y-98493558D01*
X180611515Y-98494181D01*
X180625308Y-98477479D01*
X181574430Y-97528356D01*
X181655212Y-97474381D01*
X181750500Y-97455427D01*
X181845788Y-97474381D01*
X181926570Y-97528357D01*
X181980546Y-97609139D01*
X181999500Y-97704427D01*
X181999500Y-107156808D01*
X181980546Y-107252096D01*
X181926570Y-107332878D01*
X181912213Y-107346149D01*
X181906341Y-107351163D01*
X181906341Y-107351164D01*
X181860935Y-107389944D01*
X181714779Y-107514773D01*
X181714773Y-107514779D01*
X181551160Y-107706345D01*
X181551158Y-107706347D01*
X181419537Y-107921135D01*
X181419533Y-107921141D01*
X181323129Y-108153883D01*
X181323126Y-108153891D01*
X181264316Y-108398854D01*
X181249500Y-108587106D01*
X181249500Y-109712893D01*
X181264316Y-109901145D01*
X181323126Y-110146108D01*
X181323129Y-110146116D01*
X181419533Y-110378858D01*
X181419537Y-110378864D01*
X181551158Y-110593652D01*
X181551160Y-110593654D01*
X181551163Y-110593657D01*
X181551164Y-110593659D01*
X181714776Y-110785224D01*
X181906341Y-110948836D01*
X181906345Y-110948839D01*
X181906347Y-110948841D01*
X182036125Y-111028368D01*
X182121141Y-111080466D01*
X182353889Y-111176873D01*
X182598852Y-111235683D01*
X182670608Y-111241330D01*
X182849995Y-111255449D01*
X182850000Y-111255449D01*
X182850005Y-111255449D01*
X183006967Y-111243095D01*
X183101148Y-111235683D01*
X183346111Y-111176873D01*
X183578859Y-111080466D01*
X183700974Y-111005633D01*
X183793652Y-110948841D01*
X183793654Y-110948839D01*
X183793653Y-110948839D01*
X183793659Y-110948836D01*
X183985224Y-110785224D01*
X184148836Y-110593659D01*
X184148839Y-110593653D01*
X184148841Y-110593652D01*
X184205633Y-110500974D01*
X184280466Y-110378859D01*
X184376873Y-110146111D01*
X184435683Y-109901148D01*
X184450500Y-109712882D01*
X184450500Y-108587118D01*
X184435683Y-108398852D01*
X184376873Y-108153889D01*
X184280466Y-107921141D01*
X184254624Y-107878971D01*
X184148841Y-107706347D01*
X184148839Y-107706345D01*
X184114112Y-107665685D01*
X183985224Y-107514776D01*
X183793659Y-107351164D01*
X183793658Y-107351163D01*
X183787787Y-107346149D01*
X183727639Y-107269851D01*
X183701268Y-107176344D01*
X183700500Y-107156808D01*
X183700500Y-100504429D01*
X183719454Y-100409141D01*
X183773430Y-100328359D01*
X183854212Y-100274383D01*
X183949500Y-100255429D01*
X184044788Y-100274383D01*
X184125570Y-100328359D01*
X185926570Y-102129359D01*
X185980546Y-102210141D01*
X185999500Y-102305429D01*
X185999500Y-107156808D01*
X185980546Y-107252096D01*
X185926570Y-107332878D01*
X185912213Y-107346149D01*
X185906341Y-107351163D01*
X185906341Y-107351164D01*
X185860935Y-107389944D01*
X185714779Y-107514773D01*
X185714773Y-107514779D01*
X185551160Y-107706345D01*
X185551158Y-107706347D01*
X185419537Y-107921135D01*
X185419533Y-107921141D01*
X185323129Y-108153883D01*
X185323126Y-108153891D01*
X185264316Y-108398854D01*
X185249500Y-108587106D01*
X185249500Y-109712893D01*
X185264316Y-109901145D01*
X185323126Y-110146108D01*
X185323129Y-110146116D01*
X185419533Y-110378858D01*
X185419537Y-110378864D01*
X185551158Y-110593652D01*
X185551160Y-110593654D01*
X185551163Y-110593657D01*
X185551164Y-110593659D01*
X185714776Y-110785224D01*
X185906341Y-110948836D01*
X185906345Y-110948839D01*
X185906347Y-110948841D01*
X186036125Y-111028368D01*
X186121141Y-111080466D01*
X186353889Y-111176873D01*
X186598852Y-111235683D01*
X186670608Y-111241330D01*
X186849995Y-111255449D01*
X186850000Y-111255449D01*
X186850005Y-111255449D01*
X187006967Y-111243095D01*
X187101148Y-111235683D01*
X187346111Y-111176873D01*
X187578859Y-111080466D01*
X187700974Y-111005633D01*
X187793652Y-110948841D01*
X187793654Y-110948839D01*
X187793653Y-110948839D01*
X187793659Y-110948836D01*
X187985224Y-110785224D01*
X188148836Y-110593659D01*
X188148839Y-110593653D01*
X188148841Y-110593652D01*
X188205633Y-110500974D01*
X188280466Y-110378859D01*
X188376873Y-110146111D01*
X188435683Y-109901148D01*
X188450499Y-109712893D01*
X189249500Y-109712893D01*
X189264316Y-109901145D01*
X189323126Y-110146108D01*
X189323129Y-110146116D01*
X189419533Y-110378858D01*
X189419537Y-110378864D01*
X189551158Y-110593652D01*
X189551160Y-110593654D01*
X189551163Y-110593657D01*
X189551164Y-110593659D01*
X189714776Y-110785224D01*
X189906341Y-110948836D01*
X189906345Y-110948839D01*
X189906347Y-110948841D01*
X190036125Y-111028368D01*
X190121141Y-111080466D01*
X190353889Y-111176873D01*
X190598852Y-111235683D01*
X190670608Y-111241330D01*
X190849995Y-111255449D01*
X190850000Y-111255449D01*
X190850005Y-111255449D01*
X191006967Y-111243095D01*
X191101148Y-111235683D01*
X191346111Y-111176873D01*
X191578859Y-111080466D01*
X191700974Y-111005633D01*
X191793652Y-110948841D01*
X191793654Y-110948839D01*
X191793653Y-110948839D01*
X191793659Y-110948836D01*
X191985224Y-110785224D01*
X192148836Y-110593659D01*
X192148839Y-110593653D01*
X192148841Y-110593652D01*
X192205633Y-110500974D01*
X192280466Y-110378859D01*
X192376873Y-110146111D01*
X192435683Y-109901148D01*
X192450500Y-109712882D01*
X192450500Y-108587118D01*
X192435683Y-108398852D01*
X192376873Y-108153889D01*
X192280466Y-107921141D01*
X192254624Y-107878971D01*
X192148841Y-107706347D01*
X192148839Y-107706345D01*
X192114112Y-107665685D01*
X191985224Y-107514776D01*
X191793659Y-107351164D01*
X191793657Y-107351163D01*
X191793654Y-107351160D01*
X191793652Y-107351158D01*
X191578864Y-107219537D01*
X191578858Y-107219533D01*
X191346116Y-107123129D01*
X191346108Y-107123126D01*
X191101145Y-107064316D01*
X190850005Y-107044551D01*
X190849995Y-107044551D01*
X190598854Y-107064316D01*
X190353891Y-107123126D01*
X190353883Y-107123129D01*
X190121141Y-107219533D01*
X190121135Y-107219537D01*
X189906347Y-107351158D01*
X189906345Y-107351160D01*
X189714779Y-107514773D01*
X189714773Y-107514779D01*
X189551160Y-107706345D01*
X189551158Y-107706347D01*
X189419537Y-107921135D01*
X189419533Y-107921141D01*
X189323129Y-108153883D01*
X189323126Y-108153891D01*
X189264316Y-108398854D01*
X189249500Y-108587106D01*
X189249500Y-109712893D01*
X188450499Y-109712893D01*
X188450500Y-109712882D01*
X188450500Y-108587118D01*
X188435683Y-108398852D01*
X188376873Y-108153889D01*
X188280466Y-107921141D01*
X188254624Y-107878971D01*
X188148841Y-107706347D01*
X188148839Y-107706345D01*
X188114112Y-107665685D01*
X187985224Y-107514776D01*
X187793659Y-107351164D01*
X187793658Y-107351163D01*
X187787787Y-107346149D01*
X187727639Y-107269851D01*
X187701268Y-107176344D01*
X187700500Y-107156808D01*
X187700500Y-101894690D01*
X187701321Y-101874484D01*
X187701750Y-101869206D01*
X187705201Y-101826833D01*
X187694725Y-101749946D01*
X187693908Y-101743280D01*
X187692781Y-101732914D01*
X187685514Y-101666090D01*
X187685513Y-101666087D01*
X187683027Y-101654793D01*
X187680227Y-101643536D01*
X187680227Y-101643532D01*
X187653455Y-101570662D01*
X187651218Y-101564306D01*
X187639508Y-101529553D01*
X187626444Y-101490779D01*
X187626440Y-101490772D01*
X187621571Y-101480248D01*
X187616433Y-101469888D01*
X187616432Y-101469884D01*
X187616361Y-101469773D01*
X187574645Y-101404510D01*
X187571088Y-101398776D01*
X187552205Y-101367392D01*
X187531070Y-101332264D01*
X187531068Y-101332262D01*
X187531066Y-101332258D01*
X187524116Y-101323115D01*
X187516802Y-101314016D01*
X187516799Y-101314011D01*
X187489953Y-101287165D01*
X187461942Y-101259153D01*
X187457242Y-101254324D01*
X187403853Y-101197963D01*
X187403851Y-101197962D01*
X187403849Y-101197959D01*
X187403845Y-101197956D01*
X187393564Y-101189224D01*
X187394182Y-101188496D01*
X187377479Y-101174691D01*
X185173430Y-98970641D01*
X185119454Y-98889859D01*
X185100500Y-98794571D01*
X185100500Y-97047833D01*
X185119454Y-96952545D01*
X185173430Y-96871763D01*
X185196551Y-96851345D01*
X185235764Y-96820825D01*
X185398571Y-96643969D01*
X185398574Y-96643964D01*
X185403132Y-96639013D01*
X185481613Y-96581744D01*
X185576037Y-96558868D01*
X185672027Y-96573867D01*
X185754970Y-96624459D01*
X185762398Y-96631585D01*
X185918923Y-96788110D01*
X186112423Y-96923600D01*
X186326511Y-97023431D01*
X186540000Y-97080635D01*
X186540000Y-96185501D01*
X186647685Y-96234680D01*
X186754237Y-96250000D01*
X186825763Y-96250000D01*
X186932315Y-96234680D01*
X187040000Y-96185501D01*
X187040000Y-97080635D01*
X187253488Y-97023431D01*
X187467576Y-96923600D01*
X187661079Y-96788107D01*
X187817601Y-96631586D01*
X187898382Y-96577609D01*
X187993670Y-96558655D01*
X188088958Y-96577609D01*
X188169740Y-96631585D01*
X188176867Y-96639012D01*
X188181426Y-96643964D01*
X188181429Y-96643969D01*
X188344236Y-96820825D01*
X188533933Y-96968472D01*
X188745344Y-97082882D01*
X188972703Y-97160934D01*
X189209808Y-97200500D01*
X189450192Y-97200500D01*
X189687297Y-97160934D01*
X189914656Y-97082882D01*
X190126067Y-96968472D01*
X190315764Y-96820825D01*
X190416806Y-96711062D01*
X190495285Y-96653796D01*
X190589709Y-96630920D01*
X190685699Y-96645919D01*
X190768642Y-96696511D01*
X190783184Y-96711053D01*
X190804803Y-96734537D01*
X190884229Y-96820818D01*
X190884231Y-96820819D01*
X190884236Y-96820825D01*
X191073933Y-96968472D01*
X191285344Y-97082882D01*
X191512703Y-97160934D01*
X191749808Y-97200500D01*
X191990192Y-97200500D01*
X192227297Y-97160934D01*
X192454656Y-97082882D01*
X192666067Y-96968472D01*
X192855764Y-96820825D01*
X193018571Y-96643969D01*
X193150049Y-96442728D01*
X193246610Y-96222591D01*
X193305620Y-95989563D01*
X193325471Y-95750000D01*
X193305620Y-95510437D01*
X193284127Y-95425564D01*
X193246610Y-95277409D01*
X193150050Y-95057274D01*
X193150049Y-95057272D01*
X193074170Y-94941131D01*
X193018571Y-94856031D01*
X192855764Y-94679175D01*
X192666067Y-94531528D01*
X192555539Y-94471713D01*
X192454655Y-94417117D01*
X192227297Y-94339066D01*
X192227294Y-94339065D01*
X191990192Y-94299500D01*
X191749808Y-94299500D01*
X191749798Y-94299500D01*
X191747057Y-94299727D01*
X191745069Y-94299500D01*
X191739509Y-94299500D01*
X191739509Y-94298864D01*
X191650530Y-94288703D01*
X191565569Y-94241578D01*
X191550435Y-94227647D01*
X185672794Y-88350005D01*
X190344551Y-88350005D01*
X190364316Y-88601145D01*
X190423126Y-88846108D01*
X190423129Y-88846116D01*
X190519533Y-89078858D01*
X190519537Y-89078864D01*
X190651158Y-89293652D01*
X190651160Y-89293654D01*
X190651163Y-89293657D01*
X190651164Y-89293659D01*
X190814776Y-89485224D01*
X191004991Y-89647683D01*
X191006345Y-89648839D01*
X191006347Y-89648841D01*
X191159955Y-89742971D01*
X191221141Y-89780466D01*
X191453889Y-89876873D01*
X191698852Y-89935683D01*
X191887118Y-89950500D01*
X191887119Y-89950500D01*
X193012881Y-89950500D01*
X193012882Y-89950500D01*
X193201148Y-89935683D01*
X193446111Y-89876873D01*
X193678859Y-89780466D01*
X193807460Y-89701659D01*
X193893652Y-89648841D01*
X193893654Y-89648839D01*
X193893653Y-89648839D01*
X193893659Y-89648836D01*
X194085224Y-89485224D01*
X194248836Y-89293659D01*
X194248839Y-89293653D01*
X194248841Y-89293652D01*
X194324239Y-89170613D01*
X194380466Y-89078859D01*
X194476873Y-88846111D01*
X194535683Y-88601148D01*
X194555449Y-88350000D01*
X194535683Y-88098852D01*
X194476873Y-87853889D01*
X194380466Y-87621141D01*
X194354624Y-87578971D01*
X194248841Y-87406347D01*
X194248839Y-87406345D01*
X194248836Y-87406341D01*
X194085224Y-87214776D01*
X193893659Y-87051164D01*
X193893657Y-87051163D01*
X193893654Y-87051160D01*
X193893652Y-87051158D01*
X193678864Y-86919537D01*
X193678858Y-86919533D01*
X193446116Y-86823129D01*
X193446108Y-86823126D01*
X193201145Y-86764316D01*
X193012893Y-86749500D01*
X193012882Y-86749500D01*
X191887118Y-86749500D01*
X191887106Y-86749500D01*
X191698854Y-86764316D01*
X191453891Y-86823126D01*
X191453883Y-86823129D01*
X191221141Y-86919533D01*
X191221135Y-86919537D01*
X191006347Y-87051158D01*
X191006345Y-87051160D01*
X190814779Y-87214773D01*
X190814773Y-87214779D01*
X190651160Y-87406345D01*
X190651158Y-87406347D01*
X190519537Y-87621135D01*
X190519533Y-87621141D01*
X190423129Y-87853883D01*
X190423126Y-87853891D01*
X190364316Y-88098854D01*
X190344551Y-88349994D01*
X190344551Y-88350005D01*
X185672794Y-88350005D01*
X183173430Y-85850641D01*
X183119454Y-85769859D01*
X183100500Y-85674571D01*
X183100500Y-84350005D01*
X190344551Y-84350005D01*
X190364316Y-84601145D01*
X190423126Y-84846108D01*
X190423129Y-84846116D01*
X190519533Y-85078858D01*
X190519537Y-85078864D01*
X190651158Y-85293652D01*
X190651160Y-85293654D01*
X190651163Y-85293657D01*
X190651164Y-85293659D01*
X190814776Y-85485224D01*
X191006341Y-85648836D01*
X191006345Y-85648839D01*
X191006347Y-85648841D01*
X191178971Y-85754624D01*
X191221141Y-85780466D01*
X191453889Y-85876873D01*
X191698852Y-85935683D01*
X191887118Y-85950500D01*
X191887119Y-85950500D01*
X193012881Y-85950500D01*
X193012882Y-85950500D01*
X193201148Y-85935683D01*
X193446111Y-85876873D01*
X193678859Y-85780466D01*
X193800974Y-85705633D01*
X193893652Y-85648841D01*
X193893654Y-85648839D01*
X193893653Y-85648839D01*
X193893659Y-85648836D01*
X194085224Y-85485224D01*
X194248836Y-85293659D01*
X194248839Y-85293653D01*
X194248841Y-85293652D01*
X194305633Y-85200974D01*
X194380466Y-85078859D01*
X194476873Y-84846111D01*
X194535683Y-84601148D01*
X194544458Y-84489649D01*
X194555449Y-84350005D01*
X194555449Y-84349994D01*
X194535683Y-84098854D01*
X194534982Y-84095931D01*
X194476873Y-83853889D01*
X194380466Y-83621141D01*
X194296426Y-83484000D01*
X194248841Y-83406347D01*
X194248839Y-83406345D01*
X194248836Y-83406341D01*
X194085224Y-83214776D01*
X193893659Y-83051164D01*
X193893657Y-83051163D01*
X193893654Y-83051160D01*
X193893652Y-83051158D01*
X193678864Y-82919537D01*
X193678858Y-82919533D01*
X193446116Y-82823129D01*
X193446108Y-82823126D01*
X193201145Y-82764316D01*
X193012893Y-82749500D01*
X193012882Y-82749500D01*
X191887118Y-82749500D01*
X191887106Y-82749500D01*
X191698854Y-82764316D01*
X191453891Y-82823126D01*
X191453883Y-82823129D01*
X191221141Y-82919533D01*
X191221135Y-82919537D01*
X191006347Y-83051158D01*
X191006345Y-83051160D01*
X190814779Y-83214773D01*
X190814773Y-83214779D01*
X190651160Y-83406345D01*
X190651158Y-83406347D01*
X190519537Y-83621135D01*
X190519533Y-83621141D01*
X190423129Y-83853883D01*
X190423126Y-83853891D01*
X190364316Y-84098854D01*
X190344551Y-84349994D01*
X190344551Y-84350005D01*
X183100500Y-84350005D01*
X183100500Y-80350005D01*
X190344551Y-80350005D01*
X190364316Y-80601145D01*
X190423126Y-80846108D01*
X190423129Y-80846116D01*
X190519533Y-81078858D01*
X190519537Y-81078864D01*
X190651158Y-81293652D01*
X190651160Y-81293654D01*
X190651163Y-81293657D01*
X190651164Y-81293659D01*
X190814776Y-81485224D01*
X190969517Y-81617385D01*
X191006345Y-81648839D01*
X191006347Y-81648841D01*
X191113220Y-81714332D01*
X191221141Y-81780466D01*
X191453889Y-81876873D01*
X191698852Y-81935683D01*
X191887118Y-81950500D01*
X191887119Y-81950500D01*
X193012881Y-81950500D01*
X193012882Y-81950500D01*
X193201148Y-81935683D01*
X193446111Y-81876873D01*
X193678859Y-81780466D01*
X193811757Y-81699026D01*
X193893652Y-81648841D01*
X193893654Y-81648839D01*
X193893653Y-81648839D01*
X193893659Y-81648836D01*
X194085224Y-81485224D01*
X194248836Y-81293659D01*
X194248839Y-81293653D01*
X194248841Y-81293652D01*
X194305633Y-81200974D01*
X194380466Y-81078859D01*
X194476873Y-80846111D01*
X194535683Y-80601148D01*
X194548853Y-80433808D01*
X194555449Y-80350005D01*
X194555449Y-80349994D01*
X194535683Y-80098854D01*
X194525592Y-80056819D01*
X194476873Y-79853889D01*
X194380466Y-79621141D01*
X194354624Y-79578971D01*
X194248841Y-79406347D01*
X194248839Y-79406345D01*
X194224785Y-79378181D01*
X194085224Y-79214776D01*
X193893659Y-79051164D01*
X193893657Y-79051163D01*
X193893654Y-79051160D01*
X193893652Y-79051158D01*
X193678864Y-78919537D01*
X193678858Y-78919533D01*
X193446116Y-78823129D01*
X193446108Y-78823126D01*
X193201145Y-78764316D01*
X193012893Y-78749500D01*
X193012882Y-78749500D01*
X191887118Y-78749500D01*
X191887106Y-78749500D01*
X191698854Y-78764316D01*
X191453891Y-78823126D01*
X191453883Y-78823129D01*
X191221141Y-78919533D01*
X191221135Y-78919537D01*
X191006347Y-79051158D01*
X191006345Y-79051160D01*
X190814779Y-79214773D01*
X190814773Y-79214779D01*
X190651160Y-79406345D01*
X190651158Y-79406347D01*
X190519537Y-79621135D01*
X190519533Y-79621141D01*
X190423129Y-79853883D01*
X190423126Y-79853891D01*
X190364316Y-80098854D01*
X190344551Y-80349994D01*
X190344551Y-80350005D01*
X183100500Y-80350005D01*
X183100500Y-74081389D01*
X183119454Y-73986101D01*
X183173430Y-73905319D01*
X183254212Y-73851343D01*
X183349500Y-73832389D01*
X183444788Y-73851343D01*
X183525570Y-73905319D01*
X183579546Y-73986101D01*
X183581466Y-73990876D01*
X183594879Y-74025253D01*
X183594883Y-74025261D01*
X183628329Y-74081389D01*
X183720051Y-74235317D01*
X183878088Y-74421912D01*
X184064683Y-74579949D01*
X184162204Y-74638059D01*
X184274738Y-74705116D01*
X184274740Y-74705117D01*
X184274744Y-74705119D01*
X184502543Y-74794007D01*
X184741866Y-74844187D01*
X184843548Y-74850500D01*
X184843554Y-74850500D01*
X186756446Y-74850500D01*
X186756452Y-74850500D01*
X186858134Y-74844187D01*
X187097457Y-74794007D01*
X187325256Y-74705119D01*
X187535317Y-74579949D01*
X187721912Y-74421912D01*
X187721928Y-74421892D01*
X187724421Y-74419401D01*
X187726576Y-74417960D01*
X187729771Y-74415255D01*
X187730079Y-74415619D01*
X187805200Y-74365421D01*
X187900487Y-74346462D01*
X187995776Y-74365411D01*
X188076561Y-74419383D01*
X188130541Y-74500162D01*
X188149500Y-74595449D01*
X188149500Y-77289360D01*
X188149501Y-77289362D01*
X188164955Y-77406761D01*
X188185276Y-77455819D01*
X188225464Y-77552841D01*
X188321718Y-77678282D01*
X188447159Y-77774536D01*
X188593238Y-77835044D01*
X188710639Y-77850500D01*
X192289360Y-77850499D01*
X192406762Y-77835044D01*
X192552841Y-77774536D01*
X192678282Y-77678282D01*
X192774536Y-77552841D01*
X192835044Y-77406762D01*
X192850500Y-77289361D01*
X192850499Y-73710640D01*
X192835044Y-73593238D01*
X192774536Y-73447159D01*
X192678282Y-73321718D01*
X192678277Y-73321714D01*
X192678276Y-73321713D01*
X192552844Y-73225466D01*
X192552843Y-73225465D01*
X192552841Y-73225464D01*
X192406762Y-73164956D01*
X192406760Y-73164955D01*
X192289362Y-73149500D01*
X188710639Y-73149500D01*
X188710637Y-73149501D01*
X188593237Y-73164955D01*
X188494788Y-73205735D01*
X188399500Y-73224689D01*
X188304212Y-73205735D01*
X188223431Y-73151759D01*
X188169454Y-73070977D01*
X188150500Y-72975689D01*
X188150500Y-71543553D01*
X188150498Y-71543519D01*
X188147796Y-71499998D01*
X188144187Y-71441866D01*
X188108907Y-71273610D01*
X188107905Y-71176463D01*
X188144155Y-71086324D01*
X188212140Y-71016919D01*
X188301511Y-70978813D01*
X188398660Y-70977810D01*
X188488799Y-71014060D01*
X188528679Y-71046444D01*
X188695670Y-71213435D01*
X188880620Y-71341568D01*
X188880624Y-71341570D01*
X189085482Y-71434622D01*
X189303665Y-71489599D01*
X189303678Y-71489601D01*
X189435803Y-71499999D01*
X190249998Y-71499999D01*
X190250000Y-71499998D01*
X190250000Y-70000000D01*
X190750000Y-70000000D01*
X190750000Y-71499998D01*
X190750001Y-71499999D01*
X191564182Y-71499999D01*
X191696334Y-71489599D01*
X191914517Y-71434622D01*
X192119375Y-71341570D01*
X192119379Y-71341568D01*
X192304329Y-71213435D01*
X192463435Y-71054329D01*
X192591568Y-70869379D01*
X192591570Y-70869375D01*
X192684622Y-70664517D01*
X192739599Y-70446334D01*
X192739601Y-70446321D01*
X192749999Y-70314202D01*
X192750000Y-70314190D01*
X192750000Y-69750001D01*
X192749999Y-69750000D01*
X191933686Y-69750000D01*
X191959493Y-69709844D01*
X192000000Y-69571889D01*
X192000000Y-69428111D01*
X191959493Y-69290156D01*
X191933686Y-69250000D01*
X192749998Y-69250000D01*
X192749999Y-69249999D01*
X192749999Y-68685818D01*
X192739599Y-68553665D01*
X192684622Y-68335482D01*
X192591570Y-68130624D01*
X192591568Y-68130620D01*
X192463435Y-67945670D01*
X192304329Y-67786564D01*
X192119379Y-67658431D01*
X192119375Y-67658429D01*
X191914517Y-67565377D01*
X191696334Y-67510400D01*
X191696321Y-67510398D01*
X191564202Y-67500000D01*
X190750001Y-67500000D01*
X190750000Y-67500001D01*
X190750000Y-69000000D01*
X190250000Y-69000000D01*
X190250000Y-67500001D01*
X190249999Y-67500000D01*
X189435818Y-67500000D01*
X189303665Y-67510400D01*
X189085482Y-67565377D01*
X188880624Y-67658429D01*
X188880620Y-67658431D01*
X188695670Y-67786564D01*
X188536564Y-67945670D01*
X188408431Y-68130620D01*
X188408429Y-68130624D01*
X188315377Y-68335482D01*
X188260400Y-68553665D01*
X188260398Y-68553678D01*
X188250000Y-68685797D01*
X188250000Y-69249999D01*
X188250001Y-69250000D01*
X189066314Y-69250000D01*
X189040507Y-69290156D01*
X189000000Y-69428111D01*
X189000000Y-69571889D01*
X189040507Y-69709844D01*
X189066314Y-69750000D01*
X188250002Y-69750000D01*
X188250001Y-69750001D01*
X188250001Y-70314181D01*
X188260400Y-70446336D01*
X188273440Y-70498085D01*
X188278343Y-70595116D01*
X188245740Y-70686637D01*
X188180595Y-70758716D01*
X188092826Y-70800377D01*
X187995795Y-70805280D01*
X187904274Y-70772677D01*
X187841982Y-70719855D01*
X187721912Y-70578088D01*
X187535317Y-70420051D01*
X187453110Y-70371066D01*
X187325261Y-70294883D01*
X187325256Y-70294881D01*
X187097459Y-70205993D01*
X186858138Y-70155813D01*
X186858126Y-70155812D01*
X186756480Y-70149501D01*
X186756457Y-70149500D01*
X186756452Y-70149500D01*
X184843548Y-70149500D01*
X184843542Y-70149500D01*
X184843519Y-70149501D01*
X184741873Y-70155812D01*
X184741861Y-70155813D01*
X184502540Y-70205993D01*
X184274743Y-70294881D01*
X184274738Y-70294883D01*
X184064686Y-70420049D01*
X184064683Y-70420051D01*
X183972548Y-70498085D01*
X183887638Y-70570000D01*
X183878088Y-70578088D01*
X183720051Y-70764683D01*
X183720049Y-70764685D01*
X183720049Y-70764686D01*
X183594883Y-70974738D01*
X183594883Y-70974739D01*
X183594881Y-70974743D01*
X183594881Y-70974744D01*
X183581464Y-71009127D01*
X183529170Y-71091004D01*
X183449521Y-71146638D01*
X183354645Y-71167557D01*
X183258985Y-71150576D01*
X183177106Y-71098280D01*
X183121472Y-71018631D01*
X183100553Y-70923755D01*
X183100500Y-70918610D01*
X183100500Y-69544690D01*
X183101321Y-69524484D01*
X183103211Y-69501266D01*
X183105201Y-69476833D01*
X183094725Y-69399946D01*
X183093908Y-69393280D01*
X183089548Y-69353186D01*
X183085514Y-69316090D01*
X183085513Y-69316087D01*
X183083027Y-69304793D01*
X183080227Y-69293536D01*
X183080227Y-69293532D01*
X183053455Y-69220662D01*
X183051218Y-69214306D01*
X183038289Y-69175935D01*
X183026444Y-69140779D01*
X183026440Y-69140772D01*
X183021571Y-69130248D01*
X183016433Y-69119888D01*
X183016432Y-69119884D01*
X182974645Y-69054510D01*
X182971088Y-69048776D01*
X182970987Y-69048609D01*
X182931070Y-68982264D01*
X182931068Y-68982262D01*
X182931066Y-68982258D01*
X182924116Y-68973115D01*
X182916802Y-68964016D01*
X182916799Y-68964011D01*
X182907000Y-68954212D01*
X182861942Y-68909153D01*
X182857242Y-68904324D01*
X182803853Y-68847963D01*
X182803851Y-68847962D01*
X182803849Y-68847959D01*
X182803845Y-68847956D01*
X182793564Y-68839224D01*
X182794182Y-68838496D01*
X182777479Y-68824691D01*
X180132988Y-66180199D01*
X180119280Y-66165329D01*
X180088334Y-66128897D01*
X180026568Y-66081943D01*
X180021259Y-66077793D01*
X180008130Y-66067240D01*
X179960754Y-66029158D01*
X179960750Y-66029156D01*
X179951015Y-66022933D01*
X179941060Y-66016943D01*
X179870604Y-65984347D01*
X179864564Y-65981453D01*
X179795021Y-65946964D01*
X179795019Y-65946963D01*
X179795018Y-65946963D01*
X179784102Y-65942952D01*
X179773167Y-65939268D01*
X179697368Y-65922583D01*
X179690802Y-65921044D01*
X179615494Y-65902315D01*
X179604087Y-65900760D01*
X179592500Y-65899500D01*
X179592497Y-65899500D01*
X179592493Y-65899500D01*
X179514913Y-65899500D01*
X179508172Y-65899409D01*
X179489948Y-65898915D01*
X179430568Y-65897307D01*
X179430567Y-65897307D01*
X179430566Y-65897307D01*
X179417110Y-65898403D01*
X179417032Y-65897449D01*
X179395466Y-65899500D01*
X155894690Y-65899500D01*
X155874484Y-65898679D01*
X155826834Y-65894799D01*
X155826828Y-65894799D01*
X155749927Y-65905276D01*
X155743238Y-65906095D01*
X155666090Y-65914485D01*
X155654800Y-65916970D01*
X155643530Y-65919773D01*
X155570669Y-65946540D01*
X155564315Y-65948777D01*
X155490781Y-65973554D01*
X155480220Y-65978440D01*
X155469885Y-65983566D01*
X155404472Y-66025377D01*
X155398759Y-66028920D01*
X155384945Y-66037232D01*
X155332267Y-66068927D01*
X155323028Y-66075950D01*
X155314012Y-66083198D01*
X155259132Y-66138077D01*
X155254305Y-66142775D01*
X155197962Y-66196146D01*
X155189224Y-66206435D01*
X155188498Y-66205818D01*
X155174696Y-66222513D01*
X142875753Y-78521458D01*
X142794971Y-78575434D01*
X142699683Y-78594388D01*
X142087665Y-78594388D01*
X141992377Y-78575434D01*
X141911595Y-78521458D01*
X141857619Y-78440676D01*
X141838665Y-78345388D01*
X141857619Y-78250100D01*
X141911595Y-78169318D01*
X141938443Y-78146055D01*
X141997183Y-78102081D01*
X141997189Y-78102075D01*
X142083353Y-77986975D01*
X142133596Y-77852266D01*
X142133598Y-77852259D01*
X142139999Y-77792720D01*
X142140000Y-77792713D01*
X142140000Y-77194889D01*
X142139999Y-77194888D01*
X141155686Y-77194888D01*
X141167641Y-77182933D01*
X141225165Y-77070036D01*
X141244986Y-76944888D01*
X141225165Y-76819740D01*
X141167641Y-76706843D01*
X141155686Y-76694888D01*
X142139999Y-76694888D01*
X142140000Y-76694887D01*
X142140000Y-76097063D01*
X142139999Y-76097055D01*
X142133598Y-76037516D01*
X142133596Y-76037509D01*
X142083353Y-75902800D01*
X141997189Y-75787700D01*
X141997187Y-75787698D01*
X141882087Y-75701534D01*
X141747378Y-75651291D01*
X141747371Y-75651289D01*
X141687832Y-75644888D01*
X141090001Y-75644888D01*
X141090000Y-75644889D01*
X141090000Y-76629202D01*
X141078045Y-76617247D01*
X140965148Y-76559723D01*
X140871481Y-76544888D01*
X140808519Y-76544888D01*
X140714852Y-76559723D01*
X140601955Y-76617247D01*
X140590000Y-76629202D01*
X140590000Y-75644889D01*
X140589999Y-75644888D01*
X139992167Y-75644888D01*
X139932628Y-75651289D01*
X139932621Y-75651291D01*
X139797912Y-75701534D01*
X139682812Y-75787698D01*
X139682810Y-75787700D01*
X139596646Y-75902800D01*
X139546403Y-76037509D01*
X139546401Y-76037516D01*
X139540000Y-76097055D01*
X139540000Y-76694887D01*
X139540001Y-76694888D01*
X140524314Y-76694888D01*
X140512359Y-76706843D01*
X140454835Y-76819740D01*
X140435014Y-76944888D01*
X140454835Y-77070036D01*
X140512359Y-77182933D01*
X140524314Y-77194888D01*
X139540001Y-77194888D01*
X139540000Y-77194889D01*
X139540000Y-77792720D01*
X139546401Y-77852259D01*
X139546403Y-77852266D01*
X139596646Y-77986975D01*
X139682810Y-78102075D01*
X139682815Y-78102080D01*
X139752103Y-78153949D01*
X139817026Y-78226227D01*
X139849348Y-78317848D01*
X139844147Y-78414864D01*
X139802216Y-78502504D01*
X139786079Y-78521924D01*
X139731022Y-78581732D01*
X139731019Y-78581736D01*
X139604074Y-78776041D01*
X139510842Y-78988590D01*
X139510841Y-78988594D01*
X139453868Y-79213572D01*
X139453866Y-79213579D01*
X139434700Y-79444888D01*
X139453866Y-79676196D01*
X139453868Y-79676203D01*
X139510841Y-79901181D01*
X139510842Y-79901185D01*
X139604074Y-80113734D01*
X139731019Y-80308039D01*
X139731022Y-80308043D01*
X139846797Y-80433808D01*
X139888216Y-80478801D01*
X140071374Y-80621358D01*
X140152226Y-80665113D01*
X140275487Y-80731819D01*
X140275489Y-80731819D01*
X140275497Y-80731824D01*
X140495019Y-80807186D01*
X140723951Y-80845388D01*
X140956049Y-80845388D01*
X141184981Y-80807186D01*
X141404503Y-80731824D01*
X141608626Y-80621358D01*
X141791784Y-80478801D01*
X141844823Y-80421184D01*
X141886654Y-80375745D01*
X141965136Y-80318476D01*
X142059559Y-80295601D01*
X142069849Y-80295388D01*
X143110422Y-80295388D01*
X143130628Y-80296209D01*
X143136317Y-80296672D01*
X143178279Y-80300089D01*
X143255210Y-80289606D01*
X143261797Y-80288799D01*
X143339022Y-80280402D01*
X143339023Y-80280401D01*
X143350329Y-80277912D01*
X143361573Y-80275115D01*
X143361580Y-80275115D01*
X143415559Y-80255283D01*
X143434433Y-80248350D01*
X143440793Y-80246111D01*
X143472517Y-80235421D01*
X143514333Y-80221332D01*
X143514342Y-80221326D01*
X143524866Y-80216458D01*
X143535216Y-80211324D01*
X143535228Y-80211320D01*
X143600682Y-80169481D01*
X143606321Y-80165984D01*
X143672848Y-80125958D01*
X143672858Y-80125947D01*
X143682093Y-80118929D01*
X143691098Y-80111690D01*
X143691098Y-80111689D01*
X143691101Y-80111688D01*
X143746007Y-80056780D01*
X143750765Y-80052149D01*
X143807153Y-79998737D01*
X143807154Y-79998736D01*
X143815893Y-79988447D01*
X143816626Y-79989070D01*
X143830420Y-79972367D01*
X156129358Y-67673430D01*
X156210140Y-67619454D01*
X156305428Y-67600500D01*
X179044571Y-67600500D01*
X179139859Y-67619454D01*
X179220641Y-67673430D01*
X181326570Y-69779359D01*
X181380546Y-69860141D01*
X181399500Y-69955429D01*
X181399500Y-86085309D01*
X181398679Y-86105515D01*
X181394799Y-86153165D01*
X181394799Y-86153172D01*
X181405276Y-86230075D01*
X181406095Y-86236764D01*
X181414484Y-86313904D01*
X181416969Y-86325192D01*
X181419775Y-86336475D01*
X181446536Y-86409320D01*
X181448773Y-86415673D01*
X181473557Y-86489227D01*
X181478417Y-86499732D01*
X181483567Y-86510114D01*
X181525364Y-86575505D01*
X181528919Y-86581236D01*
X181568931Y-86647737D01*
X181575935Y-86656951D01*
X181583197Y-86665986D01*
X181638092Y-86720881D01*
X181642794Y-86725713D01*
X181696150Y-86782040D01*
X181706441Y-86790781D01*
X181705821Y-86791510D01*
X181722520Y-86805309D01*
X188901746Y-93984535D01*
X188955722Y-94065317D01*
X188974676Y-94160605D01*
X188955722Y-94255893D01*
X188901746Y-94336675D01*
X188820964Y-94390651D01*
X188806526Y-94396113D01*
X188745353Y-94417113D01*
X188745346Y-94417116D01*
X188533931Y-94531529D01*
X188449610Y-94597159D01*
X188344236Y-94679175D01*
X188344234Y-94679176D01*
X188344234Y-94679177D01*
X188344228Y-94679182D01*
X188176866Y-94860987D01*
X188098384Y-94918256D01*
X188003961Y-94941131D01*
X187907971Y-94926131D01*
X187825028Y-94875539D01*
X187817601Y-94868414D01*
X187661076Y-94711889D01*
X187467576Y-94576399D01*
X187253484Y-94476566D01*
X187040001Y-94419363D01*
X187040000Y-94419364D01*
X187040000Y-95314498D01*
X186932315Y-95265320D01*
X186825763Y-95250000D01*
X186754237Y-95250000D01*
X186647685Y-95265320D01*
X186540000Y-95314498D01*
X186540000Y-94419364D01*
X186539998Y-94419363D01*
X186326516Y-94476566D01*
X186326505Y-94476570D01*
X186112428Y-94576396D01*
X186112420Y-94576400D01*
X185918919Y-94711892D01*
X185762397Y-94868414D01*
X185681615Y-94922390D01*
X185586327Y-94941344D01*
X185491039Y-94922390D01*
X185410258Y-94868413D01*
X185403132Y-94860987D01*
X185398574Y-94856035D01*
X185398571Y-94856031D01*
X185235764Y-94679175D01*
X185046067Y-94531528D01*
X184935539Y-94471713D01*
X184834655Y-94417117D01*
X184607297Y-94339066D01*
X184607294Y-94339065D01*
X184370192Y-94299500D01*
X184129808Y-94299500D01*
X183892705Y-94339065D01*
X183892702Y-94339066D01*
X183665344Y-94417117D01*
X183453931Y-94531529D01*
X183264235Y-94679176D01*
X183256354Y-94687736D01*
X183163193Y-94788937D01*
X183084714Y-94846204D01*
X182990290Y-94869079D01*
X182894300Y-94854079D01*
X182811357Y-94803488D01*
X182796815Y-94788946D01*
X182695764Y-94679175D01*
X182506067Y-94531528D01*
X182395539Y-94471713D01*
X182294655Y-94417117D01*
X182067297Y-94339066D01*
X182067294Y-94339065D01*
X181830192Y-94299500D01*
X181589808Y-94299500D01*
X181352705Y-94339065D01*
X181352702Y-94339066D01*
X181125344Y-94417117D01*
X180913929Y-94531530D01*
X180848982Y-94582080D01*
X180762144Y-94625649D01*
X180665243Y-94632669D01*
X180573031Y-94602074D01*
X180499547Y-94538519D01*
X180498500Y-94537163D01*
X180448286Y-94471723D01*
X180448285Y-94471722D01*
X180448282Y-94471718D01*
X180448277Y-94471714D01*
X180448276Y-94471713D01*
X180322844Y-94375466D01*
X180322843Y-94375465D01*
X180322841Y-94375464D01*
X180176762Y-94314956D01*
X180176760Y-94314955D01*
X180059362Y-94299500D01*
X178280639Y-94299500D01*
X178280637Y-94299501D01*
X178163238Y-94314955D01*
X178054475Y-94360006D01*
X178017159Y-94375464D01*
X178017158Y-94375464D01*
X178017155Y-94375466D01*
X177891723Y-94471713D01*
X177891713Y-94471723D01*
X177857369Y-94516481D01*
X177784323Y-94580539D01*
X177692324Y-94611767D01*
X177595377Y-94605412D01*
X177508242Y-94562440D01*
X177483756Y-94540967D01*
X160372988Y-77430199D01*
X160359280Y-77415329D01*
X160338141Y-77390442D01*
X160328337Y-77378900D01*
X160328335Y-77378899D01*
X160328334Y-77378897D01*
X160266568Y-77331943D01*
X160261259Y-77327793D01*
X160248130Y-77317240D01*
X160200754Y-77279158D01*
X160200750Y-77279156D01*
X160191015Y-77272933D01*
X160181060Y-77266943D01*
X160110604Y-77234347D01*
X160104564Y-77231453D01*
X160035021Y-77196964D01*
X160035019Y-77196963D01*
X160035018Y-77196963D01*
X160024102Y-77192952D01*
X160013167Y-77189268D01*
X159937368Y-77172583D01*
X159930802Y-77171044D01*
X159855494Y-77152315D01*
X159844087Y-77150760D01*
X159832500Y-77149500D01*
X159832497Y-77149500D01*
X159832493Y-77149500D01*
X159754913Y-77149500D01*
X159748172Y-77149409D01*
X159729948Y-77148915D01*
X159670568Y-77147307D01*
X159670567Y-77147307D01*
X159670566Y-77147307D01*
X159657110Y-77148403D01*
X159657032Y-77147449D01*
X159635466Y-77149500D01*
X156979849Y-77149500D01*
X156884561Y-77130546D01*
X156803779Y-77076570D01*
X156796654Y-77069143D01*
X156701785Y-76966088D01*
X156701779Y-76966083D01*
X156518628Y-76823531D01*
X156314512Y-76713068D01*
X156314507Y-76713066D01*
X156314503Y-76713064D01*
X156094981Y-76637702D01*
X156094978Y-76637701D01*
X156094974Y-76637700D01*
X155866049Y-76599500D01*
X155633951Y-76599500D01*
X155405025Y-76637700D01*
X155405019Y-76637701D01*
X155405019Y-76637702D01*
X155185497Y-76713064D01*
X155185494Y-76713065D01*
X155185487Y-76713068D01*
X154981371Y-76823531D01*
X154798220Y-76966082D01*
X154703347Y-77069143D01*
X154646822Y-77130546D01*
X154641013Y-77136856D01*
X154634691Y-77144979D01*
X154633394Y-77143970D01*
X154574326Y-77204264D01*
X154538435Y-77224640D01*
X154530226Y-77228438D01*
X154519885Y-77233566D01*
X154454492Y-77275365D01*
X154448765Y-77278917D01*
X154382268Y-77318927D01*
X154373042Y-77325940D01*
X154364010Y-77333200D01*
X154309151Y-77388059D01*
X154304324Y-77392757D01*
X154247962Y-77446146D01*
X154239224Y-77456435D01*
X154238498Y-77455819D01*
X154224694Y-77472516D01*
X141540190Y-90157019D01*
X141525322Y-90170725D01*
X141488900Y-90201662D01*
X141441954Y-90263417D01*
X141437807Y-90268721D01*
X141389163Y-90329238D01*
X141382936Y-90338980D01*
X141376943Y-90348941D01*
X141344353Y-90419381D01*
X141341444Y-90425451D01*
X141306961Y-90494984D01*
X141302960Y-90505872D01*
X141299268Y-90516830D01*
X141282587Y-90592613D01*
X141281049Y-90599175D01*
X141262315Y-90674506D01*
X141260758Y-90685926D01*
X141259500Y-90697506D01*
X141259500Y-90775086D01*
X141259409Y-90781826D01*
X141257307Y-90859436D01*
X141258403Y-90872895D01*
X141257449Y-90872972D01*
X141259500Y-90894537D01*
X141259500Y-96803853D01*
X141240546Y-96899141D01*
X141186570Y-96979923D01*
X141105790Y-97033898D01*
X140957159Y-97095464D01*
X140957155Y-97095466D01*
X140831723Y-97191713D01*
X140831716Y-97191720D01*
X140781499Y-97257165D01*
X140708454Y-97321223D01*
X140616455Y-97352453D01*
X140519508Y-97346098D01*
X140432372Y-97303128D01*
X140431014Y-97302078D01*
X140366072Y-97251531D01*
X140366068Y-97251528D01*
X140366067Y-97251528D01*
X140238077Y-97182263D01*
X140154655Y-97137117D01*
X139927297Y-97059066D01*
X139927294Y-97059065D01*
X139690192Y-97019500D01*
X139449808Y-97019500D01*
X139212705Y-97059065D01*
X139212702Y-97059066D01*
X138985344Y-97137117D01*
X138773931Y-97251529D01*
X138695907Y-97312258D01*
X138584236Y-97399175D01*
X138584234Y-97399176D01*
X138584234Y-97399177D01*
X138584228Y-97399182D01*
X138416866Y-97580987D01*
X138338384Y-97638256D01*
X138243961Y-97661131D01*
X138147971Y-97646131D01*
X138065028Y-97595539D01*
X138057601Y-97588414D01*
X137901076Y-97431889D01*
X137707576Y-97296399D01*
X137493484Y-97196566D01*
X137280001Y-97139363D01*
X137280000Y-97139364D01*
X137280000Y-98034498D01*
X137172315Y-97985320D01*
X137065763Y-97970000D01*
X136994237Y-97970000D01*
X136887685Y-97985320D01*
X136780000Y-98034498D01*
X136780000Y-97139364D01*
X136779998Y-97139363D01*
X136566516Y-97196566D01*
X136566505Y-97196570D01*
X136352428Y-97296396D01*
X136352420Y-97296400D01*
X136158923Y-97431889D01*
X135991889Y-97598923D01*
X135856400Y-97792420D01*
X135856396Y-97792428D01*
X135756570Y-98006505D01*
X135756566Y-98006516D01*
X135699363Y-98219998D01*
X135699364Y-98220000D01*
X136596314Y-98220000D01*
X136570507Y-98260156D01*
X136530000Y-98398111D01*
X136530000Y-98541889D01*
X136570507Y-98679844D01*
X136596314Y-98720000D01*
X135699364Y-98720000D01*
X135699363Y-98720001D01*
X135756566Y-98933483D01*
X135756566Y-98933485D01*
X135856399Y-99147576D01*
X135991889Y-99341076D01*
X136158923Y-99508110D01*
X136352423Y-99643600D01*
X136566511Y-99743431D01*
X136780000Y-99800635D01*
X136780000Y-98905501D01*
X136887685Y-98954680D01*
X136994237Y-98970000D01*
X137065763Y-98970000D01*
X137172315Y-98954680D01*
X137280000Y-98905501D01*
X137280000Y-99800635D01*
X137493488Y-99743431D01*
X137707576Y-99643600D01*
X137901079Y-99508107D01*
X138057601Y-99351586D01*
X138138382Y-99297609D01*
X138233670Y-99278655D01*
X138328958Y-99297609D01*
X138409740Y-99351585D01*
X138416867Y-99359012D01*
X138421426Y-99363964D01*
X138421429Y-99363969D01*
X138584236Y-99540825D01*
X138773933Y-99688472D01*
X138985344Y-99802882D01*
X139212703Y-99880934D01*
X139449808Y-99920500D01*
X139690192Y-99920500D01*
X139927297Y-99880934D01*
X140154656Y-99802882D01*
X140366067Y-99688472D01*
X140431014Y-99637921D01*
X140517850Y-99594351D01*
X140614750Y-99587328D01*
X140706963Y-99617922D01*
X140780448Y-99681475D01*
X140781361Y-99682655D01*
X140831718Y-99748282D01*
X140831722Y-99748285D01*
X140831723Y-99748286D01*
X140851123Y-99763172D01*
X140957159Y-99844536D01*
X141103238Y-99905044D01*
X141103240Y-99905044D01*
X141105789Y-99906100D01*
X141186570Y-99960077D01*
X141240546Y-100040858D01*
X141259500Y-100136146D01*
X141259500Y-101219309D01*
X141258679Y-101239515D01*
X141254799Y-101287165D01*
X141254799Y-101287172D01*
X141265276Y-101364075D01*
X141266095Y-101370764D01*
X141274484Y-101447904D01*
X141276969Y-101459192D01*
X141279775Y-101470475D01*
X141306536Y-101543320D01*
X141308773Y-101549673D01*
X141333557Y-101623227D01*
X141338417Y-101633732D01*
X141343567Y-101644114D01*
X141343568Y-101644116D01*
X141373190Y-101690460D01*
X141385364Y-101709505D01*
X141388906Y-101715216D01*
X141407519Y-101746151D01*
X141428931Y-101781737D01*
X141435935Y-101790951D01*
X141443197Y-101799986D01*
X141498092Y-101854881D01*
X141502794Y-101859713D01*
X141556150Y-101916040D01*
X141566441Y-101924781D01*
X141565821Y-101925510D01*
X141582520Y-101939309D01*
X142924585Y-103281374D01*
X142978561Y-103362156D01*
X142997515Y-103457444D01*
X142996665Y-103478003D01*
X142990700Y-103549998D01*
X143009866Y-103781308D01*
X143009868Y-103781315D01*
X143066841Y-104006293D01*
X143066842Y-104006297D01*
X143160074Y-104218846D01*
X143287018Y-104413150D01*
X143287021Y-104413153D01*
X143350268Y-104481858D01*
X143400859Y-104564799D01*
X143415859Y-104660789D01*
X143392984Y-104755213D01*
X143335716Y-104833695D01*
X143252773Y-104884287D01*
X143167072Y-104899500D01*
X140574429Y-104899500D01*
X140479141Y-104880546D01*
X140398359Y-104826570D01*
X135032430Y-99460641D01*
X134978454Y-99379859D01*
X134959500Y-99284571D01*
X134959500Y-96245540D01*
X134978454Y-96150252D01*
X135032428Y-96069472D01*
X136583802Y-94518097D01*
X136598664Y-94504398D01*
X136609780Y-94494956D01*
X136635100Y-94473450D01*
X136682090Y-94411633D01*
X136686186Y-94406394D01*
X136734842Y-94345866D01*
X136734845Y-94345859D01*
X136741063Y-94336131D01*
X136747047Y-94326185D01*
X136747054Y-94326177D01*
X136779672Y-94255671D01*
X136782511Y-94249745D01*
X136817037Y-94180134D01*
X136817037Y-94180130D01*
X136821037Y-94169242D01*
X136824728Y-94158287D01*
X136824732Y-94158280D01*
X136841433Y-94082402D01*
X136842933Y-94076003D01*
X136861684Y-94000607D01*
X136861684Y-94000599D01*
X136863244Y-93989154D01*
X136864500Y-93977608D01*
X136864500Y-93900024D01*
X136864591Y-93893283D01*
X136866693Y-93815681D01*
X136866691Y-93815673D01*
X136865597Y-93802223D01*
X136866549Y-93802145D01*
X136864500Y-93780578D01*
X136864500Y-91529690D01*
X136865321Y-91509484D01*
X136865750Y-91504206D01*
X136869201Y-91461833D01*
X136858725Y-91384946D01*
X136857908Y-91378280D01*
X136849514Y-91301090D01*
X136849513Y-91301087D01*
X136847027Y-91289793D01*
X136844227Y-91278536D01*
X136844227Y-91278532D01*
X136817455Y-91205662D01*
X136815218Y-91199306D01*
X136790445Y-91125783D01*
X136790444Y-91125779D01*
X136790440Y-91125772D01*
X136785571Y-91115248D01*
X136780433Y-91104888D01*
X136780432Y-91104884D01*
X136738645Y-91039510D01*
X136735088Y-91033776D01*
X136695066Y-90967258D01*
X136688116Y-90958115D01*
X136680802Y-90949016D01*
X136680799Y-90949011D01*
X136680794Y-90949006D01*
X136625924Y-90894135D01*
X136621255Y-90889339D01*
X136567849Y-90832959D01*
X136567844Y-90832956D01*
X136557564Y-90824224D01*
X136558182Y-90823495D01*
X136541476Y-90809688D01*
X135733107Y-90001318D01*
X135719399Y-89986449D01*
X135715454Y-89981805D01*
X135688450Y-89950013D01*
X135688448Y-89950012D01*
X135688447Y-89950010D01*
X135626681Y-89903056D01*
X135621372Y-89898906D01*
X135593961Y-89876873D01*
X135560867Y-89850271D01*
X135560863Y-89850269D01*
X135551128Y-89844046D01*
X135541173Y-89838056D01*
X135470717Y-89805460D01*
X135464677Y-89802566D01*
X135395134Y-89768077D01*
X135395132Y-89768076D01*
X135395131Y-89768076D01*
X135384215Y-89764065D01*
X135373280Y-89760381D01*
X135297481Y-89743696D01*
X135290915Y-89742157D01*
X135215607Y-89723428D01*
X135204200Y-89721873D01*
X135192613Y-89720613D01*
X135192610Y-89720613D01*
X135192606Y-89720613D01*
X135115026Y-89720613D01*
X135108285Y-89720522D01*
X135090061Y-89720028D01*
X135030681Y-89718420D01*
X135030680Y-89718420D01*
X135030679Y-89718420D01*
X135017223Y-89719516D01*
X135017145Y-89718562D01*
X134995579Y-89720613D01*
X134957849Y-89720613D01*
X134862561Y-89701659D01*
X134781779Y-89647683D01*
X134774654Y-89640256D01*
X134679785Y-89537201D01*
X134679779Y-89537196D01*
X134496628Y-89394644D01*
X134292512Y-89284181D01*
X134292507Y-89284179D01*
X134292503Y-89284177D01*
X134072981Y-89208815D01*
X134072978Y-89208814D01*
X134072974Y-89208813D01*
X133844049Y-89170613D01*
X133611951Y-89170613D01*
X133383025Y-89208813D01*
X133383019Y-89208814D01*
X133383019Y-89208815D01*
X133163497Y-89284177D01*
X133163494Y-89284178D01*
X133163487Y-89284181D01*
X132959371Y-89394644D01*
X132776220Y-89537196D01*
X132776214Y-89537201D01*
X132619022Y-89707957D01*
X132619019Y-89707961D01*
X132492074Y-89902266D01*
X132398842Y-90114815D01*
X132398841Y-90114819D01*
X132341868Y-90339797D01*
X132341866Y-90339804D01*
X132322700Y-90571113D01*
X126359251Y-90571113D01*
X126318901Y-80665113D01*
X132449700Y-80665113D01*
X132468866Y-80896421D01*
X132468868Y-80896428D01*
X132525841Y-81121406D01*
X132525842Y-81121410D01*
X132619074Y-81333959D01*
X132746017Y-81528262D01*
X132746505Y-81528888D01*
X132746764Y-81529404D01*
X132751654Y-81536889D01*
X132750799Y-81537447D01*
X132790077Y-81615725D01*
X132797100Y-81712626D01*
X132766507Y-81804838D01*
X132702955Y-81878324D01*
X132701595Y-81879375D01*
X132626722Y-81936827D01*
X132626713Y-81936836D01*
X132530466Y-82062268D01*
X132469955Y-82208352D01*
X132454500Y-82325750D01*
X132454500Y-84004473D01*
X132454501Y-84004475D01*
X132469955Y-84121874D01*
X132484936Y-84158041D01*
X132530464Y-84267954D01*
X132530465Y-84267956D01*
X132530466Y-84267957D01*
X132593423Y-84350005D01*
X132626718Y-84393395D01*
X132752159Y-84489649D01*
X132898238Y-84550157D01*
X133015639Y-84565613D01*
X134694360Y-84565612D01*
X134811762Y-84550157D01*
X134957841Y-84489649D01*
X135083282Y-84393395D01*
X135179536Y-84267954D01*
X135240044Y-84121875D01*
X135255500Y-84004474D01*
X135255500Y-83484000D01*
X138418700Y-83484000D01*
X138437866Y-83715308D01*
X138437868Y-83715315D01*
X138494841Y-83940293D01*
X138494842Y-83940297D01*
X138588074Y-84152846D01*
X138715019Y-84347151D01*
X138715022Y-84347155D01*
X138846197Y-84489649D01*
X138872216Y-84517913D01*
X139055374Y-84660470D01*
X139152863Y-84713228D01*
X139259487Y-84770931D01*
X139259489Y-84770931D01*
X139259497Y-84770936D01*
X139479019Y-84846298D01*
X139707951Y-84884500D01*
X139940049Y-84884500D01*
X140168981Y-84846298D01*
X140388503Y-84770936D01*
X140592626Y-84660470D01*
X140775784Y-84517913D01*
X140828823Y-84460296D01*
X140870654Y-84414857D01*
X140949136Y-84357588D01*
X141043559Y-84334713D01*
X141053849Y-84334500D01*
X142221310Y-84334500D01*
X142241516Y-84335321D01*
X142247205Y-84335784D01*
X142289167Y-84339201D01*
X142366098Y-84328718D01*
X142372685Y-84327911D01*
X142449910Y-84319514D01*
X142449911Y-84319513D01*
X142461217Y-84317024D01*
X142472461Y-84314227D01*
X142472468Y-84314227D01*
X142526447Y-84294395D01*
X142545321Y-84287462D01*
X142551681Y-84285223D01*
X142583405Y-84274533D01*
X142625221Y-84260444D01*
X142625230Y-84260438D01*
X142635754Y-84255570D01*
X142646104Y-84250436D01*
X142646116Y-84250432D01*
X142711570Y-84208593D01*
X142717209Y-84205096D01*
X142783736Y-84165070D01*
X142783746Y-84165059D01*
X142792981Y-84158041D01*
X142801986Y-84150802D01*
X142801986Y-84150801D01*
X142801989Y-84150800D01*
X142856895Y-84095892D01*
X142861653Y-84091261D01*
X142918041Y-84037849D01*
X142918042Y-84037848D01*
X142926781Y-84027559D01*
X142927514Y-84028182D01*
X142941308Y-84011479D01*
X150779359Y-76173430D01*
X150860141Y-76119454D01*
X150955429Y-76100500D01*
X159455310Y-76100500D01*
X159475516Y-76101321D01*
X159481205Y-76101784D01*
X159523167Y-76105201D01*
X159600098Y-76094718D01*
X159606685Y-76093911D01*
X159683910Y-76085514D01*
X159683911Y-76085513D01*
X159695217Y-76083024D01*
X159706461Y-76080227D01*
X159706468Y-76080227D01*
X159760447Y-76060395D01*
X159779321Y-76053462D01*
X159785681Y-76051223D01*
X159826381Y-76037509D01*
X159859221Y-76026444D01*
X159859230Y-76026438D01*
X159869754Y-76021570D01*
X159880104Y-76016436D01*
X159880116Y-76016432D01*
X159945570Y-75974593D01*
X159951209Y-75971096D01*
X160017736Y-75931070D01*
X160017746Y-75931059D01*
X160026981Y-75924041D01*
X160035986Y-75916802D01*
X160035986Y-75916801D01*
X160035989Y-75916800D01*
X160090895Y-75861892D01*
X160095652Y-75857262D01*
X160152041Y-75803849D01*
X160152047Y-75803839D01*
X160160789Y-75793549D01*
X160161522Y-75794172D01*
X160175314Y-75777472D01*
X162399811Y-73552976D01*
X162414654Y-73539293D01*
X162451100Y-73508337D01*
X162498090Y-73446520D01*
X162502186Y-73441281D01*
X162550842Y-73380753D01*
X162550845Y-73380746D01*
X162557063Y-73371018D01*
X162563047Y-73361072D01*
X162563054Y-73361064D01*
X162595672Y-73290558D01*
X162598511Y-73284632D01*
X162633037Y-73215021D01*
X162633037Y-73215017D01*
X162637037Y-73204129D01*
X162640728Y-73193174D01*
X162640732Y-73193167D01*
X162657433Y-73117289D01*
X162658933Y-73110890D01*
X162677684Y-73035494D01*
X162677684Y-73035486D01*
X162679244Y-73024041D01*
X162680500Y-73012495D01*
X162680500Y-72934911D01*
X162680591Y-72928170D01*
X162682693Y-72850567D01*
X162682691Y-72850557D01*
X162681597Y-72837113D01*
X162682549Y-72837035D01*
X162680500Y-72815467D01*
X162680500Y-72228163D01*
X162699454Y-72132875D01*
X162753430Y-72052093D01*
X162788049Y-72023242D01*
X162815383Y-72004375D01*
X162996219Y-71830680D01*
X163027269Y-71789360D01*
X171697000Y-71789360D01*
X171697001Y-71789362D01*
X171712455Y-71906761D01*
X171718422Y-71921166D01*
X171772964Y-72052841D01*
X171869218Y-72178282D01*
X171869222Y-72178285D01*
X171869223Y-72178286D01*
X171937451Y-72230639D01*
X171994659Y-72274536D01*
X172140738Y-72335044D01*
X172258139Y-72350500D01*
X174241860Y-72350499D01*
X174359262Y-72335044D01*
X174505341Y-72274536D01*
X174630782Y-72178282D01*
X174694821Y-72094823D01*
X174767865Y-72030765D01*
X174859863Y-71999535D01*
X174956810Y-72005889D01*
X175010876Y-72027416D01*
X175204533Y-72132216D01*
X175204534Y-72132217D01*
X175432210Y-72210379D01*
X175432213Y-72210380D01*
X175540000Y-72228366D01*
X175540000Y-71241683D01*
X175568819Y-71259209D01*
X175714404Y-71300000D01*
X175827622Y-71300000D01*
X175939783Y-71284584D01*
X176040000Y-71241053D01*
X176040000Y-72228365D01*
X176147786Y-72210380D01*
X176147789Y-72210379D01*
X176375465Y-72132217D01*
X176375467Y-72132216D01*
X176587159Y-72017656D01*
X176777118Y-71869803D01*
X176777128Y-71869794D01*
X176808519Y-71835695D01*
X176887000Y-71778425D01*
X176981424Y-71755549D01*
X177077414Y-71770548D01*
X177160357Y-71821139D01*
X177178094Y-71839218D01*
X177250694Y-71921166D01*
X177250698Y-71921170D01*
X177250699Y-71921171D01*
X177444926Y-72079752D01*
X177535798Y-72132217D01*
X177655108Y-72201101D01*
X177662075Y-72205123D01*
X177896523Y-72294037D01*
X178142198Y-72344192D01*
X178392736Y-72354288D01*
X178641650Y-72324065D01*
X178882493Y-72254304D01*
X179109026Y-72146813D01*
X179315383Y-72004375D01*
X179496219Y-71830680D01*
X179646850Y-71630226D01*
X179745709Y-71441866D01*
X179763373Y-71408210D01*
X179763373Y-71408209D01*
X179763376Y-71408204D01*
X179842778Y-71170366D01*
X179883000Y-70922871D01*
X179883000Y-70639919D01*
X179867876Y-70452571D01*
X179807869Y-70209115D01*
X179709587Y-69978437D01*
X179634781Y-69860141D01*
X179575576Y-69766516D01*
X179575570Y-69766509D01*
X179409301Y-69578829D01*
X179215074Y-69420248D01*
X179124202Y-69367783D01*
X178997926Y-69294877D01*
X178763475Y-69205962D01*
X178517807Y-69155809D01*
X178517806Y-69155808D01*
X178517802Y-69155808D01*
X178517801Y-69155807D01*
X178517796Y-69155807D01*
X178267266Y-69145712D01*
X178267265Y-69145712D01*
X178267264Y-69145712D01*
X178184292Y-69155786D01*
X178018346Y-69175935D01*
X177777506Y-69245696D01*
X177777494Y-69245701D01*
X177550981Y-69353182D01*
X177550975Y-69353186D01*
X177344614Y-69495626D01*
X177161112Y-69671883D01*
X177079260Y-69724222D01*
X176983610Y-69741254D01*
X176888723Y-69720384D01*
X176809045Y-69664792D01*
X176805430Y-69660948D01*
X176777131Y-69630207D01*
X176777118Y-69630196D01*
X176587159Y-69482343D01*
X176375467Y-69367783D01*
X176375465Y-69367782D01*
X176147790Y-69289620D01*
X176147785Y-69289619D01*
X176040000Y-69271632D01*
X176040000Y-70258316D01*
X176011181Y-70240791D01*
X175865596Y-70200000D01*
X175752378Y-70200000D01*
X175640217Y-70215416D01*
X175540000Y-70258946D01*
X175540000Y-69271633D01*
X175539999Y-69271632D01*
X175432214Y-69289619D01*
X175432209Y-69289620D01*
X175204535Y-69367781D01*
X175010875Y-69472584D01*
X174918050Y-69501266D01*
X174821315Y-69492242D01*
X174735397Y-69446886D01*
X174694821Y-69405175D01*
X174630786Y-69321723D01*
X174630785Y-69321722D01*
X174630782Y-69321718D01*
X174630777Y-69321714D01*
X174630776Y-69321713D01*
X174505344Y-69225466D01*
X174505343Y-69225465D01*
X174505341Y-69225464D01*
X174359262Y-69164956D01*
X174359260Y-69164955D01*
X174241862Y-69149500D01*
X172258139Y-69149500D01*
X172258137Y-69149501D01*
X172140738Y-69164955D01*
X172037540Y-69207702D01*
X171994659Y-69225464D01*
X171994658Y-69225464D01*
X171994655Y-69225466D01*
X171869223Y-69321713D01*
X171869213Y-69321723D01*
X171772966Y-69447155D01*
X171712455Y-69593239D01*
X171697000Y-69710637D01*
X171697000Y-71789360D01*
X163027269Y-71789360D01*
X163146850Y-71630226D01*
X163245709Y-71441866D01*
X163263373Y-71408210D01*
X163263373Y-71408209D01*
X163263376Y-71408204D01*
X163342778Y-71170366D01*
X163383000Y-70922871D01*
X163383000Y-70639919D01*
X163367876Y-70452571D01*
X163307869Y-70209115D01*
X163209587Y-69978437D01*
X163134781Y-69860141D01*
X163075576Y-69766516D01*
X163075570Y-69766509D01*
X162909301Y-69578829D01*
X162715074Y-69420248D01*
X162624202Y-69367783D01*
X162497926Y-69294877D01*
X162263475Y-69205962D01*
X162017807Y-69155809D01*
X162017806Y-69155808D01*
X162017802Y-69155808D01*
X162017801Y-69155807D01*
X162017796Y-69155807D01*
X161767266Y-69145712D01*
X161767265Y-69145712D01*
X161767264Y-69145712D01*
X161684292Y-69155786D01*
X161518346Y-69175935D01*
X161277506Y-69245696D01*
X161277494Y-69245701D01*
X161050981Y-69353182D01*
X161050975Y-69353186D01*
X160844614Y-69495626D01*
X160661112Y-69671883D01*
X160579260Y-69724222D01*
X160483610Y-69741254D01*
X160388723Y-69720384D01*
X160309045Y-69664792D01*
X160305430Y-69660948D01*
X160277131Y-69630207D01*
X160277118Y-69630196D01*
X160087159Y-69482343D01*
X159875467Y-69367783D01*
X159875465Y-69367782D01*
X159647790Y-69289620D01*
X159647785Y-69289619D01*
X159540000Y-69271632D01*
X159540000Y-70258316D01*
X159511181Y-70240791D01*
X159365596Y-70200000D01*
X159252378Y-70200000D01*
X159140217Y-70215416D01*
X159040000Y-70258946D01*
X159040000Y-69271633D01*
X159039999Y-69271632D01*
X158932214Y-69289619D01*
X158932209Y-69289620D01*
X158704535Y-69367781D01*
X158510875Y-69472584D01*
X158418050Y-69501266D01*
X158321315Y-69492242D01*
X158235397Y-69446886D01*
X158194821Y-69405175D01*
X158130786Y-69321723D01*
X158130785Y-69321722D01*
X158130782Y-69321718D01*
X158130777Y-69321714D01*
X158130776Y-69321713D01*
X158005344Y-69225466D01*
X158005343Y-69225465D01*
X158005341Y-69225464D01*
X157859262Y-69164956D01*
X157859260Y-69164955D01*
X157741862Y-69149500D01*
X155758139Y-69149500D01*
X155758137Y-69149501D01*
X155640738Y-69164955D01*
X155537540Y-69207702D01*
X155494659Y-69225464D01*
X155494658Y-69225464D01*
X155494655Y-69225466D01*
X155369223Y-69321713D01*
X155369213Y-69321723D01*
X155272966Y-69447155D01*
X155212455Y-69593239D01*
X155197000Y-69710637D01*
X155197000Y-71789360D01*
X155197001Y-71789362D01*
X155212455Y-71906761D01*
X155218422Y-71921166D01*
X155272964Y-72052841D01*
X155369218Y-72178282D01*
X155369222Y-72178285D01*
X155369223Y-72178286D01*
X155437451Y-72230639D01*
X155494659Y-72274536D01*
X155640738Y-72335044D01*
X155758139Y-72350500D01*
X157741860Y-72350499D01*
X157859262Y-72335044D01*
X158005341Y-72274536D01*
X158130782Y-72178282D01*
X158194821Y-72094823D01*
X158267865Y-72030765D01*
X158359863Y-71999535D01*
X158456810Y-72005889D01*
X158510876Y-72027416D01*
X158704533Y-72132216D01*
X158704534Y-72132217D01*
X158932210Y-72210379D01*
X158932213Y-72210380D01*
X159040000Y-72228366D01*
X159040000Y-71241683D01*
X159068819Y-71259209D01*
X159214404Y-71300000D01*
X159327622Y-71300000D01*
X159439783Y-71284584D01*
X159540000Y-71241053D01*
X159540000Y-72228365D01*
X159647786Y-72210380D01*
X159647789Y-72210379D01*
X159875465Y-72132217D01*
X159875467Y-72132216D01*
X160087159Y-72017656D01*
X160277118Y-71869803D01*
X160277128Y-71869794D01*
X160308519Y-71835695D01*
X160387000Y-71778425D01*
X160481424Y-71755549D01*
X160577414Y-71770548D01*
X160660357Y-71821139D01*
X160678094Y-71839218D01*
X160750694Y-71921166D01*
X160750696Y-71921168D01*
X160750699Y-71921171D01*
X160887979Y-72033256D01*
X160949802Y-72108201D01*
X160978239Y-72201101D01*
X160979500Y-72226132D01*
X160979500Y-72464571D01*
X160960546Y-72559859D01*
X160906570Y-72640641D01*
X159220641Y-74326570D01*
X159139859Y-74380546D01*
X159044571Y-74399500D01*
X150544690Y-74399500D01*
X150524484Y-74398679D01*
X150476834Y-74394799D01*
X150476828Y-74394799D01*
X150399942Y-74405274D01*
X150393255Y-74406093D01*
X150316087Y-74414486D01*
X150304850Y-74416959D01*
X150293534Y-74419773D01*
X150293532Y-74419774D01*
X150293529Y-74419774D01*
X150293525Y-74419776D01*
X150220664Y-74446542D01*
X150214312Y-74448778D01*
X150140788Y-74473552D01*
X150130212Y-74478445D01*
X150119885Y-74483566D01*
X150054492Y-74525365D01*
X150048765Y-74528917D01*
X149982268Y-74568927D01*
X149973042Y-74575940D01*
X149964010Y-74583200D01*
X149909151Y-74638059D01*
X149904324Y-74642757D01*
X149847962Y-74696146D01*
X149839224Y-74706435D01*
X149838498Y-74705819D01*
X149824694Y-74722516D01*
X141986641Y-82560570D01*
X141905859Y-82614546D01*
X141810571Y-82633500D01*
X141053849Y-82633500D01*
X140958561Y-82614546D01*
X140877779Y-82560570D01*
X140870654Y-82553143D01*
X140775785Y-82450088D01*
X140775779Y-82450083D01*
X140592628Y-82307531D01*
X140388512Y-82197068D01*
X140388507Y-82197066D01*
X140388503Y-82197064D01*
X140168981Y-82121702D01*
X140168978Y-82121701D01*
X140168974Y-82121700D01*
X139940049Y-82083500D01*
X139707951Y-82083500D01*
X139479025Y-82121700D01*
X139479019Y-82121701D01*
X139479019Y-82121702D01*
X139259497Y-82197064D01*
X139259494Y-82197065D01*
X139259487Y-82197068D01*
X139055371Y-82307531D01*
X138872220Y-82450083D01*
X138872214Y-82450088D01*
X138715022Y-82620844D01*
X138715019Y-82620848D01*
X138588074Y-82815153D01*
X138494842Y-83027702D01*
X138494841Y-83027706D01*
X138437868Y-83252684D01*
X138437866Y-83252691D01*
X138418700Y-83484000D01*
X135255500Y-83484000D01*
X135255499Y-82325753D01*
X135240044Y-82208351D01*
X135179536Y-82062272D01*
X135083282Y-81936831D01*
X135008404Y-81879375D01*
X134944346Y-81806331D01*
X134913117Y-81714332D01*
X134919472Y-81617385D01*
X134958967Y-81537294D01*
X134958346Y-81536889D01*
X134961696Y-81531760D01*
X134962442Y-81530249D01*
X134963505Y-81528874D01*
X134963969Y-81528276D01*
X134963979Y-81528266D01*
X135090924Y-81333962D01*
X135184157Y-81121413D01*
X135241134Y-80896418D01*
X135260300Y-80665113D01*
X135241134Y-80433808D01*
X135184157Y-80208813D01*
X135090924Y-79996264D01*
X134963979Y-79801960D01*
X134963977Y-79801957D01*
X134806785Y-79631201D01*
X134806779Y-79631196D01*
X134623628Y-79488644D01*
X134419512Y-79378181D01*
X134419507Y-79378179D01*
X134419503Y-79378177D01*
X134199981Y-79302815D01*
X134199978Y-79302814D01*
X134199974Y-79302813D01*
X133971049Y-79264613D01*
X133738951Y-79264613D01*
X133510025Y-79302813D01*
X133510019Y-79302814D01*
X133510019Y-79302815D01*
X133290497Y-79378177D01*
X133290494Y-79378178D01*
X133290487Y-79378181D01*
X133086371Y-79488644D01*
X132903220Y-79631196D01*
X132903214Y-79631201D01*
X132746022Y-79801957D01*
X132746019Y-79801961D01*
X132619074Y-79996266D01*
X132525842Y-80208815D01*
X132525841Y-80208819D01*
X132468868Y-80433797D01*
X132468866Y-80433804D01*
X132449700Y-80665113D01*
X126318901Y-80665113D01*
X126262220Y-66750000D01*
X127244390Y-66750000D01*
X127264804Y-67035428D01*
X127275989Y-67086847D01*
X127325631Y-67315045D01*
X127425631Y-67583158D01*
X127492872Y-67706300D01*
X127562774Y-67834315D01*
X127734261Y-68063395D01*
X127936605Y-68265739D01*
X128124363Y-68406293D01*
X128151316Y-68426470D01*
X128165685Y-68437226D01*
X128378950Y-68553678D01*
X128416841Y-68574368D01*
X128458703Y-68589981D01*
X128684954Y-68674369D01*
X128964572Y-68735196D01*
X129178552Y-68750500D01*
X129178557Y-68750500D01*
X129321443Y-68750500D01*
X129321448Y-68750500D01*
X129535428Y-68735196D01*
X129815046Y-68674369D01*
X130083161Y-68574367D01*
X130334315Y-68437226D01*
X130563395Y-68265739D01*
X130765739Y-68063395D01*
X130850625Y-67950000D01*
X135537700Y-67950000D01*
X135556866Y-68181308D01*
X135556868Y-68181315D01*
X135595909Y-68335482D01*
X135613843Y-68406300D01*
X135643296Y-68473447D01*
X135707074Y-68618846D01*
X135834019Y-68813151D01*
X135834022Y-68813155D01*
X135991214Y-68983911D01*
X135991220Y-68983916D01*
X136095304Y-69064928D01*
X136174374Y-69126470D01*
X136208223Y-69144788D01*
X136378487Y-69236931D01*
X136378489Y-69236931D01*
X136378497Y-69236936D01*
X136598019Y-69312298D01*
X136826951Y-69350500D01*
X137059049Y-69350500D01*
X137287981Y-69312298D01*
X137507503Y-69236936D01*
X137711626Y-69126470D01*
X137894784Y-68983913D01*
X137986136Y-68884678D01*
X137989654Y-68880857D01*
X138068136Y-68823588D01*
X138162559Y-68800713D01*
X138172849Y-68800500D01*
X140061984Y-68800500D01*
X140157272Y-68819454D01*
X140238054Y-68873430D01*
X140292030Y-68954212D01*
X140310984Y-69049500D01*
X140292030Y-69144788D01*
X140238054Y-69225570D01*
X140157272Y-69279546D01*
X140151776Y-69281625D01*
X140148492Y-69283065D01*
X139944371Y-69393531D01*
X139761220Y-69536083D01*
X139761214Y-69536088D01*
X139604022Y-69706844D01*
X139604019Y-69706848D01*
X139477074Y-69901153D01*
X139383842Y-70113702D01*
X139383841Y-70113706D01*
X139326868Y-70338684D01*
X139326866Y-70338691D01*
X139307700Y-70570000D01*
X139326866Y-70801308D01*
X139326868Y-70801315D01*
X139383841Y-71026293D01*
X139383842Y-71026297D01*
X139477074Y-71238846D01*
X139604017Y-71433149D01*
X139604505Y-71433775D01*
X139604764Y-71434291D01*
X139609654Y-71441776D01*
X139608799Y-71442334D01*
X139648077Y-71520612D01*
X139655100Y-71617513D01*
X139624507Y-71709725D01*
X139560955Y-71783211D01*
X139559595Y-71784262D01*
X139484722Y-71841714D01*
X139484713Y-71841723D01*
X139388466Y-71967155D01*
X139388464Y-71967158D01*
X139388464Y-71967159D01*
X139367547Y-72017656D01*
X139327955Y-72113239D01*
X139312500Y-72230637D01*
X139312500Y-73909360D01*
X139312501Y-73909362D01*
X139327955Y-74026761D01*
X139350583Y-74081389D01*
X139388464Y-74172841D01*
X139484718Y-74298282D01*
X139484722Y-74298285D01*
X139484723Y-74298286D01*
X139572202Y-74365411D01*
X139610159Y-74394536D01*
X139756238Y-74455044D01*
X139873639Y-74470500D01*
X141552360Y-74470499D01*
X141669762Y-74455044D01*
X141815841Y-74394536D01*
X141941282Y-74298282D01*
X142037536Y-74172841D01*
X142098044Y-74026762D01*
X142113500Y-73909361D01*
X142113499Y-72230640D01*
X142098044Y-72113238D01*
X142037536Y-71967159D01*
X142002248Y-71921171D01*
X141941286Y-71841723D01*
X141941285Y-71841722D01*
X141941282Y-71841718D01*
X141866404Y-71784262D01*
X141802346Y-71711218D01*
X141771117Y-71619219D01*
X141777472Y-71522272D01*
X141816967Y-71442181D01*
X141816346Y-71441776D01*
X141819696Y-71436647D01*
X141820442Y-71435136D01*
X141821505Y-71433761D01*
X141821969Y-71433163D01*
X141821979Y-71433153D01*
X141948924Y-71238849D01*
X142042157Y-71026300D01*
X142099134Y-70801305D01*
X142118300Y-70570000D01*
X142099134Y-70338695D01*
X142042157Y-70113700D01*
X141948924Y-69901151D01*
X141889339Y-69809949D01*
X141821980Y-69706848D01*
X141821977Y-69706844D01*
X141664785Y-69536088D01*
X141664779Y-69536083D01*
X141481628Y-69393531D01*
X141277507Y-69283065D01*
X141268083Y-69278932D01*
X141269026Y-69276780D01*
X141199194Y-69236141D01*
X141140316Y-69158859D01*
X141115494Y-69064928D01*
X141128508Y-68968649D01*
X141177375Y-68884678D01*
X141254657Y-68825800D01*
X141348588Y-68800978D01*
X141364016Y-68800500D01*
X150255310Y-68800500D01*
X150275516Y-68801321D01*
X150281205Y-68801784D01*
X150323167Y-68805201D01*
X150400098Y-68794718D01*
X150406685Y-68793911D01*
X150483910Y-68785514D01*
X150483911Y-68785513D01*
X150495217Y-68783024D01*
X150506461Y-68780227D01*
X150506468Y-68780227D01*
X150560447Y-68760395D01*
X150579321Y-68753462D01*
X150585681Y-68751223D01*
X150617405Y-68740533D01*
X150659221Y-68726444D01*
X150659230Y-68726438D01*
X150669754Y-68721570D01*
X150680108Y-68716434D01*
X150680116Y-68716432D01*
X150723959Y-68688407D01*
X150814453Y-68653057D01*
X150878634Y-68650059D01*
X150883948Y-68650499D01*
X150883951Y-68650500D01*
X150883954Y-68650500D01*
X151116049Y-68650500D01*
X151344981Y-68612298D01*
X151564503Y-68536936D01*
X151768626Y-68426470D01*
X151951784Y-68283913D01*
X152108979Y-68113153D01*
X152235924Y-67918849D01*
X152329157Y-67706300D01*
X152386134Y-67481305D01*
X152405300Y-67250000D01*
X152386134Y-67018695D01*
X152329157Y-66793700D01*
X152235924Y-66581151D01*
X152108979Y-66386847D01*
X152108977Y-66386844D01*
X151951785Y-66216088D01*
X151951779Y-66216083D01*
X151768628Y-66073531D01*
X151564512Y-65963068D01*
X151564507Y-65963066D01*
X151564503Y-65963064D01*
X151344981Y-65887702D01*
X151344978Y-65887701D01*
X151344974Y-65887700D01*
X151116049Y-65849500D01*
X150883951Y-65849500D01*
X150655025Y-65887700D01*
X150655019Y-65887701D01*
X150655019Y-65887702D01*
X150435497Y-65963064D01*
X150435494Y-65963065D01*
X150435487Y-65963068D01*
X150231371Y-66073531D01*
X150048220Y-66216083D01*
X150048214Y-66216088D01*
X149891022Y-66386844D01*
X149891019Y-66386848D01*
X149764074Y-66581153D01*
X149670842Y-66793702D01*
X149670841Y-66793706D01*
X149640979Y-66911627D01*
X149599213Y-66999346D01*
X149527057Y-67064405D01*
X149435497Y-67096899D01*
X149399599Y-67099500D01*
X138172849Y-67099500D01*
X138077561Y-67080546D01*
X137996779Y-67026570D01*
X137989654Y-67019143D01*
X137894785Y-66916088D01*
X137894779Y-66916083D01*
X137711628Y-66773531D01*
X137507512Y-66663068D01*
X137507507Y-66663066D01*
X137507503Y-66663064D01*
X137287981Y-66587702D01*
X137287978Y-66587701D01*
X137287974Y-66587700D01*
X137059049Y-66549500D01*
X136826951Y-66549500D01*
X136598025Y-66587700D01*
X136598019Y-66587701D01*
X136598019Y-66587702D01*
X136378497Y-66663064D01*
X136378494Y-66663065D01*
X136378487Y-66663068D01*
X136174371Y-66773531D01*
X135991220Y-66916083D01*
X135991214Y-66916088D01*
X135834022Y-67086844D01*
X135834019Y-67086848D01*
X135707074Y-67281153D01*
X135613842Y-67493702D01*
X135613841Y-67493706D01*
X135556868Y-67718684D01*
X135556866Y-67718691D01*
X135537700Y-67950000D01*
X130850625Y-67950000D01*
X130937226Y-67834315D01*
X131074367Y-67583161D01*
X131174369Y-67315046D01*
X131235196Y-67035428D01*
X131255610Y-66750000D01*
X131235196Y-66464572D01*
X131174369Y-66184954D01*
X131082733Y-65939268D01*
X131074368Y-65916841D01*
X130937224Y-65665682D01*
X130913043Y-65633380D01*
X130765739Y-65436605D01*
X130563395Y-65234261D01*
X130399661Y-65111691D01*
X130334317Y-65062775D01*
X130083158Y-64925631D01*
X129937970Y-64871479D01*
X129815046Y-64825631D01*
X129815047Y-64825631D01*
X129535429Y-64764804D01*
X129321448Y-64749500D01*
X129178552Y-64749500D01*
X129178551Y-64749500D01*
X128964570Y-64764804D01*
X128684954Y-64825631D01*
X128416841Y-64925631D01*
X128165682Y-65062775D01*
X128001951Y-65185343D01*
X127936605Y-65234261D01*
X127936604Y-65234262D01*
X127734262Y-65436604D01*
X127734260Y-65436607D01*
X127562775Y-65665682D01*
X127425631Y-65916841D01*
X127325631Y-66184954D01*
X127281713Y-66386844D01*
X127264804Y-66464572D01*
X127244390Y-66750000D01*
X126262220Y-66750000D01*
X126251018Y-64000012D01*
X126269584Y-63904650D01*
X126323231Y-63823649D01*
X126403792Y-63769344D01*
X126499002Y-63750002D01*
X126500016Y-63750000D01*
X195001815Y-63750000D01*
X195097103Y-63768954D01*
G37*
%TD.AperFunction*%
%TD*%
M02*
