M48
; DRILL file {KiCad 7.0.10} date Wed Apr  3 15:56:17 2024
; FORMAT={-:-/ absolute / inch / decimal}
; #@! TF.CreationDate,2024-04-03T15:56:17+05:30
; #@! TF.GenerationSoftware,Kicad,Pcbnew,7.0.10
; #@! TF.FileFunction,MixedPlating,1,2
FMAT,2
INCH
; #@! TA.AperFunction,Plated,PTH,ViaDrill
T1C0.0315
; #@! TA.AperFunction,Plated,PTH,ComponentDrill
T2C0.0315
; #@! TA.AperFunction,Plated,PTH,ComponentDrill
T3C0.0394
; #@! TA.AperFunction,Plated,PTH,ComponentDrill
T4C0.0433
; #@! TA.AperFunction,Plated,PTH,ComponentDrill
T5C0.0472
; #@! TA.AperFunction,NonPlated,NPTH,ComponentDrill
T6C0.1181
%
G90
G05
T1
X5.0886Y-2.7854
X5.0886Y-3.9665
X5.2461Y-2.9823
X5.2854Y-4.1634
X5.3749Y-2.9818
X5.3915Y-2.6752
X5.4999Y-3.7418
X5.5049Y-3.2868
X5.5217Y-2.5886
X5.6849Y-4.0768
X5.7972Y-2.5728
X5.8366Y-4.3209
X5.8899Y-3.7318
X5.9154Y-3.1004
X5.9449Y-2.6476
X6.0728Y-3.9665
X6.1319Y-3.0709
X6.2049Y-3.7268
X6.2697Y-4.1634
X6.3649Y-3.9868
X6.3878Y-3.0118
X6.5256Y-2.7756
X6.624Y-4.2028
X6.7126Y-2.9626
X6.7343Y-4.0276
X6.8209Y-3.248
X6.939Y-3.9665
X6.9587Y-3.439
X7.0571Y-4.124
X7.2539Y-3.2264
X7.2933Y-3.6516
X7.5295Y-4.0059
T2
X5.2649Y-3.5658
X5.2649Y-3.6642
X5.2699Y-3.1758
X5.2699Y-3.2742
X5.5399Y-2.7783
X5.5399Y-2.8768
X5.5449Y-3.0293
X5.5449Y-3.1278
T3
X5.3949Y-3.8768
X5.4949Y-3.8768
X5.5949Y-3.8768
X5.7949Y-3.8768
X5.8949Y-3.8768
X5.9949Y-3.8768
X6.1949Y-3.8768
X6.2949Y-3.8768
X6.3949Y-3.8768
X6.4949Y-3.8768
X6.6949Y-3.7768
X6.6949Y-3.8768
X7.0539Y-3.7697
X7.1539Y-3.7697
X7.2539Y-3.7697
X7.3539Y-3.7697
X7.4539Y-3.7697
X7.5539Y-3.7697
T4
X6.1713Y-2.7854
X6.2713Y-2.7854
X6.3713Y-2.7854
X6.8209Y-2.7854
X6.9209Y-2.7854
X7.0209Y-2.7854
T5
X6.1437Y-4.2972
X6.3012Y-4.2972
X6.4587Y-4.2972
X7.1988Y-4.2972
X7.3563Y-4.2972
X7.5138Y-4.2972
X7.5768Y-3.1634
X7.5768Y-3.3209
X7.5768Y-3.4783
T6
X5.0886Y-2.628
X5.0886Y-4.2815
X6.8177Y-4.2815
T3
G00X7.315Y-2.815
M15
G01X7.315Y-2.8937
M16
G05
G00X7.5394Y-2.7362
M15
G01X7.4606Y-2.7362
M16
G05
G00X7.5394Y-2.9724
M15
G01X7.4606Y-2.9724
M16
G05
M30
