%TF.GenerationSoftware,KiCad,Pcbnew,7.0.10*%
%TF.CreationDate,2024-04-03T15:56:11+05:30*%
%TF.ProjectId,power converter,706f7765-7220-4636-9f6e-766572746572,rev?*%
%TF.SameCoordinates,Original*%
%TF.FileFunction,Legend,Top*%
%TF.FilePolarity,Positive*%
%FSLAX46Y46*%
G04 Gerber Fmt 4.6, Leading zero omitted, Abs format (unit mm)*
G04 Created by KiCad (PCBNEW 7.0.10) date 2024-04-03 15:56:11*
%MOMM*%
%LPD*%
G01*
G04 APERTURE LIST*
%ADD10C,0.200000*%
%ADD11C,0.120000*%
G04 APERTURE END LIST*
D10*
X187106517Y-77632780D02*
X187677945Y-77632780D01*
X187392231Y-77632780D02*
X187392231Y-78632780D01*
X187392231Y-78632780D02*
X187487469Y-78489923D01*
X187487469Y-78489923D02*
X187582707Y-78394685D01*
X187582707Y-78394685D02*
X187677945Y-78347066D01*
X186201755Y-78632780D02*
X186677945Y-78632780D01*
X186677945Y-78632780D02*
X186725564Y-78156590D01*
X186725564Y-78156590D02*
X186677945Y-78204209D01*
X186677945Y-78204209D02*
X186582707Y-78251828D01*
X186582707Y-78251828D02*
X186344612Y-78251828D01*
X186344612Y-78251828D02*
X186249374Y-78204209D01*
X186249374Y-78204209D02*
X186201755Y-78156590D01*
X186201755Y-78156590D02*
X186154136Y-78061352D01*
X186154136Y-78061352D02*
X186154136Y-77823257D01*
X186154136Y-77823257D02*
X186201755Y-77728019D01*
X186201755Y-77728019D02*
X186249374Y-77680400D01*
X186249374Y-77680400D02*
X186344612Y-77632780D01*
X186344612Y-77632780D02*
X186582707Y-77632780D01*
X186582707Y-77632780D02*
X186677945Y-77680400D01*
X186677945Y-77680400D02*
X186725564Y-77728019D01*
X185106516Y-78632780D02*
X184773183Y-77632780D01*
X184773183Y-77632780D02*
X184439850Y-78632780D01*
X153869673Y-105736266D02*
X154631578Y-105736266D01*
X155583958Y-105117219D02*
X155107768Y-105117219D01*
X155107768Y-105117219D02*
X155060149Y-105593409D01*
X155060149Y-105593409D02*
X155107768Y-105545790D01*
X155107768Y-105545790D02*
X155203006Y-105498171D01*
X155203006Y-105498171D02*
X155441101Y-105498171D01*
X155441101Y-105498171D02*
X155536339Y-105545790D01*
X155536339Y-105545790D02*
X155583958Y-105593409D01*
X155583958Y-105593409D02*
X155631577Y-105688647D01*
X155631577Y-105688647D02*
X155631577Y-105926742D01*
X155631577Y-105926742D02*
X155583958Y-106021980D01*
X155583958Y-106021980D02*
X155536339Y-106069600D01*
X155536339Y-106069600D02*
X155441101Y-106117219D01*
X155441101Y-106117219D02*
X155203006Y-106117219D01*
X155203006Y-106117219D02*
X155107768Y-106069600D01*
X155107768Y-106069600D02*
X155060149Y-106021980D01*
X156679197Y-105117219D02*
X157012530Y-106117219D01*
X157012530Y-106117219D02*
X157345863Y-105117219D01*
X189617219Y-89106517D02*
X189617219Y-89677945D01*
X189617219Y-89392231D02*
X188617219Y-89392231D01*
X188617219Y-89392231D02*
X188760076Y-89487469D01*
X188760076Y-89487469D02*
X188855314Y-89582707D01*
X188855314Y-89582707D02*
X188902933Y-89677945D01*
X188617219Y-88201755D02*
X188617219Y-88677945D01*
X188617219Y-88677945D02*
X189093409Y-88725564D01*
X189093409Y-88725564D02*
X189045790Y-88677945D01*
X189045790Y-88677945D02*
X188998171Y-88582707D01*
X188998171Y-88582707D02*
X188998171Y-88344612D01*
X188998171Y-88344612D02*
X189045790Y-88249374D01*
X189045790Y-88249374D02*
X189093409Y-88201755D01*
X189093409Y-88201755D02*
X189188647Y-88154136D01*
X189188647Y-88154136D02*
X189426742Y-88154136D01*
X189426742Y-88154136D02*
X189521980Y-88201755D01*
X189521980Y-88201755D02*
X189569600Y-88249374D01*
X189569600Y-88249374D02*
X189617219Y-88344612D01*
X189617219Y-88344612D02*
X189617219Y-88582707D01*
X189617219Y-88582707D02*
X189569600Y-88677945D01*
X189569600Y-88677945D02*
X189521980Y-88725564D01*
X188617219Y-87106516D02*
X189617219Y-86773183D01*
X189617219Y-86773183D02*
X188617219Y-86439850D01*
X182345863Y-105367219D02*
X181869673Y-105367219D01*
X181869673Y-105367219D02*
X181822054Y-105843409D01*
X181822054Y-105843409D02*
X181869673Y-105795790D01*
X181869673Y-105795790D02*
X181964911Y-105748171D01*
X181964911Y-105748171D02*
X182203006Y-105748171D01*
X182203006Y-105748171D02*
X182298244Y-105795790D01*
X182298244Y-105795790D02*
X182345863Y-105843409D01*
X182345863Y-105843409D02*
X182393482Y-105938647D01*
X182393482Y-105938647D02*
X182393482Y-106176742D01*
X182393482Y-106176742D02*
X182345863Y-106271980D01*
X182345863Y-106271980D02*
X182298244Y-106319600D01*
X182298244Y-106319600D02*
X182203006Y-106367219D01*
X182203006Y-106367219D02*
X181964911Y-106367219D01*
X181964911Y-106367219D02*
X181869673Y-106319600D01*
X181869673Y-106319600D02*
X181822054Y-106271980D01*
X183441102Y-105367219D02*
X183774435Y-106367219D01*
X183774435Y-106367219D02*
X184107768Y-105367219D01*
X189417292Y-106367219D02*
X189607768Y-106367219D01*
X189607768Y-106367219D02*
X189703006Y-106319600D01*
X189703006Y-106319600D02*
X189750625Y-106271980D01*
X189750625Y-106271980D02*
X189845863Y-106129123D01*
X189845863Y-106129123D02*
X189893482Y-105938647D01*
X189893482Y-105938647D02*
X189893482Y-105557695D01*
X189893482Y-105557695D02*
X189845863Y-105462457D01*
X189845863Y-105462457D02*
X189798244Y-105414838D01*
X189798244Y-105414838D02*
X189703006Y-105367219D01*
X189703006Y-105367219D02*
X189512530Y-105367219D01*
X189512530Y-105367219D02*
X189417292Y-105414838D01*
X189417292Y-105414838D02*
X189369673Y-105462457D01*
X189369673Y-105462457D02*
X189322054Y-105557695D01*
X189322054Y-105557695D02*
X189322054Y-105795790D01*
X189322054Y-105795790D02*
X189369673Y-105891028D01*
X189369673Y-105891028D02*
X189417292Y-105938647D01*
X189417292Y-105938647D02*
X189512530Y-105986266D01*
X189512530Y-105986266D02*
X189703006Y-105986266D01*
X189703006Y-105986266D02*
X189798244Y-105938647D01*
X189798244Y-105938647D02*
X189845863Y-105891028D01*
X189845863Y-105891028D02*
X189893482Y-105795790D01*
X190941102Y-105367219D02*
X191274435Y-106367219D01*
X191274435Y-106367219D02*
X191607768Y-105367219D01*
X188367219Y-80725564D02*
X189367219Y-80058898D01*
X188367219Y-80058898D02*
X189367219Y-80725564D01*
X135819673Y-108207219D02*
X135819673Y-107207219D01*
X135819673Y-107207219D02*
X136200625Y-107207219D01*
X136200625Y-107207219D02*
X136295863Y-107254838D01*
X136295863Y-107254838D02*
X136343482Y-107302457D01*
X136343482Y-107302457D02*
X136391101Y-107397695D01*
X136391101Y-107397695D02*
X136391101Y-107540552D01*
X136391101Y-107540552D02*
X136343482Y-107635790D01*
X136343482Y-107635790D02*
X136295863Y-107683409D01*
X136295863Y-107683409D02*
X136200625Y-107731028D01*
X136200625Y-107731028D02*
X135819673Y-107731028D01*
X136962530Y-108207219D02*
X136867292Y-108159600D01*
X136867292Y-108159600D02*
X136819673Y-108111980D01*
X136819673Y-108111980D02*
X136772054Y-108016742D01*
X136772054Y-108016742D02*
X136772054Y-107731028D01*
X136772054Y-107731028D02*
X136819673Y-107635790D01*
X136819673Y-107635790D02*
X136867292Y-107588171D01*
X136867292Y-107588171D02*
X136962530Y-107540552D01*
X136962530Y-107540552D02*
X137105387Y-107540552D01*
X137105387Y-107540552D02*
X137200625Y-107588171D01*
X137200625Y-107588171D02*
X137248244Y-107635790D01*
X137248244Y-107635790D02*
X137295863Y-107731028D01*
X137295863Y-107731028D02*
X137295863Y-108016742D01*
X137295863Y-108016742D02*
X137248244Y-108111980D01*
X137248244Y-108111980D02*
X137200625Y-108159600D01*
X137200625Y-108159600D02*
X137105387Y-108207219D01*
X137105387Y-108207219D02*
X136962530Y-108207219D01*
X137629197Y-107540552D02*
X137819673Y-108207219D01*
X137819673Y-108207219D02*
X138010149Y-107731028D01*
X138010149Y-107731028D02*
X138200625Y-108207219D01*
X138200625Y-108207219D02*
X138391101Y-107540552D01*
X139153006Y-108159600D02*
X139057768Y-108207219D01*
X139057768Y-108207219D02*
X138867292Y-108207219D01*
X138867292Y-108207219D02*
X138772054Y-108159600D01*
X138772054Y-108159600D02*
X138724435Y-108064361D01*
X138724435Y-108064361D02*
X138724435Y-107683409D01*
X138724435Y-107683409D02*
X138772054Y-107588171D01*
X138772054Y-107588171D02*
X138867292Y-107540552D01*
X138867292Y-107540552D02*
X139057768Y-107540552D01*
X139057768Y-107540552D02*
X139153006Y-107588171D01*
X139153006Y-107588171D02*
X139200625Y-107683409D01*
X139200625Y-107683409D02*
X139200625Y-107778647D01*
X139200625Y-107778647D02*
X138724435Y-107873885D01*
X139629197Y-108207219D02*
X139629197Y-107540552D01*
X139629197Y-107731028D02*
X139676816Y-107635790D01*
X139676816Y-107635790D02*
X139724435Y-107588171D01*
X139724435Y-107588171D02*
X139819673Y-107540552D01*
X139819673Y-107540552D02*
X139914911Y-107540552D01*
X141581578Y-108111980D02*
X141533959Y-108159600D01*
X141533959Y-108159600D02*
X141391102Y-108207219D01*
X141391102Y-108207219D02*
X141295864Y-108207219D01*
X141295864Y-108207219D02*
X141153007Y-108159600D01*
X141153007Y-108159600D02*
X141057769Y-108064361D01*
X141057769Y-108064361D02*
X141010150Y-107969123D01*
X141010150Y-107969123D02*
X140962531Y-107778647D01*
X140962531Y-107778647D02*
X140962531Y-107635790D01*
X140962531Y-107635790D02*
X141010150Y-107445314D01*
X141010150Y-107445314D02*
X141057769Y-107350076D01*
X141057769Y-107350076D02*
X141153007Y-107254838D01*
X141153007Y-107254838D02*
X141295864Y-107207219D01*
X141295864Y-107207219D02*
X141391102Y-107207219D01*
X141391102Y-107207219D02*
X141533959Y-107254838D01*
X141533959Y-107254838D02*
X141581578Y-107302457D01*
X142010150Y-108207219D02*
X142010150Y-107540552D01*
X142010150Y-107207219D02*
X141962531Y-107254838D01*
X141962531Y-107254838D02*
X142010150Y-107302457D01*
X142010150Y-107302457D02*
X142057769Y-107254838D01*
X142057769Y-107254838D02*
X142010150Y-107207219D01*
X142010150Y-107207219D02*
X142010150Y-107302457D01*
X142486340Y-108207219D02*
X142486340Y-107540552D01*
X142486340Y-107731028D02*
X142533959Y-107635790D01*
X142533959Y-107635790D02*
X142581578Y-107588171D01*
X142581578Y-107588171D02*
X142676816Y-107540552D01*
X142676816Y-107540552D02*
X142772054Y-107540552D01*
X143533959Y-108159600D02*
X143438721Y-108207219D01*
X143438721Y-108207219D02*
X143248245Y-108207219D01*
X143248245Y-108207219D02*
X143153007Y-108159600D01*
X143153007Y-108159600D02*
X143105388Y-108111980D01*
X143105388Y-108111980D02*
X143057769Y-108016742D01*
X143057769Y-108016742D02*
X143057769Y-107731028D01*
X143057769Y-107731028D02*
X143105388Y-107635790D01*
X143105388Y-107635790D02*
X143153007Y-107588171D01*
X143153007Y-107588171D02*
X143248245Y-107540552D01*
X143248245Y-107540552D02*
X143438721Y-107540552D01*
X143438721Y-107540552D02*
X143533959Y-107588171D01*
X144391102Y-107540552D02*
X144391102Y-108207219D01*
X143962531Y-107540552D02*
X143962531Y-108064361D01*
X143962531Y-108064361D02*
X144010150Y-108159600D01*
X144010150Y-108159600D02*
X144105388Y-108207219D01*
X144105388Y-108207219D02*
X144248245Y-108207219D01*
X144248245Y-108207219D02*
X144343483Y-108159600D01*
X144343483Y-108159600D02*
X144391102Y-108111980D01*
X144867293Y-108207219D02*
X144867293Y-107540552D01*
X144867293Y-107207219D02*
X144819674Y-107254838D01*
X144819674Y-107254838D02*
X144867293Y-107302457D01*
X144867293Y-107302457D02*
X144914912Y-107254838D01*
X144914912Y-107254838D02*
X144867293Y-107207219D01*
X144867293Y-107207219D02*
X144867293Y-107302457D01*
X145200626Y-107540552D02*
X145581578Y-107540552D01*
X145343483Y-107207219D02*
X145343483Y-108064361D01*
X145343483Y-108064361D02*
X145391102Y-108159600D01*
X145391102Y-108159600D02*
X145486340Y-108207219D01*
X145486340Y-108207219D02*
X145581578Y-108207219D01*
X136105387Y-110198171D02*
X136057768Y-110150552D01*
X136057768Y-110150552D02*
X135962530Y-110007695D01*
X135962530Y-110007695D02*
X135914911Y-109912457D01*
X135914911Y-109912457D02*
X135867292Y-109769600D01*
X135867292Y-109769600D02*
X135819673Y-109531504D01*
X135819673Y-109531504D02*
X135819673Y-109341028D01*
X135819673Y-109341028D02*
X135867292Y-109102933D01*
X135867292Y-109102933D02*
X135914911Y-108960076D01*
X135914911Y-108960076D02*
X135962530Y-108864838D01*
X135962530Y-108864838D02*
X136057768Y-108721980D01*
X136057768Y-108721980D02*
X136105387Y-108674361D01*
X136486340Y-109817219D02*
X136486340Y-108817219D01*
X136486340Y-108817219D02*
X136819673Y-109531504D01*
X136819673Y-109531504D02*
X137153006Y-108817219D01*
X137153006Y-108817219D02*
X137153006Y-109817219D01*
X137819673Y-108817219D02*
X138010149Y-108817219D01*
X138010149Y-108817219D02*
X138105387Y-108864838D01*
X138105387Y-108864838D02*
X138200625Y-108960076D01*
X138200625Y-108960076D02*
X138248244Y-109150552D01*
X138248244Y-109150552D02*
X138248244Y-109483885D01*
X138248244Y-109483885D02*
X138200625Y-109674361D01*
X138200625Y-109674361D02*
X138105387Y-109769600D01*
X138105387Y-109769600D02*
X138010149Y-109817219D01*
X138010149Y-109817219D02*
X137819673Y-109817219D01*
X137819673Y-109817219D02*
X137724435Y-109769600D01*
X137724435Y-109769600D02*
X137629197Y-109674361D01*
X137629197Y-109674361D02*
X137581578Y-109483885D01*
X137581578Y-109483885D02*
X137581578Y-109150552D01*
X137581578Y-109150552D02*
X137629197Y-108960076D01*
X137629197Y-108960076D02*
X137724435Y-108864838D01*
X137724435Y-108864838D02*
X137819673Y-108817219D01*
X138676816Y-109817219D02*
X138676816Y-108817219D01*
X138676816Y-108817219D02*
X139248244Y-109817219D01*
X139248244Y-109817219D02*
X139248244Y-108817219D01*
X139724435Y-109436266D02*
X140486340Y-109436266D01*
X141153006Y-108817219D02*
X141248244Y-108817219D01*
X141248244Y-108817219D02*
X141343482Y-108864838D01*
X141343482Y-108864838D02*
X141391101Y-108912457D01*
X141391101Y-108912457D02*
X141438720Y-109007695D01*
X141438720Y-109007695D02*
X141486339Y-109198171D01*
X141486339Y-109198171D02*
X141486339Y-109436266D01*
X141486339Y-109436266D02*
X141438720Y-109626742D01*
X141438720Y-109626742D02*
X141391101Y-109721980D01*
X141391101Y-109721980D02*
X141343482Y-109769600D01*
X141343482Y-109769600D02*
X141248244Y-109817219D01*
X141248244Y-109817219D02*
X141153006Y-109817219D01*
X141153006Y-109817219D02*
X141057768Y-109769600D01*
X141057768Y-109769600D02*
X141010149Y-109721980D01*
X141010149Y-109721980D02*
X140962530Y-109626742D01*
X140962530Y-109626742D02*
X140914911Y-109436266D01*
X140914911Y-109436266D02*
X140914911Y-109198171D01*
X140914911Y-109198171D02*
X140962530Y-109007695D01*
X140962530Y-109007695D02*
X141010149Y-108912457D01*
X141010149Y-108912457D02*
X141057768Y-108864838D01*
X141057768Y-108864838D02*
X141153006Y-108817219D01*
X142057768Y-109245790D02*
X141962530Y-109198171D01*
X141962530Y-109198171D02*
X141914911Y-109150552D01*
X141914911Y-109150552D02*
X141867292Y-109055314D01*
X141867292Y-109055314D02*
X141867292Y-109007695D01*
X141867292Y-109007695D02*
X141914911Y-108912457D01*
X141914911Y-108912457D02*
X141962530Y-108864838D01*
X141962530Y-108864838D02*
X142057768Y-108817219D01*
X142057768Y-108817219D02*
X142248244Y-108817219D01*
X142248244Y-108817219D02*
X142343482Y-108864838D01*
X142343482Y-108864838D02*
X142391101Y-108912457D01*
X142391101Y-108912457D02*
X142438720Y-109007695D01*
X142438720Y-109007695D02*
X142438720Y-109055314D01*
X142438720Y-109055314D02*
X142391101Y-109150552D01*
X142391101Y-109150552D02*
X142343482Y-109198171D01*
X142343482Y-109198171D02*
X142248244Y-109245790D01*
X142248244Y-109245790D02*
X142057768Y-109245790D01*
X142057768Y-109245790D02*
X141962530Y-109293409D01*
X141962530Y-109293409D02*
X141914911Y-109341028D01*
X141914911Y-109341028D02*
X141867292Y-109436266D01*
X141867292Y-109436266D02*
X141867292Y-109626742D01*
X141867292Y-109626742D02*
X141914911Y-109721980D01*
X141914911Y-109721980D02*
X141962530Y-109769600D01*
X141962530Y-109769600D02*
X142057768Y-109817219D01*
X142057768Y-109817219D02*
X142248244Y-109817219D01*
X142248244Y-109817219D02*
X142343482Y-109769600D01*
X142343482Y-109769600D02*
X142391101Y-109721980D01*
X142391101Y-109721980D02*
X142438720Y-109626742D01*
X142438720Y-109626742D02*
X142438720Y-109436266D01*
X142438720Y-109436266D02*
X142391101Y-109341028D01*
X142391101Y-109341028D02*
X142343482Y-109293409D01*
X142343482Y-109293409D02*
X142248244Y-109245790D01*
X142772054Y-110198171D02*
X142819673Y-110150552D01*
X142819673Y-110150552D02*
X142914911Y-110007695D01*
X142914911Y-110007695D02*
X142962530Y-109912457D01*
X142962530Y-109912457D02*
X143010149Y-109769600D01*
X143010149Y-109769600D02*
X143057768Y-109531504D01*
X143057768Y-109531504D02*
X143057768Y-109341028D01*
X143057768Y-109341028D02*
X143010149Y-109102933D01*
X143010149Y-109102933D02*
X142962530Y-108960076D01*
X142962530Y-108960076D02*
X142914911Y-108864838D01*
X142914911Y-108864838D02*
X142819673Y-108721980D01*
X142819673Y-108721980D02*
X142772054Y-108674361D01*
X163143482Y-105164838D02*
X163048244Y-105117219D01*
X163048244Y-105117219D02*
X162905387Y-105117219D01*
X162905387Y-105117219D02*
X162762530Y-105164838D01*
X162762530Y-105164838D02*
X162667292Y-105260076D01*
X162667292Y-105260076D02*
X162619673Y-105355314D01*
X162619673Y-105355314D02*
X162572054Y-105545790D01*
X162572054Y-105545790D02*
X162572054Y-105688647D01*
X162572054Y-105688647D02*
X162619673Y-105879123D01*
X162619673Y-105879123D02*
X162667292Y-105974361D01*
X162667292Y-105974361D02*
X162762530Y-106069600D01*
X162762530Y-106069600D02*
X162905387Y-106117219D01*
X162905387Y-106117219D02*
X163000625Y-106117219D01*
X163000625Y-106117219D02*
X163143482Y-106069600D01*
X163143482Y-106069600D02*
X163191101Y-106021980D01*
X163191101Y-106021980D02*
X163191101Y-105688647D01*
X163191101Y-105688647D02*
X163000625Y-105688647D01*
X163619673Y-106117219D02*
X163619673Y-105117219D01*
X163619673Y-105117219D02*
X164191101Y-106117219D01*
X164191101Y-106117219D02*
X164191101Y-105117219D01*
X164667292Y-106117219D02*
X164667292Y-105117219D01*
X164667292Y-105117219D02*
X164905387Y-105117219D01*
X164905387Y-105117219D02*
X165048244Y-105164838D01*
X165048244Y-105164838D02*
X165143482Y-105260076D01*
X165143482Y-105260076D02*
X165191101Y-105355314D01*
X165191101Y-105355314D02*
X165238720Y-105545790D01*
X165238720Y-105545790D02*
X165238720Y-105688647D01*
X165238720Y-105688647D02*
X165191101Y-105879123D01*
X165191101Y-105879123D02*
X165143482Y-105974361D01*
X165143482Y-105974361D02*
X165048244Y-106069600D01*
X165048244Y-106069600D02*
X164905387Y-106117219D01*
X164905387Y-106117219D02*
X164667292Y-106117219D01*
X149869673Y-66117219D02*
X149869673Y-65117219D01*
X149869673Y-65117219D02*
X150107768Y-65117219D01*
X150107768Y-65117219D02*
X150250625Y-65164838D01*
X150250625Y-65164838D02*
X150345863Y-65260076D01*
X150345863Y-65260076D02*
X150393482Y-65355314D01*
X150393482Y-65355314D02*
X150441101Y-65545790D01*
X150441101Y-65545790D02*
X150441101Y-65688647D01*
X150441101Y-65688647D02*
X150393482Y-65879123D01*
X150393482Y-65879123D02*
X150345863Y-65974361D01*
X150345863Y-65974361D02*
X150250625Y-66069600D01*
X150250625Y-66069600D02*
X150107768Y-66117219D01*
X150107768Y-66117219D02*
X149869673Y-66117219D01*
X151250625Y-66069600D02*
X151155387Y-66117219D01*
X151155387Y-66117219D02*
X150964911Y-66117219D01*
X150964911Y-66117219D02*
X150869673Y-66069600D01*
X150869673Y-66069600D02*
X150822054Y-65974361D01*
X150822054Y-65974361D02*
X150822054Y-65593409D01*
X150822054Y-65593409D02*
X150869673Y-65498171D01*
X150869673Y-65498171D02*
X150964911Y-65450552D01*
X150964911Y-65450552D02*
X151155387Y-65450552D01*
X151155387Y-65450552D02*
X151250625Y-65498171D01*
X151250625Y-65498171D02*
X151298244Y-65593409D01*
X151298244Y-65593409D02*
X151298244Y-65688647D01*
X151298244Y-65688647D02*
X150822054Y-65783885D01*
X151726816Y-66117219D02*
X151726816Y-65117219D01*
X151726816Y-65498171D02*
X151822054Y-65450552D01*
X151822054Y-65450552D02*
X152012530Y-65450552D01*
X152012530Y-65450552D02*
X152107768Y-65498171D01*
X152107768Y-65498171D02*
X152155387Y-65545790D01*
X152155387Y-65545790D02*
X152203006Y-65641028D01*
X152203006Y-65641028D02*
X152203006Y-65926742D01*
X152203006Y-65926742D02*
X152155387Y-66021980D01*
X152155387Y-66021980D02*
X152107768Y-66069600D01*
X152107768Y-66069600D02*
X152012530Y-66117219D01*
X152012530Y-66117219D02*
X151822054Y-66117219D01*
X151822054Y-66117219D02*
X151726816Y-66069600D01*
X153060149Y-66117219D02*
X153060149Y-65593409D01*
X153060149Y-65593409D02*
X153012530Y-65498171D01*
X153012530Y-65498171D02*
X152917292Y-65450552D01*
X152917292Y-65450552D02*
X152726816Y-65450552D01*
X152726816Y-65450552D02*
X152631578Y-65498171D01*
X153060149Y-66069600D02*
X152964911Y-66117219D01*
X152964911Y-66117219D02*
X152726816Y-66117219D01*
X152726816Y-66117219D02*
X152631578Y-66069600D01*
X152631578Y-66069600D02*
X152583959Y-65974361D01*
X152583959Y-65974361D02*
X152583959Y-65879123D01*
X152583959Y-65879123D02*
X152631578Y-65783885D01*
X152631578Y-65783885D02*
X152726816Y-65736266D01*
X152726816Y-65736266D02*
X152964911Y-65736266D01*
X152964911Y-65736266D02*
X153060149Y-65688647D01*
X153488721Y-66069600D02*
X153583959Y-66117219D01*
X153583959Y-66117219D02*
X153774435Y-66117219D01*
X153774435Y-66117219D02*
X153869673Y-66069600D01*
X153869673Y-66069600D02*
X153917292Y-65974361D01*
X153917292Y-65974361D02*
X153917292Y-65926742D01*
X153917292Y-65926742D02*
X153869673Y-65831504D01*
X153869673Y-65831504D02*
X153774435Y-65783885D01*
X153774435Y-65783885D02*
X153631578Y-65783885D01*
X153631578Y-65783885D02*
X153536340Y-65736266D01*
X153536340Y-65736266D02*
X153488721Y-65641028D01*
X153488721Y-65641028D02*
X153488721Y-65593409D01*
X153488721Y-65593409D02*
X153536340Y-65498171D01*
X153536340Y-65498171D02*
X153631578Y-65450552D01*
X153631578Y-65450552D02*
X153774435Y-65450552D01*
X153774435Y-65450552D02*
X153869673Y-65498171D01*
X154345864Y-66117219D02*
X154345864Y-65450552D01*
X154345864Y-65117219D02*
X154298245Y-65164838D01*
X154298245Y-65164838D02*
X154345864Y-65212457D01*
X154345864Y-65212457D02*
X154393483Y-65164838D01*
X154393483Y-65164838D02*
X154345864Y-65117219D01*
X154345864Y-65117219D02*
X154345864Y-65212457D01*
X154774435Y-66069600D02*
X154869673Y-66117219D01*
X154869673Y-66117219D02*
X155060149Y-66117219D01*
X155060149Y-66117219D02*
X155155387Y-66069600D01*
X155155387Y-66069600D02*
X155203006Y-65974361D01*
X155203006Y-65974361D02*
X155203006Y-65926742D01*
X155203006Y-65926742D02*
X155155387Y-65831504D01*
X155155387Y-65831504D02*
X155060149Y-65783885D01*
X155060149Y-65783885D02*
X154917292Y-65783885D01*
X154917292Y-65783885D02*
X154822054Y-65736266D01*
X154822054Y-65736266D02*
X154774435Y-65641028D01*
X154774435Y-65641028D02*
X154774435Y-65593409D01*
X154774435Y-65593409D02*
X154822054Y-65498171D01*
X154822054Y-65498171D02*
X154917292Y-65450552D01*
X154917292Y-65450552D02*
X155060149Y-65450552D01*
X155060149Y-65450552D02*
X155155387Y-65498171D01*
X155631578Y-66117219D02*
X155631578Y-65117219D01*
X156060149Y-66117219D02*
X156060149Y-65593409D01*
X156060149Y-65593409D02*
X156012530Y-65498171D01*
X156012530Y-65498171D02*
X155917292Y-65450552D01*
X155917292Y-65450552D02*
X155774435Y-65450552D01*
X155774435Y-65450552D02*
X155679197Y-65498171D01*
X155679197Y-65498171D02*
X155631578Y-65545790D01*
X156583959Y-66069600D02*
X156583959Y-66117219D01*
X156583959Y-66117219D02*
X156536340Y-66212457D01*
X156536340Y-66212457D02*
X156488721Y-66260076D01*
X157774435Y-66117219D02*
X157774435Y-65117219D01*
X157774435Y-65593409D02*
X158345863Y-65593409D01*
X158345863Y-66117219D02*
X158345863Y-65117219D01*
X159250625Y-66117219D02*
X159250625Y-65593409D01*
X159250625Y-65593409D02*
X159203006Y-65498171D01*
X159203006Y-65498171D02*
X159107768Y-65450552D01*
X159107768Y-65450552D02*
X158917292Y-65450552D01*
X158917292Y-65450552D02*
X158822054Y-65498171D01*
X159250625Y-66069600D02*
X159155387Y-66117219D01*
X159155387Y-66117219D02*
X158917292Y-66117219D01*
X158917292Y-66117219D02*
X158822054Y-66069600D01*
X158822054Y-66069600D02*
X158774435Y-65974361D01*
X158774435Y-65974361D02*
X158774435Y-65879123D01*
X158774435Y-65879123D02*
X158822054Y-65783885D01*
X158822054Y-65783885D02*
X158917292Y-65736266D01*
X158917292Y-65736266D02*
X159155387Y-65736266D01*
X159155387Y-65736266D02*
X159250625Y-65688647D01*
X159726816Y-66117219D02*
X159726816Y-65450552D01*
X159726816Y-65641028D02*
X159774435Y-65545790D01*
X159774435Y-65545790D02*
X159822054Y-65498171D01*
X159822054Y-65498171D02*
X159917292Y-65450552D01*
X159917292Y-65450552D02*
X160012530Y-65450552D01*
X160298245Y-66069600D02*
X160393483Y-66117219D01*
X160393483Y-66117219D02*
X160583959Y-66117219D01*
X160583959Y-66117219D02*
X160679197Y-66069600D01*
X160679197Y-66069600D02*
X160726816Y-65974361D01*
X160726816Y-65974361D02*
X160726816Y-65926742D01*
X160726816Y-65926742D02*
X160679197Y-65831504D01*
X160679197Y-65831504D02*
X160583959Y-65783885D01*
X160583959Y-65783885D02*
X160441102Y-65783885D01*
X160441102Y-65783885D02*
X160345864Y-65736266D01*
X160345864Y-65736266D02*
X160298245Y-65641028D01*
X160298245Y-65641028D02*
X160298245Y-65593409D01*
X160298245Y-65593409D02*
X160345864Y-65498171D01*
X160345864Y-65498171D02*
X160441102Y-65450552D01*
X160441102Y-65450552D02*
X160583959Y-65450552D01*
X160583959Y-65450552D02*
X160679197Y-65498171D01*
X161155388Y-66117219D02*
X161155388Y-65117219D01*
X161583959Y-66117219D02*
X161583959Y-65593409D01*
X161583959Y-65593409D02*
X161536340Y-65498171D01*
X161536340Y-65498171D02*
X161441102Y-65450552D01*
X161441102Y-65450552D02*
X161298245Y-65450552D01*
X161298245Y-65450552D02*
X161203007Y-65498171D01*
X161203007Y-65498171D02*
X161155388Y-65545790D01*
X162060150Y-66117219D02*
X162060150Y-65450552D01*
X162060150Y-65117219D02*
X162012531Y-65164838D01*
X162012531Y-65164838D02*
X162060150Y-65212457D01*
X162060150Y-65212457D02*
X162107769Y-65164838D01*
X162107769Y-65164838D02*
X162060150Y-65117219D01*
X162060150Y-65117219D02*
X162060150Y-65212457D01*
X162393483Y-65450552D02*
X162774435Y-65450552D01*
X162536340Y-65117219D02*
X162536340Y-65974361D01*
X162536340Y-65974361D02*
X162583959Y-66069600D01*
X162583959Y-66069600D02*
X162679197Y-66117219D01*
X162679197Y-66117219D02*
X162774435Y-66117219D01*
X163155388Y-66069600D02*
X163155388Y-66117219D01*
X163155388Y-66117219D02*
X163107769Y-66212457D01*
X163107769Y-66212457D02*
X163060150Y-66260076D01*
X164298245Y-66069600D02*
X164441102Y-66117219D01*
X164441102Y-66117219D02*
X164679197Y-66117219D01*
X164679197Y-66117219D02*
X164774435Y-66069600D01*
X164774435Y-66069600D02*
X164822054Y-66021980D01*
X164822054Y-66021980D02*
X164869673Y-65926742D01*
X164869673Y-65926742D02*
X164869673Y-65831504D01*
X164869673Y-65831504D02*
X164822054Y-65736266D01*
X164822054Y-65736266D02*
X164774435Y-65688647D01*
X164774435Y-65688647D02*
X164679197Y-65641028D01*
X164679197Y-65641028D02*
X164488721Y-65593409D01*
X164488721Y-65593409D02*
X164393483Y-65545790D01*
X164393483Y-65545790D02*
X164345864Y-65498171D01*
X164345864Y-65498171D02*
X164298245Y-65402933D01*
X164298245Y-65402933D02*
X164298245Y-65307695D01*
X164298245Y-65307695D02*
X164345864Y-65212457D01*
X164345864Y-65212457D02*
X164393483Y-65164838D01*
X164393483Y-65164838D02*
X164488721Y-65117219D01*
X164488721Y-65117219D02*
X164726816Y-65117219D01*
X164726816Y-65117219D02*
X164869673Y-65164838D01*
X165298245Y-66117219D02*
X165298245Y-65117219D01*
X165726816Y-66117219D02*
X165726816Y-65593409D01*
X165726816Y-65593409D02*
X165679197Y-65498171D01*
X165679197Y-65498171D02*
X165583959Y-65450552D01*
X165583959Y-65450552D02*
X165441102Y-65450552D01*
X165441102Y-65450552D02*
X165345864Y-65498171D01*
X165345864Y-65498171D02*
X165298245Y-65545790D01*
X166203007Y-66117219D02*
X166203007Y-65450552D01*
X166203007Y-65641028D02*
X166250626Y-65545790D01*
X166250626Y-65545790D02*
X166298245Y-65498171D01*
X166298245Y-65498171D02*
X166393483Y-65450552D01*
X166393483Y-65450552D02*
X166488721Y-65450552D01*
X167203007Y-66069600D02*
X167107769Y-66117219D01*
X167107769Y-66117219D02*
X166917293Y-66117219D01*
X166917293Y-66117219D02*
X166822055Y-66069600D01*
X166822055Y-66069600D02*
X166774436Y-65974361D01*
X166774436Y-65974361D02*
X166774436Y-65593409D01*
X166774436Y-65593409D02*
X166822055Y-65498171D01*
X166822055Y-65498171D02*
X166917293Y-65450552D01*
X166917293Y-65450552D02*
X167107769Y-65450552D01*
X167107769Y-65450552D02*
X167203007Y-65498171D01*
X167203007Y-65498171D02*
X167250626Y-65593409D01*
X167250626Y-65593409D02*
X167250626Y-65688647D01*
X167250626Y-65688647D02*
X166774436Y-65783885D01*
X167583960Y-65450552D02*
X167822055Y-66117219D01*
X168060150Y-65450552D02*
X167822055Y-66117219D01*
X167822055Y-66117219D02*
X167726817Y-66355314D01*
X167726817Y-66355314D02*
X167679198Y-66402933D01*
X167679198Y-66402933D02*
X167583960Y-66450552D01*
X168869674Y-66117219D02*
X168869674Y-65593409D01*
X168869674Y-65593409D02*
X168822055Y-65498171D01*
X168822055Y-65498171D02*
X168726817Y-65450552D01*
X168726817Y-65450552D02*
X168536341Y-65450552D01*
X168536341Y-65450552D02*
X168441103Y-65498171D01*
X168869674Y-66069600D02*
X168774436Y-66117219D01*
X168774436Y-66117219D02*
X168536341Y-66117219D01*
X168536341Y-66117219D02*
X168441103Y-66069600D01*
X168441103Y-66069600D02*
X168393484Y-65974361D01*
X168393484Y-65974361D02*
X168393484Y-65879123D01*
X168393484Y-65879123D02*
X168441103Y-65783885D01*
X168441103Y-65783885D02*
X168536341Y-65736266D01*
X168536341Y-65736266D02*
X168774436Y-65736266D01*
X168774436Y-65736266D02*
X168869674Y-65688647D01*
X169298246Y-66069600D02*
X169393484Y-66117219D01*
X169393484Y-66117219D02*
X169583960Y-66117219D01*
X169583960Y-66117219D02*
X169679198Y-66069600D01*
X169679198Y-66069600D02*
X169726817Y-65974361D01*
X169726817Y-65974361D02*
X169726817Y-65926742D01*
X169726817Y-65926742D02*
X169679198Y-65831504D01*
X169679198Y-65831504D02*
X169583960Y-65783885D01*
X169583960Y-65783885D02*
X169441103Y-65783885D01*
X169441103Y-65783885D02*
X169345865Y-65736266D01*
X169345865Y-65736266D02*
X169298246Y-65641028D01*
X169298246Y-65641028D02*
X169298246Y-65593409D01*
X169298246Y-65593409D02*
X169345865Y-65498171D01*
X169345865Y-65498171D02*
X169441103Y-65450552D01*
X169441103Y-65450552D02*
X169583960Y-65450552D01*
X169583960Y-65450552D02*
X169679198Y-65498171D01*
X170203008Y-66069600D02*
X170203008Y-66117219D01*
X170203008Y-66117219D02*
X170155389Y-66212457D01*
X170155389Y-66212457D02*
X170107770Y-66260076D01*
X171250627Y-65117219D02*
X171583960Y-66117219D01*
X171583960Y-66117219D02*
X171917293Y-65117219D01*
X172679198Y-66117219D02*
X172679198Y-65593409D01*
X172679198Y-65593409D02*
X172631579Y-65498171D01*
X172631579Y-65498171D02*
X172536341Y-65450552D01*
X172536341Y-65450552D02*
X172345865Y-65450552D01*
X172345865Y-65450552D02*
X172250627Y-65498171D01*
X172679198Y-66069600D02*
X172583960Y-66117219D01*
X172583960Y-66117219D02*
X172345865Y-66117219D01*
X172345865Y-66117219D02*
X172250627Y-66069600D01*
X172250627Y-66069600D02*
X172203008Y-65974361D01*
X172203008Y-65974361D02*
X172203008Y-65879123D01*
X172203008Y-65879123D02*
X172250627Y-65783885D01*
X172250627Y-65783885D02*
X172345865Y-65736266D01*
X172345865Y-65736266D02*
X172583960Y-65736266D01*
X172583960Y-65736266D02*
X172679198Y-65688647D01*
X173155389Y-66117219D02*
X173155389Y-65450552D01*
X173155389Y-65641028D02*
X173203008Y-65545790D01*
X173203008Y-65545790D02*
X173250627Y-65498171D01*
X173250627Y-65498171D02*
X173345865Y-65450552D01*
X173345865Y-65450552D02*
X173441103Y-65450552D01*
X174203008Y-66117219D02*
X174203008Y-65593409D01*
X174203008Y-65593409D02*
X174155389Y-65498171D01*
X174155389Y-65498171D02*
X174060151Y-65450552D01*
X174060151Y-65450552D02*
X173869675Y-65450552D01*
X173869675Y-65450552D02*
X173774437Y-65498171D01*
X174203008Y-66069600D02*
X174107770Y-66117219D01*
X174107770Y-66117219D02*
X173869675Y-66117219D01*
X173869675Y-66117219D02*
X173774437Y-66069600D01*
X173774437Y-66069600D02*
X173726818Y-65974361D01*
X173726818Y-65974361D02*
X173726818Y-65879123D01*
X173726818Y-65879123D02*
X173774437Y-65783885D01*
X173774437Y-65783885D02*
X173869675Y-65736266D01*
X173869675Y-65736266D02*
X174107770Y-65736266D01*
X174107770Y-65736266D02*
X174203008Y-65688647D01*
X175107770Y-66117219D02*
X175107770Y-65117219D01*
X175107770Y-66069600D02*
X175012532Y-66117219D01*
X175012532Y-66117219D02*
X174822056Y-66117219D01*
X174822056Y-66117219D02*
X174726818Y-66069600D01*
X174726818Y-66069600D02*
X174679199Y-66021980D01*
X174679199Y-66021980D02*
X174631580Y-65926742D01*
X174631580Y-65926742D02*
X174631580Y-65641028D01*
X174631580Y-65641028D02*
X174679199Y-65545790D01*
X174679199Y-65545790D02*
X174726818Y-65498171D01*
X174726818Y-65498171D02*
X174822056Y-65450552D01*
X174822056Y-65450552D02*
X175012532Y-65450552D01*
X175012532Y-65450552D02*
X175107770Y-65498171D01*
X169666666Y-92452219D02*
X169666666Y-93166504D01*
X169666666Y-93166504D02*
X169619047Y-93309361D01*
X169619047Y-93309361D02*
X169523809Y-93404600D01*
X169523809Y-93404600D02*
X169380952Y-93452219D01*
X169380952Y-93452219D02*
X169285714Y-93452219D01*
X170571428Y-92785552D02*
X170571428Y-93452219D01*
X170333333Y-92404600D02*
X170095238Y-93118885D01*
X170095238Y-93118885D02*
X170714285Y-93118885D01*
X136243980Y-72347666D02*
X136291600Y-72395285D01*
X136291600Y-72395285D02*
X136339219Y-72538142D01*
X136339219Y-72538142D02*
X136339219Y-72633380D01*
X136339219Y-72633380D02*
X136291600Y-72776237D01*
X136291600Y-72776237D02*
X136196361Y-72871475D01*
X136196361Y-72871475D02*
X136101123Y-72919094D01*
X136101123Y-72919094D02*
X135910647Y-72966713D01*
X135910647Y-72966713D02*
X135767790Y-72966713D01*
X135767790Y-72966713D02*
X135577314Y-72919094D01*
X135577314Y-72919094D02*
X135482076Y-72871475D01*
X135482076Y-72871475D02*
X135386838Y-72776237D01*
X135386838Y-72776237D02*
X135339219Y-72633380D01*
X135339219Y-72633380D02*
X135339219Y-72538142D01*
X135339219Y-72538142D02*
X135386838Y-72395285D01*
X135386838Y-72395285D02*
X135434457Y-72347666D01*
X135339219Y-72014332D02*
X135339219Y-71395285D01*
X135339219Y-71395285D02*
X135720171Y-71728618D01*
X135720171Y-71728618D02*
X135720171Y-71585761D01*
X135720171Y-71585761D02*
X135767790Y-71490523D01*
X135767790Y-71490523D02*
X135815409Y-71442904D01*
X135815409Y-71442904D02*
X135910647Y-71395285D01*
X135910647Y-71395285D02*
X136148742Y-71395285D01*
X136148742Y-71395285D02*
X136243980Y-71442904D01*
X136243980Y-71442904D02*
X136291600Y-71490523D01*
X136291600Y-71490523D02*
X136339219Y-71585761D01*
X136339219Y-71585761D02*
X136339219Y-71871475D01*
X136339219Y-71871475D02*
X136291600Y-71966713D01*
X136291600Y-71966713D02*
X136243980Y-72014332D01*
X174928095Y-72952219D02*
X174928095Y-73761742D01*
X174928095Y-73761742D02*
X174975714Y-73856980D01*
X174975714Y-73856980D02*
X175023333Y-73904600D01*
X175023333Y-73904600D02*
X175118571Y-73952219D01*
X175118571Y-73952219D02*
X175309047Y-73952219D01*
X175309047Y-73952219D02*
X175404285Y-73904600D01*
X175404285Y-73904600D02*
X175451904Y-73856980D01*
X175451904Y-73856980D02*
X175499523Y-73761742D01*
X175499523Y-73761742D02*
X175499523Y-72952219D01*
X176404285Y-72952219D02*
X176213809Y-72952219D01*
X176213809Y-72952219D02*
X176118571Y-72999838D01*
X176118571Y-72999838D02*
X176070952Y-73047457D01*
X176070952Y-73047457D02*
X175975714Y-73190314D01*
X175975714Y-73190314D02*
X175928095Y-73380790D01*
X175928095Y-73380790D02*
X175928095Y-73761742D01*
X175928095Y-73761742D02*
X175975714Y-73856980D01*
X175975714Y-73856980D02*
X176023333Y-73904600D01*
X176023333Y-73904600D02*
X176118571Y-73952219D01*
X176118571Y-73952219D02*
X176309047Y-73952219D01*
X176309047Y-73952219D02*
X176404285Y-73904600D01*
X176404285Y-73904600D02*
X176451904Y-73856980D01*
X176451904Y-73856980D02*
X176499523Y-73761742D01*
X176499523Y-73761742D02*
X176499523Y-73523647D01*
X176499523Y-73523647D02*
X176451904Y-73428409D01*
X176451904Y-73428409D02*
X176404285Y-73380790D01*
X176404285Y-73380790D02*
X176309047Y-73333171D01*
X176309047Y-73333171D02*
X176118571Y-73333171D01*
X176118571Y-73333171D02*
X176023333Y-73380790D01*
X176023333Y-73380790D02*
X175975714Y-73428409D01*
X175975714Y-73428409D02*
X175928095Y-73523647D01*
X136702219Y-96083333D02*
X137416504Y-96083333D01*
X137416504Y-96083333D02*
X137559361Y-96130952D01*
X137559361Y-96130952D02*
X137654600Y-96226190D01*
X137654600Y-96226190D02*
X137702219Y-96369047D01*
X137702219Y-96369047D02*
X137702219Y-96464285D01*
X136702219Y-95702380D02*
X136702219Y-95083333D01*
X136702219Y-95083333D02*
X137083171Y-95416666D01*
X137083171Y-95416666D02*
X137083171Y-95273809D01*
X137083171Y-95273809D02*
X137130790Y-95178571D01*
X137130790Y-95178571D02*
X137178409Y-95130952D01*
X137178409Y-95130952D02*
X137273647Y-95083333D01*
X137273647Y-95083333D02*
X137511742Y-95083333D01*
X137511742Y-95083333D02*
X137606980Y-95130952D01*
X137606980Y-95130952D02*
X137654600Y-95178571D01*
X137654600Y-95178571D02*
X137702219Y-95273809D01*
X137702219Y-95273809D02*
X137702219Y-95559523D01*
X137702219Y-95559523D02*
X137654600Y-95654761D01*
X137654600Y-95654761D02*
X137606980Y-95702380D01*
X177916667Y-109154600D02*
X178059524Y-109202219D01*
X178059524Y-109202219D02*
X178297619Y-109202219D01*
X178297619Y-109202219D02*
X178392857Y-109154600D01*
X178392857Y-109154600D02*
X178440476Y-109106980D01*
X178440476Y-109106980D02*
X178488095Y-109011742D01*
X178488095Y-109011742D02*
X178488095Y-108916504D01*
X178488095Y-108916504D02*
X178440476Y-108821266D01*
X178440476Y-108821266D02*
X178392857Y-108773647D01*
X178392857Y-108773647D02*
X178297619Y-108726028D01*
X178297619Y-108726028D02*
X178107143Y-108678409D01*
X178107143Y-108678409D02*
X178011905Y-108630790D01*
X178011905Y-108630790D02*
X177964286Y-108583171D01*
X177964286Y-108583171D02*
X177916667Y-108487933D01*
X177916667Y-108487933D02*
X177916667Y-108392695D01*
X177916667Y-108392695D02*
X177964286Y-108297457D01*
X177964286Y-108297457D02*
X178011905Y-108249838D01*
X178011905Y-108249838D02*
X178107143Y-108202219D01*
X178107143Y-108202219D02*
X178345238Y-108202219D01*
X178345238Y-108202219D02*
X178488095Y-108249838D01*
X178821429Y-108202219D02*
X179059524Y-109202219D01*
X179059524Y-109202219D02*
X179250000Y-108487933D01*
X179250000Y-108487933D02*
X179440476Y-109202219D01*
X179440476Y-109202219D02*
X179678572Y-108202219D01*
X180583333Y-109202219D02*
X180011905Y-109202219D01*
X180297619Y-109202219D02*
X180297619Y-108202219D01*
X180297619Y-108202219D02*
X180202381Y-108345076D01*
X180202381Y-108345076D02*
X180107143Y-108440314D01*
X180107143Y-108440314D02*
X180011905Y-108487933D01*
X149182219Y-78911904D02*
X149991742Y-78911904D01*
X149991742Y-78911904D02*
X150086980Y-78864285D01*
X150086980Y-78864285D02*
X150134600Y-78816666D01*
X150134600Y-78816666D02*
X150182219Y-78721428D01*
X150182219Y-78721428D02*
X150182219Y-78530952D01*
X150182219Y-78530952D02*
X150134600Y-78435714D01*
X150134600Y-78435714D02*
X150086980Y-78388095D01*
X150086980Y-78388095D02*
X149991742Y-78340476D01*
X149991742Y-78340476D02*
X149182219Y-78340476D01*
X149182219Y-77388095D02*
X149182219Y-77864285D01*
X149182219Y-77864285D02*
X149658409Y-77911904D01*
X149658409Y-77911904D02*
X149610790Y-77864285D01*
X149610790Y-77864285D02*
X149563171Y-77769047D01*
X149563171Y-77769047D02*
X149563171Y-77530952D01*
X149563171Y-77530952D02*
X149610790Y-77435714D01*
X149610790Y-77435714D02*
X149658409Y-77388095D01*
X149658409Y-77388095D02*
X149753647Y-77340476D01*
X149753647Y-77340476D02*
X149991742Y-77340476D01*
X149991742Y-77340476D02*
X150086980Y-77388095D01*
X150086980Y-77388095D02*
X150134600Y-77435714D01*
X150134600Y-77435714D02*
X150182219Y-77530952D01*
X150182219Y-77530952D02*
X150182219Y-77769047D01*
X150182219Y-77769047D02*
X150134600Y-77864285D01*
X150134600Y-77864285D02*
X150086980Y-77911904D01*
X132888095Y-67202219D02*
X132888095Y-66202219D01*
X132888095Y-66678409D02*
X133459523Y-66678409D01*
X133459523Y-67202219D02*
X133459523Y-66202219D01*
X133840476Y-66202219D02*
X134459523Y-66202219D01*
X134459523Y-66202219D02*
X134126190Y-66583171D01*
X134126190Y-66583171D02*
X134269047Y-66583171D01*
X134269047Y-66583171D02*
X134364285Y-66630790D01*
X134364285Y-66630790D02*
X134411904Y-66678409D01*
X134411904Y-66678409D02*
X134459523Y-66773647D01*
X134459523Y-66773647D02*
X134459523Y-67011742D01*
X134459523Y-67011742D02*
X134411904Y-67106980D01*
X134411904Y-67106980D02*
X134364285Y-67154600D01*
X134364285Y-67154600D02*
X134269047Y-67202219D01*
X134269047Y-67202219D02*
X133983333Y-67202219D01*
X133983333Y-67202219D02*
X133888095Y-67154600D01*
X133888095Y-67154600D02*
X133840476Y-67106980D01*
X130528980Y-84158666D02*
X130576600Y-84206285D01*
X130576600Y-84206285D02*
X130624219Y-84349142D01*
X130624219Y-84349142D02*
X130624219Y-84444380D01*
X130624219Y-84444380D02*
X130576600Y-84587237D01*
X130576600Y-84587237D02*
X130481361Y-84682475D01*
X130481361Y-84682475D02*
X130386123Y-84730094D01*
X130386123Y-84730094D02*
X130195647Y-84777713D01*
X130195647Y-84777713D02*
X130052790Y-84777713D01*
X130052790Y-84777713D02*
X129862314Y-84730094D01*
X129862314Y-84730094D02*
X129767076Y-84682475D01*
X129767076Y-84682475D02*
X129671838Y-84587237D01*
X129671838Y-84587237D02*
X129624219Y-84444380D01*
X129624219Y-84444380D02*
X129624219Y-84349142D01*
X129624219Y-84349142D02*
X129671838Y-84206285D01*
X129671838Y-84206285D02*
X129719457Y-84158666D01*
X129719457Y-83777713D02*
X129671838Y-83730094D01*
X129671838Y-83730094D02*
X129624219Y-83634856D01*
X129624219Y-83634856D02*
X129624219Y-83396761D01*
X129624219Y-83396761D02*
X129671838Y-83301523D01*
X129671838Y-83301523D02*
X129719457Y-83253904D01*
X129719457Y-83253904D02*
X129814695Y-83206285D01*
X129814695Y-83206285D02*
X129909933Y-83206285D01*
X129909933Y-83206285D02*
X130052790Y-83253904D01*
X130052790Y-83253904D02*
X130624219Y-83825332D01*
X130624219Y-83825332D02*
X130624219Y-83206285D01*
X159702219Y-96083333D02*
X160416504Y-96083333D01*
X160416504Y-96083333D02*
X160559361Y-96130952D01*
X160559361Y-96130952D02*
X160654600Y-96226190D01*
X160654600Y-96226190D02*
X160702219Y-96369047D01*
X160702219Y-96369047D02*
X160702219Y-96464285D01*
X159702219Y-95178571D02*
X159702219Y-95369047D01*
X159702219Y-95369047D02*
X159749838Y-95464285D01*
X159749838Y-95464285D02*
X159797457Y-95511904D01*
X159797457Y-95511904D02*
X159940314Y-95607142D01*
X159940314Y-95607142D02*
X160130790Y-95654761D01*
X160130790Y-95654761D02*
X160511742Y-95654761D01*
X160511742Y-95654761D02*
X160606980Y-95607142D01*
X160606980Y-95607142D02*
X160654600Y-95559523D01*
X160654600Y-95559523D02*
X160702219Y-95464285D01*
X160702219Y-95464285D02*
X160702219Y-95273809D01*
X160702219Y-95273809D02*
X160654600Y-95178571D01*
X160654600Y-95178571D02*
X160606980Y-95130952D01*
X160606980Y-95130952D02*
X160511742Y-95083333D01*
X160511742Y-95083333D02*
X160273647Y-95083333D01*
X160273647Y-95083333D02*
X160178409Y-95130952D01*
X160178409Y-95130952D02*
X160130790Y-95178571D01*
X160130790Y-95178571D02*
X160083171Y-95273809D01*
X160083171Y-95273809D02*
X160083171Y-95464285D01*
X160083171Y-95464285D02*
X160130790Y-95559523D01*
X160130790Y-95559523D02*
X160178409Y-95607142D01*
X160178409Y-95607142D02*
X160273647Y-95654761D01*
X146702219Y-96083333D02*
X147416504Y-96083333D01*
X147416504Y-96083333D02*
X147559361Y-96130952D01*
X147559361Y-96130952D02*
X147654600Y-96226190D01*
X147654600Y-96226190D02*
X147702219Y-96369047D01*
X147702219Y-96369047D02*
X147702219Y-96464285D01*
X146797457Y-95654761D02*
X146749838Y-95607142D01*
X146749838Y-95607142D02*
X146702219Y-95511904D01*
X146702219Y-95511904D02*
X146702219Y-95273809D01*
X146702219Y-95273809D02*
X146749838Y-95178571D01*
X146749838Y-95178571D02*
X146797457Y-95130952D01*
X146797457Y-95130952D02*
X146892695Y-95083333D01*
X146892695Y-95083333D02*
X146987933Y-95083333D01*
X146987933Y-95083333D02*
X147130790Y-95130952D01*
X147130790Y-95130952D02*
X147702219Y-95702380D01*
X147702219Y-95702380D02*
X147702219Y-95083333D01*
X154262219Y-94151904D02*
X155071742Y-94151904D01*
X155071742Y-94151904D02*
X155166980Y-94104285D01*
X155166980Y-94104285D02*
X155214600Y-94056666D01*
X155214600Y-94056666D02*
X155262219Y-93961428D01*
X155262219Y-93961428D02*
X155262219Y-93770952D01*
X155262219Y-93770952D02*
X155214600Y-93675714D01*
X155214600Y-93675714D02*
X155166980Y-93628095D01*
X155166980Y-93628095D02*
X155071742Y-93580476D01*
X155071742Y-93580476D02*
X154262219Y-93580476D01*
X154262219Y-93199523D02*
X154262219Y-92580476D01*
X154262219Y-92580476D02*
X154643171Y-92913809D01*
X154643171Y-92913809D02*
X154643171Y-92770952D01*
X154643171Y-92770952D02*
X154690790Y-92675714D01*
X154690790Y-92675714D02*
X154738409Y-92628095D01*
X154738409Y-92628095D02*
X154833647Y-92580476D01*
X154833647Y-92580476D02*
X155071742Y-92580476D01*
X155071742Y-92580476D02*
X155166980Y-92628095D01*
X155166980Y-92628095D02*
X155214600Y-92675714D01*
X155214600Y-92675714D02*
X155262219Y-92770952D01*
X155262219Y-92770952D02*
X155262219Y-93056666D01*
X155262219Y-93056666D02*
X155214600Y-93151904D01*
X155214600Y-93151904D02*
X155166980Y-93199523D01*
X192904600Y-93333332D02*
X192952219Y-93190475D01*
X192952219Y-93190475D02*
X192952219Y-92952380D01*
X192952219Y-92952380D02*
X192904600Y-92857142D01*
X192904600Y-92857142D02*
X192856980Y-92809523D01*
X192856980Y-92809523D02*
X192761742Y-92761904D01*
X192761742Y-92761904D02*
X192666504Y-92761904D01*
X192666504Y-92761904D02*
X192571266Y-92809523D01*
X192571266Y-92809523D02*
X192523647Y-92857142D01*
X192523647Y-92857142D02*
X192476028Y-92952380D01*
X192476028Y-92952380D02*
X192428409Y-93142856D01*
X192428409Y-93142856D02*
X192380790Y-93238094D01*
X192380790Y-93238094D02*
X192333171Y-93285713D01*
X192333171Y-93285713D02*
X192237933Y-93333332D01*
X192237933Y-93333332D02*
X192142695Y-93333332D01*
X192142695Y-93333332D02*
X192047457Y-93285713D01*
X192047457Y-93285713D02*
X191999838Y-93238094D01*
X191999838Y-93238094D02*
X191952219Y-93142856D01*
X191952219Y-93142856D02*
X191952219Y-92904761D01*
X191952219Y-92904761D02*
X191999838Y-92761904D01*
X191952219Y-92428570D02*
X192952219Y-92190475D01*
X192952219Y-92190475D02*
X192237933Y-91999999D01*
X192237933Y-91999999D02*
X192952219Y-91809523D01*
X192952219Y-91809523D02*
X191952219Y-91571428D01*
X192047457Y-91238094D02*
X191999838Y-91190475D01*
X191999838Y-91190475D02*
X191952219Y-91095237D01*
X191952219Y-91095237D02*
X191952219Y-90857142D01*
X191952219Y-90857142D02*
X191999838Y-90761904D01*
X191999838Y-90761904D02*
X192047457Y-90714285D01*
X192047457Y-90714285D02*
X192142695Y-90666666D01*
X192142695Y-90666666D02*
X192237933Y-90666666D01*
X192237933Y-90666666D02*
X192380790Y-90714285D01*
X192380790Y-90714285D02*
X192952219Y-91285713D01*
X192952219Y-91285713D02*
X192952219Y-90666666D01*
X175852219Y-96083333D02*
X176566504Y-96083333D01*
X176566504Y-96083333D02*
X176709361Y-96130952D01*
X176709361Y-96130952D02*
X176804600Y-96226190D01*
X176804600Y-96226190D02*
X176852219Y-96369047D01*
X176852219Y-96369047D02*
X176852219Y-96464285D01*
X175852219Y-95130952D02*
X175852219Y-95607142D01*
X175852219Y-95607142D02*
X176328409Y-95654761D01*
X176328409Y-95654761D02*
X176280790Y-95607142D01*
X176280790Y-95607142D02*
X176233171Y-95511904D01*
X176233171Y-95511904D02*
X176233171Y-95273809D01*
X176233171Y-95273809D02*
X176280790Y-95178571D01*
X176280790Y-95178571D02*
X176328409Y-95130952D01*
X176328409Y-95130952D02*
X176423647Y-95083333D01*
X176423647Y-95083333D02*
X176661742Y-95083333D01*
X176661742Y-95083333D02*
X176756980Y-95130952D01*
X176756980Y-95130952D02*
X176804600Y-95178571D01*
X176804600Y-95178571D02*
X176852219Y-95273809D01*
X176852219Y-95273809D02*
X176852219Y-95511904D01*
X176852219Y-95511904D02*
X176804600Y-95607142D01*
X176804600Y-95607142D02*
X176756980Y-95654761D01*
X145206980Y-78361554D02*
X145254600Y-78409173D01*
X145254600Y-78409173D02*
X145302219Y-78552030D01*
X145302219Y-78552030D02*
X145302219Y-78647268D01*
X145302219Y-78647268D02*
X145254600Y-78790125D01*
X145254600Y-78790125D02*
X145159361Y-78885363D01*
X145159361Y-78885363D02*
X145064123Y-78932982D01*
X145064123Y-78932982D02*
X144873647Y-78980601D01*
X144873647Y-78980601D02*
X144730790Y-78980601D01*
X144730790Y-78980601D02*
X144540314Y-78932982D01*
X144540314Y-78932982D02*
X144445076Y-78885363D01*
X144445076Y-78885363D02*
X144349838Y-78790125D01*
X144349838Y-78790125D02*
X144302219Y-78647268D01*
X144302219Y-78647268D02*
X144302219Y-78552030D01*
X144302219Y-78552030D02*
X144349838Y-78409173D01*
X144349838Y-78409173D02*
X144397457Y-78361554D01*
X144635552Y-77504411D02*
X145302219Y-77504411D01*
X144254600Y-77742506D02*
X144968885Y-77980601D01*
X144968885Y-77980601D02*
X144968885Y-77361554D01*
X183952219Y-68333333D02*
X184666504Y-68333333D01*
X184666504Y-68333333D02*
X184809361Y-68380952D01*
X184809361Y-68380952D02*
X184904600Y-68476190D01*
X184904600Y-68476190D02*
X184952219Y-68619047D01*
X184952219Y-68619047D02*
X184952219Y-68714285D01*
X184952219Y-67333333D02*
X184952219Y-67904761D01*
X184952219Y-67619047D02*
X183952219Y-67619047D01*
X183952219Y-67619047D02*
X184095076Y-67714285D01*
X184095076Y-67714285D02*
X184190314Y-67809523D01*
X184190314Y-67809523D02*
X184237933Y-67904761D01*
X161882219Y-94151904D02*
X162691742Y-94151904D01*
X162691742Y-94151904D02*
X162786980Y-94104285D01*
X162786980Y-94104285D02*
X162834600Y-94056666D01*
X162834600Y-94056666D02*
X162882219Y-93961428D01*
X162882219Y-93961428D02*
X162882219Y-93770952D01*
X162882219Y-93770952D02*
X162834600Y-93675714D01*
X162834600Y-93675714D02*
X162786980Y-93628095D01*
X162786980Y-93628095D02*
X162691742Y-93580476D01*
X162691742Y-93580476D02*
X161882219Y-93580476D01*
X161977457Y-93151904D02*
X161929838Y-93104285D01*
X161929838Y-93104285D02*
X161882219Y-93009047D01*
X161882219Y-93009047D02*
X161882219Y-92770952D01*
X161882219Y-92770952D02*
X161929838Y-92675714D01*
X161929838Y-92675714D02*
X161977457Y-92628095D01*
X161977457Y-92628095D02*
X162072695Y-92580476D01*
X162072695Y-92580476D02*
X162167933Y-92580476D01*
X162167933Y-92580476D02*
X162310790Y-92628095D01*
X162310790Y-92628095D02*
X162882219Y-93199523D01*
X162882219Y-93199523D02*
X162882219Y-92580476D01*
X158568095Y-73202219D02*
X158568095Y-74011742D01*
X158568095Y-74011742D02*
X158615714Y-74106980D01*
X158615714Y-74106980D02*
X158663333Y-74154600D01*
X158663333Y-74154600D02*
X158758571Y-74202219D01*
X158758571Y-74202219D02*
X158949047Y-74202219D01*
X158949047Y-74202219D02*
X159044285Y-74154600D01*
X159044285Y-74154600D02*
X159091904Y-74106980D01*
X159091904Y-74106980D02*
X159139523Y-74011742D01*
X159139523Y-74011742D02*
X159139523Y-73202219D01*
X160139523Y-74202219D02*
X159568095Y-74202219D01*
X159853809Y-74202219D02*
X159853809Y-73202219D01*
X159853809Y-73202219D02*
X159758571Y-73345076D01*
X159758571Y-73345076D02*
X159663333Y-73440314D01*
X159663333Y-73440314D02*
X159568095Y-73487933D01*
X130655980Y-89746666D02*
X130703600Y-89794285D01*
X130703600Y-89794285D02*
X130751219Y-89937142D01*
X130751219Y-89937142D02*
X130751219Y-90032380D01*
X130751219Y-90032380D02*
X130703600Y-90175237D01*
X130703600Y-90175237D02*
X130608361Y-90270475D01*
X130608361Y-90270475D02*
X130513123Y-90318094D01*
X130513123Y-90318094D02*
X130322647Y-90365713D01*
X130322647Y-90365713D02*
X130179790Y-90365713D01*
X130179790Y-90365713D02*
X129989314Y-90318094D01*
X129989314Y-90318094D02*
X129894076Y-90270475D01*
X129894076Y-90270475D02*
X129798838Y-90175237D01*
X129798838Y-90175237D02*
X129751219Y-90032380D01*
X129751219Y-90032380D02*
X129751219Y-89937142D01*
X129751219Y-89937142D02*
X129798838Y-89794285D01*
X129798838Y-89794285D02*
X129846457Y-89746666D01*
X130751219Y-88794285D02*
X130751219Y-89365713D01*
X130751219Y-89079999D02*
X129751219Y-89079999D01*
X129751219Y-89079999D02*
X129894076Y-89175237D01*
X129894076Y-89175237D02*
X129989314Y-89270475D01*
X129989314Y-89270475D02*
X130036933Y-89365713D01*
X128488095Y-105202219D02*
X128488095Y-104202219D01*
X128488095Y-104678409D02*
X129059523Y-104678409D01*
X129059523Y-105202219D02*
X129059523Y-104202219D01*
X129488095Y-104297457D02*
X129535714Y-104249838D01*
X129535714Y-104249838D02*
X129630952Y-104202219D01*
X129630952Y-104202219D02*
X129869047Y-104202219D01*
X129869047Y-104202219D02*
X129964285Y-104249838D01*
X129964285Y-104249838D02*
X130011904Y-104297457D01*
X130011904Y-104297457D02*
X130059523Y-104392695D01*
X130059523Y-104392695D02*
X130059523Y-104487933D01*
X130059523Y-104487933D02*
X130011904Y-104630790D01*
X130011904Y-104630790D02*
X129440476Y-105202219D01*
X129440476Y-105202219D02*
X130059523Y-105202219D01*
X150916667Y-109154600D02*
X151059524Y-109202219D01*
X151059524Y-109202219D02*
X151297619Y-109202219D01*
X151297619Y-109202219D02*
X151392857Y-109154600D01*
X151392857Y-109154600D02*
X151440476Y-109106980D01*
X151440476Y-109106980D02*
X151488095Y-109011742D01*
X151488095Y-109011742D02*
X151488095Y-108916504D01*
X151488095Y-108916504D02*
X151440476Y-108821266D01*
X151440476Y-108821266D02*
X151392857Y-108773647D01*
X151392857Y-108773647D02*
X151297619Y-108726028D01*
X151297619Y-108726028D02*
X151107143Y-108678409D01*
X151107143Y-108678409D02*
X151011905Y-108630790D01*
X151011905Y-108630790D02*
X150964286Y-108583171D01*
X150964286Y-108583171D02*
X150916667Y-108487933D01*
X150916667Y-108487933D02*
X150916667Y-108392695D01*
X150916667Y-108392695D02*
X150964286Y-108297457D01*
X150964286Y-108297457D02*
X151011905Y-108249838D01*
X151011905Y-108249838D02*
X151107143Y-108202219D01*
X151107143Y-108202219D02*
X151345238Y-108202219D01*
X151345238Y-108202219D02*
X151488095Y-108249838D01*
X151821429Y-108202219D02*
X152059524Y-109202219D01*
X152059524Y-109202219D02*
X152250000Y-108487933D01*
X152250000Y-108487933D02*
X152440476Y-109202219D01*
X152440476Y-109202219D02*
X152678572Y-108202219D01*
X152964286Y-108202219D02*
X153583333Y-108202219D01*
X153583333Y-108202219D02*
X153250000Y-108583171D01*
X153250000Y-108583171D02*
X153392857Y-108583171D01*
X153392857Y-108583171D02*
X153488095Y-108630790D01*
X153488095Y-108630790D02*
X153535714Y-108678409D01*
X153535714Y-108678409D02*
X153583333Y-108773647D01*
X153583333Y-108773647D02*
X153583333Y-109011742D01*
X153583333Y-109011742D02*
X153535714Y-109106980D01*
X153535714Y-109106980D02*
X153488095Y-109154600D01*
X153488095Y-109154600D02*
X153392857Y-109202219D01*
X153392857Y-109202219D02*
X153107143Y-109202219D01*
X153107143Y-109202219D02*
X153011905Y-109154600D01*
X153011905Y-109154600D02*
X152964286Y-109106980D01*
X136609219Y-89452904D02*
X137418742Y-89452904D01*
X137418742Y-89452904D02*
X137513980Y-89405285D01*
X137513980Y-89405285D02*
X137561600Y-89357666D01*
X137561600Y-89357666D02*
X137609219Y-89262428D01*
X137609219Y-89262428D02*
X137609219Y-89071952D01*
X137609219Y-89071952D02*
X137561600Y-88976714D01*
X137561600Y-88976714D02*
X137513980Y-88929095D01*
X137513980Y-88929095D02*
X137418742Y-88881476D01*
X137418742Y-88881476D02*
X136609219Y-88881476D01*
X136942552Y-87976714D02*
X137609219Y-87976714D01*
X136561600Y-88214809D02*
X137275885Y-88452904D01*
X137275885Y-88452904D02*
X137275885Y-87833857D01*
D11*
%TO.C,J4*%
X168720000Y-94600000D02*
X170050000Y-94600000D01*
X168720000Y-95930000D02*
X168720000Y-94600000D01*
X168720000Y-97200000D02*
X168720000Y-99800000D01*
X168720000Y-97200000D02*
X171380000Y-97200000D01*
X168720000Y-99800000D02*
X171380000Y-99800000D01*
X171380000Y-97200000D02*
X171380000Y-99800000D01*
%TO.C,C3*%
X139238000Y-74624775D02*
X139238000Y-74124775D01*
X138988000Y-74374775D02*
X139488000Y-74374775D01*
X138133000Y-71820000D02*
X143293000Y-71820000D01*
X138133000Y-71780000D02*
X143293000Y-71780000D01*
X138134000Y-71740000D02*
X143292000Y-71740000D01*
X138135000Y-71700000D02*
X143291000Y-71700000D01*
X138137000Y-71660000D02*
X143289000Y-71660000D01*
X138140000Y-71620000D02*
X143286000Y-71620000D01*
X138144000Y-71580000D02*
X139673000Y-71580000D01*
X141753000Y-71580000D02*
X143282000Y-71580000D01*
X138148000Y-71540000D02*
X139673000Y-71540000D01*
X141753000Y-71540000D02*
X143278000Y-71540000D01*
X138152000Y-71500000D02*
X139673000Y-71500000D01*
X141753000Y-71500000D02*
X143274000Y-71500000D01*
X138157000Y-71460000D02*
X139673000Y-71460000D01*
X141753000Y-71460000D02*
X143269000Y-71460000D01*
X138163000Y-71420000D02*
X139673000Y-71420000D01*
X141753000Y-71420000D02*
X143263000Y-71420000D01*
X138170000Y-71380000D02*
X139673000Y-71380000D01*
X141753000Y-71380000D02*
X143256000Y-71380000D01*
X138177000Y-71340000D02*
X139673000Y-71340000D01*
X141753000Y-71340000D02*
X143249000Y-71340000D01*
X138185000Y-71300000D02*
X139673000Y-71300000D01*
X141753000Y-71300000D02*
X143241000Y-71300000D01*
X138193000Y-71260000D02*
X139673000Y-71260000D01*
X141753000Y-71260000D02*
X143233000Y-71260000D01*
X138202000Y-71220000D02*
X139673000Y-71220000D01*
X141753000Y-71220000D02*
X143224000Y-71220000D01*
X138212000Y-71180000D02*
X139673000Y-71180000D01*
X141753000Y-71180000D02*
X143214000Y-71180000D01*
X138222000Y-71140000D02*
X139673000Y-71140000D01*
X141753000Y-71140000D02*
X143204000Y-71140000D01*
X138233000Y-71099000D02*
X139673000Y-71099000D01*
X141753000Y-71099000D02*
X143193000Y-71099000D01*
X138245000Y-71059000D02*
X139673000Y-71059000D01*
X141753000Y-71059000D02*
X143181000Y-71059000D01*
X138258000Y-71019000D02*
X139673000Y-71019000D01*
X141753000Y-71019000D02*
X143168000Y-71019000D01*
X138271000Y-70979000D02*
X139673000Y-70979000D01*
X141753000Y-70979000D02*
X143155000Y-70979000D01*
X138285000Y-70939000D02*
X139673000Y-70939000D01*
X141753000Y-70939000D02*
X143141000Y-70939000D01*
X138299000Y-70899000D02*
X139673000Y-70899000D01*
X141753000Y-70899000D02*
X143127000Y-70899000D01*
X138315000Y-70859000D02*
X139673000Y-70859000D01*
X141753000Y-70859000D02*
X143111000Y-70859000D01*
X138331000Y-70819000D02*
X139673000Y-70819000D01*
X141753000Y-70819000D02*
X143095000Y-70819000D01*
X138348000Y-70779000D02*
X139673000Y-70779000D01*
X141753000Y-70779000D02*
X143078000Y-70779000D01*
X138365000Y-70739000D02*
X139673000Y-70739000D01*
X141753000Y-70739000D02*
X143061000Y-70739000D01*
X138384000Y-70699000D02*
X139673000Y-70699000D01*
X141753000Y-70699000D02*
X143042000Y-70699000D01*
X138403000Y-70659000D02*
X139673000Y-70659000D01*
X141753000Y-70659000D02*
X143023000Y-70659000D01*
X138423000Y-70619000D02*
X139673000Y-70619000D01*
X141753000Y-70619000D02*
X143003000Y-70619000D01*
X138445000Y-70579000D02*
X139673000Y-70579000D01*
X141753000Y-70579000D02*
X142981000Y-70579000D01*
X138466000Y-70539000D02*
X139673000Y-70539000D01*
X141753000Y-70539000D02*
X142960000Y-70539000D01*
X138489000Y-70499000D02*
X139673000Y-70499000D01*
X141753000Y-70499000D02*
X142937000Y-70499000D01*
X138513000Y-70459000D02*
X139673000Y-70459000D01*
X141753000Y-70459000D02*
X142913000Y-70459000D01*
X138538000Y-70419000D02*
X139673000Y-70419000D01*
X141753000Y-70419000D02*
X142888000Y-70419000D01*
X138564000Y-70379000D02*
X139673000Y-70379000D01*
X141753000Y-70379000D02*
X142862000Y-70379000D01*
X138591000Y-70339000D02*
X139673000Y-70339000D01*
X141753000Y-70339000D02*
X142835000Y-70339000D01*
X138618000Y-70299000D02*
X139673000Y-70299000D01*
X141753000Y-70299000D02*
X142808000Y-70299000D01*
X138648000Y-70259000D02*
X139673000Y-70259000D01*
X141753000Y-70259000D02*
X142778000Y-70259000D01*
X138678000Y-70219000D02*
X139673000Y-70219000D01*
X141753000Y-70219000D02*
X142748000Y-70219000D01*
X138709000Y-70179000D02*
X139673000Y-70179000D01*
X141753000Y-70179000D02*
X142717000Y-70179000D01*
X138742000Y-70139000D02*
X139673000Y-70139000D01*
X141753000Y-70139000D02*
X142684000Y-70139000D01*
X138776000Y-70099000D02*
X139673000Y-70099000D01*
X141753000Y-70099000D02*
X142650000Y-70099000D01*
X138812000Y-70059000D02*
X139673000Y-70059000D01*
X141753000Y-70059000D02*
X142614000Y-70059000D01*
X138849000Y-70019000D02*
X139673000Y-70019000D01*
X141753000Y-70019000D02*
X142577000Y-70019000D01*
X138887000Y-69979000D02*
X139673000Y-69979000D01*
X141753000Y-69979000D02*
X142539000Y-69979000D01*
X138928000Y-69939000D02*
X139673000Y-69939000D01*
X141753000Y-69939000D02*
X142498000Y-69939000D01*
X138970000Y-69899000D02*
X139673000Y-69899000D01*
X141753000Y-69899000D02*
X142456000Y-69899000D01*
X139014000Y-69859000D02*
X139673000Y-69859000D01*
X141753000Y-69859000D02*
X142412000Y-69859000D01*
X139060000Y-69819000D02*
X139673000Y-69819000D01*
X141753000Y-69819000D02*
X142366000Y-69819000D01*
X139108000Y-69779000D02*
X139673000Y-69779000D01*
X141753000Y-69779000D02*
X142318000Y-69779000D01*
X139159000Y-69739000D02*
X139673000Y-69739000D01*
X141753000Y-69739000D02*
X142267000Y-69739000D01*
X139213000Y-69699000D02*
X139673000Y-69699000D01*
X141753000Y-69699000D02*
X142213000Y-69699000D01*
X139270000Y-69659000D02*
X139673000Y-69659000D01*
X141753000Y-69659000D02*
X142156000Y-69659000D01*
X139330000Y-69619000D02*
X139673000Y-69619000D01*
X141753000Y-69619000D02*
X142096000Y-69619000D01*
X139394000Y-69579000D02*
X139673000Y-69579000D01*
X141753000Y-69579000D02*
X142032000Y-69579000D01*
X139462000Y-69539000D02*
X139673000Y-69539000D01*
X141753000Y-69539000D02*
X141964000Y-69539000D01*
X139535000Y-69499000D02*
X141891000Y-69499000D01*
X139615000Y-69459000D02*
X141811000Y-69459000D01*
X139702000Y-69419000D02*
X141724000Y-69419000D01*
X139798000Y-69379000D02*
X141628000Y-69379000D01*
X139908000Y-69339000D02*
X141518000Y-69339000D01*
X140036000Y-69299000D02*
X141390000Y-69299000D01*
X140195000Y-69259000D02*
X141231000Y-69259000D01*
X140429000Y-69219000D02*
X140997000Y-69219000D01*
X143333000Y-71820000D02*
G75*
G03*
X138093000Y-71820000I-2620000J0D01*
G01*
X138093000Y-71820000D02*
G75*
G03*
X143333000Y-71820000I2620000J0D01*
G01*
%TO.C,U6*%
X170670000Y-67480000D02*
X170670000Y-72121000D01*
X170670000Y-67480000D02*
X180910000Y-67480000D01*
X170670000Y-68990000D02*
X180910000Y-68990000D01*
X170670000Y-72121000D02*
X180910000Y-72121000D01*
X173940000Y-67480000D02*
X173940000Y-68990000D01*
X177641000Y-67480000D02*
X177641000Y-68990000D01*
X180910000Y-67480000D02*
X180910000Y-72121000D01*
%TO.C,J3*%
X143440000Y-97140000D02*
X143440000Y-98470000D01*
X142110000Y-97140000D02*
X143440000Y-97140000D01*
X140840000Y-97140000D02*
X135700000Y-97140000D01*
X140840000Y-97140000D02*
X140840000Y-99800000D01*
X135700000Y-97140000D02*
X135700000Y-99800000D01*
X140840000Y-99800000D02*
X135700000Y-99800000D01*
%TO.C,SW1*%
X192350000Y-111150000D02*
X181350000Y-111150000D01*
X192350000Y-107150000D02*
X192350000Y-111150000D01*
X188850000Y-111150000D02*
X188850000Y-107150000D01*
X181350000Y-111150000D02*
X181350000Y-107150000D01*
X181350000Y-107150000D02*
X192350000Y-107150000D01*
%TO.C,U5*%
X152290000Y-73070000D02*
X152290000Y-69620000D01*
X152290000Y-73070000D02*
X152290000Y-75020000D01*
X147170000Y-73070000D02*
X147170000Y-71120000D01*
X147170000Y-73070000D02*
X147170000Y-75020000D01*
%TO.C,C2*%
X132380000Y-84719888D02*
X132380000Y-84219888D01*
X132130000Y-84469888D02*
X132630000Y-84469888D01*
X131275000Y-81915113D02*
X136435000Y-81915113D01*
X131275000Y-81875113D02*
X136435000Y-81875113D01*
X131276000Y-81835113D02*
X136434000Y-81835113D01*
X131277000Y-81795113D02*
X136433000Y-81795113D01*
X131279000Y-81755113D02*
X136431000Y-81755113D01*
X131282000Y-81715113D02*
X136428000Y-81715113D01*
X131286000Y-81675113D02*
X132815000Y-81675113D01*
X134895000Y-81675113D02*
X136424000Y-81675113D01*
X131290000Y-81635113D02*
X132815000Y-81635113D01*
X134895000Y-81635113D02*
X136420000Y-81635113D01*
X131294000Y-81595113D02*
X132815000Y-81595113D01*
X134895000Y-81595113D02*
X136416000Y-81595113D01*
X131299000Y-81555113D02*
X132815000Y-81555113D01*
X134895000Y-81555113D02*
X136411000Y-81555113D01*
X131305000Y-81515113D02*
X132815000Y-81515113D01*
X134895000Y-81515113D02*
X136405000Y-81515113D01*
X131312000Y-81475113D02*
X132815000Y-81475113D01*
X134895000Y-81475113D02*
X136398000Y-81475113D01*
X131319000Y-81435113D02*
X132815000Y-81435113D01*
X134895000Y-81435113D02*
X136391000Y-81435113D01*
X131327000Y-81395113D02*
X132815000Y-81395113D01*
X134895000Y-81395113D02*
X136383000Y-81395113D01*
X131335000Y-81355113D02*
X132815000Y-81355113D01*
X134895000Y-81355113D02*
X136375000Y-81355113D01*
X131344000Y-81315113D02*
X132815000Y-81315113D01*
X134895000Y-81315113D02*
X136366000Y-81315113D01*
X131354000Y-81275113D02*
X132815000Y-81275113D01*
X134895000Y-81275113D02*
X136356000Y-81275113D01*
X131364000Y-81235113D02*
X132815000Y-81235113D01*
X134895000Y-81235113D02*
X136346000Y-81235113D01*
X131375000Y-81194113D02*
X132815000Y-81194113D01*
X134895000Y-81194113D02*
X136335000Y-81194113D01*
X131387000Y-81154113D02*
X132815000Y-81154113D01*
X134895000Y-81154113D02*
X136323000Y-81154113D01*
X131400000Y-81114113D02*
X132815000Y-81114113D01*
X134895000Y-81114113D02*
X136310000Y-81114113D01*
X131413000Y-81074113D02*
X132815000Y-81074113D01*
X134895000Y-81074113D02*
X136297000Y-81074113D01*
X131427000Y-81034113D02*
X132815000Y-81034113D01*
X134895000Y-81034113D02*
X136283000Y-81034113D01*
X131441000Y-80994113D02*
X132815000Y-80994113D01*
X134895000Y-80994113D02*
X136269000Y-80994113D01*
X131457000Y-80954113D02*
X132815000Y-80954113D01*
X134895000Y-80954113D02*
X136253000Y-80954113D01*
X131473000Y-80914113D02*
X132815000Y-80914113D01*
X134895000Y-80914113D02*
X136237000Y-80914113D01*
X131490000Y-80874113D02*
X132815000Y-80874113D01*
X134895000Y-80874113D02*
X136220000Y-80874113D01*
X131507000Y-80834113D02*
X132815000Y-80834113D01*
X134895000Y-80834113D02*
X136203000Y-80834113D01*
X131526000Y-80794113D02*
X132815000Y-80794113D01*
X134895000Y-80794113D02*
X136184000Y-80794113D01*
X131545000Y-80754113D02*
X132815000Y-80754113D01*
X134895000Y-80754113D02*
X136165000Y-80754113D01*
X131565000Y-80714113D02*
X132815000Y-80714113D01*
X134895000Y-80714113D02*
X136145000Y-80714113D01*
X131587000Y-80674113D02*
X132815000Y-80674113D01*
X134895000Y-80674113D02*
X136123000Y-80674113D01*
X131608000Y-80634113D02*
X132815000Y-80634113D01*
X134895000Y-80634113D02*
X136102000Y-80634113D01*
X131631000Y-80594113D02*
X132815000Y-80594113D01*
X134895000Y-80594113D02*
X136079000Y-80594113D01*
X131655000Y-80554113D02*
X132815000Y-80554113D01*
X134895000Y-80554113D02*
X136055000Y-80554113D01*
X131680000Y-80514113D02*
X132815000Y-80514113D01*
X134895000Y-80514113D02*
X136030000Y-80514113D01*
X131706000Y-80474113D02*
X132815000Y-80474113D01*
X134895000Y-80474113D02*
X136004000Y-80474113D01*
X131733000Y-80434113D02*
X132815000Y-80434113D01*
X134895000Y-80434113D02*
X135977000Y-80434113D01*
X131760000Y-80394113D02*
X132815000Y-80394113D01*
X134895000Y-80394113D02*
X135950000Y-80394113D01*
X131790000Y-80354113D02*
X132815000Y-80354113D01*
X134895000Y-80354113D02*
X135920000Y-80354113D01*
X131820000Y-80314113D02*
X132815000Y-80314113D01*
X134895000Y-80314113D02*
X135890000Y-80314113D01*
X131851000Y-80274113D02*
X132815000Y-80274113D01*
X134895000Y-80274113D02*
X135859000Y-80274113D01*
X131884000Y-80234113D02*
X132815000Y-80234113D01*
X134895000Y-80234113D02*
X135826000Y-80234113D01*
X131918000Y-80194113D02*
X132815000Y-80194113D01*
X134895000Y-80194113D02*
X135792000Y-80194113D01*
X131954000Y-80154113D02*
X132815000Y-80154113D01*
X134895000Y-80154113D02*
X135756000Y-80154113D01*
X131991000Y-80114113D02*
X132815000Y-80114113D01*
X134895000Y-80114113D02*
X135719000Y-80114113D01*
X132029000Y-80074113D02*
X132815000Y-80074113D01*
X134895000Y-80074113D02*
X135681000Y-80074113D01*
X132070000Y-80034113D02*
X132815000Y-80034113D01*
X134895000Y-80034113D02*
X135640000Y-80034113D01*
X132112000Y-79994113D02*
X132815000Y-79994113D01*
X134895000Y-79994113D02*
X135598000Y-79994113D01*
X132156000Y-79954113D02*
X132815000Y-79954113D01*
X134895000Y-79954113D02*
X135554000Y-79954113D01*
X132202000Y-79914113D02*
X132815000Y-79914113D01*
X134895000Y-79914113D02*
X135508000Y-79914113D01*
X132250000Y-79874113D02*
X132815000Y-79874113D01*
X134895000Y-79874113D02*
X135460000Y-79874113D01*
X132301000Y-79834113D02*
X132815000Y-79834113D01*
X134895000Y-79834113D02*
X135409000Y-79834113D01*
X132355000Y-79794113D02*
X132815000Y-79794113D01*
X134895000Y-79794113D02*
X135355000Y-79794113D01*
X132412000Y-79754113D02*
X132815000Y-79754113D01*
X134895000Y-79754113D02*
X135298000Y-79754113D01*
X132472000Y-79714113D02*
X132815000Y-79714113D01*
X134895000Y-79714113D02*
X135238000Y-79714113D01*
X132536000Y-79674113D02*
X132815000Y-79674113D01*
X134895000Y-79674113D02*
X135174000Y-79674113D01*
X132604000Y-79634113D02*
X132815000Y-79634113D01*
X134895000Y-79634113D02*
X135106000Y-79634113D01*
X132677000Y-79594113D02*
X135033000Y-79594113D01*
X132757000Y-79554113D02*
X134953000Y-79554113D01*
X132844000Y-79514113D02*
X134866000Y-79514113D01*
X132940000Y-79474113D02*
X134770000Y-79474113D01*
X133050000Y-79434113D02*
X134660000Y-79434113D01*
X133178000Y-79394113D02*
X134532000Y-79394113D01*
X133337000Y-79354113D02*
X134373000Y-79354113D01*
X133571000Y-79314113D02*
X134139000Y-79314113D01*
X136475000Y-81915113D02*
G75*
G03*
X131235000Y-81915113I-2620000J0D01*
G01*
X131235000Y-81915113D02*
G75*
G03*
X136475000Y-81915113I2620000J0D01*
G01*
%TO.C,J6*%
X158620000Y-99800000D02*
X166300000Y-99800000D01*
X158620000Y-99800000D02*
X158620000Y-97140000D01*
X166300000Y-99800000D02*
X166300000Y-97140000D01*
X156020000Y-98470000D02*
X156020000Y-97140000D01*
X156020000Y-97140000D02*
X157350000Y-97140000D01*
X158620000Y-97140000D02*
X166300000Y-97140000D01*
%TO.C,J2*%
X153600000Y-97140000D02*
X153600000Y-98470000D01*
X152270000Y-97140000D02*
X153600000Y-97140000D01*
X151000000Y-97140000D02*
X145860000Y-97140000D01*
X151000000Y-97140000D02*
X151000000Y-99800000D01*
X145860000Y-97140000D02*
X145860000Y-99800000D01*
X151000000Y-99800000D02*
X145860000Y-99800000D01*
%TO.C,U3*%
X147805000Y-88665000D02*
X148075000Y-88665000D01*
X148075000Y-88665000D02*
X148075000Y-91495000D01*
X154435000Y-88665000D02*
X154435000Y-89765000D01*
X154705000Y-88665000D02*
X154435000Y-88665000D01*
X147805000Y-82245000D02*
X147805000Y-88665000D01*
X154705000Y-82245000D02*
X154705000Y-88665000D01*
%TO.C,SW2*%
X190450000Y-89850000D02*
X190450000Y-78850000D01*
X194450000Y-89850000D02*
X190450000Y-89850000D01*
X190450000Y-86350000D02*
X194450000Y-86350000D01*
X190450000Y-78850000D02*
X194450000Y-78850000D01*
X194450000Y-78850000D02*
X194450000Y-89850000D01*
%TO.C,J5*%
X180440000Y-97080000D02*
X193200000Y-97080000D01*
X180440000Y-97080000D02*
X180440000Y-94420000D01*
X193200000Y-97080000D02*
X193200000Y-94420000D01*
X177840000Y-95750000D02*
X177840000Y-94420000D01*
X177840000Y-94420000D02*
X179170000Y-94420000D01*
X180440000Y-94420000D02*
X193200000Y-94420000D01*
%TO.C,C4*%
X142315000Y-75390113D02*
X142315000Y-75890113D01*
X142565000Y-75640113D02*
X142065000Y-75640113D01*
X143420000Y-78194888D02*
X138260000Y-78194888D01*
X143420000Y-78234888D02*
X138260000Y-78234888D01*
X143419000Y-78274888D02*
X138261000Y-78274888D01*
X143418000Y-78314888D02*
X138262000Y-78314888D01*
X143416000Y-78354888D02*
X138264000Y-78354888D01*
X143413000Y-78394888D02*
X138267000Y-78394888D01*
X143409000Y-78434888D02*
X141880000Y-78434888D01*
X139800000Y-78434888D02*
X138271000Y-78434888D01*
X143405000Y-78474888D02*
X141880000Y-78474888D01*
X139800000Y-78474888D02*
X138275000Y-78474888D01*
X143401000Y-78514888D02*
X141880000Y-78514888D01*
X139800000Y-78514888D02*
X138279000Y-78514888D01*
X143396000Y-78554888D02*
X141880000Y-78554888D01*
X139800000Y-78554888D02*
X138284000Y-78554888D01*
X143390000Y-78594888D02*
X141880000Y-78594888D01*
X139800000Y-78594888D02*
X138290000Y-78594888D01*
X143383000Y-78634888D02*
X141880000Y-78634888D01*
X139800000Y-78634888D02*
X138297000Y-78634888D01*
X143376000Y-78674888D02*
X141880000Y-78674888D01*
X139800000Y-78674888D02*
X138304000Y-78674888D01*
X143368000Y-78714888D02*
X141880000Y-78714888D01*
X139800000Y-78714888D02*
X138312000Y-78714888D01*
X143360000Y-78754888D02*
X141880000Y-78754888D01*
X139800000Y-78754888D02*
X138320000Y-78754888D01*
X143351000Y-78794888D02*
X141880000Y-78794888D01*
X139800000Y-78794888D02*
X138329000Y-78794888D01*
X143341000Y-78834888D02*
X141880000Y-78834888D01*
X139800000Y-78834888D02*
X138339000Y-78834888D01*
X143331000Y-78874888D02*
X141880000Y-78874888D01*
X139800000Y-78874888D02*
X138349000Y-78874888D01*
X143320000Y-78915888D02*
X141880000Y-78915888D01*
X139800000Y-78915888D02*
X138360000Y-78915888D01*
X143308000Y-78955888D02*
X141880000Y-78955888D01*
X139800000Y-78955888D02*
X138372000Y-78955888D01*
X143295000Y-78995888D02*
X141880000Y-78995888D01*
X139800000Y-78995888D02*
X138385000Y-78995888D01*
X143282000Y-79035888D02*
X141880000Y-79035888D01*
X139800000Y-79035888D02*
X138398000Y-79035888D01*
X143268000Y-79075888D02*
X141880000Y-79075888D01*
X139800000Y-79075888D02*
X138412000Y-79075888D01*
X143254000Y-79115888D02*
X141880000Y-79115888D01*
X139800000Y-79115888D02*
X138426000Y-79115888D01*
X143238000Y-79155888D02*
X141880000Y-79155888D01*
X139800000Y-79155888D02*
X138442000Y-79155888D01*
X143222000Y-79195888D02*
X141880000Y-79195888D01*
X139800000Y-79195888D02*
X138458000Y-79195888D01*
X143205000Y-79235888D02*
X141880000Y-79235888D01*
X139800000Y-79235888D02*
X138475000Y-79235888D01*
X143188000Y-79275888D02*
X141880000Y-79275888D01*
X139800000Y-79275888D02*
X138492000Y-79275888D01*
X143169000Y-79315888D02*
X141880000Y-79315888D01*
X139800000Y-79315888D02*
X138511000Y-79315888D01*
X143150000Y-79355888D02*
X141880000Y-79355888D01*
X139800000Y-79355888D02*
X138530000Y-79355888D01*
X143130000Y-79395888D02*
X141880000Y-79395888D01*
X139800000Y-79395888D02*
X138550000Y-79395888D01*
X143108000Y-79435888D02*
X141880000Y-79435888D01*
X139800000Y-79435888D02*
X138572000Y-79435888D01*
X143087000Y-79475888D02*
X141880000Y-79475888D01*
X139800000Y-79475888D02*
X138593000Y-79475888D01*
X143064000Y-79515888D02*
X141880000Y-79515888D01*
X139800000Y-79515888D02*
X138616000Y-79515888D01*
X143040000Y-79555888D02*
X141880000Y-79555888D01*
X139800000Y-79555888D02*
X138640000Y-79555888D01*
X143015000Y-79595888D02*
X141880000Y-79595888D01*
X139800000Y-79595888D02*
X138665000Y-79595888D01*
X142989000Y-79635888D02*
X141880000Y-79635888D01*
X139800000Y-79635888D02*
X138691000Y-79635888D01*
X142962000Y-79675888D02*
X141880000Y-79675888D01*
X139800000Y-79675888D02*
X138718000Y-79675888D01*
X142935000Y-79715888D02*
X141880000Y-79715888D01*
X139800000Y-79715888D02*
X138745000Y-79715888D01*
X142905000Y-79755888D02*
X141880000Y-79755888D01*
X139800000Y-79755888D02*
X138775000Y-79755888D01*
X142875000Y-79795888D02*
X141880000Y-79795888D01*
X139800000Y-79795888D02*
X138805000Y-79795888D01*
X142844000Y-79835888D02*
X141880000Y-79835888D01*
X139800000Y-79835888D02*
X138836000Y-79835888D01*
X142811000Y-79875888D02*
X141880000Y-79875888D01*
X139800000Y-79875888D02*
X138869000Y-79875888D01*
X142777000Y-79915888D02*
X141880000Y-79915888D01*
X139800000Y-79915888D02*
X138903000Y-79915888D01*
X142741000Y-79955888D02*
X141880000Y-79955888D01*
X139800000Y-79955888D02*
X138939000Y-79955888D01*
X142704000Y-79995888D02*
X141880000Y-79995888D01*
X139800000Y-79995888D02*
X138976000Y-79995888D01*
X142666000Y-80035888D02*
X141880000Y-80035888D01*
X139800000Y-80035888D02*
X139014000Y-80035888D01*
X142625000Y-80075888D02*
X141880000Y-80075888D01*
X139800000Y-80075888D02*
X139055000Y-80075888D01*
X142583000Y-80115888D02*
X141880000Y-80115888D01*
X139800000Y-80115888D02*
X139097000Y-80115888D01*
X142539000Y-80155888D02*
X141880000Y-80155888D01*
X139800000Y-80155888D02*
X139141000Y-80155888D01*
X142493000Y-80195888D02*
X141880000Y-80195888D01*
X139800000Y-80195888D02*
X139187000Y-80195888D01*
X142445000Y-80235888D02*
X141880000Y-80235888D01*
X139800000Y-80235888D02*
X139235000Y-80235888D01*
X142394000Y-80275888D02*
X141880000Y-80275888D01*
X139800000Y-80275888D02*
X139286000Y-80275888D01*
X142340000Y-80315888D02*
X141880000Y-80315888D01*
X139800000Y-80315888D02*
X139340000Y-80315888D01*
X142283000Y-80355888D02*
X141880000Y-80355888D01*
X139800000Y-80355888D02*
X139397000Y-80355888D01*
X142223000Y-80395888D02*
X141880000Y-80395888D01*
X139800000Y-80395888D02*
X139457000Y-80395888D01*
X142159000Y-80435888D02*
X141880000Y-80435888D01*
X139800000Y-80435888D02*
X139521000Y-80435888D01*
X142091000Y-80475888D02*
X141880000Y-80475888D01*
X139800000Y-80475888D02*
X139589000Y-80475888D01*
X142018000Y-80515888D02*
X139662000Y-80515888D01*
X141938000Y-80555888D02*
X139742000Y-80555888D01*
X141851000Y-80595888D02*
X139829000Y-80595888D01*
X141755000Y-80635888D02*
X139925000Y-80635888D01*
X141645000Y-80675888D02*
X140035000Y-80675888D01*
X141517000Y-80715888D02*
X140163000Y-80715888D01*
X141358000Y-80755888D02*
X140322000Y-80755888D01*
X141124000Y-80795888D02*
X140556000Y-80795888D01*
X143460000Y-78194888D02*
G75*
G03*
X138220000Y-78194888I-2620000J0D01*
G01*
X138220000Y-78194888D02*
G75*
G03*
X143460000Y-78194888I2620000J0D01*
G01*
%TO.C,J1*%
X195100000Y-61700000D02*
X195100000Y-76400000D01*
X185900000Y-61700000D02*
X195100000Y-61700000D01*
X185900000Y-70500000D02*
X185900000Y-61700000D01*
X195300000Y-75550000D02*
X195300000Y-76600000D01*
X195100000Y-76400000D02*
X192500000Y-76400000D01*
X188600000Y-76400000D02*
X185900000Y-76400000D01*
X185900000Y-76400000D02*
X185900000Y-74500000D01*
X194250000Y-76600000D02*
X195300000Y-76600000D01*
%TO.C,U2*%
X156440000Y-89080000D02*
X156710000Y-89080000D01*
X156710000Y-89080000D02*
X156710000Y-91910000D01*
X163070000Y-89080000D02*
X163070000Y-90180000D01*
X163340000Y-89080000D02*
X163070000Y-89080000D01*
X156440000Y-82660000D02*
X156440000Y-89080000D01*
X163340000Y-82660000D02*
X163340000Y-89080000D01*
%TO.C,U1*%
X154170000Y-67480000D02*
X154170000Y-72121000D01*
X154170000Y-67480000D02*
X164410000Y-67480000D01*
X154170000Y-68990000D02*
X164410000Y-68990000D01*
X154170000Y-72121000D02*
X164410000Y-72121000D01*
X157440000Y-67480000D02*
X157440000Y-68990000D01*
X161141000Y-67480000D02*
X161141000Y-68990000D01*
X164410000Y-67480000D02*
X164410000Y-72121000D01*
%TO.C,C1*%
X132253000Y-94625888D02*
X132253000Y-94125888D01*
X132003000Y-94375888D02*
X132503000Y-94375888D01*
X131148000Y-91821113D02*
X136308000Y-91821113D01*
X131148000Y-91781113D02*
X136308000Y-91781113D01*
X131149000Y-91741113D02*
X136307000Y-91741113D01*
X131150000Y-91701113D02*
X136306000Y-91701113D01*
X131152000Y-91661113D02*
X136304000Y-91661113D01*
X131155000Y-91621113D02*
X136301000Y-91621113D01*
X131159000Y-91581113D02*
X132688000Y-91581113D01*
X134768000Y-91581113D02*
X136297000Y-91581113D01*
X131163000Y-91541113D02*
X132688000Y-91541113D01*
X134768000Y-91541113D02*
X136293000Y-91541113D01*
X131167000Y-91501113D02*
X132688000Y-91501113D01*
X134768000Y-91501113D02*
X136289000Y-91501113D01*
X131172000Y-91461113D02*
X132688000Y-91461113D01*
X134768000Y-91461113D02*
X136284000Y-91461113D01*
X131178000Y-91421113D02*
X132688000Y-91421113D01*
X134768000Y-91421113D02*
X136278000Y-91421113D01*
X131185000Y-91381113D02*
X132688000Y-91381113D01*
X134768000Y-91381113D02*
X136271000Y-91381113D01*
X131192000Y-91341113D02*
X132688000Y-91341113D01*
X134768000Y-91341113D02*
X136264000Y-91341113D01*
X131200000Y-91301113D02*
X132688000Y-91301113D01*
X134768000Y-91301113D02*
X136256000Y-91301113D01*
X131208000Y-91261113D02*
X132688000Y-91261113D01*
X134768000Y-91261113D02*
X136248000Y-91261113D01*
X131217000Y-91221113D02*
X132688000Y-91221113D01*
X134768000Y-91221113D02*
X136239000Y-91221113D01*
X131227000Y-91181113D02*
X132688000Y-91181113D01*
X134768000Y-91181113D02*
X136229000Y-91181113D01*
X131237000Y-91141113D02*
X132688000Y-91141113D01*
X134768000Y-91141113D02*
X136219000Y-91141113D01*
X131248000Y-91100113D02*
X132688000Y-91100113D01*
X134768000Y-91100113D02*
X136208000Y-91100113D01*
X131260000Y-91060113D02*
X132688000Y-91060113D01*
X134768000Y-91060113D02*
X136196000Y-91060113D01*
X131273000Y-91020113D02*
X132688000Y-91020113D01*
X134768000Y-91020113D02*
X136183000Y-91020113D01*
X131286000Y-90980113D02*
X132688000Y-90980113D01*
X134768000Y-90980113D02*
X136170000Y-90980113D01*
X131300000Y-90940113D02*
X132688000Y-90940113D01*
X134768000Y-90940113D02*
X136156000Y-90940113D01*
X131314000Y-90900113D02*
X132688000Y-90900113D01*
X134768000Y-90900113D02*
X136142000Y-90900113D01*
X131330000Y-90860113D02*
X132688000Y-90860113D01*
X134768000Y-90860113D02*
X136126000Y-90860113D01*
X131346000Y-90820113D02*
X132688000Y-90820113D01*
X134768000Y-90820113D02*
X136110000Y-90820113D01*
X131363000Y-90780113D02*
X132688000Y-90780113D01*
X134768000Y-90780113D02*
X136093000Y-90780113D01*
X131380000Y-90740113D02*
X132688000Y-90740113D01*
X134768000Y-90740113D02*
X136076000Y-90740113D01*
X131399000Y-90700113D02*
X132688000Y-90700113D01*
X134768000Y-90700113D02*
X136057000Y-90700113D01*
X131418000Y-90660113D02*
X132688000Y-90660113D01*
X134768000Y-90660113D02*
X136038000Y-90660113D01*
X131438000Y-90620113D02*
X132688000Y-90620113D01*
X134768000Y-90620113D02*
X136018000Y-90620113D01*
X131460000Y-90580113D02*
X132688000Y-90580113D01*
X134768000Y-90580113D02*
X135996000Y-90580113D01*
X131481000Y-90540113D02*
X132688000Y-90540113D01*
X134768000Y-90540113D02*
X135975000Y-90540113D01*
X131504000Y-90500113D02*
X132688000Y-90500113D01*
X134768000Y-90500113D02*
X135952000Y-90500113D01*
X131528000Y-90460113D02*
X132688000Y-90460113D01*
X134768000Y-90460113D02*
X135928000Y-90460113D01*
X131553000Y-90420113D02*
X132688000Y-90420113D01*
X134768000Y-90420113D02*
X135903000Y-90420113D01*
X131579000Y-90380113D02*
X132688000Y-90380113D01*
X134768000Y-90380113D02*
X135877000Y-90380113D01*
X131606000Y-90340113D02*
X132688000Y-90340113D01*
X134768000Y-90340113D02*
X135850000Y-90340113D01*
X131633000Y-90300113D02*
X132688000Y-90300113D01*
X134768000Y-90300113D02*
X135823000Y-90300113D01*
X131663000Y-90260113D02*
X132688000Y-90260113D01*
X134768000Y-90260113D02*
X135793000Y-90260113D01*
X131693000Y-90220113D02*
X132688000Y-90220113D01*
X134768000Y-90220113D02*
X135763000Y-90220113D01*
X131724000Y-90180113D02*
X132688000Y-90180113D01*
X134768000Y-90180113D02*
X135732000Y-90180113D01*
X131757000Y-90140113D02*
X132688000Y-90140113D01*
X134768000Y-90140113D02*
X135699000Y-90140113D01*
X131791000Y-90100113D02*
X132688000Y-90100113D01*
X134768000Y-90100113D02*
X135665000Y-90100113D01*
X131827000Y-90060113D02*
X132688000Y-90060113D01*
X134768000Y-90060113D02*
X135629000Y-90060113D01*
X131864000Y-90020113D02*
X132688000Y-90020113D01*
X134768000Y-90020113D02*
X135592000Y-90020113D01*
X131902000Y-89980113D02*
X132688000Y-89980113D01*
X134768000Y-89980113D02*
X135554000Y-89980113D01*
X131943000Y-89940113D02*
X132688000Y-89940113D01*
X134768000Y-89940113D02*
X135513000Y-89940113D01*
X131985000Y-89900113D02*
X132688000Y-89900113D01*
X134768000Y-89900113D02*
X135471000Y-89900113D01*
X132029000Y-89860113D02*
X132688000Y-89860113D01*
X134768000Y-89860113D02*
X135427000Y-89860113D01*
X132075000Y-89820113D02*
X132688000Y-89820113D01*
X134768000Y-89820113D02*
X135381000Y-89820113D01*
X132123000Y-89780113D02*
X132688000Y-89780113D01*
X134768000Y-89780113D02*
X135333000Y-89780113D01*
X132174000Y-89740113D02*
X132688000Y-89740113D01*
X134768000Y-89740113D02*
X135282000Y-89740113D01*
X132228000Y-89700113D02*
X132688000Y-89700113D01*
X134768000Y-89700113D02*
X135228000Y-89700113D01*
X132285000Y-89660113D02*
X132688000Y-89660113D01*
X134768000Y-89660113D02*
X135171000Y-89660113D01*
X132345000Y-89620113D02*
X132688000Y-89620113D01*
X134768000Y-89620113D02*
X135111000Y-89620113D01*
X132409000Y-89580113D02*
X132688000Y-89580113D01*
X134768000Y-89580113D02*
X135047000Y-89580113D01*
X132477000Y-89540113D02*
X132688000Y-89540113D01*
X134768000Y-89540113D02*
X134979000Y-89540113D01*
X132550000Y-89500113D02*
X134906000Y-89500113D01*
X132630000Y-89460113D02*
X134826000Y-89460113D01*
X132717000Y-89420113D02*
X134739000Y-89420113D01*
X132813000Y-89380113D02*
X134643000Y-89380113D01*
X132923000Y-89340113D02*
X134533000Y-89340113D01*
X133051000Y-89300113D02*
X134405000Y-89300113D01*
X133210000Y-89260113D02*
X134246000Y-89260113D01*
X133444000Y-89220113D02*
X134012000Y-89220113D01*
X136348000Y-91821113D02*
G75*
G03*
X131108000Y-91821113I-2620000J0D01*
G01*
X131108000Y-91821113D02*
G75*
G03*
X136348000Y-91821113I2620000J0D01*
G01*
%TO.C,SW3*%
X165550000Y-111150000D02*
X154550000Y-111150000D01*
X165550000Y-107150000D02*
X165550000Y-111150000D01*
X162050000Y-111150000D02*
X162050000Y-107150000D01*
X154550000Y-111150000D02*
X154550000Y-107150000D01*
X154550000Y-107150000D02*
X165550000Y-107150000D01*
%TO.C,U4*%
X139042000Y-88945000D02*
X139042000Y-92395000D01*
X139042000Y-88945000D02*
X139042000Y-86995000D01*
X144162000Y-88945000D02*
X144162000Y-90895000D01*
X144162000Y-88945000D02*
X144162000Y-86995000D01*
%TD*%
M02*
