%TF.GenerationSoftware,KiCad,Pcbnew,7.0.10*%
%TF.CreationDate,2024-04-03T15:56:11+05:30*%
%TF.ProjectId,power converter,706f7765-7220-4636-9f6e-766572746572,rev?*%
%TF.SameCoordinates,Original*%
%TF.FileFunction,Soldermask,Bot*%
%TF.FilePolarity,Negative*%
%FSLAX46Y46*%
G04 Gerber Fmt 4.6, Leading zero omitted, Abs format (unit mm)*
G04 Created by KiCad (PCBNEW 7.0.10) date 2024-04-03 15:56:11*
%MOMM*%
%LPD*%
G01*
G04 APERTURE LIST*
G04 Aperture macros list*
%AMRoundRect*
0 Rectangle with rounded corners*
0 $1 Rounding radius*
0 $2 $3 $4 $5 $6 $7 $8 $9 X,Y pos of 4 corners*
0 Add a 4 corners polygon primitive as box body*
4,1,4,$2,$3,$4,$5,$6,$7,$8,$9,$2,$3,0*
0 Add four circle primitives for the rounded corners*
1,1,$1+$1,$2,$3*
1,1,$1+$1,$4,$5*
1,1,$1+$1,$6,$7*
1,1,$1+$1,$8,$9*
0 Add four rect primitives between the rounded corners*
20,1,$1+$1,$2,$3,$4,$5,0*
20,1,$1+$1,$4,$5,$6,$7,0*
20,1,$1+$1,$6,$7,$8,$9,0*
20,1,$1+$1,$8,$9,$2,$3,0*%
G04 Aperture macros list end*
%ADD10R,1.700000X1.700000*%
%ADD11O,1.700000X1.700000*%
%ADD12C,3.000000*%
%ADD13R,1.600000X1.600000*%
%ADD14C,1.600000*%
%ADD15R,1.905000X2.000000*%
%ADD16O,1.905000X2.000000*%
%ADD17O,2.000000X3.000000*%
%ADD18O,3.000000X2.000000*%
%ADD19R,3.500000X3.500000*%
%ADD20RoundRect,0.750000X-1.000000X0.750000X-1.000000X-0.750000X1.000000X-0.750000X1.000000X0.750000X0*%
%ADD21RoundRect,0.875000X-0.875000X0.875000X-0.875000X-0.875000X0.875000X-0.875000X0.875000X0.875000X0*%
G04 APERTURE END LIST*
D10*
%TO.C,J4*%
X170050000Y-95930000D03*
D11*
X170050000Y-98470000D03*
%TD*%
D12*
%TO.C,H1*%
X173170000Y-108750000D03*
%TD*%
D13*
%TO.C,C3*%
X140713000Y-73070000D03*
D14*
X140713000Y-70570000D03*
%TD*%
D15*
%TO.C,U6*%
X173250000Y-70750000D03*
D16*
X175790000Y-70750000D03*
X178330000Y-70750000D03*
%TD*%
D10*
%TO.C,J3*%
X142110000Y-98470000D03*
D11*
X139570000Y-98470000D03*
X137030000Y-98470000D03*
%TD*%
D17*
%TO.C,SW1*%
X190850000Y-109150000D03*
X186850000Y-109150000D03*
X182850000Y-109150000D03*
%TD*%
D12*
%TO.C,H3*%
X129250000Y-66750000D03*
%TD*%
D13*
%TO.C,C2*%
X133855000Y-83165113D03*
D14*
X133855000Y-80665113D03*
%TD*%
D10*
%TO.C,J6*%
X157350000Y-98470000D03*
D11*
X159890000Y-98470000D03*
X162430000Y-98470000D03*
X164970000Y-98470000D03*
%TD*%
D10*
%TO.C,J2*%
X152270000Y-98470000D03*
D11*
X149730000Y-98470000D03*
X147190000Y-98470000D03*
%TD*%
D18*
%TO.C,SW2*%
X192450000Y-88350000D03*
X192450000Y-84350000D03*
X192450000Y-80350000D03*
%TD*%
D10*
%TO.C,J5*%
X179170000Y-95750000D03*
D11*
X181710000Y-95750000D03*
X184250000Y-95750000D03*
X186790000Y-95750000D03*
X189330000Y-95750000D03*
X191870000Y-95750000D03*
%TD*%
D13*
%TO.C,C4*%
X140840000Y-76944888D03*
D14*
X140840000Y-79444888D03*
%TD*%
D19*
%TO.C,J1*%
X190500000Y-75500000D03*
D20*
X190500000Y-69500000D03*
D21*
X185800000Y-72500000D03*
%TD*%
D15*
%TO.C,U1*%
X156750000Y-70750000D03*
D16*
X159290000Y-70750000D03*
X161830000Y-70750000D03*
%TD*%
D13*
%TO.C,C1*%
X133728000Y-93071113D03*
D14*
X133728000Y-90571113D03*
%TD*%
D12*
%TO.C,H2*%
X129250000Y-108750000D03*
%TD*%
D17*
%TO.C,SW3*%
X164050000Y-109150000D03*
X160050000Y-109150000D03*
X156050000Y-109150000D03*
%TD*%
M02*
