M48
; DRILL file {KiCad 8.0.1} date 2024-03-22T17:40:42+0530
; FORMAT={-:-/ absolute / metric / decimal}
; #@! TF.CreationDate,2024-03-22T17:40:42+05:30
; #@! TF.GenerationSoftware,Kicad,Pcbnew,8.0.1
; #@! TF.FileFunction,Plated,1,2,PTH
FMAT,2
METRIC
; #@! TA.AperFunction,Plated,PTH,ViaDrill
T1C0.800
; #@! TA.AperFunction,Plated,PTH,ComponentDrill
T2C0.800
; #@! TA.AperFunction,Plated,PTH,ComponentDrill
T3C1.000
%
G90
G05
T1
X130.0Y-35.0
X130.0Y-40.0
X130.0Y-45.0
X130.0Y-50.0
X130.0Y-55.0
X130.0Y-60.0
X130.0Y-65.0
X130.0Y-70.0
X130.0Y-75.0
X130.0Y-80.0
X130.0Y-85.0
X130.0Y-90.0
X130.0Y-95.0
X130.0Y-100.0
X130.0Y-105.0
X130.0Y-110.0
X133.096Y-56.329
X133.096Y-58.429
X135.0Y-35.0
X135.0Y-40.0
X135.0Y-45.0
X135.0Y-110.0
X138.176Y-56.388
X138.176Y-60.452
X140.0Y-30.0
X140.0Y-35.0
X140.0Y-110.0
X140.0Y-115.0
X143.764Y-56.388
X143.764Y-60.452
X145.0Y-30.0
X145.0Y-110.0
X145.0Y-115.0
X145.796Y-90.0
X147.828Y-85.344
X148.336Y-63.5
X150.0Y-115.0
X150.368Y-102.616
X151.901Y-97.536
X152.4Y-89.408
X154.94Y-41.148
X154.94Y-48.26
X154.94Y-106.68
X155.0Y-115.0
X155.956Y-102.616
X157.988Y-93.208
X158.496Y-37.084
X159.004Y-97.028
X160.0Y-115.0
X160.02Y-41.148
X160.02Y-64.516
X161.544Y-103.632
X162.052Y-90.424
X163.068Y-97.028
X165.0Y-35.0
X165.0Y-115.0
X166.116Y-104.14
X166.624Y-58.42
X167.64Y-73.152
X168.216Y-104.14
X169.672Y-55.372
X170.0Y-115.0
X170.316Y-104.14
X171.196Y-37.592
X172.416Y-104.14
X173.228Y-58.928
X174.244Y-51.816
X174.244Y-62.966
X175.0Y-35.0
X175.0Y-40.0
X175.0Y-75.0
X175.0Y-80.0
X176.276Y-66.522
X176.276Y-100.584
X177.029Y-86.36
X177.8Y-47.752
X178.816Y-55.372
X178.816Y-103.632
X179.832Y-99.568
X180.34Y-67.056
X180.34Y-80.772
X180.848Y-46.736
X181.864Y-54.864
X182.118Y-86.309
X182.118Y-89.459
X183.896Y-39.624
X185.417Y-64.005
X186.944Y-105.156
X188.468Y-38.608
X189.51Y-83.058
X191.008Y-64.008
X192.024Y-67.564
X194.564Y-96.012
X195.0Y-35.0
X196.088Y-50.8
X196.088Y-54.356
X196.088Y-101.092
X196.114Y-77.724
X196.114Y-83.82
X197.612Y-99.06
X198.12Y-46.736
X198.628Y-65.532
X199.256Y-75.0
X199.644Y-61.468
X200.0Y-35.0
X200.66Y-48.768
X201.168Y-78.74
X201.168Y-82.804
X201.168Y-104.14
X202.074Y-76.845
X202.184Y-98.044
X202.692Y-92.456
X203.962Y-66.066
X205.0Y-35.0
X206.248Y-67.082
X206.375Y-97.484
X206.375Y-103.86
X208.28Y-49.276
X209.804Y-44.704
X210.0Y-35.0
X210.82Y-82.804
X210.82Y-97.484
X210.82Y-103.86
X214.884Y-97.536
X214.884Y-103.632
X215.0Y-100.0
X216.408Y-76.191
X216.408Y-78.291
X221.996Y-89.662
X225.0Y-115.0
X225.044Y-97.536
X225.552Y-89.145
X225.552Y-91.245
X230.0Y-47.5
X230.0Y-52.5
X230.0Y-82.5
X230.0Y-87.5
X230.0Y-92.5
X230.0Y-110.0
X230.0Y-115.0
X230.632Y-57.506
X235.0Y-47.5
X235.0Y-52.5
X235.0Y-57.5
X235.0Y-62.5
X235.0Y-105.0
X235.0Y-110.0
T2
X136.144Y-79.756
X136.144Y-82.296
X136.144Y-84.836
X136.144Y-87.376
X136.195Y-66.04
X136.195Y-68.58
X136.195Y-71.12
X136.195Y-73.66
X143.012Y-44.46
X143.012Y-47.0
X143.012Y-49.54
X143.012Y-52.08
X143.764Y-79.756
X143.764Y-82.296
X143.764Y-84.836
X143.764Y-87.376
X143.815Y-66.04
X143.815Y-68.58
X143.815Y-71.12
X143.815Y-73.66
X150.632Y-44.46
X150.632Y-47.0
X150.632Y-49.54
X150.632Y-52.08
X160.284Y-44.46
X160.284Y-47.0
X160.284Y-49.54
X160.284Y-52.08
X163.576Y-68.072
X163.576Y-70.612
X163.576Y-73.152
X163.576Y-75.692
X163.576Y-78.232
X163.576Y-80.772
X163.576Y-83.312
X163.576Y-85.852
X167.904Y-44.46
X167.904Y-47.0
X167.904Y-49.54
X167.904Y-52.08
X171.196Y-68.072
X171.196Y-70.612
X171.196Y-73.152
X171.196Y-75.692
X171.196Y-78.232
X171.196Y-80.772
X171.196Y-83.312
X171.196Y-85.852
X184.912Y-44.191
X184.912Y-46.731
X184.912Y-49.271
X184.912Y-51.811
X184.912Y-54.351
X184.912Y-56.891
X184.912Y-59.431
X184.912Y-71.12
X184.912Y-73.66
X184.912Y-76.2
X184.912Y-78.74
X184.912Y-81.28
X184.912Y-83.82
X184.912Y-86.36
X184.912Y-93.208
X184.912Y-100.828
X187.452Y-93.208
X187.452Y-100.828
X189.992Y-93.208
X189.992Y-100.828
X192.532Y-44.191
X192.532Y-46.731
X192.532Y-49.271
X192.532Y-51.811
X192.532Y-54.351
X192.532Y-56.891
X192.532Y-59.431
X192.532Y-71.12
X192.532Y-73.66
X192.532Y-76.2
X192.532Y-78.74
X192.532Y-81.28
X192.532Y-83.82
X192.532Y-86.36
X192.532Y-93.208
X192.532Y-100.828
X205.232Y-44.196
X205.232Y-46.736
X205.232Y-49.276
X205.232Y-51.816
X205.232Y-54.356
X205.232Y-56.896
X205.232Y-59.436
X205.232Y-71.12
X205.232Y-73.66
X205.232Y-76.2
X205.232Y-78.74
X205.232Y-81.28
X205.232Y-83.82
X205.232Y-86.36
X212.852Y-44.196
X212.852Y-46.736
X212.852Y-49.276
X212.852Y-51.816
X212.852Y-54.356
X212.852Y-56.896
X212.852Y-59.436
X212.852Y-71.12
X212.852Y-73.66
X212.852Y-76.2
X212.852Y-78.74
X212.852Y-81.28
X212.852Y-83.82
X212.852Y-86.36
T3
X136.652Y-94.488
X136.652Y-97.028
X136.652Y-99.568
X136.652Y-102.108
X136.652Y-104.648
X139.192Y-94.488
X139.192Y-97.028
X139.192Y-99.568
X139.192Y-102.108
X139.192Y-104.648
X224.028Y-36.068
X224.028Y-38.608
X224.028Y-41.148
X224.028Y-43.688
X224.028Y-46.228
X224.028Y-48.768
X224.028Y-51.308
X224.028Y-53.848
X224.028Y-56.388
X224.028Y-58.928
X224.028Y-61.468
X224.028Y-64.008
X224.028Y-66.548
X224.028Y-69.088
X224.028Y-71.628
X224.028Y-74.168
X226.568Y-36.068
X226.568Y-38.608
X226.568Y-41.148
X226.568Y-43.688
X226.568Y-46.228
X226.568Y-48.768
X226.568Y-51.308
X226.568Y-53.848
X226.568Y-56.388
X226.568Y-58.928
X226.568Y-61.468
X226.568Y-64.008
X226.568Y-66.548
X226.568Y-69.088
X226.568Y-71.628
X226.568Y-74.168
M30
