%TF.GenerationSoftware,KiCad,Pcbnew,8.0.1*%
%TF.CreationDate,2024-04-03T15:52:09+05:30*%
%TF.ProjectId,ResistiveCrossbar,52657369-7374-4697-9665-43726f737362,rev?*%
%TF.SameCoordinates,Original*%
%TF.FileFunction,Copper,L2,Bot*%
%TF.FilePolarity,Positive*%
%FSLAX46Y46*%
G04 Gerber Fmt 4.6, Leading zero omitted, Abs format (unit mm)*
G04 Created by KiCad (PCBNEW 8.0.1) date 2024-04-03 15:52:09*
%MOMM*%
%LPD*%
G01*
G04 APERTURE LIST*
%TA.AperFunction,ComponentPad*%
%ADD10R,1.700000X1.700000*%
%TD*%
%TA.AperFunction,ComponentPad*%
%ADD11O,1.700000X1.700000*%
%TD*%
%TA.AperFunction,ViaPad*%
%ADD12C,1.600000*%
%TD*%
%TA.AperFunction,Conductor*%
%ADD13C,0.800000*%
%TD*%
G04 APERTURE END LIST*
D10*
%TO.P,J1,1,Pin_1*%
%TO.N,/Vt2*%
X141000000Y-44000000D03*
D11*
%TO.P,J1,2,Pin_2*%
%TO.N,/Vt1*%
X138460000Y-44000000D03*
%TO.P,J1,3,Pin_3*%
%TO.N,/Vt3*%
X135920000Y-44000000D03*
%TO.P,J1,4,Pin_4*%
%TO.N,/Hz3*%
X133380000Y-44000000D03*
%TO.P,J1,5,Pin_5*%
%TO.N,/Hz2*%
X130840000Y-44000000D03*
%TO.P,J1,6,Pin_6*%
%TO.N,/Hz1*%
X128300000Y-44000000D03*
%TO.P,J1,7,Pin_7*%
%TO.N,GND*%
X125760000Y-44000000D03*
%TD*%
D12*
%TO.N,/Vt3*%
X144000000Y-65550000D03*
X144000000Y-55550000D03*
X144000000Y-75550000D03*
%TO.N,/Vt1*%
X130000000Y-55550000D03*
X130000000Y-75550000D03*
X130000000Y-65550000D03*
%TO.N,/Vt2*%
X137000000Y-65550000D03*
X137000000Y-75550000D03*
X137000000Y-55550000D03*
%TD*%
D13*
%TO.N,/Vt3*%
X137600000Y-41000000D02*
X142750000Y-41000000D01*
X144000000Y-42250000D02*
X144000000Y-55550000D01*
X144000000Y-55550000D02*
X144000000Y-75550000D01*
X135920000Y-42680000D02*
X137600000Y-41000000D01*
X135920000Y-44000000D02*
X135920000Y-42680000D01*
X142750000Y-41000000D02*
X144000000Y-42250000D01*
%TO.N,/Vt1*%
X138460000Y-45540000D02*
X136000000Y-48000000D01*
X136000000Y-48000000D02*
X132500000Y-48000000D01*
X138460000Y-44000000D02*
X138460000Y-45540000D01*
X130000000Y-55550000D02*
X130000000Y-75550000D01*
X132500000Y-48000000D02*
X130000000Y-50500000D01*
X138531600Y-44170600D02*
X138560000Y-44199000D01*
X130000000Y-50500000D02*
X130000000Y-55550000D01*
%TO.N,/Vt2*%
X141000000Y-44000000D02*
X141000000Y-47000000D01*
X137000000Y-51000000D02*
X137000000Y-55550000D01*
X137000000Y-55550000D02*
X137000000Y-75550000D01*
X141000000Y-47000000D02*
X137000000Y-51000000D01*
%TD*%
%TA.AperFunction,Conductor*%
%TO.N,GND*%
G36*
X155845788Y-39019454D02*
G01*
X155926570Y-39073430D01*
X155980546Y-39154212D01*
X155999500Y-39249500D01*
X155999500Y-79751000D01*
X155980546Y-79846288D01*
X155926570Y-79927070D01*
X155845788Y-79981046D01*
X155750500Y-80000000D01*
X116249000Y-80000000D01*
X116153712Y-79981046D01*
X116072930Y-79927070D01*
X116018954Y-79846288D01*
X116000000Y-79751000D01*
X116000000Y-74131119D01*
X117999500Y-74131119D01*
X118033729Y-74391112D01*
X118101601Y-74644417D01*
X118201953Y-74886689D01*
X118201955Y-74886693D01*
X118333073Y-75113798D01*
X118333082Y-75113812D01*
X118490293Y-75318691D01*
X118492718Y-75321851D01*
X118678149Y-75507282D01*
X118678153Y-75507285D01*
X118678154Y-75507286D01*
X118886187Y-75666917D01*
X118886192Y-75666920D01*
X118886197Y-75666924D01*
X119113303Y-75798043D01*
X119355581Y-75898398D01*
X119608884Y-75966270D01*
X119868880Y-76000500D01*
X120131120Y-76000500D01*
X120391116Y-75966270D01*
X120644419Y-75898398D01*
X120886697Y-75798043D01*
X121113803Y-75666924D01*
X121321851Y-75507282D01*
X121507282Y-75321851D01*
X121666924Y-75113803D01*
X121798043Y-74886697D01*
X121898398Y-74644419D01*
X121966270Y-74391116D01*
X122000500Y-74131120D01*
X122000500Y-73868880D01*
X121966270Y-73608884D01*
X121898398Y-73355581D01*
X121798043Y-73113303D01*
X121666924Y-72886197D01*
X121666920Y-72886192D01*
X121666917Y-72886187D01*
X121507286Y-72678154D01*
X121507285Y-72678153D01*
X121507282Y-72678149D01*
X121321851Y-72492718D01*
X121321846Y-72492714D01*
X121321845Y-72492713D01*
X121113812Y-72333082D01*
X121113798Y-72333073D01*
X121052937Y-72297935D01*
X120886697Y-72201957D01*
X120886695Y-72201956D01*
X120886693Y-72201955D01*
X120886689Y-72201953D01*
X120644417Y-72101601D01*
X120534730Y-72072211D01*
X120391116Y-72033730D01*
X120391111Y-72033729D01*
X120391114Y-72033729D01*
X120131120Y-71999500D01*
X119868880Y-71999500D01*
X119608887Y-72033729D01*
X119355582Y-72101601D01*
X119113310Y-72201953D01*
X119113306Y-72201955D01*
X118886201Y-72333073D01*
X118886187Y-72333082D01*
X118678154Y-72492713D01*
X118492713Y-72678154D01*
X118333082Y-72886187D01*
X118333073Y-72886201D01*
X118201955Y-73113306D01*
X118201953Y-73113310D01*
X118101601Y-73355582D01*
X118033729Y-73608887D01*
X117999500Y-73868880D01*
X117999500Y-74131119D01*
X116000000Y-74131119D01*
X116000000Y-44250001D01*
X124429363Y-44250001D01*
X124486566Y-44463483D01*
X124486566Y-44463485D01*
X124586399Y-44677576D01*
X124721889Y-44871076D01*
X124888923Y-45038110D01*
X125082423Y-45173600D01*
X125296511Y-45273431D01*
X125510000Y-45330635D01*
X125510000Y-44433012D01*
X125567007Y-44465925D01*
X125694174Y-44500000D01*
X125825826Y-44500000D01*
X125952993Y-44465925D01*
X126010000Y-44433012D01*
X126010000Y-45330635D01*
X126223488Y-45273431D01*
X126437576Y-45173600D01*
X126631079Y-45038107D01*
X126787601Y-44881586D01*
X126868382Y-44827609D01*
X126963670Y-44808655D01*
X127058958Y-44827609D01*
X127139740Y-44881585D01*
X127146867Y-44889012D01*
X127151426Y-44893964D01*
X127151429Y-44893969D01*
X127314236Y-45070825D01*
X127503933Y-45218472D01*
X127715344Y-45332882D01*
X127942703Y-45410934D01*
X128179808Y-45450500D01*
X128420192Y-45450500D01*
X128657297Y-45410934D01*
X128884656Y-45332882D01*
X129096067Y-45218472D01*
X129285764Y-45070825D01*
X129386806Y-44961062D01*
X129465285Y-44903796D01*
X129559709Y-44880920D01*
X129655699Y-44895919D01*
X129738642Y-44946511D01*
X129753184Y-44961053D01*
X129795260Y-45006760D01*
X129854229Y-45070818D01*
X129854231Y-45070819D01*
X129854236Y-45070825D01*
X130043933Y-45218472D01*
X130255344Y-45332882D01*
X130482703Y-45410934D01*
X130719808Y-45450500D01*
X130960192Y-45450500D01*
X131197297Y-45410934D01*
X131424656Y-45332882D01*
X131636067Y-45218472D01*
X131825764Y-45070825D01*
X131926806Y-44961062D01*
X132005285Y-44903796D01*
X132099709Y-44880920D01*
X132195699Y-44895919D01*
X132278642Y-44946511D01*
X132293184Y-44961053D01*
X132335260Y-45006760D01*
X132394229Y-45070818D01*
X132394231Y-45070819D01*
X132394236Y-45070825D01*
X132583933Y-45218472D01*
X132795344Y-45332882D01*
X133022703Y-45410934D01*
X133259808Y-45450500D01*
X133500192Y-45450500D01*
X133737297Y-45410934D01*
X133964656Y-45332882D01*
X134176067Y-45218472D01*
X134365764Y-45070825D01*
X134466806Y-44961062D01*
X134545285Y-44903796D01*
X134639709Y-44880920D01*
X134735699Y-44895919D01*
X134818642Y-44946511D01*
X134833184Y-44961053D01*
X134875260Y-45006760D01*
X134934229Y-45070818D01*
X134934231Y-45070819D01*
X134934236Y-45070825D01*
X135123933Y-45218472D01*
X135335344Y-45332882D01*
X135562703Y-45410934D01*
X135799808Y-45450500D01*
X136040192Y-45450500D01*
X136277297Y-45410934D01*
X136504656Y-45332882D01*
X136630853Y-45264587D01*
X136723673Y-45235906D01*
X136820408Y-45244928D01*
X136906327Y-45290283D01*
X136968349Y-45365064D01*
X136997032Y-45457889D01*
X136988010Y-45554624D01*
X136942655Y-45640543D01*
X136925431Y-45659646D01*
X135658510Y-46926569D01*
X135577728Y-46980546D01*
X135482440Y-46999500D01*
X132401459Y-46999500D01*
X132304812Y-47018724D01*
X132304810Y-47018724D01*
X132208165Y-47037948D01*
X132154830Y-47060039D01*
X132026088Y-47113366D01*
X132026084Y-47113368D01*
X131862219Y-47222860D01*
X131862216Y-47222862D01*
X131722860Y-47362217D01*
X131722861Y-47362218D01*
X131722858Y-47362221D01*
X129362221Y-49722858D01*
X129362218Y-49722861D01*
X129362217Y-49722860D01*
X129222862Y-49862216D01*
X129222860Y-49862219D01*
X129113369Y-50026084D01*
X129113365Y-50026091D01*
X129037949Y-50208164D01*
X129037947Y-50208169D01*
X128999500Y-50401454D01*
X128999500Y-54471847D01*
X128980546Y-54567135D01*
X128933696Y-54640489D01*
X128891023Y-54686844D01*
X128764073Y-54881156D01*
X128670842Y-55093702D01*
X128670841Y-55093706D01*
X128613868Y-55318684D01*
X128613866Y-55318691D01*
X128594700Y-55550000D01*
X128613866Y-55781308D01*
X128613868Y-55781315D01*
X128670841Y-56006293D01*
X128670842Y-56006297D01*
X128764074Y-56218846D01*
X128891018Y-56413150D01*
X128933695Y-56459509D01*
X128984287Y-56542452D01*
X128999500Y-56628153D01*
X128999500Y-64471847D01*
X128980546Y-64567135D01*
X128933696Y-64640489D01*
X128891023Y-64686844D01*
X128764073Y-64881156D01*
X128670842Y-65093702D01*
X128670841Y-65093706D01*
X128613868Y-65318684D01*
X128613866Y-65318691D01*
X128594700Y-65550000D01*
X128613866Y-65781308D01*
X128613868Y-65781315D01*
X128670841Y-66006293D01*
X128670842Y-66006297D01*
X128764074Y-66218846D01*
X128891018Y-66413150D01*
X128933695Y-66459509D01*
X128984287Y-66542452D01*
X128999500Y-66628153D01*
X128999500Y-74471847D01*
X128980546Y-74567135D01*
X128933696Y-74640489D01*
X128891023Y-74686844D01*
X128764073Y-74881156D01*
X128670842Y-75093702D01*
X128670841Y-75093706D01*
X128613868Y-75318684D01*
X128613866Y-75318691D01*
X128594700Y-75550000D01*
X128613866Y-75781308D01*
X128613868Y-75781315D01*
X128670841Y-76006293D01*
X128670842Y-76006297D01*
X128764074Y-76218846D01*
X128891019Y-76413151D01*
X128891022Y-76413155D01*
X129048214Y-76583911D01*
X129048216Y-76583913D01*
X129231374Y-76726470D01*
X129328863Y-76779228D01*
X129435487Y-76836931D01*
X129435489Y-76836931D01*
X129435497Y-76836936D01*
X129655019Y-76912298D01*
X129883951Y-76950500D01*
X130116049Y-76950500D01*
X130344981Y-76912298D01*
X130564503Y-76836936D01*
X130768626Y-76726470D01*
X130951784Y-76583913D01*
X131108979Y-76413153D01*
X131235924Y-76218849D01*
X131329157Y-76006300D01*
X131386134Y-75781305D01*
X131405300Y-75550000D01*
X131386134Y-75318695D01*
X131329157Y-75093700D01*
X131235924Y-74881151D01*
X131108979Y-74686847D01*
X131066304Y-74640489D01*
X131015712Y-74557546D01*
X131000500Y-74471847D01*
X131000500Y-66628153D01*
X131019454Y-66532865D01*
X131066305Y-66459509D01*
X131108979Y-66413153D01*
X131235924Y-66218849D01*
X131329157Y-66006300D01*
X131386134Y-65781305D01*
X131405300Y-65550000D01*
X131386134Y-65318695D01*
X131329157Y-65093700D01*
X131235924Y-64881151D01*
X131108979Y-64686847D01*
X131066304Y-64640489D01*
X131015712Y-64557546D01*
X131000500Y-64471847D01*
X131000500Y-56628153D01*
X131019454Y-56532865D01*
X131066305Y-56459509D01*
X131108979Y-56413153D01*
X131235924Y-56218849D01*
X131329157Y-56006300D01*
X131386134Y-55781305D01*
X131405300Y-55550000D01*
X131386134Y-55318695D01*
X131329157Y-55093700D01*
X131235924Y-54881151D01*
X131108979Y-54686847D01*
X131066304Y-54640489D01*
X131015712Y-54557546D01*
X131000500Y-54471847D01*
X131000500Y-51017560D01*
X131019454Y-50922272D01*
X131073430Y-50841490D01*
X132841490Y-49073430D01*
X132922272Y-49019454D01*
X133017560Y-49000500D01*
X136098539Y-49000500D01*
X136098540Y-49000500D01*
X136098541Y-49000500D01*
X136195188Y-48981275D01*
X136291836Y-48962051D01*
X136345165Y-48939961D01*
X136473914Y-48886632D01*
X136637782Y-48777139D01*
X136777139Y-48637782D01*
X136777140Y-48637779D01*
X139237139Y-46177782D01*
X139346631Y-46013915D01*
X139346632Y-46013914D01*
X139422051Y-45831835D01*
X139460500Y-45638541D01*
X139460500Y-45582578D01*
X139479454Y-45487290D01*
X139533430Y-45406508D01*
X139614212Y-45352532D01*
X139709500Y-45333578D01*
X139804788Y-45352532D01*
X139834002Y-45366939D01*
X139847155Y-45374533D01*
X139847159Y-45374536D01*
X139847162Y-45374537D01*
X139861295Y-45382697D01*
X139860614Y-45383875D01*
X139926563Y-45427937D01*
X139980542Y-45508716D01*
X139999500Y-45604003D01*
X139999500Y-46482439D01*
X139980546Y-46577727D01*
X139926570Y-46658509D01*
X136362220Y-50222859D01*
X136362218Y-50222861D01*
X136362217Y-50222860D01*
X136222862Y-50362216D01*
X136222860Y-50362219D01*
X136113369Y-50526084D01*
X136113365Y-50526091D01*
X136037949Y-50708164D01*
X136037947Y-50708169D01*
X135999500Y-50901454D01*
X135999500Y-54471847D01*
X135980546Y-54567135D01*
X135933696Y-54640489D01*
X135891023Y-54686844D01*
X135764073Y-54881156D01*
X135670842Y-55093702D01*
X135670841Y-55093706D01*
X135613868Y-55318684D01*
X135613866Y-55318691D01*
X135594700Y-55550000D01*
X135613866Y-55781308D01*
X135613868Y-55781315D01*
X135670841Y-56006293D01*
X135670842Y-56006297D01*
X135764074Y-56218846D01*
X135891018Y-56413150D01*
X135933695Y-56459509D01*
X135984287Y-56542452D01*
X135999500Y-56628153D01*
X135999500Y-64471847D01*
X135980546Y-64567135D01*
X135933696Y-64640489D01*
X135891023Y-64686844D01*
X135764073Y-64881156D01*
X135670842Y-65093702D01*
X135670841Y-65093706D01*
X135613868Y-65318684D01*
X135613866Y-65318691D01*
X135594700Y-65550000D01*
X135613866Y-65781308D01*
X135613868Y-65781315D01*
X135670841Y-66006293D01*
X135670842Y-66006297D01*
X135764074Y-66218846D01*
X135891018Y-66413150D01*
X135933695Y-66459509D01*
X135984287Y-66542452D01*
X135999500Y-66628153D01*
X135999500Y-74471847D01*
X135980546Y-74567135D01*
X135933696Y-74640489D01*
X135891023Y-74686844D01*
X135764073Y-74881156D01*
X135670842Y-75093702D01*
X135670841Y-75093706D01*
X135613868Y-75318684D01*
X135613866Y-75318691D01*
X135594700Y-75550000D01*
X135613866Y-75781308D01*
X135613868Y-75781315D01*
X135670841Y-76006293D01*
X135670842Y-76006297D01*
X135764074Y-76218846D01*
X135891019Y-76413151D01*
X135891022Y-76413155D01*
X136048214Y-76583911D01*
X136048216Y-76583913D01*
X136231374Y-76726470D01*
X136328863Y-76779228D01*
X136435487Y-76836931D01*
X136435489Y-76836931D01*
X136435497Y-76836936D01*
X136655019Y-76912298D01*
X136883951Y-76950500D01*
X137116049Y-76950500D01*
X137344981Y-76912298D01*
X137564503Y-76836936D01*
X137768626Y-76726470D01*
X137951784Y-76583913D01*
X138108979Y-76413153D01*
X138235924Y-76218849D01*
X138329157Y-76006300D01*
X138386134Y-75781305D01*
X138405300Y-75550000D01*
X138386134Y-75318695D01*
X138329157Y-75093700D01*
X138235924Y-74881151D01*
X138108979Y-74686847D01*
X138066304Y-74640489D01*
X138015712Y-74557546D01*
X138000500Y-74471847D01*
X138000500Y-66628153D01*
X138019454Y-66532865D01*
X138066305Y-66459509D01*
X138108979Y-66413153D01*
X138235924Y-66218849D01*
X138329157Y-66006300D01*
X138386134Y-65781305D01*
X138405300Y-65550000D01*
X138386134Y-65318695D01*
X138329157Y-65093700D01*
X138235924Y-64881151D01*
X138108979Y-64686847D01*
X138066304Y-64640489D01*
X138015712Y-64557546D01*
X138000500Y-64471847D01*
X138000500Y-56628153D01*
X138019454Y-56532865D01*
X138066305Y-56459509D01*
X138108979Y-56413153D01*
X138235924Y-56218849D01*
X138329157Y-56006300D01*
X138386134Y-55781305D01*
X138405300Y-55550000D01*
X138386134Y-55318695D01*
X138329157Y-55093700D01*
X138235924Y-54881151D01*
X138108979Y-54686847D01*
X138066304Y-54640489D01*
X138015712Y-54557546D01*
X138000500Y-54471847D01*
X138000500Y-51517560D01*
X138019454Y-51422272D01*
X138073430Y-51341490D01*
X139806036Y-49608884D01*
X141777139Y-47637782D01*
X141886632Y-47473914D01*
X141962051Y-47291835D01*
X142000500Y-47098541D01*
X142000500Y-45604013D01*
X142019454Y-45508725D01*
X142073430Y-45427943D01*
X142139389Y-45383870D01*
X142138710Y-45382694D01*
X142152833Y-45374539D01*
X142152841Y-45374536D01*
X142278282Y-45278282D01*
X142374536Y-45152841D01*
X142435044Y-45006762D01*
X142450500Y-44889361D01*
X142450499Y-43110640D01*
X142435044Y-42993238D01*
X142374536Y-42847159D01*
X142324178Y-42781531D01*
X142278286Y-42721723D01*
X142278285Y-42721722D01*
X142278282Y-42721718D01*
X142278277Y-42721714D01*
X142278276Y-42721713D01*
X142152844Y-42625466D01*
X142152843Y-42625465D01*
X142152841Y-42625464D01*
X142006762Y-42564956D01*
X142006760Y-42564955D01*
X141889362Y-42549500D01*
X140110639Y-42549500D01*
X140110637Y-42549501D01*
X139993238Y-42564955D01*
X139884475Y-42610006D01*
X139847159Y-42625464D01*
X139847158Y-42625464D01*
X139847155Y-42625466D01*
X139721723Y-42721713D01*
X139721716Y-42721720D01*
X139671499Y-42787165D01*
X139598454Y-42851223D01*
X139506455Y-42882453D01*
X139409508Y-42876098D01*
X139322372Y-42833128D01*
X139321014Y-42832078D01*
X139256072Y-42781531D01*
X139256068Y-42781528D01*
X139256067Y-42781528D01*
X139145539Y-42721713D01*
X139044655Y-42667117D01*
X138817297Y-42589066D01*
X138817294Y-42589065D01*
X138580192Y-42549500D01*
X138339808Y-42549500D01*
X138102705Y-42589065D01*
X138102692Y-42589068D01*
X138089982Y-42593432D01*
X137993703Y-42606443D01*
X137899773Y-42581619D01*
X137822492Y-42522739D01*
X137773627Y-42438767D01*
X137760616Y-42342488D01*
X137785440Y-42248558D01*
X137833068Y-42181852D01*
X137941491Y-42073430D01*
X138022273Y-42019454D01*
X138117560Y-42000500D01*
X142232440Y-42000500D01*
X142327728Y-42019454D01*
X142408510Y-42073430D01*
X142926570Y-42591490D01*
X142980546Y-42672272D01*
X142999500Y-42767560D01*
X142999500Y-54471847D01*
X142980546Y-54567135D01*
X142933696Y-54640489D01*
X142891023Y-54686844D01*
X142764073Y-54881156D01*
X142670842Y-55093702D01*
X142670841Y-55093706D01*
X142613868Y-55318684D01*
X142613866Y-55318691D01*
X142594700Y-55550000D01*
X142613866Y-55781308D01*
X142613868Y-55781315D01*
X142670841Y-56006293D01*
X142670842Y-56006297D01*
X142764074Y-56218846D01*
X142891018Y-56413150D01*
X142933695Y-56459509D01*
X142984287Y-56542452D01*
X142999500Y-56628153D01*
X142999500Y-64471847D01*
X142980546Y-64567135D01*
X142933696Y-64640489D01*
X142891023Y-64686844D01*
X142764073Y-64881156D01*
X142670842Y-65093702D01*
X142670841Y-65093706D01*
X142613868Y-65318684D01*
X142613866Y-65318691D01*
X142594700Y-65550000D01*
X142613866Y-65781308D01*
X142613868Y-65781315D01*
X142670841Y-66006293D01*
X142670842Y-66006297D01*
X142764074Y-66218846D01*
X142891018Y-66413150D01*
X142933695Y-66459509D01*
X142984287Y-66542452D01*
X142999500Y-66628153D01*
X142999500Y-74471847D01*
X142980546Y-74567135D01*
X142933696Y-74640489D01*
X142891023Y-74686844D01*
X142764073Y-74881156D01*
X142670842Y-75093702D01*
X142670841Y-75093706D01*
X142613868Y-75318684D01*
X142613866Y-75318691D01*
X142594700Y-75550000D01*
X142613866Y-75781308D01*
X142613868Y-75781315D01*
X142670841Y-76006293D01*
X142670842Y-76006297D01*
X142764074Y-76218846D01*
X142891019Y-76413151D01*
X142891022Y-76413155D01*
X143048214Y-76583911D01*
X143048216Y-76583913D01*
X143231374Y-76726470D01*
X143328863Y-76779228D01*
X143435487Y-76836931D01*
X143435489Y-76836931D01*
X143435497Y-76836936D01*
X143655019Y-76912298D01*
X143883951Y-76950500D01*
X144116049Y-76950500D01*
X144344981Y-76912298D01*
X144564503Y-76836936D01*
X144768626Y-76726470D01*
X144951784Y-76583913D01*
X145108979Y-76413153D01*
X145235924Y-76218849D01*
X145329157Y-76006300D01*
X145386134Y-75781305D01*
X145405300Y-75550000D01*
X145386134Y-75318695D01*
X145329157Y-75093700D01*
X145235924Y-74881151D01*
X145108979Y-74686847D01*
X145066304Y-74640489D01*
X145015712Y-74557546D01*
X145000500Y-74471847D01*
X145000500Y-66628153D01*
X145019454Y-66532865D01*
X145066305Y-66459509D01*
X145108979Y-66413153D01*
X145235924Y-66218849D01*
X145329157Y-66006300D01*
X145386134Y-65781305D01*
X145405300Y-65550000D01*
X145386134Y-65318695D01*
X145329157Y-65093700D01*
X145235924Y-64881151D01*
X145108979Y-64686847D01*
X145066304Y-64640489D01*
X145015712Y-64557546D01*
X145000500Y-64471847D01*
X145000500Y-56628153D01*
X145019454Y-56532865D01*
X145066305Y-56459509D01*
X145108979Y-56413153D01*
X145235924Y-56218849D01*
X145329157Y-56006300D01*
X145386134Y-55781305D01*
X145405300Y-55550000D01*
X145386134Y-55318695D01*
X145329157Y-55093700D01*
X145235924Y-54881151D01*
X145108979Y-54686847D01*
X145066304Y-54640489D01*
X145015712Y-54557546D01*
X145000500Y-54471847D01*
X145000500Y-50131119D01*
X149999500Y-50131119D01*
X150033729Y-50391112D01*
X150101601Y-50644417D01*
X150201953Y-50886689D01*
X150201955Y-50886693D01*
X150333073Y-51113798D01*
X150333082Y-51113812D01*
X150492713Y-51321845D01*
X150492718Y-51321851D01*
X150678149Y-51507282D01*
X150678153Y-51507285D01*
X150678154Y-51507286D01*
X150886187Y-51666917D01*
X150886192Y-51666920D01*
X150886197Y-51666924D01*
X151113303Y-51798043D01*
X151355581Y-51898398D01*
X151608884Y-51966270D01*
X151868880Y-52000500D01*
X152131120Y-52000500D01*
X152391116Y-51966270D01*
X152644419Y-51898398D01*
X152886697Y-51798043D01*
X153113803Y-51666924D01*
X153321851Y-51507282D01*
X153507282Y-51321851D01*
X153666924Y-51113803D01*
X153798043Y-50886697D01*
X153898398Y-50644419D01*
X153966270Y-50391116D01*
X154000500Y-50131120D01*
X154000500Y-49868880D01*
X153966270Y-49608884D01*
X153898398Y-49355581D01*
X153798043Y-49113303D01*
X153666924Y-48886197D01*
X153666920Y-48886192D01*
X153666917Y-48886187D01*
X153507286Y-48678154D01*
X153507285Y-48678153D01*
X153507282Y-48678149D01*
X153321851Y-48492718D01*
X153321846Y-48492714D01*
X153321845Y-48492713D01*
X153113812Y-48333082D01*
X153113798Y-48333073D01*
X153052937Y-48297935D01*
X152886697Y-48201957D01*
X152886695Y-48201956D01*
X152886693Y-48201955D01*
X152886689Y-48201953D01*
X152644417Y-48101601D01*
X152534730Y-48072211D01*
X152391116Y-48033730D01*
X152391111Y-48033729D01*
X152391114Y-48033729D01*
X152131120Y-47999500D01*
X151868880Y-47999500D01*
X151608887Y-48033729D01*
X151355582Y-48101601D01*
X151113310Y-48201953D01*
X151113306Y-48201955D01*
X150886201Y-48333073D01*
X150886187Y-48333082D01*
X150678154Y-48492713D01*
X150492713Y-48678154D01*
X150333082Y-48886187D01*
X150333073Y-48886201D01*
X150201955Y-49113306D01*
X150201953Y-49113310D01*
X150101601Y-49355582D01*
X150033729Y-49608887D01*
X149999500Y-49868880D01*
X149999500Y-50131119D01*
X145000500Y-50131119D01*
X145000500Y-42151459D01*
X145000499Y-42151454D01*
X144962052Y-41958169D01*
X144962051Y-41958167D01*
X144962051Y-41958165D01*
X144886632Y-41776086D01*
X144777139Y-41612218D01*
X144637782Y-41472861D01*
X144637778Y-41472858D01*
X143527141Y-40362221D01*
X143527139Y-40362218D01*
X143387782Y-40222861D01*
X143223914Y-40113368D01*
X143223909Y-40113365D01*
X143134868Y-40076483D01*
X143095165Y-40060038D01*
X143041836Y-40037949D01*
X143041833Y-40037948D01*
X142945189Y-40018724D01*
X142945188Y-40018724D01*
X142848541Y-39999500D01*
X137501459Y-39999500D01*
X137404812Y-40018724D01*
X137404810Y-40018724D01*
X137308165Y-40037948D01*
X137254830Y-40060039D01*
X137126088Y-40113366D01*
X137126084Y-40113368D01*
X136962219Y-40222860D01*
X136962216Y-40222862D01*
X136822860Y-40362217D01*
X136822861Y-40362218D01*
X136822858Y-40362221D01*
X135282221Y-41902858D01*
X135282218Y-41902861D01*
X135282217Y-41902860D01*
X135142862Y-42042216D01*
X135142860Y-42042219D01*
X135033369Y-42206084D01*
X135033365Y-42206091D01*
X134957949Y-42388164D01*
X134957947Y-42388169D01*
X134919500Y-42581454D01*
X134919500Y-42848021D01*
X134900546Y-42943309D01*
X134853695Y-43016664D01*
X134833194Y-43038934D01*
X134754712Y-43096203D01*
X134660289Y-43119078D01*
X134564299Y-43104078D01*
X134481356Y-43053486D01*
X134466815Y-43038946D01*
X134365764Y-42929175D01*
X134176067Y-42781528D01*
X134065539Y-42721713D01*
X133964655Y-42667117D01*
X133737297Y-42589066D01*
X133737294Y-42589065D01*
X133500192Y-42549500D01*
X133259808Y-42549500D01*
X133022705Y-42589065D01*
X133022702Y-42589066D01*
X132795344Y-42667117D01*
X132583931Y-42781529D01*
X132394235Y-42929176D01*
X132386354Y-42937736D01*
X132293193Y-43038937D01*
X132214714Y-43096204D01*
X132120290Y-43119079D01*
X132024300Y-43104079D01*
X131941357Y-43053488D01*
X131926815Y-43038946D01*
X131825764Y-42929175D01*
X131636067Y-42781528D01*
X131525539Y-42721713D01*
X131424655Y-42667117D01*
X131197297Y-42589066D01*
X131197294Y-42589065D01*
X130960192Y-42549500D01*
X130719808Y-42549500D01*
X130482705Y-42589065D01*
X130482702Y-42589066D01*
X130255344Y-42667117D01*
X130043931Y-42781529D01*
X129854235Y-42929176D01*
X129846354Y-42937736D01*
X129753193Y-43038937D01*
X129674714Y-43096204D01*
X129580290Y-43119079D01*
X129484300Y-43104079D01*
X129401357Y-43053488D01*
X129386815Y-43038946D01*
X129285764Y-42929175D01*
X129096067Y-42781528D01*
X128985539Y-42721713D01*
X128884655Y-42667117D01*
X128657297Y-42589066D01*
X128657294Y-42589065D01*
X128420192Y-42549500D01*
X128179808Y-42549500D01*
X127942705Y-42589065D01*
X127942702Y-42589066D01*
X127715344Y-42667117D01*
X127503931Y-42781529D01*
X127446281Y-42826400D01*
X127314236Y-42929175D01*
X127314234Y-42929176D01*
X127314234Y-42929177D01*
X127314228Y-42929182D01*
X127146866Y-43110987D01*
X127068384Y-43168256D01*
X126973961Y-43191131D01*
X126877971Y-43176131D01*
X126795028Y-43125539D01*
X126787601Y-43118414D01*
X126631076Y-42961889D01*
X126437576Y-42826399D01*
X126223484Y-42726566D01*
X126010001Y-42669363D01*
X126010000Y-42669364D01*
X126010000Y-43566988D01*
X125952993Y-43534075D01*
X125825826Y-43500000D01*
X125694174Y-43500000D01*
X125567007Y-43534075D01*
X125510000Y-43566988D01*
X125510000Y-42669364D01*
X125509998Y-42669363D01*
X125296516Y-42726566D01*
X125296505Y-42726570D01*
X125082428Y-42826396D01*
X125082420Y-42826400D01*
X124888923Y-42961889D01*
X124721889Y-43128923D01*
X124586400Y-43322420D01*
X124586396Y-43322428D01*
X124486570Y-43536505D01*
X124486566Y-43536516D01*
X124429363Y-43749998D01*
X124429364Y-43750000D01*
X125326988Y-43750000D01*
X125294075Y-43807007D01*
X125260000Y-43934174D01*
X125260000Y-44065826D01*
X125294075Y-44192993D01*
X125326988Y-44250000D01*
X124429364Y-44250000D01*
X124429363Y-44250001D01*
X116000000Y-44250001D01*
X116000000Y-39249500D01*
X116018954Y-39154212D01*
X116072930Y-39073430D01*
X116153712Y-39019454D01*
X116249000Y-39000500D01*
X155750500Y-39000500D01*
X155845788Y-39019454D01*
G37*
%TD.AperFunction*%
%TD*%
M02*
