%TF.GenerationSoftware,KiCad,Pcbnew,8.0.1*%
%TF.CreationDate,2024-04-03T15:52:09+05:30*%
%TF.ProjectId,ResistiveCrossbar,52657369-7374-4697-9665-43726f737362,rev?*%
%TF.SameCoordinates,Original*%
%TF.FileFunction,Copper,L1,Top*%
%TF.FilePolarity,Positive*%
%FSLAX46Y46*%
G04 Gerber Fmt 4.6, Leading zero omitted, Abs format (unit mm)*
G04 Created by KiCad (PCBNEW 8.0.1) date 2024-04-03 15:52:09*
%MOMM*%
%LPD*%
G01*
G04 APERTURE LIST*
G04 Aperture macros list*
%AMRoundRect*
0 Rectangle with rounded corners*
0 $1 Rounding radius*
0 $2 $3 $4 $5 $6 $7 $8 $9 X,Y pos of 4 corners*
0 Add a 4 corners polygon primitive as box body*
4,1,4,$2,$3,$4,$5,$6,$7,$8,$9,$2,$3,0*
0 Add four circle primitives for the rounded corners*
1,1,$1+$1,$2,$3*
1,1,$1+$1,$4,$5*
1,1,$1+$1,$6,$7*
1,1,$1+$1,$8,$9*
0 Add four rect primitives between the rounded corners*
20,1,$1+$1,$2,$3,$4,$5,0*
20,1,$1+$1,$4,$5,$6,$7,0*
20,1,$1+$1,$6,$7,$8,$9,0*
20,1,$1+$1,$8,$9,$2,$3,0*%
G04 Aperture macros list end*
%TA.AperFunction,SMDPad,CuDef*%
%ADD10RoundRect,0.250000X-0.625000X0.400000X-0.625000X-0.400000X0.625000X-0.400000X0.625000X0.400000X0*%
%TD*%
%TA.AperFunction,ComponentPad*%
%ADD11R,1.700000X1.700000*%
%TD*%
%TA.AperFunction,ComponentPad*%
%ADD12O,1.700000X1.700000*%
%TD*%
%TA.AperFunction,ViaPad*%
%ADD13C,1.600000*%
%TD*%
%TA.AperFunction,Conductor*%
%ADD14C,0.800000*%
%TD*%
G04 APERTURE END LIST*
D10*
%TO.P,R3,1*%
%TO.N,/Hz1*%
X144000000Y-52450000D03*
%TO.P,R3,2*%
%TO.N,/Vt3*%
X144000000Y-55550000D03*
%TD*%
%TO.P,R6,1*%
%TO.N,/Hz2*%
X144000000Y-62450000D03*
%TO.P,R6,2*%
%TO.N,/Vt3*%
X144000000Y-65550000D03*
%TD*%
%TO.P,R7,1*%
%TO.N,/Hz3*%
X130000000Y-72450000D03*
%TO.P,R7,2*%
%TO.N,/Vt1*%
X130000000Y-75550000D03*
%TD*%
%TO.P,R5,1*%
%TO.N,/Hz2*%
X137000000Y-62450000D03*
%TO.P,R5,2*%
%TO.N,/Vt2*%
X137000000Y-65550000D03*
%TD*%
%TO.P,R9,1*%
%TO.N,/Hz3*%
X144000000Y-72450000D03*
%TO.P,R9,2*%
%TO.N,/Vt3*%
X144000000Y-75550000D03*
%TD*%
%TO.P,R2,1*%
%TO.N,/Hz1*%
X137000000Y-52450000D03*
%TO.P,R2,2*%
%TO.N,/Vt2*%
X137000000Y-55550000D03*
%TD*%
%TO.P,R1,1*%
%TO.N,/Hz1*%
X130000000Y-52450000D03*
%TO.P,R1,2*%
%TO.N,/Vt1*%
X130000000Y-55550000D03*
%TD*%
%TO.P,R8,1*%
%TO.N,/Hz3*%
X137000000Y-72450000D03*
%TO.P,R8,2*%
%TO.N,/Vt2*%
X137000000Y-75550000D03*
%TD*%
%TO.P,R4,1*%
%TO.N,/Hz2*%
X130000000Y-62450000D03*
%TO.P,R4,2*%
%TO.N,/Vt1*%
X130000000Y-65550000D03*
%TD*%
D11*
%TO.P,J1,1,Pin_1*%
%TO.N,/Vt2*%
X141000000Y-44000000D03*
D12*
%TO.P,J1,2,Pin_2*%
%TO.N,/Vt1*%
X138460000Y-44000000D03*
%TO.P,J1,3,Pin_3*%
%TO.N,/Vt3*%
X135920000Y-44000000D03*
%TO.P,J1,4,Pin_4*%
%TO.N,/Hz3*%
X133380000Y-44000000D03*
%TO.P,J1,5,Pin_5*%
%TO.N,/Hz2*%
X130840000Y-44000000D03*
%TO.P,J1,6,Pin_6*%
%TO.N,/Hz1*%
X128300000Y-44000000D03*
%TO.P,J1,7,Pin_7*%
%TO.N,GND*%
X125760000Y-44000000D03*
%TD*%
D13*
%TO.N,/Vt3*%
X144000000Y-65550000D03*
X144000000Y-55550000D03*
X144000000Y-75550000D03*
%TO.N,/Vt1*%
X130000000Y-55550000D03*
X130000000Y-75550000D03*
X130000000Y-65550000D03*
%TO.N,/Vt2*%
X137000000Y-65550000D03*
X137000000Y-75550000D03*
X137000000Y-55550000D03*
%TD*%
D14*
%TO.N,/Hz3*%
X133380000Y-42739500D02*
X131140500Y-40500000D01*
X119000000Y-66000000D02*
X125450000Y-72450000D01*
X131140500Y-40500000D02*
X122250000Y-40500000D01*
X122250000Y-40500000D02*
X119000000Y-43750000D01*
X130000000Y-72450000D02*
X144000000Y-72450000D01*
X133380000Y-44000000D02*
X133380000Y-42739500D01*
X125450000Y-72450000D02*
X130000000Y-72450000D01*
X119000000Y-43750000D02*
X119000000Y-66000000D01*
%TO.N,/Hz1*%
X128300000Y-50750000D02*
X130000000Y-52450000D01*
X130000000Y-52450000D02*
X144000000Y-52450000D01*
X128300000Y-44000000D02*
X128300000Y-50750000D01*
%TO.N,/Hz2*%
X130840000Y-44000000D02*
X130840000Y-43040000D01*
X121500000Y-57500000D02*
X126450000Y-62450000D01*
X121500000Y-43875000D02*
X121500000Y-57500000D01*
X129850000Y-42050000D02*
X123325000Y-42050000D01*
X126450000Y-62450000D02*
X130000000Y-62450000D01*
X130840000Y-43040000D02*
X129850000Y-42050000D01*
X130000000Y-62450000D02*
X144000000Y-62450000D01*
X123325000Y-42050000D02*
X121500000Y-43875000D01*
%TD*%
%TA.AperFunction,Conductor*%
%TO.N,GND*%
G36*
X155845788Y-39019454D02*
G01*
X155926570Y-39073430D01*
X155980546Y-39154212D01*
X155999500Y-39249500D01*
X155999500Y-79751000D01*
X155980546Y-79846288D01*
X155926570Y-79927070D01*
X155845788Y-79981046D01*
X155750500Y-80000000D01*
X116249000Y-80000000D01*
X116153712Y-79981046D01*
X116072930Y-79927070D01*
X116018954Y-79846288D01*
X116000000Y-79751000D01*
X116000000Y-74131119D01*
X117999500Y-74131119D01*
X118033729Y-74391112D01*
X118101601Y-74644417D01*
X118201953Y-74886689D01*
X118201955Y-74886693D01*
X118333073Y-75113798D01*
X118333082Y-75113812D01*
X118492713Y-75321845D01*
X118492718Y-75321851D01*
X118678149Y-75507282D01*
X118678153Y-75507285D01*
X118678154Y-75507286D01*
X118886187Y-75666917D01*
X118886192Y-75666920D01*
X118886197Y-75666924D01*
X119113303Y-75798043D01*
X119355581Y-75898398D01*
X119608884Y-75966270D01*
X119868880Y-76000500D01*
X120131120Y-76000500D01*
X120391116Y-75966270D01*
X120644419Y-75898398D01*
X120886697Y-75798043D01*
X121113803Y-75666924D01*
X121321851Y-75507282D01*
X121507282Y-75321851D01*
X121666924Y-75113803D01*
X121798043Y-74886697D01*
X121898398Y-74644419D01*
X121966270Y-74391116D01*
X122000500Y-74131120D01*
X122000500Y-73868880D01*
X121966270Y-73608884D01*
X121898398Y-73355581D01*
X121798043Y-73113303D01*
X121666924Y-72886197D01*
X121666920Y-72886192D01*
X121666917Y-72886187D01*
X121507286Y-72678154D01*
X121507285Y-72678153D01*
X121507282Y-72678149D01*
X121321851Y-72492718D01*
X121321846Y-72492714D01*
X121321845Y-72492713D01*
X121113812Y-72333082D01*
X121113798Y-72333073D01*
X121052937Y-72297935D01*
X120886697Y-72201957D01*
X120886695Y-72201956D01*
X120886693Y-72201955D01*
X120886689Y-72201953D01*
X120644417Y-72101601D01*
X120534730Y-72072211D01*
X120391116Y-72033730D01*
X120391111Y-72033729D01*
X120391114Y-72033729D01*
X120131120Y-71999500D01*
X119868880Y-71999500D01*
X119608887Y-72033729D01*
X119355582Y-72101601D01*
X119113310Y-72201953D01*
X119113306Y-72201955D01*
X118886201Y-72333073D01*
X118886187Y-72333082D01*
X118678154Y-72492713D01*
X118492713Y-72678154D01*
X118333082Y-72886187D01*
X118333073Y-72886201D01*
X118201955Y-73113306D01*
X118201953Y-73113310D01*
X118101601Y-73355582D01*
X118033729Y-73608887D01*
X117999500Y-73868880D01*
X117999500Y-74131119D01*
X116000000Y-74131119D01*
X116000000Y-66098545D01*
X117999500Y-66098545D01*
X118037947Y-66291830D01*
X118037949Y-66291835D01*
X118113365Y-66473908D01*
X118113366Y-66473911D01*
X118113368Y-66473914D01*
X118222861Y-66637782D01*
X118362218Y-66777139D01*
X118362220Y-66777140D01*
X124672860Y-73087781D01*
X124672861Y-73087782D01*
X124672860Y-73087782D01*
X124812216Y-73227137D01*
X124812218Y-73227139D01*
X124976086Y-73336632D01*
X125082745Y-73380811D01*
X125158164Y-73412051D01*
X125351459Y-73450500D01*
X128676866Y-73450500D01*
X128772154Y-73469454D01*
X128832867Y-73505426D01*
X128914247Y-73570842D01*
X128914250Y-73570843D01*
X128914251Y-73570844D01*
X129079974Y-73653035D01*
X129079975Y-73653036D01*
X129079978Y-73653036D01*
X129079979Y-73653037D01*
X129259505Y-73697683D01*
X129259515Y-73697683D01*
X129259517Y-73697684D01*
X129294700Y-73700069D01*
X129301046Y-73700500D01*
X129301050Y-73700500D01*
X129582017Y-73700500D01*
X129677305Y-73719454D01*
X129758087Y-73773430D01*
X129812063Y-73854212D01*
X129831017Y-73949500D01*
X129812063Y-74044788D01*
X129758087Y-74125570D01*
X129677305Y-74179546D01*
X129662866Y-74185009D01*
X129655023Y-74187701D01*
X129655019Y-74187702D01*
X129571733Y-74216293D01*
X129435499Y-74263062D01*
X129426502Y-74267931D01*
X129423625Y-74269488D01*
X129330803Y-74298171D01*
X129305114Y-74299500D01*
X129301046Y-74299500D01*
X129301042Y-74299500D01*
X129301017Y-74299501D01*
X129259517Y-74302315D01*
X129259506Y-74302316D01*
X129259505Y-74302317D01*
X129223599Y-74311246D01*
X129079975Y-74346963D01*
X129079974Y-74346964D01*
X128914251Y-74429155D01*
X128914245Y-74429159D01*
X128770064Y-74545056D01*
X128770056Y-74545064D01*
X128654159Y-74689245D01*
X128654155Y-74689251D01*
X128571964Y-74854974D01*
X128571963Y-74854975D01*
X128527317Y-75034506D01*
X128527315Y-75034517D01*
X128524501Y-75076017D01*
X128524500Y-75076049D01*
X128524500Y-76023950D01*
X128524501Y-76023982D01*
X128527315Y-76065482D01*
X128527317Y-76065493D01*
X128571963Y-76245024D01*
X128571964Y-76245025D01*
X128654155Y-76410748D01*
X128654157Y-76410751D01*
X128654158Y-76410753D01*
X128770060Y-76554940D01*
X128914247Y-76670842D01*
X128914250Y-76670843D01*
X128914251Y-76670844D01*
X129079974Y-76753035D01*
X129079975Y-76753036D01*
X129079978Y-76753036D01*
X129079979Y-76753037D01*
X129259505Y-76797683D01*
X129259515Y-76797683D01*
X129259517Y-76797684D01*
X129294700Y-76800069D01*
X129301046Y-76800500D01*
X129305114Y-76800500D01*
X129400402Y-76819454D01*
X129423622Y-76830509D01*
X129435497Y-76836936D01*
X129435499Y-76836937D01*
X129476290Y-76850940D01*
X129655019Y-76912298D01*
X129883951Y-76950500D01*
X130116049Y-76950500D01*
X130344981Y-76912298D01*
X130564503Y-76836936D01*
X130576374Y-76830511D01*
X130669197Y-76801829D01*
X130694886Y-76800500D01*
X130698950Y-76800500D01*
X130698954Y-76800500D01*
X130718108Y-76799201D01*
X130740482Y-76797684D01*
X130740483Y-76797683D01*
X130740495Y-76797683D01*
X130920021Y-76753037D01*
X130920022Y-76753036D01*
X130920024Y-76753036D01*
X130920025Y-76753035D01*
X131085753Y-76670842D01*
X131229940Y-76554940D01*
X131345842Y-76410753D01*
X131428037Y-76245021D01*
X131472683Y-76065495D01*
X131475500Y-76023954D01*
X131475500Y-75076046D01*
X131472683Y-75034505D01*
X131428037Y-74854979D01*
X131428036Y-74854978D01*
X131428036Y-74854975D01*
X131428035Y-74854974D01*
X131345844Y-74689251D01*
X131345843Y-74689250D01*
X131345842Y-74689247D01*
X131229940Y-74545060D01*
X131085753Y-74429158D01*
X131085751Y-74429157D01*
X131085748Y-74429155D01*
X130920025Y-74346964D01*
X130920024Y-74346963D01*
X130812305Y-74320175D01*
X130740495Y-74302317D01*
X130740491Y-74302316D01*
X130740482Y-74302315D01*
X130698982Y-74299501D01*
X130698957Y-74299500D01*
X130698954Y-74299500D01*
X130698950Y-74299500D01*
X130694886Y-74299500D01*
X130599598Y-74280546D01*
X130576377Y-74269490D01*
X130571173Y-74266673D01*
X130564500Y-74263062D01*
X130445189Y-74222103D01*
X130344981Y-74187702D01*
X130344976Y-74187701D01*
X130337134Y-74185009D01*
X130253163Y-74136142D01*
X130194284Y-74058861D01*
X130169462Y-73964931D01*
X130182474Y-73868651D01*
X130231341Y-73784680D01*
X130308622Y-73725801D01*
X130402552Y-73700979D01*
X130417983Y-73700500D01*
X130698950Y-73700500D01*
X130698954Y-73700500D01*
X130718108Y-73699201D01*
X130740482Y-73697684D01*
X130740483Y-73697683D01*
X130740495Y-73697683D01*
X130920021Y-73653037D01*
X130920022Y-73653036D01*
X130920024Y-73653036D01*
X130920025Y-73653035D01*
X131085753Y-73570842D01*
X131167132Y-73505426D01*
X131253275Y-73460501D01*
X131323134Y-73450500D01*
X135676866Y-73450500D01*
X135772154Y-73469454D01*
X135832867Y-73505426D01*
X135914247Y-73570842D01*
X135914250Y-73570843D01*
X135914251Y-73570844D01*
X136079974Y-73653035D01*
X136079975Y-73653036D01*
X136079978Y-73653036D01*
X136079979Y-73653037D01*
X136259505Y-73697683D01*
X136259515Y-73697683D01*
X136259517Y-73697684D01*
X136294700Y-73700069D01*
X136301046Y-73700500D01*
X136301050Y-73700500D01*
X136582017Y-73700500D01*
X136677305Y-73719454D01*
X136758087Y-73773430D01*
X136812063Y-73854212D01*
X136831017Y-73949500D01*
X136812063Y-74044788D01*
X136758087Y-74125570D01*
X136677305Y-74179546D01*
X136662866Y-74185009D01*
X136655023Y-74187701D01*
X136655019Y-74187702D01*
X136571733Y-74216293D01*
X136435499Y-74263062D01*
X136426502Y-74267931D01*
X136423625Y-74269488D01*
X136330803Y-74298171D01*
X136305114Y-74299500D01*
X136301046Y-74299500D01*
X136301042Y-74299500D01*
X136301017Y-74299501D01*
X136259517Y-74302315D01*
X136259506Y-74302316D01*
X136259505Y-74302317D01*
X136223599Y-74311246D01*
X136079975Y-74346963D01*
X136079974Y-74346964D01*
X135914251Y-74429155D01*
X135914245Y-74429159D01*
X135770064Y-74545056D01*
X135770056Y-74545064D01*
X135654159Y-74689245D01*
X135654155Y-74689251D01*
X135571964Y-74854974D01*
X135571963Y-74854975D01*
X135527317Y-75034506D01*
X135527315Y-75034517D01*
X135524501Y-75076017D01*
X135524500Y-75076049D01*
X135524500Y-76023950D01*
X135524501Y-76023982D01*
X135527315Y-76065482D01*
X135527317Y-76065493D01*
X135571963Y-76245024D01*
X135571964Y-76245025D01*
X135654155Y-76410748D01*
X135654157Y-76410751D01*
X135654158Y-76410753D01*
X135770060Y-76554940D01*
X135914247Y-76670842D01*
X135914250Y-76670843D01*
X135914251Y-76670844D01*
X136079974Y-76753035D01*
X136079975Y-76753036D01*
X136079978Y-76753036D01*
X136079979Y-76753037D01*
X136259505Y-76797683D01*
X136259515Y-76797683D01*
X136259517Y-76797684D01*
X136294700Y-76800069D01*
X136301046Y-76800500D01*
X136305114Y-76800500D01*
X136400402Y-76819454D01*
X136423622Y-76830509D01*
X136435497Y-76836936D01*
X136435499Y-76836937D01*
X136476290Y-76850940D01*
X136655019Y-76912298D01*
X136883951Y-76950500D01*
X137116049Y-76950500D01*
X137344981Y-76912298D01*
X137564503Y-76836936D01*
X137576374Y-76830511D01*
X137669197Y-76801829D01*
X137694886Y-76800500D01*
X137698950Y-76800500D01*
X137698954Y-76800500D01*
X137718108Y-76799201D01*
X137740482Y-76797684D01*
X137740483Y-76797683D01*
X137740495Y-76797683D01*
X137920021Y-76753037D01*
X137920022Y-76753036D01*
X137920024Y-76753036D01*
X137920025Y-76753035D01*
X138085753Y-76670842D01*
X138229940Y-76554940D01*
X138345842Y-76410753D01*
X138428037Y-76245021D01*
X138472683Y-76065495D01*
X138475500Y-76023954D01*
X138475500Y-75076046D01*
X138472683Y-75034505D01*
X138428037Y-74854979D01*
X138428036Y-74854978D01*
X138428036Y-74854975D01*
X138428035Y-74854974D01*
X138345844Y-74689251D01*
X138345843Y-74689250D01*
X138345842Y-74689247D01*
X138229940Y-74545060D01*
X138085753Y-74429158D01*
X138085751Y-74429157D01*
X138085748Y-74429155D01*
X137920025Y-74346964D01*
X137920024Y-74346963D01*
X137812305Y-74320175D01*
X137740495Y-74302317D01*
X137740491Y-74302316D01*
X137740482Y-74302315D01*
X137698982Y-74299501D01*
X137698957Y-74299500D01*
X137698954Y-74299500D01*
X137698950Y-74299500D01*
X137694886Y-74299500D01*
X137599598Y-74280546D01*
X137576377Y-74269490D01*
X137571173Y-74266673D01*
X137564500Y-74263062D01*
X137445189Y-74222103D01*
X137344981Y-74187702D01*
X137344976Y-74187701D01*
X137337134Y-74185009D01*
X137253163Y-74136142D01*
X137194284Y-74058861D01*
X137169462Y-73964931D01*
X137182474Y-73868651D01*
X137231341Y-73784680D01*
X137308622Y-73725801D01*
X137402552Y-73700979D01*
X137417983Y-73700500D01*
X137698950Y-73700500D01*
X137698954Y-73700500D01*
X137718108Y-73699201D01*
X137740482Y-73697684D01*
X137740483Y-73697683D01*
X137740495Y-73697683D01*
X137920021Y-73653037D01*
X137920022Y-73653036D01*
X137920024Y-73653036D01*
X137920025Y-73653035D01*
X138085753Y-73570842D01*
X138167132Y-73505426D01*
X138253275Y-73460501D01*
X138323134Y-73450500D01*
X142676866Y-73450500D01*
X142772154Y-73469454D01*
X142832867Y-73505426D01*
X142914247Y-73570842D01*
X142914250Y-73570843D01*
X142914251Y-73570844D01*
X143079974Y-73653035D01*
X143079975Y-73653036D01*
X143079978Y-73653036D01*
X143079979Y-73653037D01*
X143259505Y-73697683D01*
X143259515Y-73697683D01*
X143259517Y-73697684D01*
X143294700Y-73700069D01*
X143301046Y-73700500D01*
X143301050Y-73700500D01*
X143582017Y-73700500D01*
X143677305Y-73719454D01*
X143758087Y-73773430D01*
X143812063Y-73854212D01*
X143831017Y-73949500D01*
X143812063Y-74044788D01*
X143758087Y-74125570D01*
X143677305Y-74179546D01*
X143662866Y-74185009D01*
X143655023Y-74187701D01*
X143655019Y-74187702D01*
X143571733Y-74216293D01*
X143435499Y-74263062D01*
X143426502Y-74267931D01*
X143423625Y-74269488D01*
X143330803Y-74298171D01*
X143305114Y-74299500D01*
X143301046Y-74299500D01*
X143301042Y-74299500D01*
X143301017Y-74299501D01*
X143259517Y-74302315D01*
X143259506Y-74302316D01*
X143259505Y-74302317D01*
X143223599Y-74311246D01*
X143079975Y-74346963D01*
X143079974Y-74346964D01*
X142914251Y-74429155D01*
X142914245Y-74429159D01*
X142770064Y-74545056D01*
X142770056Y-74545064D01*
X142654159Y-74689245D01*
X142654155Y-74689251D01*
X142571964Y-74854974D01*
X142571963Y-74854975D01*
X142527317Y-75034506D01*
X142527315Y-75034517D01*
X142524501Y-75076017D01*
X142524500Y-75076049D01*
X142524500Y-76023950D01*
X142524501Y-76023982D01*
X142527315Y-76065482D01*
X142527317Y-76065493D01*
X142571963Y-76245024D01*
X142571964Y-76245025D01*
X142654155Y-76410748D01*
X142654157Y-76410751D01*
X142654158Y-76410753D01*
X142770060Y-76554940D01*
X142914247Y-76670842D01*
X142914250Y-76670843D01*
X142914251Y-76670844D01*
X143079974Y-76753035D01*
X143079975Y-76753036D01*
X143079978Y-76753036D01*
X143079979Y-76753037D01*
X143259505Y-76797683D01*
X143259515Y-76797683D01*
X143259517Y-76797684D01*
X143294700Y-76800069D01*
X143301046Y-76800500D01*
X143305114Y-76800500D01*
X143400402Y-76819454D01*
X143423622Y-76830509D01*
X143435497Y-76836936D01*
X143435499Y-76836937D01*
X143476290Y-76850940D01*
X143655019Y-76912298D01*
X143883951Y-76950500D01*
X144116049Y-76950500D01*
X144344981Y-76912298D01*
X144564503Y-76836936D01*
X144576374Y-76830511D01*
X144669197Y-76801829D01*
X144694886Y-76800500D01*
X144698950Y-76800500D01*
X144698954Y-76800500D01*
X144718108Y-76799201D01*
X144740482Y-76797684D01*
X144740483Y-76797683D01*
X144740495Y-76797683D01*
X144920021Y-76753037D01*
X144920022Y-76753036D01*
X144920024Y-76753036D01*
X144920025Y-76753035D01*
X145085753Y-76670842D01*
X145229940Y-76554940D01*
X145345842Y-76410753D01*
X145428037Y-76245021D01*
X145472683Y-76065495D01*
X145475500Y-76023954D01*
X145475500Y-75076046D01*
X145472683Y-75034505D01*
X145428037Y-74854979D01*
X145428036Y-74854978D01*
X145428036Y-74854975D01*
X145428035Y-74854974D01*
X145345844Y-74689251D01*
X145345843Y-74689250D01*
X145345842Y-74689247D01*
X145229940Y-74545060D01*
X145085753Y-74429158D01*
X145085751Y-74429157D01*
X145085748Y-74429155D01*
X144920025Y-74346964D01*
X144920024Y-74346963D01*
X144812305Y-74320175D01*
X144740495Y-74302317D01*
X144740491Y-74302316D01*
X144740482Y-74302315D01*
X144698982Y-74299501D01*
X144698957Y-74299500D01*
X144698954Y-74299500D01*
X144698950Y-74299500D01*
X144694886Y-74299500D01*
X144599598Y-74280546D01*
X144576377Y-74269490D01*
X144571173Y-74266673D01*
X144564500Y-74263062D01*
X144445189Y-74222103D01*
X144344981Y-74187702D01*
X144344976Y-74187701D01*
X144337134Y-74185009D01*
X144253163Y-74136142D01*
X144194284Y-74058861D01*
X144169462Y-73964931D01*
X144182474Y-73868651D01*
X144231341Y-73784680D01*
X144308622Y-73725801D01*
X144402552Y-73700979D01*
X144417983Y-73700500D01*
X144698950Y-73700500D01*
X144698954Y-73700500D01*
X144718108Y-73699201D01*
X144740482Y-73697684D01*
X144740483Y-73697683D01*
X144740495Y-73697683D01*
X144920021Y-73653037D01*
X144920022Y-73653036D01*
X144920024Y-73653036D01*
X144920025Y-73653035D01*
X145085753Y-73570842D01*
X145229940Y-73454940D01*
X145345842Y-73310753D01*
X145428037Y-73145021D01*
X145472683Y-72965495D01*
X145475500Y-72923954D01*
X145475500Y-71976046D01*
X145472683Y-71934505D01*
X145428037Y-71754979D01*
X145428036Y-71754978D01*
X145428036Y-71754975D01*
X145428035Y-71754974D01*
X145345844Y-71589251D01*
X145345843Y-71589250D01*
X145345842Y-71589247D01*
X145229940Y-71445060D01*
X145085753Y-71329158D01*
X145085751Y-71329157D01*
X145085748Y-71329155D01*
X144920025Y-71246964D01*
X144920024Y-71246963D01*
X144812305Y-71220175D01*
X144740495Y-71202317D01*
X144740491Y-71202316D01*
X144740482Y-71202315D01*
X144698982Y-71199501D01*
X144698957Y-71199500D01*
X144698954Y-71199500D01*
X143301046Y-71199500D01*
X143301042Y-71199500D01*
X143301017Y-71199501D01*
X143259517Y-71202315D01*
X143259506Y-71202316D01*
X143259505Y-71202317D01*
X143223599Y-71211246D01*
X143079975Y-71246963D01*
X143079974Y-71246964D01*
X142914251Y-71329155D01*
X142914245Y-71329159D01*
X142832868Y-71394573D01*
X142746725Y-71439499D01*
X142676866Y-71449500D01*
X138323134Y-71449500D01*
X138227846Y-71430546D01*
X138167132Y-71394573D01*
X138085753Y-71329158D01*
X138085751Y-71329157D01*
X138085748Y-71329155D01*
X137920025Y-71246964D01*
X137920024Y-71246963D01*
X137812305Y-71220175D01*
X137740495Y-71202317D01*
X137740491Y-71202316D01*
X137740482Y-71202315D01*
X137698982Y-71199501D01*
X137698957Y-71199500D01*
X137698954Y-71199500D01*
X136301046Y-71199500D01*
X136301042Y-71199500D01*
X136301017Y-71199501D01*
X136259517Y-71202315D01*
X136259506Y-71202316D01*
X136259505Y-71202317D01*
X136223599Y-71211246D01*
X136079975Y-71246963D01*
X136079974Y-71246964D01*
X135914251Y-71329155D01*
X135914245Y-71329159D01*
X135832868Y-71394573D01*
X135746725Y-71439499D01*
X135676866Y-71449500D01*
X131323134Y-71449500D01*
X131227846Y-71430546D01*
X131167132Y-71394573D01*
X131085753Y-71329158D01*
X131085751Y-71329157D01*
X131085748Y-71329155D01*
X130920025Y-71246964D01*
X130920024Y-71246963D01*
X130812305Y-71220175D01*
X130740495Y-71202317D01*
X130740491Y-71202316D01*
X130740482Y-71202315D01*
X130698982Y-71199501D01*
X130698957Y-71199500D01*
X130698954Y-71199500D01*
X129301046Y-71199500D01*
X129301042Y-71199500D01*
X129301017Y-71199501D01*
X129259517Y-71202315D01*
X129259506Y-71202316D01*
X129259505Y-71202317D01*
X129223599Y-71211246D01*
X129079975Y-71246963D01*
X129079974Y-71246964D01*
X128914251Y-71329155D01*
X128914245Y-71329159D01*
X128832868Y-71394573D01*
X128746725Y-71439499D01*
X128676866Y-71449500D01*
X125967561Y-71449500D01*
X125872273Y-71430546D01*
X125791491Y-71376570D01*
X120073430Y-65658509D01*
X120019454Y-65577727D01*
X120000500Y-65482439D01*
X120000500Y-44267558D01*
X120019454Y-44172270D01*
X120073426Y-44091493D01*
X120074435Y-44090484D01*
X120155212Y-44036512D01*
X120250500Y-44017558D01*
X120345788Y-44036512D01*
X120426570Y-44090488D01*
X120480546Y-44171270D01*
X120499500Y-44266558D01*
X120499500Y-57598545D01*
X120537947Y-57791830D01*
X120537949Y-57791835D01*
X120613365Y-57973908D01*
X120613366Y-57973911D01*
X120613368Y-57973914D01*
X120722861Y-58137782D01*
X120862218Y-58277139D01*
X120862221Y-58277141D01*
X125672858Y-63087778D01*
X125672861Y-63087782D01*
X125812218Y-63227139D01*
X125976086Y-63336632D01*
X126104834Y-63389961D01*
X126158164Y-63412051D01*
X126254812Y-63431275D01*
X126351459Y-63450500D01*
X126351460Y-63450500D01*
X126548540Y-63450500D01*
X128676866Y-63450500D01*
X128772154Y-63469454D01*
X128832867Y-63505426D01*
X128914247Y-63570842D01*
X128914250Y-63570843D01*
X128914251Y-63570844D01*
X129079974Y-63653035D01*
X129079975Y-63653036D01*
X129079978Y-63653036D01*
X129079979Y-63653037D01*
X129259505Y-63697683D01*
X129259515Y-63697683D01*
X129259517Y-63697684D01*
X129294700Y-63700069D01*
X129301046Y-63700500D01*
X129301050Y-63700500D01*
X129582017Y-63700500D01*
X129677305Y-63719454D01*
X129758087Y-63773430D01*
X129812063Y-63854212D01*
X129831017Y-63949500D01*
X129812063Y-64044788D01*
X129758087Y-64125570D01*
X129677305Y-64179546D01*
X129662866Y-64185009D01*
X129655023Y-64187701D01*
X129655019Y-64187702D01*
X129571733Y-64216293D01*
X129435499Y-64263062D01*
X129426502Y-64267931D01*
X129423625Y-64269488D01*
X129330803Y-64298171D01*
X129305114Y-64299500D01*
X129301046Y-64299500D01*
X129301042Y-64299500D01*
X129301017Y-64299501D01*
X129259517Y-64302315D01*
X129259506Y-64302316D01*
X129259505Y-64302317D01*
X129223599Y-64311246D01*
X129079975Y-64346963D01*
X129079974Y-64346964D01*
X128914251Y-64429155D01*
X128914245Y-64429159D01*
X128770064Y-64545056D01*
X128770056Y-64545064D01*
X128654159Y-64689245D01*
X128654155Y-64689251D01*
X128571964Y-64854974D01*
X128571963Y-64854975D01*
X128527317Y-65034506D01*
X128527315Y-65034517D01*
X128524501Y-65076017D01*
X128524500Y-65076049D01*
X128524500Y-66023950D01*
X128524501Y-66023982D01*
X128527315Y-66065482D01*
X128527317Y-66065493D01*
X128571963Y-66245024D01*
X128571964Y-66245025D01*
X128654155Y-66410748D01*
X128654157Y-66410751D01*
X128654158Y-66410753D01*
X128770060Y-66554940D01*
X128914247Y-66670842D01*
X128914250Y-66670843D01*
X128914251Y-66670844D01*
X129079974Y-66753035D01*
X129079975Y-66753036D01*
X129079978Y-66753036D01*
X129079979Y-66753037D01*
X129259505Y-66797683D01*
X129259515Y-66797683D01*
X129259517Y-66797684D01*
X129294700Y-66800069D01*
X129301046Y-66800500D01*
X129305114Y-66800500D01*
X129400402Y-66819454D01*
X129423622Y-66830509D01*
X129435497Y-66836936D01*
X129435499Y-66836937D01*
X129476290Y-66850940D01*
X129655019Y-66912298D01*
X129883951Y-66950500D01*
X130116049Y-66950500D01*
X130344981Y-66912298D01*
X130564503Y-66836936D01*
X130576374Y-66830511D01*
X130669197Y-66801829D01*
X130694886Y-66800500D01*
X130698950Y-66800500D01*
X130698954Y-66800500D01*
X130718108Y-66799201D01*
X130740482Y-66797684D01*
X130740483Y-66797683D01*
X130740495Y-66797683D01*
X130920021Y-66753037D01*
X130920022Y-66753036D01*
X130920024Y-66753036D01*
X130920025Y-66753035D01*
X131085753Y-66670842D01*
X131229940Y-66554940D01*
X131345842Y-66410753D01*
X131428037Y-66245021D01*
X131472683Y-66065495D01*
X131475500Y-66023954D01*
X131475500Y-65076046D01*
X131472683Y-65034505D01*
X131428037Y-64854979D01*
X131428036Y-64854978D01*
X131428036Y-64854975D01*
X131428035Y-64854974D01*
X131345844Y-64689251D01*
X131345843Y-64689250D01*
X131345842Y-64689247D01*
X131229940Y-64545060D01*
X131085753Y-64429158D01*
X131085751Y-64429157D01*
X131085748Y-64429155D01*
X130920025Y-64346964D01*
X130920024Y-64346963D01*
X130812305Y-64320175D01*
X130740495Y-64302317D01*
X130740491Y-64302316D01*
X130740482Y-64302315D01*
X130698982Y-64299501D01*
X130698957Y-64299500D01*
X130698954Y-64299500D01*
X130698950Y-64299500D01*
X130694886Y-64299500D01*
X130599598Y-64280546D01*
X130576377Y-64269490D01*
X130571173Y-64266673D01*
X130564500Y-64263062D01*
X130445189Y-64222103D01*
X130344981Y-64187702D01*
X130344976Y-64187701D01*
X130337134Y-64185009D01*
X130253163Y-64136142D01*
X130194284Y-64058861D01*
X130169462Y-63964931D01*
X130182474Y-63868651D01*
X130231341Y-63784680D01*
X130308622Y-63725801D01*
X130402552Y-63700979D01*
X130417983Y-63700500D01*
X130698950Y-63700500D01*
X130698954Y-63700500D01*
X130718108Y-63699201D01*
X130740482Y-63697684D01*
X130740483Y-63697683D01*
X130740495Y-63697683D01*
X130920021Y-63653037D01*
X130920022Y-63653036D01*
X130920024Y-63653036D01*
X130920025Y-63653035D01*
X131085753Y-63570842D01*
X131167132Y-63505426D01*
X131253275Y-63460501D01*
X131323134Y-63450500D01*
X135676866Y-63450500D01*
X135772154Y-63469454D01*
X135832867Y-63505426D01*
X135914247Y-63570842D01*
X135914250Y-63570843D01*
X135914251Y-63570844D01*
X136079974Y-63653035D01*
X136079975Y-63653036D01*
X136079978Y-63653036D01*
X136079979Y-63653037D01*
X136259505Y-63697683D01*
X136259515Y-63697683D01*
X136259517Y-63697684D01*
X136294700Y-63700069D01*
X136301046Y-63700500D01*
X136301050Y-63700500D01*
X136582017Y-63700500D01*
X136677305Y-63719454D01*
X136758087Y-63773430D01*
X136812063Y-63854212D01*
X136831017Y-63949500D01*
X136812063Y-64044788D01*
X136758087Y-64125570D01*
X136677305Y-64179546D01*
X136662866Y-64185009D01*
X136655023Y-64187701D01*
X136655019Y-64187702D01*
X136571733Y-64216293D01*
X136435499Y-64263062D01*
X136426502Y-64267931D01*
X136423625Y-64269488D01*
X136330803Y-64298171D01*
X136305114Y-64299500D01*
X136301046Y-64299500D01*
X136301042Y-64299500D01*
X136301017Y-64299501D01*
X136259517Y-64302315D01*
X136259506Y-64302316D01*
X136259505Y-64302317D01*
X136223599Y-64311246D01*
X136079975Y-64346963D01*
X136079974Y-64346964D01*
X135914251Y-64429155D01*
X135914245Y-64429159D01*
X135770064Y-64545056D01*
X135770056Y-64545064D01*
X135654159Y-64689245D01*
X135654155Y-64689251D01*
X135571964Y-64854974D01*
X135571963Y-64854975D01*
X135527317Y-65034506D01*
X135527315Y-65034517D01*
X135524501Y-65076017D01*
X135524500Y-65076049D01*
X135524500Y-66023950D01*
X135524501Y-66023982D01*
X135527315Y-66065482D01*
X135527317Y-66065493D01*
X135571963Y-66245024D01*
X135571964Y-66245025D01*
X135654155Y-66410748D01*
X135654157Y-66410751D01*
X135654158Y-66410753D01*
X135770060Y-66554940D01*
X135914247Y-66670842D01*
X135914250Y-66670843D01*
X135914251Y-66670844D01*
X136079974Y-66753035D01*
X136079975Y-66753036D01*
X136079978Y-66753036D01*
X136079979Y-66753037D01*
X136259505Y-66797683D01*
X136259515Y-66797683D01*
X136259517Y-66797684D01*
X136294700Y-66800069D01*
X136301046Y-66800500D01*
X136305114Y-66800500D01*
X136400402Y-66819454D01*
X136423622Y-66830509D01*
X136435497Y-66836936D01*
X136435499Y-66836937D01*
X136476290Y-66850940D01*
X136655019Y-66912298D01*
X136883951Y-66950500D01*
X137116049Y-66950500D01*
X137344981Y-66912298D01*
X137564503Y-66836936D01*
X137576374Y-66830511D01*
X137669197Y-66801829D01*
X137694886Y-66800500D01*
X137698950Y-66800500D01*
X137698954Y-66800500D01*
X137718108Y-66799201D01*
X137740482Y-66797684D01*
X137740483Y-66797683D01*
X137740495Y-66797683D01*
X137920021Y-66753037D01*
X137920022Y-66753036D01*
X137920024Y-66753036D01*
X137920025Y-66753035D01*
X138085753Y-66670842D01*
X138229940Y-66554940D01*
X138345842Y-66410753D01*
X138428037Y-66245021D01*
X138472683Y-66065495D01*
X138475500Y-66023954D01*
X138475500Y-65076046D01*
X138472683Y-65034505D01*
X138428037Y-64854979D01*
X138428036Y-64854978D01*
X138428036Y-64854975D01*
X138428035Y-64854974D01*
X138345844Y-64689251D01*
X138345843Y-64689250D01*
X138345842Y-64689247D01*
X138229940Y-64545060D01*
X138085753Y-64429158D01*
X138085751Y-64429157D01*
X138085748Y-64429155D01*
X137920025Y-64346964D01*
X137920024Y-64346963D01*
X137812305Y-64320175D01*
X137740495Y-64302317D01*
X137740491Y-64302316D01*
X137740482Y-64302315D01*
X137698982Y-64299501D01*
X137698957Y-64299500D01*
X137698954Y-64299500D01*
X137698950Y-64299500D01*
X137694886Y-64299500D01*
X137599598Y-64280546D01*
X137576377Y-64269490D01*
X137571173Y-64266673D01*
X137564500Y-64263062D01*
X137445189Y-64222103D01*
X137344981Y-64187702D01*
X137344976Y-64187701D01*
X137337134Y-64185009D01*
X137253163Y-64136142D01*
X137194284Y-64058861D01*
X137169462Y-63964931D01*
X137182474Y-63868651D01*
X137231341Y-63784680D01*
X137308622Y-63725801D01*
X137402552Y-63700979D01*
X137417983Y-63700500D01*
X137698950Y-63700500D01*
X137698954Y-63700500D01*
X137718108Y-63699201D01*
X137740482Y-63697684D01*
X137740483Y-63697683D01*
X137740495Y-63697683D01*
X137920021Y-63653037D01*
X137920022Y-63653036D01*
X137920024Y-63653036D01*
X137920025Y-63653035D01*
X138085753Y-63570842D01*
X138167132Y-63505426D01*
X138253275Y-63460501D01*
X138323134Y-63450500D01*
X142676866Y-63450500D01*
X142772154Y-63469454D01*
X142832867Y-63505426D01*
X142914247Y-63570842D01*
X142914250Y-63570843D01*
X142914251Y-63570844D01*
X143079974Y-63653035D01*
X143079975Y-63653036D01*
X143079978Y-63653036D01*
X143079979Y-63653037D01*
X143259505Y-63697683D01*
X143259515Y-63697683D01*
X143259517Y-63697684D01*
X143294700Y-63700069D01*
X143301046Y-63700500D01*
X143301050Y-63700500D01*
X143582017Y-63700500D01*
X143677305Y-63719454D01*
X143758087Y-63773430D01*
X143812063Y-63854212D01*
X143831017Y-63949500D01*
X143812063Y-64044788D01*
X143758087Y-64125570D01*
X143677305Y-64179546D01*
X143662866Y-64185009D01*
X143655023Y-64187701D01*
X143655019Y-64187702D01*
X143571733Y-64216293D01*
X143435499Y-64263062D01*
X143426502Y-64267931D01*
X143423625Y-64269488D01*
X143330803Y-64298171D01*
X143305114Y-64299500D01*
X143301046Y-64299500D01*
X143301042Y-64299500D01*
X143301017Y-64299501D01*
X143259517Y-64302315D01*
X143259506Y-64302316D01*
X143259505Y-64302317D01*
X143223599Y-64311246D01*
X143079975Y-64346963D01*
X143079974Y-64346964D01*
X142914251Y-64429155D01*
X142914245Y-64429159D01*
X142770064Y-64545056D01*
X142770056Y-64545064D01*
X142654159Y-64689245D01*
X142654155Y-64689251D01*
X142571964Y-64854974D01*
X142571963Y-64854975D01*
X142527317Y-65034506D01*
X142527315Y-65034517D01*
X142524501Y-65076017D01*
X142524500Y-65076049D01*
X142524500Y-66023950D01*
X142524501Y-66023982D01*
X142527315Y-66065482D01*
X142527317Y-66065493D01*
X142571963Y-66245024D01*
X142571964Y-66245025D01*
X142654155Y-66410748D01*
X142654157Y-66410751D01*
X142654158Y-66410753D01*
X142770060Y-66554940D01*
X142914247Y-66670842D01*
X142914250Y-66670843D01*
X142914251Y-66670844D01*
X143079974Y-66753035D01*
X143079975Y-66753036D01*
X143079978Y-66753036D01*
X143079979Y-66753037D01*
X143259505Y-66797683D01*
X143259515Y-66797683D01*
X143259517Y-66797684D01*
X143294700Y-66800069D01*
X143301046Y-66800500D01*
X143305114Y-66800500D01*
X143400402Y-66819454D01*
X143423622Y-66830509D01*
X143435497Y-66836936D01*
X143435499Y-66836937D01*
X143476290Y-66850940D01*
X143655019Y-66912298D01*
X143883951Y-66950500D01*
X144116049Y-66950500D01*
X144344981Y-66912298D01*
X144564503Y-66836936D01*
X144576374Y-66830511D01*
X144669197Y-66801829D01*
X144694886Y-66800500D01*
X144698950Y-66800500D01*
X144698954Y-66800500D01*
X144718108Y-66799201D01*
X144740482Y-66797684D01*
X144740483Y-66797683D01*
X144740495Y-66797683D01*
X144920021Y-66753037D01*
X144920022Y-66753036D01*
X144920024Y-66753036D01*
X144920025Y-66753035D01*
X145085753Y-66670842D01*
X145229940Y-66554940D01*
X145345842Y-66410753D01*
X145428037Y-66245021D01*
X145472683Y-66065495D01*
X145475500Y-66023954D01*
X145475500Y-65076046D01*
X145472683Y-65034505D01*
X145428037Y-64854979D01*
X145428036Y-64854978D01*
X145428036Y-64854975D01*
X145428035Y-64854974D01*
X145345844Y-64689251D01*
X145345843Y-64689250D01*
X145345842Y-64689247D01*
X145229940Y-64545060D01*
X145085753Y-64429158D01*
X145085751Y-64429157D01*
X145085748Y-64429155D01*
X144920025Y-64346964D01*
X144920024Y-64346963D01*
X144812305Y-64320175D01*
X144740495Y-64302317D01*
X144740491Y-64302316D01*
X144740482Y-64302315D01*
X144698982Y-64299501D01*
X144698957Y-64299500D01*
X144698954Y-64299500D01*
X144698950Y-64299500D01*
X144694886Y-64299500D01*
X144599598Y-64280546D01*
X144576377Y-64269490D01*
X144571173Y-64266673D01*
X144564500Y-64263062D01*
X144445189Y-64222103D01*
X144344981Y-64187702D01*
X144344976Y-64187701D01*
X144337134Y-64185009D01*
X144253163Y-64136142D01*
X144194284Y-64058861D01*
X144169462Y-63964931D01*
X144182474Y-63868651D01*
X144231341Y-63784680D01*
X144308622Y-63725801D01*
X144402552Y-63700979D01*
X144417983Y-63700500D01*
X144698950Y-63700500D01*
X144698954Y-63700500D01*
X144718108Y-63699201D01*
X144740482Y-63697684D01*
X144740483Y-63697683D01*
X144740495Y-63697683D01*
X144920021Y-63653037D01*
X144920022Y-63653036D01*
X144920024Y-63653036D01*
X144920025Y-63653035D01*
X145085753Y-63570842D01*
X145229940Y-63454940D01*
X145345842Y-63310753D01*
X145428037Y-63145021D01*
X145472683Y-62965495D01*
X145475500Y-62923954D01*
X145475500Y-61976046D01*
X145472683Y-61934505D01*
X145428037Y-61754979D01*
X145428036Y-61754978D01*
X145428036Y-61754975D01*
X145428035Y-61754974D01*
X145345844Y-61589251D01*
X145345843Y-61589250D01*
X145345842Y-61589247D01*
X145229940Y-61445060D01*
X145085753Y-61329158D01*
X145085751Y-61329157D01*
X145085748Y-61329155D01*
X144920025Y-61246964D01*
X144920024Y-61246963D01*
X144812305Y-61220175D01*
X144740495Y-61202317D01*
X144740491Y-61202316D01*
X144740482Y-61202315D01*
X144698982Y-61199501D01*
X144698957Y-61199500D01*
X144698954Y-61199500D01*
X143301046Y-61199500D01*
X143301042Y-61199500D01*
X143301017Y-61199501D01*
X143259517Y-61202315D01*
X143259506Y-61202316D01*
X143259505Y-61202317D01*
X143223599Y-61211246D01*
X143079975Y-61246963D01*
X143079974Y-61246964D01*
X142914251Y-61329155D01*
X142914245Y-61329159D01*
X142832868Y-61394573D01*
X142746725Y-61439499D01*
X142676866Y-61449500D01*
X138323134Y-61449500D01*
X138227846Y-61430546D01*
X138167132Y-61394573D01*
X138085753Y-61329158D01*
X138085751Y-61329157D01*
X138085748Y-61329155D01*
X137920025Y-61246964D01*
X137920024Y-61246963D01*
X137812305Y-61220175D01*
X137740495Y-61202317D01*
X137740491Y-61202316D01*
X137740482Y-61202315D01*
X137698982Y-61199501D01*
X137698957Y-61199500D01*
X137698954Y-61199500D01*
X136301046Y-61199500D01*
X136301042Y-61199500D01*
X136301017Y-61199501D01*
X136259517Y-61202315D01*
X136259506Y-61202316D01*
X136259505Y-61202317D01*
X136223599Y-61211246D01*
X136079975Y-61246963D01*
X136079974Y-61246964D01*
X135914251Y-61329155D01*
X135914245Y-61329159D01*
X135832868Y-61394573D01*
X135746725Y-61439499D01*
X135676866Y-61449500D01*
X131323134Y-61449500D01*
X131227846Y-61430546D01*
X131167132Y-61394573D01*
X131085753Y-61329158D01*
X131085751Y-61329157D01*
X131085748Y-61329155D01*
X130920025Y-61246964D01*
X130920024Y-61246963D01*
X130812305Y-61220175D01*
X130740495Y-61202317D01*
X130740491Y-61202316D01*
X130740482Y-61202315D01*
X130698982Y-61199501D01*
X130698957Y-61199500D01*
X130698954Y-61199500D01*
X129301046Y-61199500D01*
X129301042Y-61199500D01*
X129301017Y-61199501D01*
X129259517Y-61202315D01*
X129259506Y-61202316D01*
X129259505Y-61202317D01*
X129223599Y-61211246D01*
X129079975Y-61246963D01*
X129079974Y-61246964D01*
X128914251Y-61329155D01*
X128914245Y-61329159D01*
X128832868Y-61394573D01*
X128746725Y-61439499D01*
X128676866Y-61449500D01*
X126967560Y-61449500D01*
X126872272Y-61430546D01*
X126791490Y-61376570D01*
X122573430Y-57158510D01*
X122519454Y-57077728D01*
X122500500Y-56982440D01*
X122500500Y-44392560D01*
X122519454Y-44297272D01*
X122573430Y-44216490D01*
X123666491Y-43123430D01*
X123747273Y-43069454D01*
X123842561Y-43050500D01*
X124322347Y-43050500D01*
X124417635Y-43069454D01*
X124498417Y-43123430D01*
X124552393Y-43204212D01*
X124571347Y-43299500D01*
X124552393Y-43394788D01*
X124548018Y-43404732D01*
X124486566Y-43536514D01*
X124486566Y-43536516D01*
X124429363Y-43749998D01*
X124429364Y-43750000D01*
X125326988Y-43750000D01*
X125294075Y-43807007D01*
X125260000Y-43934174D01*
X125260000Y-44065826D01*
X125294075Y-44192993D01*
X125326988Y-44250000D01*
X124429364Y-44250000D01*
X124429363Y-44250001D01*
X124486566Y-44463483D01*
X124486566Y-44463485D01*
X124586399Y-44677576D01*
X124721889Y-44871076D01*
X124888923Y-45038110D01*
X125082423Y-45173600D01*
X125296511Y-45273431D01*
X125510000Y-45330635D01*
X125510000Y-44433012D01*
X125567007Y-44465925D01*
X125694174Y-44500000D01*
X125825826Y-44500000D01*
X125952993Y-44465925D01*
X126010000Y-44433012D01*
X126010000Y-45330635D01*
X126223488Y-45273431D01*
X126437576Y-45173600D01*
X126631079Y-45038107D01*
X126787601Y-44881586D01*
X126868382Y-44827609D01*
X126963670Y-44808655D01*
X127058958Y-44827609D01*
X127139740Y-44881585D01*
X127146866Y-44889011D01*
X127151426Y-44893964D01*
X127151429Y-44893969D01*
X127233698Y-44983337D01*
X127284287Y-45066275D01*
X127299500Y-45151976D01*
X127299500Y-50848545D01*
X127337947Y-51041830D01*
X127337949Y-51041835D01*
X127413365Y-51223908D01*
X127413366Y-51223911D01*
X127413368Y-51223914D01*
X127522861Y-51387782D01*
X127662218Y-51527139D01*
X127662221Y-51527141D01*
X128451570Y-52316490D01*
X128505546Y-52397272D01*
X128524500Y-52492560D01*
X128524500Y-52923950D01*
X128524501Y-52923982D01*
X128527315Y-52965482D01*
X128527317Y-52965493D01*
X128571963Y-53145024D01*
X128571964Y-53145025D01*
X128654155Y-53310748D01*
X128654157Y-53310751D01*
X128654158Y-53310753D01*
X128770060Y-53454940D01*
X128914247Y-53570842D01*
X128914250Y-53570843D01*
X128914251Y-53570844D01*
X129079974Y-53653035D01*
X129079975Y-53653036D01*
X129079978Y-53653036D01*
X129079979Y-53653037D01*
X129259505Y-53697683D01*
X129259515Y-53697683D01*
X129259517Y-53697684D01*
X129294700Y-53700069D01*
X129301046Y-53700500D01*
X129301050Y-53700500D01*
X129582017Y-53700500D01*
X129677305Y-53719454D01*
X129758087Y-53773430D01*
X129812063Y-53854212D01*
X129831017Y-53949500D01*
X129812063Y-54044788D01*
X129758087Y-54125570D01*
X129677305Y-54179546D01*
X129662866Y-54185009D01*
X129655023Y-54187701D01*
X129655019Y-54187702D01*
X129571733Y-54216293D01*
X129435499Y-54263062D01*
X129426502Y-54267931D01*
X129423625Y-54269488D01*
X129330803Y-54298171D01*
X129305114Y-54299500D01*
X129301046Y-54299500D01*
X129301042Y-54299500D01*
X129301017Y-54299501D01*
X129259517Y-54302315D01*
X129259506Y-54302316D01*
X129259505Y-54302317D01*
X129223599Y-54311246D01*
X129079975Y-54346963D01*
X129079974Y-54346964D01*
X128914251Y-54429155D01*
X128914245Y-54429159D01*
X128770064Y-54545056D01*
X128770056Y-54545064D01*
X128654159Y-54689245D01*
X128654155Y-54689251D01*
X128571964Y-54854974D01*
X128571963Y-54854975D01*
X128527317Y-55034506D01*
X128527315Y-55034517D01*
X128524501Y-55076017D01*
X128524500Y-55076049D01*
X128524500Y-56023950D01*
X128524501Y-56023982D01*
X128527315Y-56065482D01*
X128527317Y-56065493D01*
X128571963Y-56245024D01*
X128571964Y-56245025D01*
X128654155Y-56410748D01*
X128654157Y-56410751D01*
X128654158Y-56410753D01*
X128770060Y-56554940D01*
X128914247Y-56670842D01*
X128914250Y-56670843D01*
X128914251Y-56670844D01*
X129079974Y-56753035D01*
X129079975Y-56753036D01*
X129079978Y-56753036D01*
X129079979Y-56753037D01*
X129259505Y-56797683D01*
X129259515Y-56797683D01*
X129259517Y-56797684D01*
X129294700Y-56800069D01*
X129301046Y-56800500D01*
X129305114Y-56800500D01*
X129400402Y-56819454D01*
X129423622Y-56830509D01*
X129435497Y-56836936D01*
X129435499Y-56836937D01*
X129476290Y-56850940D01*
X129655019Y-56912298D01*
X129883951Y-56950500D01*
X130116049Y-56950500D01*
X130344981Y-56912298D01*
X130564503Y-56836936D01*
X130576374Y-56830511D01*
X130669197Y-56801829D01*
X130694886Y-56800500D01*
X130698950Y-56800500D01*
X130698954Y-56800500D01*
X130718108Y-56799201D01*
X130740482Y-56797684D01*
X130740483Y-56797683D01*
X130740495Y-56797683D01*
X130920021Y-56753037D01*
X130920022Y-56753036D01*
X130920024Y-56753036D01*
X130920025Y-56753035D01*
X131085753Y-56670842D01*
X131229940Y-56554940D01*
X131345842Y-56410753D01*
X131428037Y-56245021D01*
X131472683Y-56065495D01*
X131475500Y-56023954D01*
X131475500Y-55076046D01*
X131472683Y-55034505D01*
X131428037Y-54854979D01*
X131428036Y-54854978D01*
X131428036Y-54854975D01*
X131428035Y-54854974D01*
X131345844Y-54689251D01*
X131345843Y-54689250D01*
X131345842Y-54689247D01*
X131229940Y-54545060D01*
X131085753Y-54429158D01*
X131085751Y-54429157D01*
X131085748Y-54429155D01*
X130920025Y-54346964D01*
X130920024Y-54346963D01*
X130812305Y-54320175D01*
X130740495Y-54302317D01*
X130740491Y-54302316D01*
X130740482Y-54302315D01*
X130698982Y-54299501D01*
X130698957Y-54299500D01*
X130698954Y-54299500D01*
X130698950Y-54299500D01*
X130694886Y-54299500D01*
X130599598Y-54280546D01*
X130576377Y-54269490D01*
X130571173Y-54266673D01*
X130564500Y-54263062D01*
X130445189Y-54222103D01*
X130344981Y-54187702D01*
X130344976Y-54187701D01*
X130337134Y-54185009D01*
X130253163Y-54136142D01*
X130194284Y-54058861D01*
X130169462Y-53964931D01*
X130182474Y-53868651D01*
X130231341Y-53784680D01*
X130308622Y-53725801D01*
X130402552Y-53700979D01*
X130417983Y-53700500D01*
X130698950Y-53700500D01*
X130698954Y-53700500D01*
X130718108Y-53699201D01*
X130740482Y-53697684D01*
X130740483Y-53697683D01*
X130740495Y-53697683D01*
X130920021Y-53653037D01*
X130920022Y-53653036D01*
X130920024Y-53653036D01*
X130920025Y-53653035D01*
X131085753Y-53570842D01*
X131167132Y-53505426D01*
X131253275Y-53460501D01*
X131323134Y-53450500D01*
X135676866Y-53450500D01*
X135772154Y-53469454D01*
X135832867Y-53505426D01*
X135914247Y-53570842D01*
X135914250Y-53570843D01*
X135914251Y-53570844D01*
X136079974Y-53653035D01*
X136079975Y-53653036D01*
X136079978Y-53653036D01*
X136079979Y-53653037D01*
X136259505Y-53697683D01*
X136259515Y-53697683D01*
X136259517Y-53697684D01*
X136294700Y-53700069D01*
X136301046Y-53700500D01*
X136301050Y-53700500D01*
X136582017Y-53700500D01*
X136677305Y-53719454D01*
X136758087Y-53773430D01*
X136812063Y-53854212D01*
X136831017Y-53949500D01*
X136812063Y-54044788D01*
X136758087Y-54125570D01*
X136677305Y-54179546D01*
X136662866Y-54185009D01*
X136655023Y-54187701D01*
X136655019Y-54187702D01*
X136571733Y-54216293D01*
X136435499Y-54263062D01*
X136426502Y-54267931D01*
X136423625Y-54269488D01*
X136330803Y-54298171D01*
X136305114Y-54299500D01*
X136301046Y-54299500D01*
X136301042Y-54299500D01*
X136301017Y-54299501D01*
X136259517Y-54302315D01*
X136259506Y-54302316D01*
X136259505Y-54302317D01*
X136223599Y-54311246D01*
X136079975Y-54346963D01*
X136079974Y-54346964D01*
X135914251Y-54429155D01*
X135914245Y-54429159D01*
X135770064Y-54545056D01*
X135770056Y-54545064D01*
X135654159Y-54689245D01*
X135654155Y-54689251D01*
X135571964Y-54854974D01*
X135571963Y-54854975D01*
X135527317Y-55034506D01*
X135527315Y-55034517D01*
X135524501Y-55076017D01*
X135524500Y-55076049D01*
X135524500Y-56023950D01*
X135524501Y-56023982D01*
X135527315Y-56065482D01*
X135527317Y-56065493D01*
X135571963Y-56245024D01*
X135571964Y-56245025D01*
X135654155Y-56410748D01*
X135654157Y-56410751D01*
X135654158Y-56410753D01*
X135770060Y-56554940D01*
X135914247Y-56670842D01*
X135914250Y-56670843D01*
X135914251Y-56670844D01*
X136079974Y-56753035D01*
X136079975Y-56753036D01*
X136079978Y-56753036D01*
X136079979Y-56753037D01*
X136259505Y-56797683D01*
X136259515Y-56797683D01*
X136259517Y-56797684D01*
X136294700Y-56800069D01*
X136301046Y-56800500D01*
X136305114Y-56800500D01*
X136400402Y-56819454D01*
X136423622Y-56830509D01*
X136435497Y-56836936D01*
X136435499Y-56836937D01*
X136476290Y-56850940D01*
X136655019Y-56912298D01*
X136883951Y-56950500D01*
X137116049Y-56950500D01*
X137344981Y-56912298D01*
X137564503Y-56836936D01*
X137576374Y-56830511D01*
X137669197Y-56801829D01*
X137694886Y-56800500D01*
X137698950Y-56800500D01*
X137698954Y-56800500D01*
X137718108Y-56799201D01*
X137740482Y-56797684D01*
X137740483Y-56797683D01*
X137740495Y-56797683D01*
X137920021Y-56753037D01*
X137920022Y-56753036D01*
X137920024Y-56753036D01*
X137920025Y-56753035D01*
X138085753Y-56670842D01*
X138229940Y-56554940D01*
X138345842Y-56410753D01*
X138428037Y-56245021D01*
X138472683Y-56065495D01*
X138475500Y-56023954D01*
X138475500Y-55076046D01*
X138472683Y-55034505D01*
X138428037Y-54854979D01*
X138428036Y-54854978D01*
X138428036Y-54854975D01*
X138428035Y-54854974D01*
X138345844Y-54689251D01*
X138345843Y-54689250D01*
X138345842Y-54689247D01*
X138229940Y-54545060D01*
X138085753Y-54429158D01*
X138085751Y-54429157D01*
X138085748Y-54429155D01*
X137920025Y-54346964D01*
X137920024Y-54346963D01*
X137812305Y-54320175D01*
X137740495Y-54302317D01*
X137740491Y-54302316D01*
X137740482Y-54302315D01*
X137698982Y-54299501D01*
X137698957Y-54299500D01*
X137698954Y-54299500D01*
X137698950Y-54299500D01*
X137694886Y-54299500D01*
X137599598Y-54280546D01*
X137576377Y-54269490D01*
X137571173Y-54266673D01*
X137564500Y-54263062D01*
X137445189Y-54222103D01*
X137344981Y-54187702D01*
X137344976Y-54187701D01*
X137337134Y-54185009D01*
X137253163Y-54136142D01*
X137194284Y-54058861D01*
X137169462Y-53964931D01*
X137182474Y-53868651D01*
X137231341Y-53784680D01*
X137308622Y-53725801D01*
X137402552Y-53700979D01*
X137417983Y-53700500D01*
X137698950Y-53700500D01*
X137698954Y-53700500D01*
X137718108Y-53699201D01*
X137740482Y-53697684D01*
X137740483Y-53697683D01*
X137740495Y-53697683D01*
X137920021Y-53653037D01*
X137920022Y-53653036D01*
X137920024Y-53653036D01*
X137920025Y-53653035D01*
X138085753Y-53570842D01*
X138167132Y-53505426D01*
X138253275Y-53460501D01*
X138323134Y-53450500D01*
X142676866Y-53450500D01*
X142772154Y-53469454D01*
X142832867Y-53505426D01*
X142914247Y-53570842D01*
X142914250Y-53570843D01*
X142914251Y-53570844D01*
X143079974Y-53653035D01*
X143079975Y-53653036D01*
X143079978Y-53653036D01*
X143079979Y-53653037D01*
X143259505Y-53697683D01*
X143259515Y-53697683D01*
X143259517Y-53697684D01*
X143294700Y-53700069D01*
X143301046Y-53700500D01*
X143301050Y-53700500D01*
X143582017Y-53700500D01*
X143677305Y-53719454D01*
X143758087Y-53773430D01*
X143812063Y-53854212D01*
X143831017Y-53949500D01*
X143812063Y-54044788D01*
X143758087Y-54125570D01*
X143677305Y-54179546D01*
X143662866Y-54185009D01*
X143655023Y-54187701D01*
X143655019Y-54187702D01*
X143571733Y-54216293D01*
X143435499Y-54263062D01*
X143426502Y-54267931D01*
X143423625Y-54269488D01*
X143330803Y-54298171D01*
X143305114Y-54299500D01*
X143301046Y-54299500D01*
X143301042Y-54299500D01*
X143301017Y-54299501D01*
X143259517Y-54302315D01*
X143259506Y-54302316D01*
X143259505Y-54302317D01*
X143223599Y-54311246D01*
X143079975Y-54346963D01*
X143079974Y-54346964D01*
X142914251Y-54429155D01*
X142914245Y-54429159D01*
X142770064Y-54545056D01*
X142770056Y-54545064D01*
X142654159Y-54689245D01*
X142654155Y-54689251D01*
X142571964Y-54854974D01*
X142571963Y-54854975D01*
X142527317Y-55034506D01*
X142527315Y-55034517D01*
X142524501Y-55076017D01*
X142524500Y-55076049D01*
X142524500Y-56023950D01*
X142524501Y-56023982D01*
X142527315Y-56065482D01*
X142527317Y-56065493D01*
X142571963Y-56245024D01*
X142571964Y-56245025D01*
X142654155Y-56410748D01*
X142654157Y-56410751D01*
X142654158Y-56410753D01*
X142770060Y-56554940D01*
X142914247Y-56670842D01*
X142914250Y-56670843D01*
X142914251Y-56670844D01*
X143079974Y-56753035D01*
X143079975Y-56753036D01*
X143079978Y-56753036D01*
X143079979Y-56753037D01*
X143259505Y-56797683D01*
X143259515Y-56797683D01*
X143259517Y-56797684D01*
X143294700Y-56800069D01*
X143301046Y-56800500D01*
X143305114Y-56800500D01*
X143400402Y-56819454D01*
X143423622Y-56830509D01*
X143435497Y-56836936D01*
X143435499Y-56836937D01*
X143476290Y-56850940D01*
X143655019Y-56912298D01*
X143883951Y-56950500D01*
X144116049Y-56950500D01*
X144344981Y-56912298D01*
X144564503Y-56836936D01*
X144576374Y-56830511D01*
X144669197Y-56801829D01*
X144694886Y-56800500D01*
X144698950Y-56800500D01*
X144698954Y-56800500D01*
X144718108Y-56799201D01*
X144740482Y-56797684D01*
X144740483Y-56797683D01*
X144740495Y-56797683D01*
X144920021Y-56753037D01*
X144920022Y-56753036D01*
X144920024Y-56753036D01*
X144920025Y-56753035D01*
X145085753Y-56670842D01*
X145229940Y-56554940D01*
X145345842Y-56410753D01*
X145428037Y-56245021D01*
X145472683Y-56065495D01*
X145475500Y-56023954D01*
X145475500Y-55076046D01*
X145472683Y-55034505D01*
X145428037Y-54854979D01*
X145428036Y-54854978D01*
X145428036Y-54854975D01*
X145428035Y-54854974D01*
X145345844Y-54689251D01*
X145345843Y-54689250D01*
X145345842Y-54689247D01*
X145229940Y-54545060D01*
X145085753Y-54429158D01*
X145085751Y-54429157D01*
X145085748Y-54429155D01*
X144920025Y-54346964D01*
X144920024Y-54346963D01*
X144812305Y-54320175D01*
X144740495Y-54302317D01*
X144740491Y-54302316D01*
X144740482Y-54302315D01*
X144698982Y-54299501D01*
X144698957Y-54299500D01*
X144698954Y-54299500D01*
X144698950Y-54299500D01*
X144694886Y-54299500D01*
X144599598Y-54280546D01*
X144576377Y-54269490D01*
X144571173Y-54266673D01*
X144564500Y-54263062D01*
X144445189Y-54222103D01*
X144344981Y-54187702D01*
X144344976Y-54187701D01*
X144337134Y-54185009D01*
X144253163Y-54136142D01*
X144194284Y-54058861D01*
X144169462Y-53964931D01*
X144182474Y-53868651D01*
X144231341Y-53784680D01*
X144308622Y-53725801D01*
X144402552Y-53700979D01*
X144417983Y-53700500D01*
X144698950Y-53700500D01*
X144698954Y-53700500D01*
X144718108Y-53699201D01*
X144740482Y-53697684D01*
X144740483Y-53697683D01*
X144740495Y-53697683D01*
X144920021Y-53653037D01*
X144920022Y-53653036D01*
X144920024Y-53653036D01*
X144920025Y-53653035D01*
X145085753Y-53570842D01*
X145229940Y-53454940D01*
X145345842Y-53310753D01*
X145428037Y-53145021D01*
X145472683Y-52965495D01*
X145475500Y-52923954D01*
X145475500Y-51976046D01*
X145472683Y-51934505D01*
X145428037Y-51754979D01*
X145428036Y-51754978D01*
X145428036Y-51754975D01*
X145428035Y-51754974D01*
X145345844Y-51589251D01*
X145345843Y-51589250D01*
X145345842Y-51589247D01*
X145229940Y-51445060D01*
X145085753Y-51329158D01*
X145085751Y-51329157D01*
X145085748Y-51329155D01*
X144920025Y-51246964D01*
X144920024Y-51246963D01*
X144812305Y-51220175D01*
X144740495Y-51202317D01*
X144740491Y-51202316D01*
X144740482Y-51202315D01*
X144698982Y-51199501D01*
X144698957Y-51199500D01*
X144698954Y-51199500D01*
X143301046Y-51199500D01*
X143301042Y-51199500D01*
X143301017Y-51199501D01*
X143259517Y-51202315D01*
X143259506Y-51202316D01*
X143259505Y-51202317D01*
X143223599Y-51211246D01*
X143079975Y-51246963D01*
X143079974Y-51246964D01*
X142914251Y-51329155D01*
X142914245Y-51329159D01*
X142832868Y-51394573D01*
X142746725Y-51439499D01*
X142676866Y-51449500D01*
X138323134Y-51449500D01*
X138227846Y-51430546D01*
X138167132Y-51394573D01*
X138085754Y-51329159D01*
X138085755Y-51329159D01*
X138085753Y-51329158D01*
X138085751Y-51329157D01*
X138085748Y-51329155D01*
X137920025Y-51246964D01*
X137920024Y-51246963D01*
X137812305Y-51220175D01*
X137740495Y-51202317D01*
X137740491Y-51202316D01*
X137740482Y-51202315D01*
X137698982Y-51199501D01*
X137698957Y-51199500D01*
X137698954Y-51199500D01*
X136301046Y-51199500D01*
X136301042Y-51199500D01*
X136301017Y-51199501D01*
X136259517Y-51202315D01*
X136259506Y-51202316D01*
X136259505Y-51202317D01*
X136223599Y-51211246D01*
X136079975Y-51246963D01*
X136079974Y-51246964D01*
X135914251Y-51329155D01*
X135914245Y-51329159D01*
X135832868Y-51394573D01*
X135746725Y-51439499D01*
X135676866Y-51449500D01*
X131323134Y-51449500D01*
X131227846Y-51430546D01*
X131167132Y-51394573D01*
X131085754Y-51329159D01*
X131085755Y-51329159D01*
X131085753Y-51329158D01*
X131085751Y-51329157D01*
X131085748Y-51329155D01*
X130920025Y-51246964D01*
X130920024Y-51246963D01*
X130812305Y-51220175D01*
X130740495Y-51202317D01*
X130740491Y-51202316D01*
X130740482Y-51202315D01*
X130698982Y-51199501D01*
X130698957Y-51199500D01*
X130698954Y-51199500D01*
X130698950Y-51199500D01*
X130267560Y-51199500D01*
X130172272Y-51180546D01*
X130091490Y-51126570D01*
X129373430Y-50408510D01*
X129319454Y-50327728D01*
X129300500Y-50232440D01*
X129300500Y-50131119D01*
X149999500Y-50131119D01*
X150033729Y-50391112D01*
X150101601Y-50644417D01*
X150201953Y-50886689D01*
X150201955Y-50886693D01*
X150201957Y-50886697D01*
X150297935Y-51052937D01*
X150333073Y-51113798D01*
X150333082Y-51113812D01*
X150492713Y-51321845D01*
X150492718Y-51321851D01*
X150678149Y-51507282D01*
X150678153Y-51507285D01*
X150678154Y-51507286D01*
X150886187Y-51666917D01*
X150886192Y-51666920D01*
X150886197Y-51666924D01*
X151113303Y-51798043D01*
X151355581Y-51898398D01*
X151608884Y-51966270D01*
X151868880Y-52000500D01*
X152131120Y-52000500D01*
X152391116Y-51966270D01*
X152644419Y-51898398D01*
X152886697Y-51798043D01*
X153113803Y-51666924D01*
X153321851Y-51507282D01*
X153507282Y-51321851D01*
X153666924Y-51113803D01*
X153798043Y-50886697D01*
X153898398Y-50644419D01*
X153966270Y-50391116D01*
X154000500Y-50131120D01*
X154000500Y-49868880D01*
X153966270Y-49608884D01*
X153898398Y-49355581D01*
X153798043Y-49113303D01*
X153666924Y-48886197D01*
X153666920Y-48886192D01*
X153666917Y-48886187D01*
X153507286Y-48678154D01*
X153507285Y-48678153D01*
X153507282Y-48678149D01*
X153321851Y-48492718D01*
X153321846Y-48492714D01*
X153321845Y-48492713D01*
X153113812Y-48333082D01*
X153113798Y-48333073D01*
X153052937Y-48297935D01*
X152886697Y-48201957D01*
X152886695Y-48201956D01*
X152886693Y-48201955D01*
X152886689Y-48201953D01*
X152644417Y-48101601D01*
X152534730Y-48072211D01*
X152391116Y-48033730D01*
X152391111Y-48033729D01*
X152391114Y-48033729D01*
X152131120Y-47999500D01*
X151868880Y-47999500D01*
X151608887Y-48033729D01*
X151355582Y-48101601D01*
X151113310Y-48201953D01*
X151113306Y-48201955D01*
X150886201Y-48333073D01*
X150886187Y-48333082D01*
X150678154Y-48492713D01*
X150492713Y-48678154D01*
X150333082Y-48886187D01*
X150333073Y-48886201D01*
X150201955Y-49113306D01*
X150201953Y-49113310D01*
X150101601Y-49355582D01*
X150033729Y-49608887D01*
X149999500Y-49868880D01*
X149999500Y-50131119D01*
X129300500Y-50131119D01*
X129300500Y-45151976D01*
X129319454Y-45056688D01*
X129366297Y-44983341D01*
X129386805Y-44961064D01*
X129465280Y-44903798D01*
X129559703Y-44880920D01*
X129655693Y-44895918D01*
X129738637Y-44946507D01*
X129753194Y-44961064D01*
X129854228Y-45070817D01*
X129854230Y-45070819D01*
X129854236Y-45070825D01*
X130043933Y-45218472D01*
X130255344Y-45332882D01*
X130482703Y-45410934D01*
X130719808Y-45450500D01*
X130960192Y-45450500D01*
X131197297Y-45410934D01*
X131424656Y-45332882D01*
X131636067Y-45218472D01*
X131825764Y-45070825D01*
X131926806Y-44961062D01*
X132005285Y-44903796D01*
X132099709Y-44880920D01*
X132195699Y-44895919D01*
X132278642Y-44946511D01*
X132293184Y-44961053D01*
X132313699Y-44983338D01*
X132394229Y-45070818D01*
X132394231Y-45070819D01*
X132394236Y-45070825D01*
X132583933Y-45218472D01*
X132795344Y-45332882D01*
X133022703Y-45410934D01*
X133259808Y-45450500D01*
X133500192Y-45450500D01*
X133737297Y-45410934D01*
X133964656Y-45332882D01*
X134176067Y-45218472D01*
X134365764Y-45070825D01*
X134466806Y-44961062D01*
X134545285Y-44903796D01*
X134639709Y-44880920D01*
X134735699Y-44895919D01*
X134818642Y-44946511D01*
X134833184Y-44961053D01*
X134853699Y-44983338D01*
X134934229Y-45070818D01*
X134934231Y-45070819D01*
X134934236Y-45070825D01*
X135123933Y-45218472D01*
X135335344Y-45332882D01*
X135562703Y-45410934D01*
X135799808Y-45450500D01*
X136040192Y-45450500D01*
X136277297Y-45410934D01*
X136504656Y-45332882D01*
X136716067Y-45218472D01*
X136905764Y-45070825D01*
X137006806Y-44961062D01*
X137085285Y-44903796D01*
X137179709Y-44880920D01*
X137275699Y-44895919D01*
X137358642Y-44946511D01*
X137373184Y-44961053D01*
X137393699Y-44983338D01*
X137474229Y-45070818D01*
X137474231Y-45070819D01*
X137474236Y-45070825D01*
X137663933Y-45218472D01*
X137875344Y-45332882D01*
X138102703Y-45410934D01*
X138339808Y-45450500D01*
X138580192Y-45450500D01*
X138817297Y-45410934D01*
X139044656Y-45332882D01*
X139256067Y-45218472D01*
X139321014Y-45167921D01*
X139407850Y-45124351D01*
X139504750Y-45117328D01*
X139596963Y-45147922D01*
X139670448Y-45211475D01*
X139671361Y-45212655D01*
X139721718Y-45278282D01*
X139847159Y-45374536D01*
X139993238Y-45435044D01*
X140110639Y-45450500D01*
X141889360Y-45450499D01*
X142006762Y-45435044D01*
X142152841Y-45374536D01*
X142278282Y-45278282D01*
X142374536Y-45152841D01*
X142435044Y-45006762D01*
X142450500Y-44889361D01*
X142450499Y-43110640D01*
X142435044Y-42993238D01*
X142374536Y-42847159D01*
X142324178Y-42781531D01*
X142278286Y-42721723D01*
X142278285Y-42721722D01*
X142278282Y-42721718D01*
X142278277Y-42721714D01*
X142278276Y-42721713D01*
X142152844Y-42625466D01*
X142152843Y-42625465D01*
X142152841Y-42625464D01*
X142006762Y-42564956D01*
X142006760Y-42564955D01*
X141889362Y-42549500D01*
X140110639Y-42549500D01*
X140110637Y-42549501D01*
X139993238Y-42564955D01*
X139884475Y-42610006D01*
X139847159Y-42625464D01*
X139847158Y-42625464D01*
X139847155Y-42625466D01*
X139721723Y-42721713D01*
X139721716Y-42721720D01*
X139671499Y-42787165D01*
X139598454Y-42851223D01*
X139506455Y-42882453D01*
X139409508Y-42876098D01*
X139322372Y-42833128D01*
X139321014Y-42832078D01*
X139256072Y-42781531D01*
X139256068Y-42781528D01*
X139256067Y-42781528D01*
X139145539Y-42721713D01*
X139044655Y-42667117D01*
X138817297Y-42589066D01*
X138817294Y-42589065D01*
X138580192Y-42549500D01*
X138339808Y-42549500D01*
X138102705Y-42589065D01*
X138102702Y-42589066D01*
X137875344Y-42667117D01*
X137663931Y-42781529D01*
X137574389Y-42851223D01*
X137474236Y-42929175D01*
X137373193Y-43038937D01*
X137294714Y-43096204D01*
X137200290Y-43119079D01*
X137104300Y-43104079D01*
X137021357Y-43053488D01*
X137006815Y-43038946D01*
X136905764Y-42929175D01*
X136716067Y-42781528D01*
X136605539Y-42721713D01*
X136504655Y-42667117D01*
X136277297Y-42589066D01*
X136277294Y-42589065D01*
X136040192Y-42549500D01*
X135799808Y-42549500D01*
X135562705Y-42589065D01*
X135562702Y-42589066D01*
X135335344Y-42667117D01*
X135123931Y-42781529D01*
X135058986Y-42832078D01*
X134934236Y-42929175D01*
X134934234Y-42929176D01*
X134934234Y-42929177D01*
X134833195Y-43038935D01*
X134754713Y-43096203D01*
X134660289Y-43119078D01*
X134564299Y-43104078D01*
X134481356Y-43053486D01*
X134466801Y-43038930D01*
X134446301Y-43016660D01*
X134395711Y-42933716D01*
X134380500Y-42848021D01*
X134380500Y-42640959D01*
X134380499Y-42640954D01*
X134342052Y-42447669D01*
X134342051Y-42447667D01*
X134342051Y-42447665D01*
X134266632Y-42265586D01*
X134157139Y-42101718D01*
X134157137Y-42101716D01*
X134017782Y-41962360D01*
X134017782Y-41962361D01*
X134017781Y-41962360D01*
X131917640Y-39862220D01*
X131917639Y-39862218D01*
X131778282Y-39722861D01*
X131614414Y-39613368D01*
X131614409Y-39613365D01*
X131525368Y-39576483D01*
X131485665Y-39560038D01*
X131432336Y-39537949D01*
X131432333Y-39537948D01*
X131335689Y-39518724D01*
X131335688Y-39518724D01*
X131239041Y-39499500D01*
X122151459Y-39499500D01*
X122054812Y-39518724D01*
X122054810Y-39518724D01*
X121958165Y-39537948D01*
X121904830Y-39560039D01*
X121776088Y-39613366D01*
X121776084Y-39613368D01*
X121612219Y-39722860D01*
X121612216Y-39722862D01*
X121472860Y-39862217D01*
X121472861Y-39862218D01*
X121472858Y-39862221D01*
X118362221Y-42972858D01*
X118362218Y-42972861D01*
X118362217Y-42972860D01*
X118222862Y-43112216D01*
X118222860Y-43112219D01*
X118113369Y-43276084D01*
X118113367Y-43276088D01*
X118071452Y-43377280D01*
X118037949Y-43458162D01*
X118037949Y-43458164D01*
X118024175Y-43527409D01*
X117999500Y-43651454D01*
X117999500Y-66098545D01*
X116000000Y-66098545D01*
X116000000Y-39249500D01*
X116018954Y-39154212D01*
X116072930Y-39073430D01*
X116153712Y-39019454D01*
X116249000Y-39000500D01*
X155750500Y-39000500D01*
X155845788Y-39019454D01*
G37*
%TD.AperFunction*%
%TD*%
M02*
