%TF.GenerationSoftware,KiCad,Pcbnew,8.0.1*%
%TF.CreationDate,2024-04-03T15:50:24+05:30*%
%TF.ProjectId,FinalCircuit,46696e61-6c43-4697-9263-7569742e6b69,rev?*%
%TF.SameCoordinates,Original*%
%TF.FileFunction,Legend,Bot*%
%TF.FilePolarity,Positive*%
%FSLAX46Y46*%
G04 Gerber Fmt 4.6, Leading zero omitted, Abs format (unit mm)*
G04 Created by KiCad (PCBNEW 8.0.1) date 2024-04-03 15:50:24*
%MOMM*%
%LPD*%
G01*
G04 APERTURE LIST*
%ADD10C,0.200000*%
%ADD11C,0.120000*%
G04 APERTURE END LIST*
D10*
X248506517Y-82267219D02*
X249077945Y-82267219D01*
X248792231Y-82267219D02*
X248792231Y-81267219D01*
X248792231Y-81267219D02*
X248887469Y-81410076D01*
X248887469Y-81410076D02*
X248982707Y-81505314D01*
X248982707Y-81505314D02*
X249077945Y-81552933D01*
X247554136Y-82267219D02*
X248125564Y-82267219D01*
X247839850Y-82267219D02*
X247839850Y-81267219D01*
X247839850Y-81267219D02*
X247935088Y-81410076D01*
X247935088Y-81410076D02*
X248030326Y-81505314D01*
X248030326Y-81505314D02*
X248125564Y-81552933D01*
X246077945Y-82648171D02*
X246125564Y-82600552D01*
X246125564Y-82600552D02*
X246220802Y-82457695D01*
X246220802Y-82457695D02*
X246268421Y-82362457D01*
X246268421Y-82362457D02*
X246316040Y-82219600D01*
X246316040Y-82219600D02*
X246363659Y-81981504D01*
X246363659Y-81981504D02*
X246363659Y-81791028D01*
X246363659Y-81791028D02*
X246316040Y-81552933D01*
X246316040Y-81552933D02*
X246268421Y-81410076D01*
X246268421Y-81410076D02*
X246220802Y-81314838D01*
X246220802Y-81314838D02*
X246125564Y-81171980D01*
X246125564Y-81171980D02*
X246077945Y-81124361D01*
X245839849Y-81267219D02*
X245506516Y-82267219D01*
X245506516Y-82267219D02*
X245173183Y-81267219D01*
X244268421Y-82171980D02*
X244316040Y-82219600D01*
X244316040Y-82219600D02*
X244458897Y-82267219D01*
X244458897Y-82267219D02*
X244554135Y-82267219D01*
X244554135Y-82267219D02*
X244696992Y-82219600D01*
X244696992Y-82219600D02*
X244792230Y-82124361D01*
X244792230Y-82124361D02*
X244839849Y-82029123D01*
X244839849Y-82029123D02*
X244887468Y-81838647D01*
X244887468Y-81838647D02*
X244887468Y-81695790D01*
X244887468Y-81695790D02*
X244839849Y-81505314D01*
X244839849Y-81505314D02*
X244792230Y-81410076D01*
X244792230Y-81410076D02*
X244696992Y-81314838D01*
X244696992Y-81314838D02*
X244554135Y-81267219D01*
X244554135Y-81267219D02*
X244458897Y-81267219D01*
X244458897Y-81267219D02*
X244316040Y-81314838D01*
X244316040Y-81314838D02*
X244268421Y-81362457D01*
X243268421Y-82171980D02*
X243316040Y-82219600D01*
X243316040Y-82219600D02*
X243458897Y-82267219D01*
X243458897Y-82267219D02*
X243554135Y-82267219D01*
X243554135Y-82267219D02*
X243696992Y-82219600D01*
X243696992Y-82219600D02*
X243792230Y-82124361D01*
X243792230Y-82124361D02*
X243839849Y-82029123D01*
X243839849Y-82029123D02*
X243887468Y-81838647D01*
X243887468Y-81838647D02*
X243887468Y-81695790D01*
X243887468Y-81695790D02*
X243839849Y-81505314D01*
X243839849Y-81505314D02*
X243792230Y-81410076D01*
X243792230Y-81410076D02*
X243696992Y-81314838D01*
X243696992Y-81314838D02*
X243554135Y-81267219D01*
X243554135Y-81267219D02*
X243458897Y-81267219D01*
X243458897Y-81267219D02*
X243316040Y-81314838D01*
X243316040Y-81314838D02*
X243268421Y-81362457D01*
X242935087Y-82648171D02*
X242887468Y-82600552D01*
X242887468Y-82600552D02*
X242792230Y-82457695D01*
X242792230Y-82457695D02*
X242744611Y-82362457D01*
X242744611Y-82362457D02*
X242696992Y-82219600D01*
X242696992Y-82219600D02*
X242649373Y-81981504D01*
X242649373Y-81981504D02*
X242649373Y-81791028D01*
X242649373Y-81791028D02*
X242696992Y-81552933D01*
X242696992Y-81552933D02*
X242744611Y-81410076D01*
X242744611Y-81410076D02*
X242792230Y-81314838D01*
X242792230Y-81314838D02*
X242887468Y-81171980D01*
X242887468Y-81171980D02*
X242935087Y-81124361D01*
X235306517Y-82267219D02*
X235877945Y-82267219D01*
X235592231Y-82267219D02*
X235592231Y-81267219D01*
X235592231Y-81267219D02*
X235687469Y-81410076D01*
X235687469Y-81410076D02*
X235782707Y-81505314D01*
X235782707Y-81505314D02*
X235877945Y-81552933D01*
X234925564Y-81362457D02*
X234877945Y-81314838D01*
X234877945Y-81314838D02*
X234782707Y-81267219D01*
X234782707Y-81267219D02*
X234544612Y-81267219D01*
X234544612Y-81267219D02*
X234449374Y-81314838D01*
X234449374Y-81314838D02*
X234401755Y-81362457D01*
X234401755Y-81362457D02*
X234354136Y-81457695D01*
X234354136Y-81457695D02*
X234354136Y-81552933D01*
X234354136Y-81552933D02*
X234401755Y-81695790D01*
X234401755Y-81695790D02*
X234973183Y-82267219D01*
X234973183Y-82267219D02*
X234354136Y-82267219D01*
X232877945Y-82648171D02*
X232925564Y-82600552D01*
X232925564Y-82600552D02*
X233020802Y-82457695D01*
X233020802Y-82457695D02*
X233068421Y-82362457D01*
X233068421Y-82362457D02*
X233116040Y-82219600D01*
X233116040Y-82219600D02*
X233163659Y-81981504D01*
X233163659Y-81981504D02*
X233163659Y-81791028D01*
X233163659Y-81791028D02*
X233116040Y-81552933D01*
X233116040Y-81552933D02*
X233068421Y-81410076D01*
X233068421Y-81410076D02*
X233020802Y-81314838D01*
X233020802Y-81314838D02*
X232925564Y-81171980D01*
X232925564Y-81171980D02*
X232877945Y-81124361D01*
X232496992Y-82267219D02*
X232496992Y-81267219D01*
X232496992Y-81267219D02*
X232258897Y-81267219D01*
X232258897Y-81267219D02*
X232116040Y-81314838D01*
X232116040Y-81314838D02*
X232020802Y-81410076D01*
X232020802Y-81410076D02*
X231973183Y-81505314D01*
X231973183Y-81505314D02*
X231925564Y-81695790D01*
X231925564Y-81695790D02*
X231925564Y-81838647D01*
X231925564Y-81838647D02*
X231973183Y-82029123D01*
X231973183Y-82029123D02*
X232020802Y-82124361D01*
X232020802Y-82124361D02*
X232116040Y-82219600D01*
X232116040Y-82219600D02*
X232258897Y-82267219D01*
X232258897Y-82267219D02*
X232496992Y-82267219D01*
X230973183Y-81314838D02*
X231068421Y-81267219D01*
X231068421Y-81267219D02*
X231211278Y-81267219D01*
X231211278Y-81267219D02*
X231354135Y-81314838D01*
X231354135Y-81314838D02*
X231449373Y-81410076D01*
X231449373Y-81410076D02*
X231496992Y-81505314D01*
X231496992Y-81505314D02*
X231544611Y-81695790D01*
X231544611Y-81695790D02*
X231544611Y-81838647D01*
X231544611Y-81838647D02*
X231496992Y-82029123D01*
X231496992Y-82029123D02*
X231449373Y-82124361D01*
X231449373Y-82124361D02*
X231354135Y-82219600D01*
X231354135Y-82219600D02*
X231211278Y-82267219D01*
X231211278Y-82267219D02*
X231116040Y-82267219D01*
X231116040Y-82267219D02*
X230973183Y-82219600D01*
X230973183Y-82219600D02*
X230925564Y-82171980D01*
X230925564Y-82171980D02*
X230925564Y-81838647D01*
X230925564Y-81838647D02*
X231116040Y-81838647D01*
X230496992Y-82267219D02*
X230496992Y-81267219D01*
X230496992Y-81267219D02*
X229925564Y-82267219D01*
X229925564Y-82267219D02*
X229925564Y-81267219D01*
X229449373Y-82267219D02*
X229449373Y-81267219D01*
X229449373Y-81267219D02*
X229211278Y-81267219D01*
X229211278Y-81267219D02*
X229068421Y-81314838D01*
X229068421Y-81314838D02*
X228973183Y-81410076D01*
X228973183Y-81410076D02*
X228925564Y-81505314D01*
X228925564Y-81505314D02*
X228877945Y-81695790D01*
X228877945Y-81695790D02*
X228877945Y-81838647D01*
X228877945Y-81838647D02*
X228925564Y-82029123D01*
X228925564Y-82029123D02*
X228973183Y-82124361D01*
X228973183Y-82124361D02*
X229068421Y-82219600D01*
X229068421Y-82219600D02*
X229211278Y-82267219D01*
X229211278Y-82267219D02*
X229449373Y-82267219D01*
X228544611Y-82648171D02*
X228496992Y-82600552D01*
X228496992Y-82600552D02*
X228401754Y-82457695D01*
X228401754Y-82457695D02*
X228354135Y-82362457D01*
X228354135Y-82362457D02*
X228306516Y-82219600D01*
X228306516Y-82219600D02*
X228258897Y-81981504D01*
X228258897Y-81981504D02*
X228258897Y-81791028D01*
X228258897Y-81791028D02*
X228306516Y-81552933D01*
X228306516Y-81552933D02*
X228354135Y-81410076D01*
X228354135Y-81410076D02*
X228401754Y-81314838D01*
X228401754Y-81314838D02*
X228496992Y-81171980D01*
X228496992Y-81171980D02*
X228544611Y-81124361D01*
X119192231Y-109697219D02*
X118525564Y-109697219D01*
X118239850Y-110744838D02*
X119192231Y-110744838D01*
X119192231Y-110744838D02*
X119192231Y-108744838D01*
X119192231Y-108744838D02*
X118239850Y-108744838D01*
X117382707Y-110744838D02*
X117382707Y-108744838D01*
X117382707Y-108744838D02*
X116906517Y-108744838D01*
X116906517Y-108744838D02*
X116620802Y-108840076D01*
X116620802Y-108840076D02*
X116430326Y-109030552D01*
X116430326Y-109030552D02*
X116335088Y-109221028D01*
X116335088Y-109221028D02*
X116239850Y-109601980D01*
X116239850Y-109601980D02*
X116239850Y-109887695D01*
X116239850Y-109887695D02*
X116335088Y-110268647D01*
X116335088Y-110268647D02*
X116430326Y-110459123D01*
X116430326Y-110459123D02*
X116620802Y-110649600D01*
X116620802Y-110649600D02*
X116906517Y-110744838D01*
X116906517Y-110744838D02*
X117382707Y-110744838D01*
X114430326Y-110744838D02*
X115382707Y-110744838D01*
X115382707Y-110744838D02*
X115382707Y-108744838D01*
X112335087Y-108935314D02*
X112239849Y-108840076D01*
X112239849Y-108840076D02*
X112049373Y-108744838D01*
X112049373Y-108744838D02*
X111573182Y-108744838D01*
X111573182Y-108744838D02*
X111382706Y-108840076D01*
X111382706Y-108840076D02*
X111287468Y-108935314D01*
X111287468Y-108935314D02*
X111192230Y-109125790D01*
X111192230Y-109125790D02*
X111192230Y-109316266D01*
X111192230Y-109316266D02*
X111287468Y-109601980D01*
X111287468Y-109601980D02*
X112430325Y-110744838D01*
X112430325Y-110744838D02*
X111192230Y-110744838D01*
X109954135Y-108744838D02*
X109763658Y-108744838D01*
X109763658Y-108744838D02*
X109573182Y-108840076D01*
X109573182Y-108840076D02*
X109477944Y-108935314D01*
X109477944Y-108935314D02*
X109382706Y-109125790D01*
X109382706Y-109125790D02*
X109287468Y-109506742D01*
X109287468Y-109506742D02*
X109287468Y-109982933D01*
X109287468Y-109982933D02*
X109382706Y-110363885D01*
X109382706Y-110363885D02*
X109477944Y-110554361D01*
X109477944Y-110554361D02*
X109573182Y-110649600D01*
X109573182Y-110649600D02*
X109763658Y-110744838D01*
X109763658Y-110744838D02*
X109954135Y-110744838D01*
X109954135Y-110744838D02*
X110144611Y-110649600D01*
X110144611Y-110649600D02*
X110239849Y-110554361D01*
X110239849Y-110554361D02*
X110335087Y-110363885D01*
X110335087Y-110363885D02*
X110430325Y-109982933D01*
X110430325Y-109982933D02*
X110430325Y-109506742D01*
X110430325Y-109506742D02*
X110335087Y-109125790D01*
X110335087Y-109125790D02*
X110239849Y-108935314D01*
X110239849Y-108935314D02*
X110144611Y-108840076D01*
X110144611Y-108840076D02*
X109954135Y-108744838D01*
X108525563Y-108935314D02*
X108430325Y-108840076D01*
X108430325Y-108840076D02*
X108239849Y-108744838D01*
X108239849Y-108744838D02*
X107763658Y-108744838D01*
X107763658Y-108744838D02*
X107573182Y-108840076D01*
X107573182Y-108840076D02*
X107477944Y-108935314D01*
X107477944Y-108935314D02*
X107382706Y-109125790D01*
X107382706Y-109125790D02*
X107382706Y-109316266D01*
X107382706Y-109316266D02*
X107477944Y-109601980D01*
X107477944Y-109601980D02*
X108620801Y-110744838D01*
X108620801Y-110744838D02*
X107382706Y-110744838D01*
X105668420Y-109411504D02*
X105668420Y-110744838D01*
X106144611Y-108649600D02*
X106620801Y-110078171D01*
X106620801Y-110078171D02*
X105382706Y-110078171D01*
X235677945Y-93962457D02*
X235630326Y-93914838D01*
X235630326Y-93914838D02*
X235535088Y-93867219D01*
X235535088Y-93867219D02*
X235296993Y-93867219D01*
X235296993Y-93867219D02*
X235201755Y-93914838D01*
X235201755Y-93914838D02*
X235154136Y-93962457D01*
X235154136Y-93962457D02*
X235106517Y-94057695D01*
X235106517Y-94057695D02*
X235106517Y-94152933D01*
X235106517Y-94152933D02*
X235154136Y-94295790D01*
X235154136Y-94295790D02*
X235725564Y-94867219D01*
X235725564Y-94867219D02*
X235106517Y-94867219D01*
X249477945Y-58562457D02*
X249430326Y-58514838D01*
X249430326Y-58514838D02*
X249335088Y-58467219D01*
X249335088Y-58467219D02*
X249096993Y-58467219D01*
X249096993Y-58467219D02*
X249001755Y-58514838D01*
X249001755Y-58514838D02*
X248954136Y-58562457D01*
X248954136Y-58562457D02*
X248906517Y-58657695D01*
X248906517Y-58657695D02*
X248906517Y-58752933D01*
X248906517Y-58752933D02*
X248954136Y-58895790D01*
X248954136Y-58895790D02*
X249525564Y-59467219D01*
X249525564Y-59467219D02*
X248906517Y-59467219D01*
X248430326Y-59467219D02*
X248239850Y-59467219D01*
X248239850Y-59467219D02*
X248144612Y-59419600D01*
X248144612Y-59419600D02*
X248096993Y-59371980D01*
X248096993Y-59371980D02*
X248001755Y-59229123D01*
X248001755Y-59229123D02*
X247954136Y-59038647D01*
X247954136Y-59038647D02*
X247954136Y-58657695D01*
X247954136Y-58657695D02*
X248001755Y-58562457D01*
X248001755Y-58562457D02*
X248049374Y-58514838D01*
X248049374Y-58514838D02*
X248144612Y-58467219D01*
X248144612Y-58467219D02*
X248335088Y-58467219D01*
X248335088Y-58467219D02*
X248430326Y-58514838D01*
X248430326Y-58514838D02*
X248477945Y-58562457D01*
X248477945Y-58562457D02*
X248525564Y-58657695D01*
X248525564Y-58657695D02*
X248525564Y-58895790D01*
X248525564Y-58895790D02*
X248477945Y-58991028D01*
X248477945Y-58991028D02*
X248430326Y-59038647D01*
X248430326Y-59038647D02*
X248335088Y-59086266D01*
X248335088Y-59086266D02*
X248144612Y-59086266D01*
X248144612Y-59086266D02*
X248049374Y-59038647D01*
X248049374Y-59038647D02*
X248001755Y-58991028D01*
X248001755Y-58991028D02*
X247954136Y-58895790D01*
X246477945Y-59848171D02*
X246525564Y-59800552D01*
X246525564Y-59800552D02*
X246620802Y-59657695D01*
X246620802Y-59657695D02*
X246668421Y-59562457D01*
X246668421Y-59562457D02*
X246716040Y-59419600D01*
X246716040Y-59419600D02*
X246763659Y-59181504D01*
X246763659Y-59181504D02*
X246763659Y-58991028D01*
X246763659Y-58991028D02*
X246716040Y-58752933D01*
X246716040Y-58752933D02*
X246668421Y-58610076D01*
X246668421Y-58610076D02*
X246620802Y-58514838D01*
X246620802Y-58514838D02*
X246525564Y-58371980D01*
X246525564Y-58371980D02*
X246477945Y-58324361D01*
X246192230Y-58467219D02*
X245573183Y-58467219D01*
X245573183Y-58467219D02*
X245906516Y-58848171D01*
X245906516Y-58848171D02*
X245763659Y-58848171D01*
X245763659Y-58848171D02*
X245668421Y-58895790D01*
X245668421Y-58895790D02*
X245620802Y-58943409D01*
X245620802Y-58943409D02*
X245573183Y-59038647D01*
X245573183Y-59038647D02*
X245573183Y-59276742D01*
X245573183Y-59276742D02*
X245620802Y-59371980D01*
X245620802Y-59371980D02*
X245668421Y-59419600D01*
X245668421Y-59419600D02*
X245763659Y-59467219D01*
X245763659Y-59467219D02*
X246049373Y-59467219D01*
X246049373Y-59467219D02*
X246144611Y-59419600D01*
X246144611Y-59419600D02*
X246192230Y-59371980D01*
X245144611Y-59371980D02*
X245096992Y-59419600D01*
X245096992Y-59419600D02*
X245144611Y-59467219D01*
X245144611Y-59467219D02*
X245192230Y-59419600D01*
X245192230Y-59419600D02*
X245144611Y-59371980D01*
X245144611Y-59371980D02*
X245144611Y-59467219D01*
X244763659Y-58467219D02*
X244144612Y-58467219D01*
X244144612Y-58467219D02*
X244477945Y-58848171D01*
X244477945Y-58848171D02*
X244335088Y-58848171D01*
X244335088Y-58848171D02*
X244239850Y-58895790D01*
X244239850Y-58895790D02*
X244192231Y-58943409D01*
X244192231Y-58943409D02*
X244144612Y-59038647D01*
X244144612Y-59038647D02*
X244144612Y-59276742D01*
X244144612Y-59276742D02*
X244192231Y-59371980D01*
X244192231Y-59371980D02*
X244239850Y-59419600D01*
X244239850Y-59419600D02*
X244335088Y-59467219D01*
X244335088Y-59467219D02*
X244620802Y-59467219D01*
X244620802Y-59467219D02*
X244716040Y-59419600D01*
X244716040Y-59419600D02*
X244763659Y-59371980D01*
X243858897Y-58467219D02*
X243525564Y-59467219D01*
X243525564Y-59467219D02*
X243192231Y-58467219D01*
X242954135Y-59848171D02*
X242906516Y-59800552D01*
X242906516Y-59800552D02*
X242811278Y-59657695D01*
X242811278Y-59657695D02*
X242763659Y-59562457D01*
X242763659Y-59562457D02*
X242716040Y-59419600D01*
X242716040Y-59419600D02*
X242668421Y-59181504D01*
X242668421Y-59181504D02*
X242668421Y-58991028D01*
X242668421Y-58991028D02*
X242716040Y-58752933D01*
X242716040Y-58752933D02*
X242763659Y-58610076D01*
X242763659Y-58610076D02*
X242811278Y-58514838D01*
X242811278Y-58514838D02*
X242906516Y-58371980D01*
X242906516Y-58371980D02*
X242954135Y-58324361D01*
X243106517Y-94867219D02*
X243677945Y-94867219D01*
X243392231Y-94867219D02*
X243392231Y-93867219D01*
X243392231Y-93867219D02*
X243487469Y-94010076D01*
X243487469Y-94010076D02*
X243582707Y-94105314D01*
X243582707Y-94105314D02*
X243677945Y-94152933D01*
X235725564Y-58267219D02*
X235106517Y-58267219D01*
X235106517Y-58267219D02*
X235439850Y-58648171D01*
X235439850Y-58648171D02*
X235296993Y-58648171D01*
X235296993Y-58648171D02*
X235201755Y-58695790D01*
X235201755Y-58695790D02*
X235154136Y-58743409D01*
X235154136Y-58743409D02*
X235106517Y-58838647D01*
X235106517Y-58838647D02*
X235106517Y-59076742D01*
X235106517Y-59076742D02*
X235154136Y-59171980D01*
X235154136Y-59171980D02*
X235201755Y-59219600D01*
X235201755Y-59219600D02*
X235296993Y-59267219D01*
X235296993Y-59267219D02*
X235582707Y-59267219D01*
X235582707Y-59267219D02*
X235677945Y-59219600D01*
X235677945Y-59219600D02*
X235725564Y-59171980D01*
X234487469Y-58267219D02*
X234392231Y-58267219D01*
X234392231Y-58267219D02*
X234296993Y-58314838D01*
X234296993Y-58314838D02*
X234249374Y-58362457D01*
X234249374Y-58362457D02*
X234201755Y-58457695D01*
X234201755Y-58457695D02*
X234154136Y-58648171D01*
X234154136Y-58648171D02*
X234154136Y-58886266D01*
X234154136Y-58886266D02*
X234201755Y-59076742D01*
X234201755Y-59076742D02*
X234249374Y-59171980D01*
X234249374Y-59171980D02*
X234296993Y-59219600D01*
X234296993Y-59219600D02*
X234392231Y-59267219D01*
X234392231Y-59267219D02*
X234487469Y-59267219D01*
X234487469Y-59267219D02*
X234582707Y-59219600D01*
X234582707Y-59219600D02*
X234630326Y-59171980D01*
X234630326Y-59171980D02*
X234677945Y-59076742D01*
X234677945Y-59076742D02*
X234725564Y-58886266D01*
X234725564Y-58886266D02*
X234725564Y-58648171D01*
X234725564Y-58648171D02*
X234677945Y-58457695D01*
X234677945Y-58457695D02*
X234630326Y-58362457D01*
X234630326Y-58362457D02*
X234582707Y-58314838D01*
X234582707Y-58314838D02*
X234487469Y-58267219D01*
X232677945Y-59648171D02*
X232725564Y-59600552D01*
X232725564Y-59600552D02*
X232820802Y-59457695D01*
X232820802Y-59457695D02*
X232868421Y-59362457D01*
X232868421Y-59362457D02*
X232916040Y-59219600D01*
X232916040Y-59219600D02*
X232963659Y-58981504D01*
X232963659Y-58981504D02*
X232963659Y-58791028D01*
X232963659Y-58791028D02*
X232916040Y-58552933D01*
X232916040Y-58552933D02*
X232868421Y-58410076D01*
X232868421Y-58410076D02*
X232820802Y-58314838D01*
X232820802Y-58314838D02*
X232725564Y-58171980D01*
X232725564Y-58171980D02*
X232677945Y-58124361D01*
X232296992Y-59267219D02*
X232296992Y-58267219D01*
X232296992Y-58267219D02*
X232058897Y-58267219D01*
X232058897Y-58267219D02*
X231916040Y-58314838D01*
X231916040Y-58314838D02*
X231820802Y-58410076D01*
X231820802Y-58410076D02*
X231773183Y-58505314D01*
X231773183Y-58505314D02*
X231725564Y-58695790D01*
X231725564Y-58695790D02*
X231725564Y-58838647D01*
X231725564Y-58838647D02*
X231773183Y-59029123D01*
X231773183Y-59029123D02*
X231820802Y-59124361D01*
X231820802Y-59124361D02*
X231916040Y-59219600D01*
X231916040Y-59219600D02*
X232058897Y-59267219D01*
X232058897Y-59267219D02*
X232296992Y-59267219D01*
X230773183Y-58314838D02*
X230868421Y-58267219D01*
X230868421Y-58267219D02*
X231011278Y-58267219D01*
X231011278Y-58267219D02*
X231154135Y-58314838D01*
X231154135Y-58314838D02*
X231249373Y-58410076D01*
X231249373Y-58410076D02*
X231296992Y-58505314D01*
X231296992Y-58505314D02*
X231344611Y-58695790D01*
X231344611Y-58695790D02*
X231344611Y-58838647D01*
X231344611Y-58838647D02*
X231296992Y-59029123D01*
X231296992Y-59029123D02*
X231249373Y-59124361D01*
X231249373Y-59124361D02*
X231154135Y-59219600D01*
X231154135Y-59219600D02*
X231011278Y-59267219D01*
X231011278Y-59267219D02*
X230916040Y-59267219D01*
X230916040Y-59267219D02*
X230773183Y-59219600D01*
X230773183Y-59219600D02*
X230725564Y-59171980D01*
X230725564Y-59171980D02*
X230725564Y-58838647D01*
X230725564Y-58838647D02*
X230916040Y-58838647D01*
X230296992Y-59267219D02*
X230296992Y-58267219D01*
X230296992Y-58267219D02*
X229725564Y-59267219D01*
X229725564Y-59267219D02*
X229725564Y-58267219D01*
X229249373Y-59267219D02*
X229249373Y-58267219D01*
X229249373Y-58267219D02*
X229011278Y-58267219D01*
X229011278Y-58267219D02*
X228868421Y-58314838D01*
X228868421Y-58314838D02*
X228773183Y-58410076D01*
X228773183Y-58410076D02*
X228725564Y-58505314D01*
X228725564Y-58505314D02*
X228677945Y-58695790D01*
X228677945Y-58695790D02*
X228677945Y-58838647D01*
X228677945Y-58838647D02*
X228725564Y-59029123D01*
X228725564Y-59029123D02*
X228773183Y-59124361D01*
X228773183Y-59124361D02*
X228868421Y-59219600D01*
X228868421Y-59219600D02*
X229011278Y-59267219D01*
X229011278Y-59267219D02*
X229249373Y-59267219D01*
X228344611Y-59648171D02*
X228296992Y-59600552D01*
X228296992Y-59600552D02*
X228201754Y-59457695D01*
X228201754Y-59457695D02*
X228154135Y-59362457D01*
X228154135Y-59362457D02*
X228106516Y-59219600D01*
X228106516Y-59219600D02*
X228058897Y-58981504D01*
X228058897Y-58981504D02*
X228058897Y-58791028D01*
X228058897Y-58791028D02*
X228106516Y-58552933D01*
X228106516Y-58552933D02*
X228154135Y-58410076D01*
X228154135Y-58410076D02*
X228201754Y-58314838D01*
X228201754Y-58314838D02*
X228296992Y-58171980D01*
X228296992Y-58171980D02*
X228344611Y-58124361D01*
X235201755Y-46200552D02*
X235201755Y-46867219D01*
X235439850Y-45819600D02*
X235677945Y-46533885D01*
X235677945Y-46533885D02*
X235058898Y-46533885D01*
X234487469Y-45867219D02*
X234392231Y-45867219D01*
X234392231Y-45867219D02*
X234296993Y-45914838D01*
X234296993Y-45914838D02*
X234249374Y-45962457D01*
X234249374Y-45962457D02*
X234201755Y-46057695D01*
X234201755Y-46057695D02*
X234154136Y-46248171D01*
X234154136Y-46248171D02*
X234154136Y-46486266D01*
X234154136Y-46486266D02*
X234201755Y-46676742D01*
X234201755Y-46676742D02*
X234249374Y-46771980D01*
X234249374Y-46771980D02*
X234296993Y-46819600D01*
X234296993Y-46819600D02*
X234392231Y-46867219D01*
X234392231Y-46867219D02*
X234487469Y-46867219D01*
X234487469Y-46867219D02*
X234582707Y-46819600D01*
X234582707Y-46819600D02*
X234630326Y-46771980D01*
X234630326Y-46771980D02*
X234677945Y-46676742D01*
X234677945Y-46676742D02*
X234725564Y-46486266D01*
X234725564Y-46486266D02*
X234725564Y-46248171D01*
X234725564Y-46248171D02*
X234677945Y-46057695D01*
X234677945Y-46057695D02*
X234630326Y-45962457D01*
X234630326Y-45962457D02*
X234582707Y-45914838D01*
X234582707Y-45914838D02*
X234487469Y-45867219D01*
X113894980Y-87463333D02*
X113942600Y-87415714D01*
X113942600Y-87415714D02*
X113990219Y-87272857D01*
X113990219Y-87272857D02*
X113990219Y-87177619D01*
X113990219Y-87177619D02*
X113942600Y-87034762D01*
X113942600Y-87034762D02*
X113847361Y-86939524D01*
X113847361Y-86939524D02*
X113752123Y-86891905D01*
X113752123Y-86891905D02*
X113561647Y-86844286D01*
X113561647Y-86844286D02*
X113418790Y-86844286D01*
X113418790Y-86844286D02*
X113228314Y-86891905D01*
X113228314Y-86891905D02*
X113133076Y-86939524D01*
X113133076Y-86939524D02*
X113037838Y-87034762D01*
X113037838Y-87034762D02*
X112990219Y-87177619D01*
X112990219Y-87177619D02*
X112990219Y-87272857D01*
X112990219Y-87272857D02*
X113037838Y-87415714D01*
X113037838Y-87415714D02*
X113085457Y-87463333D01*
X112990219Y-87796667D02*
X112990219Y-88415714D01*
X112990219Y-88415714D02*
X113371171Y-88082381D01*
X113371171Y-88082381D02*
X113371171Y-88225238D01*
X113371171Y-88225238D02*
X113418790Y-88320476D01*
X113418790Y-88320476D02*
X113466409Y-88368095D01*
X113466409Y-88368095D02*
X113561647Y-88415714D01*
X113561647Y-88415714D02*
X113799742Y-88415714D01*
X113799742Y-88415714D02*
X113894980Y-88368095D01*
X113894980Y-88368095D02*
X113942600Y-88320476D01*
X113942600Y-88320476D02*
X113990219Y-88225238D01*
X113990219Y-88225238D02*
X113990219Y-87939524D01*
X113990219Y-87939524D02*
X113942600Y-87844286D01*
X113942600Y-87844286D02*
X113894980Y-87796667D01*
X199238980Y-76607142D02*
X199286600Y-76559523D01*
X199286600Y-76559523D02*
X199334219Y-76416666D01*
X199334219Y-76416666D02*
X199334219Y-76321428D01*
X199334219Y-76321428D02*
X199286600Y-76178571D01*
X199286600Y-76178571D02*
X199191361Y-76083333D01*
X199191361Y-76083333D02*
X199096123Y-76035714D01*
X199096123Y-76035714D02*
X198905647Y-75988095D01*
X198905647Y-75988095D02*
X198762790Y-75988095D01*
X198762790Y-75988095D02*
X198572314Y-76035714D01*
X198572314Y-76035714D02*
X198477076Y-76083333D01*
X198477076Y-76083333D02*
X198381838Y-76178571D01*
X198381838Y-76178571D02*
X198334219Y-76321428D01*
X198334219Y-76321428D02*
X198334219Y-76416666D01*
X198334219Y-76416666D02*
X198381838Y-76559523D01*
X198381838Y-76559523D02*
X198429457Y-76607142D01*
X199334219Y-77559523D02*
X199334219Y-76988095D01*
X199334219Y-77273809D02*
X198334219Y-77273809D01*
X198334219Y-77273809D02*
X198477076Y-77178571D01*
X198477076Y-77178571D02*
X198572314Y-77083333D01*
X198572314Y-77083333D02*
X198619933Y-76988095D01*
X199334219Y-78035714D02*
X199334219Y-78226190D01*
X199334219Y-78226190D02*
X199286600Y-78321428D01*
X199286600Y-78321428D02*
X199238980Y-78369047D01*
X199238980Y-78369047D02*
X199096123Y-78464285D01*
X199096123Y-78464285D02*
X198905647Y-78511904D01*
X198905647Y-78511904D02*
X198524695Y-78511904D01*
X198524695Y-78511904D02*
X198429457Y-78464285D01*
X198429457Y-78464285D02*
X198381838Y-78416666D01*
X198381838Y-78416666D02*
X198334219Y-78321428D01*
X198334219Y-78321428D02*
X198334219Y-78130952D01*
X198334219Y-78130952D02*
X198381838Y-78035714D01*
X198381838Y-78035714D02*
X198429457Y-77988095D01*
X198429457Y-77988095D02*
X198524695Y-77940476D01*
X198524695Y-77940476D02*
X198762790Y-77940476D01*
X198762790Y-77940476D02*
X198858028Y-77988095D01*
X198858028Y-77988095D02*
X198905647Y-78035714D01*
X198905647Y-78035714D02*
X198953266Y-78130952D01*
X198953266Y-78130952D02*
X198953266Y-78321428D01*
X198953266Y-78321428D02*
X198905647Y-78416666D01*
X198905647Y-78416666D02*
X198858028Y-78464285D01*
X198858028Y-78464285D02*
X198762790Y-78511904D01*
X179639107Y-58898219D02*
X179972440Y-58422028D01*
X180210535Y-58898219D02*
X180210535Y-57898219D01*
X180210535Y-57898219D02*
X179829583Y-57898219D01*
X179829583Y-57898219D02*
X179734345Y-57945838D01*
X179734345Y-57945838D02*
X179686726Y-57993457D01*
X179686726Y-57993457D02*
X179639107Y-58088695D01*
X179639107Y-58088695D02*
X179639107Y-58231552D01*
X179639107Y-58231552D02*
X179686726Y-58326790D01*
X179686726Y-58326790D02*
X179734345Y-58374409D01*
X179734345Y-58374409D02*
X179829583Y-58422028D01*
X179829583Y-58422028D02*
X180210535Y-58422028D01*
X178686726Y-58898219D02*
X179258154Y-58898219D01*
X178972440Y-58898219D02*
X178972440Y-57898219D01*
X178972440Y-57898219D02*
X179067678Y-58041076D01*
X179067678Y-58041076D02*
X179162916Y-58136314D01*
X179162916Y-58136314D02*
X179258154Y-58183933D01*
X178067678Y-57898219D02*
X177972440Y-57898219D01*
X177972440Y-57898219D02*
X177877202Y-57945838D01*
X177877202Y-57945838D02*
X177829583Y-57993457D01*
X177829583Y-57993457D02*
X177781964Y-58088695D01*
X177781964Y-58088695D02*
X177734345Y-58279171D01*
X177734345Y-58279171D02*
X177734345Y-58517266D01*
X177734345Y-58517266D02*
X177781964Y-58707742D01*
X177781964Y-58707742D02*
X177829583Y-58802980D01*
X177829583Y-58802980D02*
X177877202Y-58850600D01*
X177877202Y-58850600D02*
X177972440Y-58898219D01*
X177972440Y-58898219D02*
X178067678Y-58898219D01*
X178067678Y-58898219D02*
X178162916Y-58850600D01*
X178162916Y-58850600D02*
X178210535Y-58802980D01*
X178210535Y-58802980D02*
X178258154Y-58707742D01*
X178258154Y-58707742D02*
X178305773Y-58517266D01*
X178305773Y-58517266D02*
X178305773Y-58279171D01*
X178305773Y-58279171D02*
X178258154Y-58088695D01*
X178258154Y-58088695D02*
X178210535Y-57993457D01*
X178210535Y-57993457D02*
X178162916Y-57945838D01*
X178162916Y-57945838D02*
X178067678Y-57898219D01*
X125833333Y-99496409D02*
X126166666Y-99496409D01*
X126166666Y-100020219D02*
X126166666Y-99020219D01*
X126166666Y-99020219D02*
X125690476Y-99020219D01*
X124976190Y-99496409D02*
X124833333Y-99544028D01*
X124833333Y-99544028D02*
X124785714Y-99591647D01*
X124785714Y-99591647D02*
X124738095Y-99686885D01*
X124738095Y-99686885D02*
X124738095Y-99829742D01*
X124738095Y-99829742D02*
X124785714Y-99924980D01*
X124785714Y-99924980D02*
X124833333Y-99972600D01*
X124833333Y-99972600D02*
X124928571Y-100020219D01*
X124928571Y-100020219D02*
X125309523Y-100020219D01*
X125309523Y-100020219D02*
X125309523Y-99020219D01*
X125309523Y-99020219D02*
X124976190Y-99020219D01*
X124976190Y-99020219D02*
X124880952Y-99067838D01*
X124880952Y-99067838D02*
X124833333Y-99115457D01*
X124833333Y-99115457D02*
X124785714Y-99210695D01*
X124785714Y-99210695D02*
X124785714Y-99305933D01*
X124785714Y-99305933D02*
X124833333Y-99401171D01*
X124833333Y-99401171D02*
X124880952Y-99448790D01*
X124880952Y-99448790D02*
X124976190Y-99496409D01*
X124976190Y-99496409D02*
X125309523Y-99496409D01*
X124357142Y-99115457D02*
X124309523Y-99067838D01*
X124309523Y-99067838D02*
X124214285Y-99020219D01*
X124214285Y-99020219D02*
X123976190Y-99020219D01*
X123976190Y-99020219D02*
X123880952Y-99067838D01*
X123880952Y-99067838D02*
X123833333Y-99115457D01*
X123833333Y-99115457D02*
X123785714Y-99210695D01*
X123785714Y-99210695D02*
X123785714Y-99305933D01*
X123785714Y-99305933D02*
X123833333Y-99448790D01*
X123833333Y-99448790D02*
X124404761Y-100020219D01*
X124404761Y-100020219D02*
X123785714Y-100020219D01*
X223908857Y-100432980D02*
X223956476Y-100480600D01*
X223956476Y-100480600D02*
X224099333Y-100528219D01*
X224099333Y-100528219D02*
X224194571Y-100528219D01*
X224194571Y-100528219D02*
X224337428Y-100480600D01*
X224337428Y-100480600D02*
X224432666Y-100385361D01*
X224432666Y-100385361D02*
X224480285Y-100290123D01*
X224480285Y-100290123D02*
X224527904Y-100099647D01*
X224527904Y-100099647D02*
X224527904Y-99956790D01*
X224527904Y-99956790D02*
X224480285Y-99766314D01*
X224480285Y-99766314D02*
X224432666Y-99671076D01*
X224432666Y-99671076D02*
X224337428Y-99575838D01*
X224337428Y-99575838D02*
X224194571Y-99528219D01*
X224194571Y-99528219D02*
X224099333Y-99528219D01*
X224099333Y-99528219D02*
X223956476Y-99575838D01*
X223956476Y-99575838D02*
X223908857Y-99623457D01*
X222956476Y-100528219D02*
X223527904Y-100528219D01*
X223242190Y-100528219D02*
X223242190Y-99528219D01*
X223242190Y-99528219D02*
X223337428Y-99671076D01*
X223337428Y-99671076D02*
X223432666Y-99766314D01*
X223432666Y-99766314D02*
X223527904Y-99813933D01*
X222575523Y-99623457D02*
X222527904Y-99575838D01*
X222527904Y-99575838D02*
X222432666Y-99528219D01*
X222432666Y-99528219D02*
X222194571Y-99528219D01*
X222194571Y-99528219D02*
X222099333Y-99575838D01*
X222099333Y-99575838D02*
X222051714Y-99623457D01*
X222051714Y-99623457D02*
X222004095Y-99718695D01*
X222004095Y-99718695D02*
X222004095Y-99813933D01*
X222004095Y-99813933D02*
X222051714Y-99956790D01*
X222051714Y-99956790D02*
X222623142Y-100528219D01*
X222623142Y-100528219D02*
X222004095Y-100528219D01*
X142120857Y-42266980D02*
X142168476Y-42314600D01*
X142168476Y-42314600D02*
X142311333Y-42362219D01*
X142311333Y-42362219D02*
X142406571Y-42362219D01*
X142406571Y-42362219D02*
X142549428Y-42314600D01*
X142549428Y-42314600D02*
X142644666Y-42219361D01*
X142644666Y-42219361D02*
X142692285Y-42124123D01*
X142692285Y-42124123D02*
X142739904Y-41933647D01*
X142739904Y-41933647D02*
X142739904Y-41790790D01*
X142739904Y-41790790D02*
X142692285Y-41600314D01*
X142692285Y-41600314D02*
X142644666Y-41505076D01*
X142644666Y-41505076D02*
X142549428Y-41409838D01*
X142549428Y-41409838D02*
X142406571Y-41362219D01*
X142406571Y-41362219D02*
X142311333Y-41362219D01*
X142311333Y-41362219D02*
X142168476Y-41409838D01*
X142168476Y-41409838D02*
X142120857Y-41457457D01*
X141739904Y-41457457D02*
X141692285Y-41409838D01*
X141692285Y-41409838D02*
X141597047Y-41362219D01*
X141597047Y-41362219D02*
X141358952Y-41362219D01*
X141358952Y-41362219D02*
X141263714Y-41409838D01*
X141263714Y-41409838D02*
X141216095Y-41457457D01*
X141216095Y-41457457D02*
X141168476Y-41552695D01*
X141168476Y-41552695D02*
X141168476Y-41647933D01*
X141168476Y-41647933D02*
X141216095Y-41790790D01*
X141216095Y-41790790D02*
X141787523Y-42362219D01*
X141787523Y-42362219D02*
X141168476Y-42362219D01*
X140263714Y-41362219D02*
X140739904Y-41362219D01*
X140739904Y-41362219D02*
X140787523Y-41838409D01*
X140787523Y-41838409D02*
X140739904Y-41790790D01*
X140739904Y-41790790D02*
X140644666Y-41743171D01*
X140644666Y-41743171D02*
X140406571Y-41743171D01*
X140406571Y-41743171D02*
X140311333Y-41790790D01*
X140311333Y-41790790D02*
X140263714Y-41838409D01*
X140263714Y-41838409D02*
X140216095Y-41933647D01*
X140216095Y-41933647D02*
X140216095Y-42171742D01*
X140216095Y-42171742D02*
X140263714Y-42266980D01*
X140263714Y-42266980D02*
X140311333Y-42314600D01*
X140311333Y-42314600D02*
X140406571Y-42362219D01*
X140406571Y-42362219D02*
X140644666Y-42362219D01*
X140644666Y-42362219D02*
X140739904Y-42314600D01*
X140739904Y-42314600D02*
X140787523Y-42266980D01*
X125928219Y-86447333D02*
X125452028Y-86114000D01*
X125928219Y-85875905D02*
X124928219Y-85875905D01*
X124928219Y-85875905D02*
X124928219Y-86256857D01*
X124928219Y-86256857D02*
X124975838Y-86352095D01*
X124975838Y-86352095D02*
X125023457Y-86399714D01*
X125023457Y-86399714D02*
X125118695Y-86447333D01*
X125118695Y-86447333D02*
X125261552Y-86447333D01*
X125261552Y-86447333D02*
X125356790Y-86399714D01*
X125356790Y-86399714D02*
X125404409Y-86352095D01*
X125404409Y-86352095D02*
X125452028Y-86256857D01*
X125452028Y-86256857D02*
X125452028Y-85875905D01*
X124928219Y-87304476D02*
X124928219Y-87114000D01*
X124928219Y-87114000D02*
X124975838Y-87018762D01*
X124975838Y-87018762D02*
X125023457Y-86971143D01*
X125023457Y-86971143D02*
X125166314Y-86875905D01*
X125166314Y-86875905D02*
X125356790Y-86828286D01*
X125356790Y-86828286D02*
X125737742Y-86828286D01*
X125737742Y-86828286D02*
X125832980Y-86875905D01*
X125832980Y-86875905D02*
X125880600Y-86923524D01*
X125880600Y-86923524D02*
X125928219Y-87018762D01*
X125928219Y-87018762D02*
X125928219Y-87209238D01*
X125928219Y-87209238D02*
X125880600Y-87304476D01*
X125880600Y-87304476D02*
X125832980Y-87352095D01*
X125832980Y-87352095D02*
X125737742Y-87399714D01*
X125737742Y-87399714D02*
X125499647Y-87399714D01*
X125499647Y-87399714D02*
X125404409Y-87352095D01*
X125404409Y-87352095D02*
X125356790Y-87304476D01*
X125356790Y-87304476D02*
X125309171Y-87209238D01*
X125309171Y-87209238D02*
X125309171Y-87018762D01*
X125309171Y-87018762D02*
X125356790Y-86923524D01*
X125356790Y-86923524D02*
X125404409Y-86875905D01*
X125404409Y-86875905D02*
X125499647Y-86828286D01*
X221082980Y-85717142D02*
X221130600Y-85669523D01*
X221130600Y-85669523D02*
X221178219Y-85526666D01*
X221178219Y-85526666D02*
X221178219Y-85431428D01*
X221178219Y-85431428D02*
X221130600Y-85288571D01*
X221130600Y-85288571D02*
X221035361Y-85193333D01*
X221035361Y-85193333D02*
X220940123Y-85145714D01*
X220940123Y-85145714D02*
X220749647Y-85098095D01*
X220749647Y-85098095D02*
X220606790Y-85098095D01*
X220606790Y-85098095D02*
X220416314Y-85145714D01*
X220416314Y-85145714D02*
X220321076Y-85193333D01*
X220321076Y-85193333D02*
X220225838Y-85288571D01*
X220225838Y-85288571D02*
X220178219Y-85431428D01*
X220178219Y-85431428D02*
X220178219Y-85526666D01*
X220178219Y-85526666D02*
X220225838Y-85669523D01*
X220225838Y-85669523D02*
X220273457Y-85717142D01*
X220273457Y-86098095D02*
X220225838Y-86145714D01*
X220225838Y-86145714D02*
X220178219Y-86240952D01*
X220178219Y-86240952D02*
X220178219Y-86479047D01*
X220178219Y-86479047D02*
X220225838Y-86574285D01*
X220225838Y-86574285D02*
X220273457Y-86621904D01*
X220273457Y-86621904D02*
X220368695Y-86669523D01*
X220368695Y-86669523D02*
X220463933Y-86669523D01*
X220463933Y-86669523D02*
X220606790Y-86621904D01*
X220606790Y-86621904D02*
X221178219Y-86050476D01*
X221178219Y-86050476D02*
X221178219Y-86669523D01*
X220178219Y-87288571D02*
X220178219Y-87383809D01*
X220178219Y-87383809D02*
X220225838Y-87479047D01*
X220225838Y-87479047D02*
X220273457Y-87526666D01*
X220273457Y-87526666D02*
X220368695Y-87574285D01*
X220368695Y-87574285D02*
X220559171Y-87621904D01*
X220559171Y-87621904D02*
X220797266Y-87621904D01*
X220797266Y-87621904D02*
X220987742Y-87574285D01*
X220987742Y-87574285D02*
X221082980Y-87526666D01*
X221082980Y-87526666D02*
X221130600Y-87479047D01*
X221130600Y-87479047D02*
X221178219Y-87383809D01*
X221178219Y-87383809D02*
X221178219Y-87288571D01*
X221178219Y-87288571D02*
X221130600Y-87193333D01*
X221130600Y-87193333D02*
X221082980Y-87145714D01*
X221082980Y-87145714D02*
X220987742Y-87098095D01*
X220987742Y-87098095D02*
X220797266Y-87050476D01*
X220797266Y-87050476D02*
X220559171Y-87050476D01*
X220559171Y-87050476D02*
X220368695Y-87098095D01*
X220368695Y-87098095D02*
X220273457Y-87145714D01*
X220273457Y-87145714D02*
X220225838Y-87193333D01*
X220225838Y-87193333D02*
X220178219Y-87288571D01*
X187570980Y-88357142D02*
X187618600Y-88309523D01*
X187618600Y-88309523D02*
X187666219Y-88166666D01*
X187666219Y-88166666D02*
X187666219Y-88071428D01*
X187666219Y-88071428D02*
X187618600Y-87928571D01*
X187618600Y-87928571D02*
X187523361Y-87833333D01*
X187523361Y-87833333D02*
X187428123Y-87785714D01*
X187428123Y-87785714D02*
X187237647Y-87738095D01*
X187237647Y-87738095D02*
X187094790Y-87738095D01*
X187094790Y-87738095D02*
X186904314Y-87785714D01*
X186904314Y-87785714D02*
X186809076Y-87833333D01*
X186809076Y-87833333D02*
X186713838Y-87928571D01*
X186713838Y-87928571D02*
X186666219Y-88071428D01*
X186666219Y-88071428D02*
X186666219Y-88166666D01*
X186666219Y-88166666D02*
X186713838Y-88309523D01*
X186713838Y-88309523D02*
X186761457Y-88357142D01*
X187666219Y-89309523D02*
X187666219Y-88738095D01*
X187666219Y-89023809D02*
X186666219Y-89023809D01*
X186666219Y-89023809D02*
X186809076Y-88928571D01*
X186809076Y-88928571D02*
X186904314Y-88833333D01*
X186904314Y-88833333D02*
X186951933Y-88738095D01*
X186666219Y-89928571D02*
X186666219Y-90023809D01*
X186666219Y-90023809D02*
X186713838Y-90119047D01*
X186713838Y-90119047D02*
X186761457Y-90166666D01*
X186761457Y-90166666D02*
X186856695Y-90214285D01*
X186856695Y-90214285D02*
X187047171Y-90261904D01*
X187047171Y-90261904D02*
X187285266Y-90261904D01*
X187285266Y-90261904D02*
X187475742Y-90214285D01*
X187475742Y-90214285D02*
X187570980Y-90166666D01*
X187570980Y-90166666D02*
X187618600Y-90119047D01*
X187618600Y-90119047D02*
X187666219Y-90023809D01*
X187666219Y-90023809D02*
X187666219Y-89928571D01*
X187666219Y-89928571D02*
X187618600Y-89833333D01*
X187618600Y-89833333D02*
X187570980Y-89785714D01*
X187570980Y-89785714D02*
X187475742Y-89738095D01*
X187475742Y-89738095D02*
X187285266Y-89690476D01*
X187285266Y-89690476D02*
X187047171Y-89690476D01*
X187047171Y-89690476D02*
X186856695Y-89738095D01*
X186856695Y-89738095D02*
X186761457Y-89785714D01*
X186761457Y-89785714D02*
X186713838Y-89833333D01*
X186713838Y-89833333D02*
X186666219Y-89928571D01*
X170505333Y-80970409D02*
X170838666Y-80970409D01*
X170838666Y-81494219D02*
X170838666Y-80494219D01*
X170838666Y-80494219D02*
X170362476Y-80494219D01*
X169648190Y-80970409D02*
X169505333Y-81018028D01*
X169505333Y-81018028D02*
X169457714Y-81065647D01*
X169457714Y-81065647D02*
X169410095Y-81160885D01*
X169410095Y-81160885D02*
X169410095Y-81303742D01*
X169410095Y-81303742D02*
X169457714Y-81398980D01*
X169457714Y-81398980D02*
X169505333Y-81446600D01*
X169505333Y-81446600D02*
X169600571Y-81494219D01*
X169600571Y-81494219D02*
X169981523Y-81494219D01*
X169981523Y-81494219D02*
X169981523Y-80494219D01*
X169981523Y-80494219D02*
X169648190Y-80494219D01*
X169648190Y-80494219D02*
X169552952Y-80541838D01*
X169552952Y-80541838D02*
X169505333Y-80589457D01*
X169505333Y-80589457D02*
X169457714Y-80684695D01*
X169457714Y-80684695D02*
X169457714Y-80779933D01*
X169457714Y-80779933D02*
X169505333Y-80875171D01*
X169505333Y-80875171D02*
X169552952Y-80922790D01*
X169552952Y-80922790D02*
X169648190Y-80970409D01*
X169648190Y-80970409D02*
X169981523Y-80970409D01*
X168457714Y-81494219D02*
X169029142Y-81494219D01*
X168743428Y-81494219D02*
X168743428Y-80494219D01*
X168743428Y-80494219D02*
X168838666Y-80637076D01*
X168838666Y-80637076D02*
X168933904Y-80732314D01*
X168933904Y-80732314D02*
X169029142Y-80779933D01*
X132690980Y-81367333D02*
X132738600Y-81319714D01*
X132738600Y-81319714D02*
X132786219Y-81176857D01*
X132786219Y-81176857D02*
X132786219Y-81081619D01*
X132786219Y-81081619D02*
X132738600Y-80938762D01*
X132738600Y-80938762D02*
X132643361Y-80843524D01*
X132643361Y-80843524D02*
X132548123Y-80795905D01*
X132548123Y-80795905D02*
X132357647Y-80748286D01*
X132357647Y-80748286D02*
X132214790Y-80748286D01*
X132214790Y-80748286D02*
X132024314Y-80795905D01*
X132024314Y-80795905D02*
X131929076Y-80843524D01*
X131929076Y-80843524D02*
X131833838Y-80938762D01*
X131833838Y-80938762D02*
X131786219Y-81081619D01*
X131786219Y-81081619D02*
X131786219Y-81176857D01*
X131786219Y-81176857D02*
X131833838Y-81319714D01*
X131833838Y-81319714D02*
X131881457Y-81367333D01*
X132786219Y-82319714D02*
X132786219Y-81748286D01*
X132786219Y-82034000D02*
X131786219Y-82034000D01*
X131786219Y-82034000D02*
X131929076Y-81938762D01*
X131929076Y-81938762D02*
X132024314Y-81843524D01*
X132024314Y-81843524D02*
X132071933Y-81748286D01*
X189110857Y-60300980D02*
X189158476Y-60348600D01*
X189158476Y-60348600D02*
X189301333Y-60396219D01*
X189301333Y-60396219D02*
X189396571Y-60396219D01*
X189396571Y-60396219D02*
X189539428Y-60348600D01*
X189539428Y-60348600D02*
X189634666Y-60253361D01*
X189634666Y-60253361D02*
X189682285Y-60158123D01*
X189682285Y-60158123D02*
X189729904Y-59967647D01*
X189729904Y-59967647D02*
X189729904Y-59824790D01*
X189729904Y-59824790D02*
X189682285Y-59634314D01*
X189682285Y-59634314D02*
X189634666Y-59539076D01*
X189634666Y-59539076D02*
X189539428Y-59443838D01*
X189539428Y-59443838D02*
X189396571Y-59396219D01*
X189396571Y-59396219D02*
X189301333Y-59396219D01*
X189301333Y-59396219D02*
X189158476Y-59443838D01*
X189158476Y-59443838D02*
X189110857Y-59491457D01*
X188729904Y-59491457D02*
X188682285Y-59443838D01*
X188682285Y-59443838D02*
X188587047Y-59396219D01*
X188587047Y-59396219D02*
X188348952Y-59396219D01*
X188348952Y-59396219D02*
X188253714Y-59443838D01*
X188253714Y-59443838D02*
X188206095Y-59491457D01*
X188206095Y-59491457D02*
X188158476Y-59586695D01*
X188158476Y-59586695D02*
X188158476Y-59681933D01*
X188158476Y-59681933D02*
X188206095Y-59824790D01*
X188206095Y-59824790D02*
X188777523Y-60396219D01*
X188777523Y-60396219D02*
X188158476Y-60396219D01*
X187301333Y-59729552D02*
X187301333Y-60396219D01*
X187539428Y-59348600D02*
X187777523Y-60062885D01*
X187777523Y-60062885D02*
X187158476Y-60062885D01*
X139330857Y-74016980D02*
X139378476Y-74064600D01*
X139378476Y-74064600D02*
X139521333Y-74112219D01*
X139521333Y-74112219D02*
X139616571Y-74112219D01*
X139616571Y-74112219D02*
X139759428Y-74064600D01*
X139759428Y-74064600D02*
X139854666Y-73969361D01*
X139854666Y-73969361D02*
X139902285Y-73874123D01*
X139902285Y-73874123D02*
X139949904Y-73683647D01*
X139949904Y-73683647D02*
X139949904Y-73540790D01*
X139949904Y-73540790D02*
X139902285Y-73350314D01*
X139902285Y-73350314D02*
X139854666Y-73255076D01*
X139854666Y-73255076D02*
X139759428Y-73159838D01*
X139759428Y-73159838D02*
X139616571Y-73112219D01*
X139616571Y-73112219D02*
X139521333Y-73112219D01*
X139521333Y-73112219D02*
X139378476Y-73159838D01*
X139378476Y-73159838D02*
X139330857Y-73207457D01*
X138378476Y-74112219D02*
X138949904Y-74112219D01*
X138664190Y-74112219D02*
X138664190Y-73112219D01*
X138664190Y-73112219D02*
X138759428Y-73255076D01*
X138759428Y-73255076D02*
X138854666Y-73350314D01*
X138854666Y-73350314D02*
X138949904Y-73397933D01*
X137521333Y-73112219D02*
X137711809Y-73112219D01*
X137711809Y-73112219D02*
X137807047Y-73159838D01*
X137807047Y-73159838D02*
X137854666Y-73207457D01*
X137854666Y-73207457D02*
X137949904Y-73350314D01*
X137949904Y-73350314D02*
X137997523Y-73540790D01*
X137997523Y-73540790D02*
X137997523Y-73921742D01*
X137997523Y-73921742D02*
X137949904Y-74016980D01*
X137949904Y-74016980D02*
X137902285Y-74064600D01*
X137902285Y-74064600D02*
X137807047Y-74112219D01*
X137807047Y-74112219D02*
X137616571Y-74112219D01*
X137616571Y-74112219D02*
X137521333Y-74064600D01*
X137521333Y-74064600D02*
X137473714Y-74016980D01*
X137473714Y-74016980D02*
X137426095Y-73921742D01*
X137426095Y-73921742D02*
X137426095Y-73683647D01*
X137426095Y-73683647D02*
X137473714Y-73588409D01*
X137473714Y-73588409D02*
X137521333Y-73540790D01*
X137521333Y-73540790D02*
X137616571Y-73493171D01*
X137616571Y-73493171D02*
X137807047Y-73493171D01*
X137807047Y-73493171D02*
X137902285Y-73540790D01*
X137902285Y-73540790D02*
X137949904Y-73588409D01*
X137949904Y-73588409D02*
X137997523Y-73683647D01*
X113894980Y-84161333D02*
X113942600Y-84113714D01*
X113942600Y-84113714D02*
X113990219Y-83970857D01*
X113990219Y-83970857D02*
X113990219Y-83875619D01*
X113990219Y-83875619D02*
X113942600Y-83732762D01*
X113942600Y-83732762D02*
X113847361Y-83637524D01*
X113847361Y-83637524D02*
X113752123Y-83589905D01*
X113752123Y-83589905D02*
X113561647Y-83542286D01*
X113561647Y-83542286D02*
X113418790Y-83542286D01*
X113418790Y-83542286D02*
X113228314Y-83589905D01*
X113228314Y-83589905D02*
X113133076Y-83637524D01*
X113133076Y-83637524D02*
X113037838Y-83732762D01*
X113037838Y-83732762D02*
X112990219Y-83875619D01*
X112990219Y-83875619D02*
X112990219Y-83970857D01*
X112990219Y-83970857D02*
X113037838Y-84113714D01*
X113037838Y-84113714D02*
X113085457Y-84161333D01*
X113323552Y-85018476D02*
X113990219Y-85018476D01*
X112942600Y-84780381D02*
X113656885Y-84542286D01*
X113656885Y-84542286D02*
X113656885Y-85161333D01*
X202064857Y-41758980D02*
X202112476Y-41806600D01*
X202112476Y-41806600D02*
X202255333Y-41854219D01*
X202255333Y-41854219D02*
X202350571Y-41854219D01*
X202350571Y-41854219D02*
X202493428Y-41806600D01*
X202493428Y-41806600D02*
X202588666Y-41711361D01*
X202588666Y-41711361D02*
X202636285Y-41616123D01*
X202636285Y-41616123D02*
X202683904Y-41425647D01*
X202683904Y-41425647D02*
X202683904Y-41282790D01*
X202683904Y-41282790D02*
X202636285Y-41092314D01*
X202636285Y-41092314D02*
X202588666Y-40997076D01*
X202588666Y-40997076D02*
X202493428Y-40901838D01*
X202493428Y-40901838D02*
X202350571Y-40854219D01*
X202350571Y-40854219D02*
X202255333Y-40854219D01*
X202255333Y-40854219D02*
X202112476Y-40901838D01*
X202112476Y-40901838D02*
X202064857Y-40949457D01*
X201112476Y-41854219D02*
X201683904Y-41854219D01*
X201398190Y-41854219D02*
X201398190Y-40854219D01*
X201398190Y-40854219D02*
X201493428Y-40997076D01*
X201493428Y-40997076D02*
X201588666Y-41092314D01*
X201588666Y-41092314D02*
X201683904Y-41139933D01*
X200779142Y-40854219D02*
X200112476Y-40854219D01*
X200112476Y-40854219D02*
X200541047Y-41854219D01*
X144946666Y-110592980D02*
X144994285Y-110640600D01*
X144994285Y-110640600D02*
X145137142Y-110688219D01*
X145137142Y-110688219D02*
X145232380Y-110688219D01*
X145232380Y-110688219D02*
X145375237Y-110640600D01*
X145375237Y-110640600D02*
X145470475Y-110545361D01*
X145470475Y-110545361D02*
X145518094Y-110450123D01*
X145518094Y-110450123D02*
X145565713Y-110259647D01*
X145565713Y-110259647D02*
X145565713Y-110116790D01*
X145565713Y-110116790D02*
X145518094Y-109926314D01*
X145518094Y-109926314D02*
X145470475Y-109831076D01*
X145470475Y-109831076D02*
X145375237Y-109735838D01*
X145375237Y-109735838D02*
X145232380Y-109688219D01*
X145232380Y-109688219D02*
X145137142Y-109688219D01*
X145137142Y-109688219D02*
X144994285Y-109735838D01*
X144994285Y-109735838D02*
X144946666Y-109783457D01*
X144613332Y-109688219D02*
X143946666Y-109688219D01*
X143946666Y-109688219D02*
X144375237Y-110688219D01*
X132436980Y-78065333D02*
X132484600Y-78017714D01*
X132484600Y-78017714D02*
X132532219Y-77874857D01*
X132532219Y-77874857D02*
X132532219Y-77779619D01*
X132532219Y-77779619D02*
X132484600Y-77636762D01*
X132484600Y-77636762D02*
X132389361Y-77541524D01*
X132389361Y-77541524D02*
X132294123Y-77493905D01*
X132294123Y-77493905D02*
X132103647Y-77446286D01*
X132103647Y-77446286D02*
X131960790Y-77446286D01*
X131960790Y-77446286D02*
X131770314Y-77493905D01*
X131770314Y-77493905D02*
X131675076Y-77541524D01*
X131675076Y-77541524D02*
X131579838Y-77636762D01*
X131579838Y-77636762D02*
X131532219Y-77779619D01*
X131532219Y-77779619D02*
X131532219Y-77874857D01*
X131532219Y-77874857D02*
X131579838Y-78017714D01*
X131579838Y-78017714D02*
X131627457Y-78065333D01*
X131627457Y-78446286D02*
X131579838Y-78493905D01*
X131579838Y-78493905D02*
X131532219Y-78589143D01*
X131532219Y-78589143D02*
X131532219Y-78827238D01*
X131532219Y-78827238D02*
X131579838Y-78922476D01*
X131579838Y-78922476D02*
X131627457Y-78970095D01*
X131627457Y-78970095D02*
X131722695Y-79017714D01*
X131722695Y-79017714D02*
X131817933Y-79017714D01*
X131817933Y-79017714D02*
X131960790Y-78970095D01*
X131960790Y-78970095D02*
X132532219Y-78398667D01*
X132532219Y-78398667D02*
X132532219Y-79017714D01*
X239601333Y-96659419D02*
X239601333Y-97373704D01*
X239601333Y-97373704D02*
X239648952Y-97516561D01*
X239648952Y-97516561D02*
X239744190Y-97611800D01*
X239744190Y-97611800D02*
X239887047Y-97659419D01*
X239887047Y-97659419D02*
X239982285Y-97659419D01*
X238601333Y-97659419D02*
X239172761Y-97659419D01*
X238887047Y-97659419D02*
X238887047Y-96659419D01*
X238887047Y-96659419D02*
X238982285Y-96802276D01*
X238982285Y-96802276D02*
X239077523Y-96897514D01*
X239077523Y-96897514D02*
X239172761Y-96945133D01*
X196778409Y-104608476D02*
X196778409Y-104275143D01*
X197302219Y-104275143D02*
X196302219Y-104275143D01*
X196302219Y-104275143D02*
X196302219Y-104751333D01*
X196778409Y-105465619D02*
X196826028Y-105608476D01*
X196826028Y-105608476D02*
X196873647Y-105656095D01*
X196873647Y-105656095D02*
X196968885Y-105703714D01*
X196968885Y-105703714D02*
X197111742Y-105703714D01*
X197111742Y-105703714D02*
X197206980Y-105656095D01*
X197206980Y-105656095D02*
X197254600Y-105608476D01*
X197254600Y-105608476D02*
X197302219Y-105513238D01*
X197302219Y-105513238D02*
X197302219Y-105132286D01*
X197302219Y-105132286D02*
X196302219Y-105132286D01*
X196302219Y-105132286D02*
X196302219Y-105465619D01*
X196302219Y-105465619D02*
X196349838Y-105560857D01*
X196349838Y-105560857D02*
X196397457Y-105608476D01*
X196397457Y-105608476D02*
X196492695Y-105656095D01*
X196492695Y-105656095D02*
X196587933Y-105656095D01*
X196587933Y-105656095D02*
X196683171Y-105608476D01*
X196683171Y-105608476D02*
X196730790Y-105560857D01*
X196730790Y-105560857D02*
X196778409Y-105465619D01*
X196778409Y-105465619D02*
X196778409Y-105132286D01*
X197302219Y-106656095D02*
X197302219Y-106084667D01*
X197302219Y-106370381D02*
X196302219Y-106370381D01*
X196302219Y-106370381D02*
X196445076Y-106275143D01*
X196445076Y-106275143D02*
X196540314Y-106179905D01*
X196540314Y-106179905D02*
X196587933Y-106084667D01*
X196302219Y-107275143D02*
X196302219Y-107370381D01*
X196302219Y-107370381D02*
X196349838Y-107465619D01*
X196349838Y-107465619D02*
X196397457Y-107513238D01*
X196397457Y-107513238D02*
X196492695Y-107560857D01*
X196492695Y-107560857D02*
X196683171Y-107608476D01*
X196683171Y-107608476D02*
X196921266Y-107608476D01*
X196921266Y-107608476D02*
X197111742Y-107560857D01*
X197111742Y-107560857D02*
X197206980Y-107513238D01*
X197206980Y-107513238D02*
X197254600Y-107465619D01*
X197254600Y-107465619D02*
X197302219Y-107370381D01*
X197302219Y-107370381D02*
X197302219Y-107275143D01*
X197302219Y-107275143D02*
X197254600Y-107179905D01*
X197254600Y-107179905D02*
X197206980Y-107132286D01*
X197206980Y-107132286D02*
X197111742Y-107084667D01*
X197111742Y-107084667D02*
X196921266Y-107037048D01*
X196921266Y-107037048D02*
X196683171Y-107037048D01*
X196683171Y-107037048D02*
X196492695Y-107084667D01*
X196492695Y-107084667D02*
X196397457Y-107132286D01*
X196397457Y-107132286D02*
X196349838Y-107179905D01*
X196349838Y-107179905D02*
X196302219Y-107275143D01*
X249864409Y-84141666D02*
X249864409Y-83808333D01*
X250388219Y-83808333D02*
X249388219Y-83808333D01*
X249388219Y-83808333D02*
X249388219Y-84284523D01*
X249864409Y-84998809D02*
X249912028Y-85141666D01*
X249912028Y-85141666D02*
X249959647Y-85189285D01*
X249959647Y-85189285D02*
X250054885Y-85236904D01*
X250054885Y-85236904D02*
X250197742Y-85236904D01*
X250197742Y-85236904D02*
X250292980Y-85189285D01*
X250292980Y-85189285D02*
X250340600Y-85141666D01*
X250340600Y-85141666D02*
X250388219Y-85046428D01*
X250388219Y-85046428D02*
X250388219Y-84665476D01*
X250388219Y-84665476D02*
X249388219Y-84665476D01*
X249388219Y-84665476D02*
X249388219Y-84998809D01*
X249388219Y-84998809D02*
X249435838Y-85094047D01*
X249435838Y-85094047D02*
X249483457Y-85141666D01*
X249483457Y-85141666D02*
X249578695Y-85189285D01*
X249578695Y-85189285D02*
X249673933Y-85189285D01*
X249673933Y-85189285D02*
X249769171Y-85141666D01*
X249769171Y-85141666D02*
X249816790Y-85094047D01*
X249816790Y-85094047D02*
X249864409Y-84998809D01*
X249864409Y-84998809D02*
X249864409Y-84665476D01*
X249388219Y-85570238D02*
X249388219Y-86236904D01*
X249388219Y-86236904D02*
X250388219Y-85808333D01*
X161932857Y-60554980D02*
X161980476Y-60602600D01*
X161980476Y-60602600D02*
X162123333Y-60650219D01*
X162123333Y-60650219D02*
X162218571Y-60650219D01*
X162218571Y-60650219D02*
X162361428Y-60602600D01*
X162361428Y-60602600D02*
X162456666Y-60507361D01*
X162456666Y-60507361D02*
X162504285Y-60412123D01*
X162504285Y-60412123D02*
X162551904Y-60221647D01*
X162551904Y-60221647D02*
X162551904Y-60078790D01*
X162551904Y-60078790D02*
X162504285Y-59888314D01*
X162504285Y-59888314D02*
X162456666Y-59793076D01*
X162456666Y-59793076D02*
X162361428Y-59697838D01*
X162361428Y-59697838D02*
X162218571Y-59650219D01*
X162218571Y-59650219D02*
X162123333Y-59650219D01*
X162123333Y-59650219D02*
X161980476Y-59697838D01*
X161980476Y-59697838D02*
X161932857Y-59745457D01*
X161551904Y-59745457D02*
X161504285Y-59697838D01*
X161504285Y-59697838D02*
X161409047Y-59650219D01*
X161409047Y-59650219D02*
X161170952Y-59650219D01*
X161170952Y-59650219D02*
X161075714Y-59697838D01*
X161075714Y-59697838D02*
X161028095Y-59745457D01*
X161028095Y-59745457D02*
X160980476Y-59840695D01*
X160980476Y-59840695D02*
X160980476Y-59935933D01*
X160980476Y-59935933D02*
X161028095Y-60078790D01*
X161028095Y-60078790D02*
X161599523Y-60650219D01*
X161599523Y-60650219D02*
X160980476Y-60650219D01*
X160123333Y-59650219D02*
X160313809Y-59650219D01*
X160313809Y-59650219D02*
X160409047Y-59697838D01*
X160409047Y-59697838D02*
X160456666Y-59745457D01*
X160456666Y-59745457D02*
X160551904Y-59888314D01*
X160551904Y-59888314D02*
X160599523Y-60078790D01*
X160599523Y-60078790D02*
X160599523Y-60459742D01*
X160599523Y-60459742D02*
X160551904Y-60554980D01*
X160551904Y-60554980D02*
X160504285Y-60602600D01*
X160504285Y-60602600D02*
X160409047Y-60650219D01*
X160409047Y-60650219D02*
X160218571Y-60650219D01*
X160218571Y-60650219D02*
X160123333Y-60602600D01*
X160123333Y-60602600D02*
X160075714Y-60554980D01*
X160075714Y-60554980D02*
X160028095Y-60459742D01*
X160028095Y-60459742D02*
X160028095Y-60221647D01*
X160028095Y-60221647D02*
X160075714Y-60126409D01*
X160075714Y-60126409D02*
X160123333Y-60078790D01*
X160123333Y-60078790D02*
X160218571Y-60031171D01*
X160218571Y-60031171D02*
X160409047Y-60031171D01*
X160409047Y-60031171D02*
X160504285Y-60078790D01*
X160504285Y-60078790D02*
X160551904Y-60126409D01*
X160551904Y-60126409D02*
X160599523Y-60221647D01*
X171838857Y-41800980D02*
X171886476Y-41848600D01*
X171886476Y-41848600D02*
X172029333Y-41896219D01*
X172029333Y-41896219D02*
X172124571Y-41896219D01*
X172124571Y-41896219D02*
X172267428Y-41848600D01*
X172267428Y-41848600D02*
X172362666Y-41753361D01*
X172362666Y-41753361D02*
X172410285Y-41658123D01*
X172410285Y-41658123D02*
X172457904Y-41467647D01*
X172457904Y-41467647D02*
X172457904Y-41324790D01*
X172457904Y-41324790D02*
X172410285Y-41134314D01*
X172410285Y-41134314D02*
X172362666Y-41039076D01*
X172362666Y-41039076D02*
X172267428Y-40943838D01*
X172267428Y-40943838D02*
X172124571Y-40896219D01*
X172124571Y-40896219D02*
X172029333Y-40896219D01*
X172029333Y-40896219D02*
X171886476Y-40943838D01*
X171886476Y-40943838D02*
X171838857Y-40991457D01*
X171457904Y-40991457D02*
X171410285Y-40943838D01*
X171410285Y-40943838D02*
X171315047Y-40896219D01*
X171315047Y-40896219D02*
X171076952Y-40896219D01*
X171076952Y-40896219D02*
X170981714Y-40943838D01*
X170981714Y-40943838D02*
X170934095Y-40991457D01*
X170934095Y-40991457D02*
X170886476Y-41086695D01*
X170886476Y-41086695D02*
X170886476Y-41181933D01*
X170886476Y-41181933D02*
X170934095Y-41324790D01*
X170934095Y-41324790D02*
X171505523Y-41896219D01*
X171505523Y-41896219D02*
X170886476Y-41896219D01*
X170553142Y-40896219D02*
X169934095Y-40896219D01*
X169934095Y-40896219D02*
X170267428Y-41277171D01*
X170267428Y-41277171D02*
X170124571Y-41277171D01*
X170124571Y-41277171D02*
X170029333Y-41324790D01*
X170029333Y-41324790D02*
X169981714Y-41372409D01*
X169981714Y-41372409D02*
X169934095Y-41467647D01*
X169934095Y-41467647D02*
X169934095Y-41705742D01*
X169934095Y-41705742D02*
X169981714Y-41800980D01*
X169981714Y-41800980D02*
X170029333Y-41848600D01*
X170029333Y-41848600D02*
X170124571Y-41896219D01*
X170124571Y-41896219D02*
X170410285Y-41896219D01*
X170410285Y-41896219D02*
X170505523Y-41848600D01*
X170505523Y-41848600D02*
X170553142Y-41800980D01*
X120752980Y-42283142D02*
X120800600Y-42235523D01*
X120800600Y-42235523D02*
X120848219Y-42092666D01*
X120848219Y-42092666D02*
X120848219Y-41997428D01*
X120848219Y-41997428D02*
X120800600Y-41854571D01*
X120800600Y-41854571D02*
X120705361Y-41759333D01*
X120705361Y-41759333D02*
X120610123Y-41711714D01*
X120610123Y-41711714D02*
X120419647Y-41664095D01*
X120419647Y-41664095D02*
X120276790Y-41664095D01*
X120276790Y-41664095D02*
X120086314Y-41711714D01*
X120086314Y-41711714D02*
X119991076Y-41759333D01*
X119991076Y-41759333D02*
X119895838Y-41854571D01*
X119895838Y-41854571D02*
X119848219Y-41997428D01*
X119848219Y-41997428D02*
X119848219Y-42092666D01*
X119848219Y-42092666D02*
X119895838Y-42235523D01*
X119895838Y-42235523D02*
X119943457Y-42283142D01*
X120848219Y-43235523D02*
X120848219Y-42664095D01*
X120848219Y-42949809D02*
X119848219Y-42949809D01*
X119848219Y-42949809D02*
X119991076Y-42854571D01*
X119991076Y-42854571D02*
X120086314Y-42759333D01*
X120086314Y-42759333D02*
X120133933Y-42664095D01*
X119848219Y-43568857D02*
X119848219Y-44187904D01*
X119848219Y-44187904D02*
X120229171Y-43854571D01*
X120229171Y-43854571D02*
X120229171Y-43997428D01*
X120229171Y-43997428D02*
X120276790Y-44092666D01*
X120276790Y-44092666D02*
X120324409Y-44140285D01*
X120324409Y-44140285D02*
X120419647Y-44187904D01*
X120419647Y-44187904D02*
X120657742Y-44187904D01*
X120657742Y-44187904D02*
X120752980Y-44140285D01*
X120752980Y-44140285D02*
X120800600Y-44092666D01*
X120800600Y-44092666D02*
X120848219Y-43997428D01*
X120848219Y-43997428D02*
X120848219Y-43711714D01*
X120848219Y-43711714D02*
X120800600Y-43616476D01*
X120800600Y-43616476D02*
X120752980Y-43568857D01*
X167711333Y-84764409D02*
X168044666Y-84764409D01*
X168044666Y-85288219D02*
X168044666Y-84288219D01*
X168044666Y-84288219D02*
X167568476Y-84288219D01*
X166854190Y-84764409D02*
X166711333Y-84812028D01*
X166711333Y-84812028D02*
X166663714Y-84859647D01*
X166663714Y-84859647D02*
X166616095Y-84954885D01*
X166616095Y-84954885D02*
X166616095Y-85097742D01*
X166616095Y-85097742D02*
X166663714Y-85192980D01*
X166663714Y-85192980D02*
X166711333Y-85240600D01*
X166711333Y-85240600D02*
X166806571Y-85288219D01*
X166806571Y-85288219D02*
X167187523Y-85288219D01*
X167187523Y-85288219D02*
X167187523Y-84288219D01*
X167187523Y-84288219D02*
X166854190Y-84288219D01*
X166854190Y-84288219D02*
X166758952Y-84335838D01*
X166758952Y-84335838D02*
X166711333Y-84383457D01*
X166711333Y-84383457D02*
X166663714Y-84478695D01*
X166663714Y-84478695D02*
X166663714Y-84573933D01*
X166663714Y-84573933D02*
X166711333Y-84669171D01*
X166711333Y-84669171D02*
X166758952Y-84716790D01*
X166758952Y-84716790D02*
X166854190Y-84764409D01*
X166854190Y-84764409D02*
X167187523Y-84764409D01*
X165758952Y-84621552D02*
X165758952Y-85288219D01*
X165997047Y-84240600D02*
X166235142Y-84954885D01*
X166235142Y-84954885D02*
X165616095Y-84954885D01*
X148502666Y-110592980D02*
X148550285Y-110640600D01*
X148550285Y-110640600D02*
X148693142Y-110688219D01*
X148693142Y-110688219D02*
X148788380Y-110688219D01*
X148788380Y-110688219D02*
X148931237Y-110640600D01*
X148931237Y-110640600D02*
X149026475Y-110545361D01*
X149026475Y-110545361D02*
X149074094Y-110450123D01*
X149074094Y-110450123D02*
X149121713Y-110259647D01*
X149121713Y-110259647D02*
X149121713Y-110116790D01*
X149121713Y-110116790D02*
X149074094Y-109926314D01*
X149074094Y-109926314D02*
X149026475Y-109831076D01*
X149026475Y-109831076D02*
X148931237Y-109735838D01*
X148931237Y-109735838D02*
X148788380Y-109688219D01*
X148788380Y-109688219D02*
X148693142Y-109688219D01*
X148693142Y-109688219D02*
X148550285Y-109735838D01*
X148550285Y-109735838D02*
X148502666Y-109783457D01*
X147931237Y-110116790D02*
X148026475Y-110069171D01*
X148026475Y-110069171D02*
X148074094Y-110021552D01*
X148074094Y-110021552D02*
X148121713Y-109926314D01*
X148121713Y-109926314D02*
X148121713Y-109878695D01*
X148121713Y-109878695D02*
X148074094Y-109783457D01*
X148074094Y-109783457D02*
X148026475Y-109735838D01*
X148026475Y-109735838D02*
X147931237Y-109688219D01*
X147931237Y-109688219D02*
X147740761Y-109688219D01*
X147740761Y-109688219D02*
X147645523Y-109735838D01*
X147645523Y-109735838D02*
X147597904Y-109783457D01*
X147597904Y-109783457D02*
X147550285Y-109878695D01*
X147550285Y-109878695D02*
X147550285Y-109926314D01*
X147550285Y-109926314D02*
X147597904Y-110021552D01*
X147597904Y-110021552D02*
X147645523Y-110069171D01*
X147645523Y-110069171D02*
X147740761Y-110116790D01*
X147740761Y-110116790D02*
X147931237Y-110116790D01*
X147931237Y-110116790D02*
X148026475Y-110164409D01*
X148026475Y-110164409D02*
X148074094Y-110212028D01*
X148074094Y-110212028D02*
X148121713Y-110307266D01*
X148121713Y-110307266D02*
X148121713Y-110497742D01*
X148121713Y-110497742D02*
X148074094Y-110592980D01*
X148074094Y-110592980D02*
X148026475Y-110640600D01*
X148026475Y-110640600D02*
X147931237Y-110688219D01*
X147931237Y-110688219D02*
X147740761Y-110688219D01*
X147740761Y-110688219D02*
X147645523Y-110640600D01*
X147645523Y-110640600D02*
X147597904Y-110592980D01*
X147597904Y-110592980D02*
X147550285Y-110497742D01*
X147550285Y-110497742D02*
X147550285Y-110307266D01*
X147550285Y-110307266D02*
X147597904Y-110212028D01*
X147597904Y-110212028D02*
X147645523Y-110164409D01*
X147645523Y-110164409D02*
X147740761Y-110116790D01*
X222130857Y-60300980D02*
X222178476Y-60348600D01*
X222178476Y-60348600D02*
X222321333Y-60396219D01*
X222321333Y-60396219D02*
X222416571Y-60396219D01*
X222416571Y-60396219D02*
X222559428Y-60348600D01*
X222559428Y-60348600D02*
X222654666Y-60253361D01*
X222654666Y-60253361D02*
X222702285Y-60158123D01*
X222702285Y-60158123D02*
X222749904Y-59967647D01*
X222749904Y-59967647D02*
X222749904Y-59824790D01*
X222749904Y-59824790D02*
X222702285Y-59634314D01*
X222702285Y-59634314D02*
X222654666Y-59539076D01*
X222654666Y-59539076D02*
X222559428Y-59443838D01*
X222559428Y-59443838D02*
X222416571Y-59396219D01*
X222416571Y-59396219D02*
X222321333Y-59396219D01*
X222321333Y-59396219D02*
X222178476Y-59443838D01*
X222178476Y-59443838D02*
X222130857Y-59491457D01*
X221178476Y-60396219D02*
X221749904Y-60396219D01*
X221464190Y-60396219D02*
X221464190Y-59396219D01*
X221464190Y-59396219D02*
X221559428Y-59539076D01*
X221559428Y-59539076D02*
X221654666Y-59634314D01*
X221654666Y-59634314D02*
X221749904Y-59681933D01*
X220607047Y-59824790D02*
X220702285Y-59777171D01*
X220702285Y-59777171D02*
X220749904Y-59729552D01*
X220749904Y-59729552D02*
X220797523Y-59634314D01*
X220797523Y-59634314D02*
X220797523Y-59586695D01*
X220797523Y-59586695D02*
X220749904Y-59491457D01*
X220749904Y-59491457D02*
X220702285Y-59443838D01*
X220702285Y-59443838D02*
X220607047Y-59396219D01*
X220607047Y-59396219D02*
X220416571Y-59396219D01*
X220416571Y-59396219D02*
X220321333Y-59443838D01*
X220321333Y-59443838D02*
X220273714Y-59491457D01*
X220273714Y-59491457D02*
X220226095Y-59586695D01*
X220226095Y-59586695D02*
X220226095Y-59634314D01*
X220226095Y-59634314D02*
X220273714Y-59729552D01*
X220273714Y-59729552D02*
X220321333Y-59777171D01*
X220321333Y-59777171D02*
X220416571Y-59824790D01*
X220416571Y-59824790D02*
X220607047Y-59824790D01*
X220607047Y-59824790D02*
X220702285Y-59872409D01*
X220702285Y-59872409D02*
X220749904Y-59920028D01*
X220749904Y-59920028D02*
X220797523Y-60015266D01*
X220797523Y-60015266D02*
X220797523Y-60205742D01*
X220797523Y-60205742D02*
X220749904Y-60300980D01*
X220749904Y-60300980D02*
X220702285Y-60348600D01*
X220702285Y-60348600D02*
X220607047Y-60396219D01*
X220607047Y-60396219D02*
X220416571Y-60396219D01*
X220416571Y-60396219D02*
X220321333Y-60348600D01*
X220321333Y-60348600D02*
X220273714Y-60300980D01*
X220273714Y-60300980D02*
X220226095Y-60205742D01*
X220226095Y-60205742D02*
X220226095Y-60015266D01*
X220226095Y-60015266D02*
X220273714Y-59920028D01*
X220273714Y-59920028D02*
X220321333Y-59872409D01*
X220321333Y-59872409D02*
X220416571Y-59824790D01*
X172666666Y-70460980D02*
X172714285Y-70508600D01*
X172714285Y-70508600D02*
X172857142Y-70556219D01*
X172857142Y-70556219D02*
X172952380Y-70556219D01*
X172952380Y-70556219D02*
X173095237Y-70508600D01*
X173095237Y-70508600D02*
X173190475Y-70413361D01*
X173190475Y-70413361D02*
X173238094Y-70318123D01*
X173238094Y-70318123D02*
X173285713Y-70127647D01*
X173285713Y-70127647D02*
X173285713Y-69984790D01*
X173285713Y-69984790D02*
X173238094Y-69794314D01*
X173238094Y-69794314D02*
X173190475Y-69699076D01*
X173190475Y-69699076D02*
X173095237Y-69603838D01*
X173095237Y-69603838D02*
X172952380Y-69556219D01*
X172952380Y-69556219D02*
X172857142Y-69556219D01*
X172857142Y-69556219D02*
X172714285Y-69603838D01*
X172714285Y-69603838D02*
X172666666Y-69651457D01*
X172190475Y-70556219D02*
X171999999Y-70556219D01*
X171999999Y-70556219D02*
X171904761Y-70508600D01*
X171904761Y-70508600D02*
X171857142Y-70460980D01*
X171857142Y-70460980D02*
X171761904Y-70318123D01*
X171761904Y-70318123D02*
X171714285Y-70127647D01*
X171714285Y-70127647D02*
X171714285Y-69746695D01*
X171714285Y-69746695D02*
X171761904Y-69651457D01*
X171761904Y-69651457D02*
X171809523Y-69603838D01*
X171809523Y-69603838D02*
X171904761Y-69556219D01*
X171904761Y-69556219D02*
X172095237Y-69556219D01*
X172095237Y-69556219D02*
X172190475Y-69603838D01*
X172190475Y-69603838D02*
X172238094Y-69651457D01*
X172238094Y-69651457D02*
X172285713Y-69746695D01*
X172285713Y-69746695D02*
X172285713Y-69984790D01*
X172285713Y-69984790D02*
X172238094Y-70080028D01*
X172238094Y-70080028D02*
X172190475Y-70127647D01*
X172190475Y-70127647D02*
X172095237Y-70175266D01*
X172095237Y-70175266D02*
X171904761Y-70175266D01*
X171904761Y-70175266D02*
X171809523Y-70127647D01*
X171809523Y-70127647D02*
X171761904Y-70080028D01*
X171761904Y-70080028D02*
X171714285Y-69984790D01*
D11*
%TO.C,C3*%
X117805252Y-86720000D02*
X116382748Y-86720000D01*
X117805252Y-88540000D02*
X116382748Y-88540000D01*
%TO.C,C19*%
X200090000Y-77961252D02*
X200090000Y-76538748D01*
X201910000Y-77961252D02*
X201910000Y-76538748D01*
%TO.C,R10*%
X174272936Y-57510000D02*
X175727064Y-57510000D01*
X174272936Y-59330000D02*
X175727064Y-59330000D01*
%TO.C,FB2*%
X124738748Y-100790000D02*
X125261252Y-100790000D01*
X124738748Y-102210000D02*
X125261252Y-102210000D01*
%TO.C,C12*%
X222356000Y-104343252D02*
X222356000Y-102920748D01*
X224176000Y-104343252D02*
X224176000Y-102920748D01*
%TO.C,C25*%
X140568000Y-44500748D02*
X140568000Y-45923252D01*
X142388000Y-44500748D02*
X142388000Y-45923252D01*
%TO.C,R6*%
X122280000Y-85886936D02*
X122280000Y-87341064D01*
X124100000Y-85886936D02*
X124100000Y-87341064D01*
%TO.C,C20*%
X222102000Y-85547252D02*
X222102000Y-84124748D01*
X223922000Y-85547252D02*
X223922000Y-84124748D01*
%TO.C,C10*%
X188590000Y-89711252D02*
X188590000Y-88288748D01*
X190410000Y-89711252D02*
X190410000Y-88288748D01*
%TO.C,FB1*%
X169290000Y-84261252D02*
X169290000Y-83738748D01*
X170710000Y-84261252D02*
X170710000Y-83738748D01*
%TO.C,C1*%
X129235252Y-80624000D02*
X127812748Y-80624000D01*
X129235252Y-82444000D02*
X127812748Y-82444000D01*
%TO.C,C24*%
X189179252Y-56748000D02*
X187756748Y-56748000D01*
X189179252Y-58568000D02*
X187756748Y-58568000D01*
%TO.C,C16*%
X137840000Y-77927252D02*
X137840000Y-76504748D01*
X139660000Y-77927252D02*
X139660000Y-76504748D01*
%TO.C,C4*%
X117805252Y-83370000D02*
X116382748Y-83370000D01*
X117805252Y-85190000D02*
X116382748Y-85190000D01*
%TO.C,C17*%
X200512000Y-44246748D02*
X200512000Y-45669252D01*
X202332000Y-44246748D02*
X202332000Y-45669252D01*
%TO.C,C7*%
X143870000Y-107606752D02*
X143870000Y-106184248D01*
X145690000Y-107606752D02*
X145690000Y-106184248D01*
%TO.C,C2*%
X129235252Y-77274000D02*
X127812748Y-77274000D01*
X129235252Y-79094000D02*
X127812748Y-79094000D01*
%TO.C,J1*%
X236668000Y-44847200D02*
X236668000Y-95767200D01*
X239268000Y-93167200D02*
X239268000Y-95767200D01*
X239268000Y-95767200D02*
X236668000Y-95767200D01*
X241868000Y-44847200D02*
X236668000Y-44847200D01*
X241868000Y-44847200D02*
X241868000Y-93167200D01*
X241868000Y-93167200D02*
X239268000Y-93167200D01*
X241868000Y-94437200D02*
X241868000Y-95767200D01*
X241868000Y-95767200D02*
X240538000Y-95767200D01*
%TO.C,FB10*%
X198040000Y-106236252D02*
X198040000Y-105713748D01*
X199460000Y-106236252D02*
X199460000Y-105713748D01*
%TO.C,FB7*%
X251290000Y-85236252D02*
X251290000Y-84713748D01*
X252710000Y-85236252D02*
X252710000Y-84713748D01*
%TO.C,C26*%
X162255252Y-57002000D02*
X160832748Y-57002000D01*
X162255252Y-58822000D02*
X160832748Y-58822000D01*
%TO.C,C23*%
X170286000Y-44288748D02*
X170286000Y-45711252D01*
X172106000Y-44288748D02*
X172106000Y-45711252D01*
%TO.C,C13*%
X117200000Y-42214748D02*
X117200000Y-43637252D01*
X119020000Y-42214748D02*
X119020000Y-43637252D01*
%TO.C,FB4*%
X166168000Y-88145252D02*
X166168000Y-87622748D01*
X167588000Y-88145252D02*
X167588000Y-87622748D01*
%TO.C,C8*%
X147220000Y-107606752D02*
X147220000Y-106184248D01*
X149040000Y-107606752D02*
X149040000Y-106184248D01*
%TO.C,C18*%
X222199252Y-56748000D02*
X220776748Y-56748000D01*
X222199252Y-58568000D02*
X220776748Y-58568000D01*
%TO.C,C9*%
X171788748Y-71226000D02*
X173211252Y-71226000D01*
X171788748Y-73046000D02*
X173211252Y-73046000D01*
%TD*%
M02*
