%TF.GenerationSoftware,KiCad,Pcbnew,8.0.1*%
%TF.CreationDate,2024-04-03T15:50:24+05:30*%
%TF.ProjectId,FinalCircuit,46696e61-6c43-4697-9263-7569742e6b69,rev?*%
%TF.SameCoordinates,Original*%
%TF.FileFunction,Legend,Top*%
%TF.FilePolarity,Positive*%
%FSLAX46Y46*%
G04 Gerber Fmt 4.6, Leading zero omitted, Abs format (unit mm)*
G04 Created by KiCad (PCBNEW 8.0.1) date 2024-04-03 15:50:24*
%MOMM*%
%LPD*%
G01*
G04 APERTURE LIST*
%ADD10C,0.200000*%
%ADD11C,0.120000*%
G04 APERTURE END LIST*
D10*
X232867219Y-108630326D02*
X231867219Y-108630326D01*
X232343409Y-108630326D02*
X232343409Y-108058898D01*
X232867219Y-108058898D02*
X231867219Y-108058898D01*
X231867219Y-107677945D02*
X231867219Y-107011279D01*
X231867219Y-107011279D02*
X232867219Y-107677945D01*
X232867219Y-107677945D02*
X232867219Y-107011279D01*
X231867219Y-106725564D02*
X231867219Y-106106517D01*
X231867219Y-106106517D02*
X232248171Y-106439850D01*
X232248171Y-106439850D02*
X232248171Y-106296993D01*
X232248171Y-106296993D02*
X232295790Y-106201755D01*
X232295790Y-106201755D02*
X232343409Y-106154136D01*
X232343409Y-106154136D02*
X232438647Y-106106517D01*
X232438647Y-106106517D02*
X232676742Y-106106517D01*
X232676742Y-106106517D02*
X232771980Y-106154136D01*
X232771980Y-106154136D02*
X232819600Y-106201755D01*
X232819600Y-106201755D02*
X232867219Y-106296993D01*
X232867219Y-106296993D02*
X232867219Y-106582707D01*
X232867219Y-106582707D02*
X232819600Y-106677945D01*
X232819600Y-106677945D02*
X232771980Y-106725564D01*
X237067219Y-108373183D02*
X238067219Y-108039850D01*
X238067219Y-108039850D02*
X237067219Y-107706517D01*
X237067219Y-107516040D02*
X237067219Y-106944612D01*
X238067219Y-107230326D02*
X237067219Y-107230326D01*
X238067219Y-106087469D02*
X238067219Y-106658897D01*
X238067219Y-106373183D02*
X237067219Y-106373183D01*
X237067219Y-106373183D02*
X237210076Y-106468421D01*
X237210076Y-106468421D02*
X237305314Y-106563659D01*
X237305314Y-106563659D02*
X237352933Y-106658897D01*
X105150266Y-102754326D02*
X105150266Y-101992422D01*
X105531219Y-102373374D02*
X104769314Y-102373374D01*
X105483600Y-101563850D02*
X105531219Y-101420993D01*
X105531219Y-101420993D02*
X105531219Y-101182898D01*
X105531219Y-101182898D02*
X105483600Y-101087660D01*
X105483600Y-101087660D02*
X105435980Y-101040041D01*
X105435980Y-101040041D02*
X105340742Y-100992422D01*
X105340742Y-100992422D02*
X105245504Y-100992422D01*
X105245504Y-100992422D02*
X105150266Y-101040041D01*
X105150266Y-101040041D02*
X105102647Y-101087660D01*
X105102647Y-101087660D02*
X105055028Y-101182898D01*
X105055028Y-101182898D02*
X105007409Y-101373374D01*
X105007409Y-101373374D02*
X104959790Y-101468612D01*
X104959790Y-101468612D02*
X104912171Y-101516231D01*
X104912171Y-101516231D02*
X104816933Y-101563850D01*
X104816933Y-101563850D02*
X104721695Y-101563850D01*
X104721695Y-101563850D02*
X104626457Y-101516231D01*
X104626457Y-101516231D02*
X104578838Y-101468612D01*
X104578838Y-101468612D02*
X104531219Y-101373374D01*
X104531219Y-101373374D02*
X104531219Y-101135279D01*
X104531219Y-101135279D02*
X104578838Y-100992422D01*
X104531219Y-100659088D02*
X105531219Y-100420993D01*
X105531219Y-100420993D02*
X104816933Y-100230517D01*
X104816933Y-100230517D02*
X105531219Y-100040041D01*
X105531219Y-100040041D02*
X104531219Y-99801946D01*
X107372838Y-101976517D02*
X107325219Y-102071755D01*
X107325219Y-102071755D02*
X107325219Y-102214612D01*
X107325219Y-102214612D02*
X107372838Y-102357469D01*
X107372838Y-102357469D02*
X107468076Y-102452707D01*
X107468076Y-102452707D02*
X107563314Y-102500326D01*
X107563314Y-102500326D02*
X107753790Y-102547945D01*
X107753790Y-102547945D02*
X107896647Y-102547945D01*
X107896647Y-102547945D02*
X108087123Y-102500326D01*
X108087123Y-102500326D02*
X108182361Y-102452707D01*
X108182361Y-102452707D02*
X108277600Y-102357469D01*
X108277600Y-102357469D02*
X108325219Y-102214612D01*
X108325219Y-102214612D02*
X108325219Y-102119374D01*
X108325219Y-102119374D02*
X108277600Y-101976517D01*
X108277600Y-101976517D02*
X108229980Y-101928898D01*
X108229980Y-101928898D02*
X107896647Y-101928898D01*
X107896647Y-101928898D02*
X107896647Y-102119374D01*
X108325219Y-101500326D02*
X107325219Y-101500326D01*
X107325219Y-101500326D02*
X108325219Y-100928898D01*
X108325219Y-100928898D02*
X107325219Y-100928898D01*
X108325219Y-100452707D02*
X107325219Y-100452707D01*
X107325219Y-100452707D02*
X107325219Y-100214612D01*
X107325219Y-100214612D02*
X107372838Y-100071755D01*
X107372838Y-100071755D02*
X107468076Y-99976517D01*
X107468076Y-99976517D02*
X107563314Y-99928898D01*
X107563314Y-99928898D02*
X107753790Y-99881279D01*
X107753790Y-99881279D02*
X107896647Y-99881279D01*
X107896647Y-99881279D02*
X108087123Y-99928898D01*
X108087123Y-99928898D02*
X108182361Y-99976517D01*
X108182361Y-99976517D02*
X108277600Y-100071755D01*
X108277600Y-100071755D02*
X108325219Y-100214612D01*
X108325219Y-100214612D02*
X108325219Y-100452707D01*
X144322054Y-108744838D02*
X145464911Y-108744838D01*
X144893482Y-110744838D02*
X144893482Y-108744838D01*
X146893483Y-110649600D02*
X146703007Y-110744838D01*
X146703007Y-110744838D02*
X146322054Y-110744838D01*
X146322054Y-110744838D02*
X146131578Y-110649600D01*
X146131578Y-110649600D02*
X146036340Y-110459123D01*
X146036340Y-110459123D02*
X146036340Y-109697219D01*
X146036340Y-109697219D02*
X146131578Y-109506742D01*
X146131578Y-109506742D02*
X146322054Y-109411504D01*
X146322054Y-109411504D02*
X146703007Y-109411504D01*
X146703007Y-109411504D02*
X146893483Y-109506742D01*
X146893483Y-109506742D02*
X146988721Y-109697219D01*
X146988721Y-109697219D02*
X146988721Y-109887695D01*
X146988721Y-109887695D02*
X146036340Y-110078171D01*
X148703007Y-110744838D02*
X148703007Y-109697219D01*
X148703007Y-109697219D02*
X148607769Y-109506742D01*
X148607769Y-109506742D02*
X148417293Y-109411504D01*
X148417293Y-109411504D02*
X148036340Y-109411504D01*
X148036340Y-109411504D02*
X147845864Y-109506742D01*
X148703007Y-110649600D02*
X148512531Y-110744838D01*
X148512531Y-110744838D02*
X148036340Y-110744838D01*
X148036340Y-110744838D02*
X147845864Y-110649600D01*
X147845864Y-110649600D02*
X147750626Y-110459123D01*
X147750626Y-110459123D02*
X147750626Y-110268647D01*
X147750626Y-110268647D02*
X147845864Y-110078171D01*
X147845864Y-110078171D02*
X148036340Y-109982933D01*
X148036340Y-109982933D02*
X148512531Y-109982933D01*
X148512531Y-109982933D02*
X148703007Y-109887695D01*
X149655388Y-110744838D02*
X149655388Y-109411504D01*
X149655388Y-109601980D02*
X149750626Y-109506742D01*
X149750626Y-109506742D02*
X149941102Y-109411504D01*
X149941102Y-109411504D02*
X150226817Y-109411504D01*
X150226817Y-109411504D02*
X150417293Y-109506742D01*
X150417293Y-109506742D02*
X150512531Y-109697219D01*
X150512531Y-109697219D02*
X150512531Y-110744838D01*
X150512531Y-109697219D02*
X150607769Y-109506742D01*
X150607769Y-109506742D02*
X150798245Y-109411504D01*
X150798245Y-109411504D02*
X151083959Y-109411504D01*
X151083959Y-109411504D02*
X151274436Y-109506742D01*
X151274436Y-109506742D02*
X151369674Y-109697219D01*
X151369674Y-109697219D02*
X151369674Y-110744838D01*
X152322055Y-109982933D02*
X153845865Y-109982933D01*
X156322055Y-110744838D02*
X156322055Y-108744838D01*
X156322055Y-108744838D02*
X156798245Y-108744838D01*
X156798245Y-108744838D02*
X157083960Y-108840076D01*
X157083960Y-108840076D02*
X157274436Y-109030552D01*
X157274436Y-109030552D02*
X157369674Y-109221028D01*
X157369674Y-109221028D02*
X157464912Y-109601980D01*
X157464912Y-109601980D02*
X157464912Y-109887695D01*
X157464912Y-109887695D02*
X157369674Y-110268647D01*
X157369674Y-110268647D02*
X157274436Y-110459123D01*
X157274436Y-110459123D02*
X157083960Y-110649600D01*
X157083960Y-110649600D02*
X156798245Y-110744838D01*
X156798245Y-110744838D02*
X156322055Y-110744838D01*
X159083960Y-110649600D02*
X158893484Y-110744838D01*
X158893484Y-110744838D02*
X158512531Y-110744838D01*
X158512531Y-110744838D02*
X158322055Y-110649600D01*
X158322055Y-110649600D02*
X158226817Y-110459123D01*
X158226817Y-110459123D02*
X158226817Y-109697219D01*
X158226817Y-109697219D02*
X158322055Y-109506742D01*
X158322055Y-109506742D02*
X158512531Y-109411504D01*
X158512531Y-109411504D02*
X158893484Y-109411504D01*
X158893484Y-109411504D02*
X159083960Y-109506742D01*
X159083960Y-109506742D02*
X159179198Y-109697219D01*
X159179198Y-109697219D02*
X159179198Y-109887695D01*
X159179198Y-109887695D02*
X158226817Y-110078171D01*
X160036341Y-110744838D02*
X160036341Y-108744838D01*
X160036341Y-109506742D02*
X160226817Y-109411504D01*
X160226817Y-109411504D02*
X160607770Y-109411504D01*
X160607770Y-109411504D02*
X160798246Y-109506742D01*
X160798246Y-109506742D02*
X160893484Y-109601980D01*
X160893484Y-109601980D02*
X160988722Y-109792457D01*
X160988722Y-109792457D02*
X160988722Y-110363885D01*
X160988722Y-110363885D02*
X160893484Y-110554361D01*
X160893484Y-110554361D02*
X160798246Y-110649600D01*
X160798246Y-110649600D02*
X160607770Y-110744838D01*
X160607770Y-110744838D02*
X160226817Y-110744838D01*
X160226817Y-110744838D02*
X160036341Y-110649600D01*
X162703008Y-110744838D02*
X162703008Y-109697219D01*
X162703008Y-109697219D02*
X162607770Y-109506742D01*
X162607770Y-109506742D02*
X162417294Y-109411504D01*
X162417294Y-109411504D02*
X162036341Y-109411504D01*
X162036341Y-109411504D02*
X161845865Y-109506742D01*
X162703008Y-110649600D02*
X162512532Y-110744838D01*
X162512532Y-110744838D02*
X162036341Y-110744838D01*
X162036341Y-110744838D02*
X161845865Y-110649600D01*
X161845865Y-110649600D02*
X161750627Y-110459123D01*
X161750627Y-110459123D02*
X161750627Y-110268647D01*
X161750627Y-110268647D02*
X161845865Y-110078171D01*
X161845865Y-110078171D02*
X162036341Y-109982933D01*
X162036341Y-109982933D02*
X162512532Y-109982933D01*
X162512532Y-109982933D02*
X162703008Y-109887695D01*
X163560151Y-110649600D02*
X163750627Y-110744838D01*
X163750627Y-110744838D02*
X164131579Y-110744838D01*
X164131579Y-110744838D02*
X164322056Y-110649600D01*
X164322056Y-110649600D02*
X164417294Y-110459123D01*
X164417294Y-110459123D02*
X164417294Y-110363885D01*
X164417294Y-110363885D02*
X164322056Y-110173409D01*
X164322056Y-110173409D02*
X164131579Y-110078171D01*
X164131579Y-110078171D02*
X163845865Y-110078171D01*
X163845865Y-110078171D02*
X163655389Y-109982933D01*
X163655389Y-109982933D02*
X163560151Y-109792457D01*
X163560151Y-109792457D02*
X163560151Y-109697219D01*
X163560151Y-109697219D02*
X163655389Y-109506742D01*
X163655389Y-109506742D02*
X163845865Y-109411504D01*
X163845865Y-109411504D02*
X164131579Y-109411504D01*
X164131579Y-109411504D02*
X164322056Y-109506742D01*
X165274437Y-110744838D02*
X165274437Y-109411504D01*
X165274437Y-108744838D02*
X165179199Y-108840076D01*
X165179199Y-108840076D02*
X165274437Y-108935314D01*
X165274437Y-108935314D02*
X165369675Y-108840076D01*
X165369675Y-108840076D02*
X165274437Y-108744838D01*
X165274437Y-108744838D02*
X165274437Y-108935314D01*
X166131580Y-110649600D02*
X166322056Y-110744838D01*
X166322056Y-110744838D02*
X166703008Y-110744838D01*
X166703008Y-110744838D02*
X166893485Y-110649600D01*
X166893485Y-110649600D02*
X166988723Y-110459123D01*
X166988723Y-110459123D02*
X166988723Y-110363885D01*
X166988723Y-110363885D02*
X166893485Y-110173409D01*
X166893485Y-110173409D02*
X166703008Y-110078171D01*
X166703008Y-110078171D02*
X166417294Y-110078171D01*
X166417294Y-110078171D02*
X166226818Y-109982933D01*
X166226818Y-109982933D02*
X166131580Y-109792457D01*
X166131580Y-109792457D02*
X166131580Y-109697219D01*
X166131580Y-109697219D02*
X166226818Y-109506742D01*
X166226818Y-109506742D02*
X166417294Y-109411504D01*
X166417294Y-109411504D02*
X166703008Y-109411504D01*
X166703008Y-109411504D02*
X166893485Y-109506742D01*
X167845866Y-110744838D02*
X167845866Y-108744838D01*
X168703009Y-110744838D02*
X168703009Y-109697219D01*
X168703009Y-109697219D02*
X168607771Y-109506742D01*
X168607771Y-109506742D02*
X168417295Y-109411504D01*
X168417295Y-109411504D02*
X168131580Y-109411504D01*
X168131580Y-109411504D02*
X167941104Y-109506742D01*
X167941104Y-109506742D02*
X167845866Y-109601980D01*
X169750628Y-110649600D02*
X169750628Y-110744838D01*
X169750628Y-110744838D02*
X169655390Y-110935314D01*
X169655390Y-110935314D02*
X169560152Y-111030552D01*
X172131581Y-110744838D02*
X172131581Y-108744838D01*
X172131581Y-109697219D02*
X173274438Y-109697219D01*
X173274438Y-110744838D02*
X173274438Y-108744838D01*
X175083962Y-110744838D02*
X175083962Y-109697219D01*
X175083962Y-109697219D02*
X174988724Y-109506742D01*
X174988724Y-109506742D02*
X174798248Y-109411504D01*
X174798248Y-109411504D02*
X174417295Y-109411504D01*
X174417295Y-109411504D02*
X174226819Y-109506742D01*
X175083962Y-110649600D02*
X174893486Y-110744838D01*
X174893486Y-110744838D02*
X174417295Y-110744838D01*
X174417295Y-110744838D02*
X174226819Y-110649600D01*
X174226819Y-110649600D02*
X174131581Y-110459123D01*
X174131581Y-110459123D02*
X174131581Y-110268647D01*
X174131581Y-110268647D02*
X174226819Y-110078171D01*
X174226819Y-110078171D02*
X174417295Y-109982933D01*
X174417295Y-109982933D02*
X174893486Y-109982933D01*
X174893486Y-109982933D02*
X175083962Y-109887695D01*
X176036343Y-110744838D02*
X176036343Y-109411504D01*
X176036343Y-109792457D02*
X176131581Y-109601980D01*
X176131581Y-109601980D02*
X176226819Y-109506742D01*
X176226819Y-109506742D02*
X176417295Y-109411504D01*
X176417295Y-109411504D02*
X176607772Y-109411504D01*
X177179200Y-110649600D02*
X177369676Y-110744838D01*
X177369676Y-110744838D02*
X177750628Y-110744838D01*
X177750628Y-110744838D02*
X177941105Y-110649600D01*
X177941105Y-110649600D02*
X178036343Y-110459123D01*
X178036343Y-110459123D02*
X178036343Y-110363885D01*
X178036343Y-110363885D02*
X177941105Y-110173409D01*
X177941105Y-110173409D02*
X177750628Y-110078171D01*
X177750628Y-110078171D02*
X177464914Y-110078171D01*
X177464914Y-110078171D02*
X177274438Y-109982933D01*
X177274438Y-109982933D02*
X177179200Y-109792457D01*
X177179200Y-109792457D02*
X177179200Y-109697219D01*
X177179200Y-109697219D02*
X177274438Y-109506742D01*
X177274438Y-109506742D02*
X177464914Y-109411504D01*
X177464914Y-109411504D02*
X177750628Y-109411504D01*
X177750628Y-109411504D02*
X177941105Y-109506742D01*
X178893486Y-110744838D02*
X178893486Y-108744838D01*
X179750629Y-110744838D02*
X179750629Y-109697219D01*
X179750629Y-109697219D02*
X179655391Y-109506742D01*
X179655391Y-109506742D02*
X179464915Y-109411504D01*
X179464915Y-109411504D02*
X179179200Y-109411504D01*
X179179200Y-109411504D02*
X178988724Y-109506742D01*
X178988724Y-109506742D02*
X178893486Y-109601980D01*
X180703010Y-110744838D02*
X180703010Y-109411504D01*
X180703010Y-108744838D02*
X180607772Y-108840076D01*
X180607772Y-108840076D02*
X180703010Y-108935314D01*
X180703010Y-108935314D02*
X180798248Y-108840076D01*
X180798248Y-108840076D02*
X180703010Y-108744838D01*
X180703010Y-108744838D02*
X180703010Y-108935314D01*
X181369677Y-109411504D02*
X182131581Y-109411504D01*
X181655391Y-108744838D02*
X181655391Y-110459123D01*
X181655391Y-110459123D02*
X181750629Y-110649600D01*
X181750629Y-110649600D02*
X181941105Y-110744838D01*
X181941105Y-110744838D02*
X182131581Y-110744838D01*
X182893486Y-110649600D02*
X182893486Y-110744838D01*
X182893486Y-110744838D02*
X182798248Y-110935314D01*
X182798248Y-110935314D02*
X182703010Y-111030552D01*
X185179201Y-110649600D02*
X185464915Y-110744838D01*
X185464915Y-110744838D02*
X185941106Y-110744838D01*
X185941106Y-110744838D02*
X186131582Y-110649600D01*
X186131582Y-110649600D02*
X186226820Y-110554361D01*
X186226820Y-110554361D02*
X186322058Y-110363885D01*
X186322058Y-110363885D02*
X186322058Y-110173409D01*
X186322058Y-110173409D02*
X186226820Y-109982933D01*
X186226820Y-109982933D02*
X186131582Y-109887695D01*
X186131582Y-109887695D02*
X185941106Y-109792457D01*
X185941106Y-109792457D02*
X185560153Y-109697219D01*
X185560153Y-109697219D02*
X185369677Y-109601980D01*
X185369677Y-109601980D02*
X185274439Y-109506742D01*
X185274439Y-109506742D02*
X185179201Y-109316266D01*
X185179201Y-109316266D02*
X185179201Y-109125790D01*
X185179201Y-109125790D02*
X185274439Y-108935314D01*
X185274439Y-108935314D02*
X185369677Y-108840076D01*
X185369677Y-108840076D02*
X185560153Y-108744838D01*
X185560153Y-108744838D02*
X186036344Y-108744838D01*
X186036344Y-108744838D02*
X186322058Y-108840076D01*
X187179201Y-110744838D02*
X187179201Y-108744838D01*
X188036344Y-110744838D02*
X188036344Y-109697219D01*
X188036344Y-109697219D02*
X187941106Y-109506742D01*
X187941106Y-109506742D02*
X187750630Y-109411504D01*
X187750630Y-109411504D02*
X187464915Y-109411504D01*
X187464915Y-109411504D02*
X187274439Y-109506742D01*
X187274439Y-109506742D02*
X187179201Y-109601980D01*
X188988725Y-110744838D02*
X188988725Y-109411504D01*
X188988725Y-109792457D02*
X189083963Y-109601980D01*
X189083963Y-109601980D02*
X189179201Y-109506742D01*
X189179201Y-109506742D02*
X189369677Y-109411504D01*
X189369677Y-109411504D02*
X189560154Y-109411504D01*
X190988725Y-110649600D02*
X190798249Y-110744838D01*
X190798249Y-110744838D02*
X190417296Y-110744838D01*
X190417296Y-110744838D02*
X190226820Y-110649600D01*
X190226820Y-110649600D02*
X190131582Y-110459123D01*
X190131582Y-110459123D02*
X190131582Y-109697219D01*
X190131582Y-109697219D02*
X190226820Y-109506742D01*
X190226820Y-109506742D02*
X190417296Y-109411504D01*
X190417296Y-109411504D02*
X190798249Y-109411504D01*
X190798249Y-109411504D02*
X190988725Y-109506742D01*
X190988725Y-109506742D02*
X191083963Y-109697219D01*
X191083963Y-109697219D02*
X191083963Y-109887695D01*
X191083963Y-109887695D02*
X190131582Y-110078171D01*
X191750630Y-109411504D02*
X192226820Y-110744838D01*
X192703011Y-109411504D02*
X192226820Y-110744838D01*
X192226820Y-110744838D02*
X192036344Y-111221028D01*
X192036344Y-111221028D02*
X191941106Y-111316266D01*
X191941106Y-111316266D02*
X191750630Y-111411504D01*
X194322059Y-110744838D02*
X194322059Y-109697219D01*
X194322059Y-109697219D02*
X194226821Y-109506742D01*
X194226821Y-109506742D02*
X194036345Y-109411504D01*
X194036345Y-109411504D02*
X193655392Y-109411504D01*
X193655392Y-109411504D02*
X193464916Y-109506742D01*
X194322059Y-110649600D02*
X194131583Y-110744838D01*
X194131583Y-110744838D02*
X193655392Y-110744838D01*
X193655392Y-110744838D02*
X193464916Y-110649600D01*
X193464916Y-110649600D02*
X193369678Y-110459123D01*
X193369678Y-110459123D02*
X193369678Y-110268647D01*
X193369678Y-110268647D02*
X193464916Y-110078171D01*
X193464916Y-110078171D02*
X193655392Y-109982933D01*
X193655392Y-109982933D02*
X194131583Y-109982933D01*
X194131583Y-109982933D02*
X194322059Y-109887695D01*
X195179202Y-110649600D02*
X195369678Y-110744838D01*
X195369678Y-110744838D02*
X195750630Y-110744838D01*
X195750630Y-110744838D02*
X195941107Y-110649600D01*
X195941107Y-110649600D02*
X196036345Y-110459123D01*
X196036345Y-110459123D02*
X196036345Y-110363885D01*
X196036345Y-110363885D02*
X195941107Y-110173409D01*
X195941107Y-110173409D02*
X195750630Y-110078171D01*
X195750630Y-110078171D02*
X195464916Y-110078171D01*
X195464916Y-110078171D02*
X195274440Y-109982933D01*
X195274440Y-109982933D02*
X195179202Y-109792457D01*
X195179202Y-109792457D02*
X195179202Y-109697219D01*
X195179202Y-109697219D02*
X195274440Y-109506742D01*
X195274440Y-109506742D02*
X195464916Y-109411504D01*
X195464916Y-109411504D02*
X195750630Y-109411504D01*
X195750630Y-109411504D02*
X195941107Y-109506742D01*
X196988726Y-110649600D02*
X196988726Y-110744838D01*
X196988726Y-110744838D02*
X196893488Y-110935314D01*
X196893488Y-110935314D02*
X196798250Y-111030552D01*
X199083965Y-108744838D02*
X199750631Y-110744838D01*
X199750631Y-110744838D02*
X200417298Y-108744838D01*
X201941108Y-110744838D02*
X201941108Y-109697219D01*
X201941108Y-109697219D02*
X201845870Y-109506742D01*
X201845870Y-109506742D02*
X201655394Y-109411504D01*
X201655394Y-109411504D02*
X201274441Y-109411504D01*
X201274441Y-109411504D02*
X201083965Y-109506742D01*
X201941108Y-110649600D02*
X201750632Y-110744838D01*
X201750632Y-110744838D02*
X201274441Y-110744838D01*
X201274441Y-110744838D02*
X201083965Y-110649600D01*
X201083965Y-110649600D02*
X200988727Y-110459123D01*
X200988727Y-110459123D02*
X200988727Y-110268647D01*
X200988727Y-110268647D02*
X201083965Y-110078171D01*
X201083965Y-110078171D02*
X201274441Y-109982933D01*
X201274441Y-109982933D02*
X201750632Y-109982933D01*
X201750632Y-109982933D02*
X201941108Y-109887695D01*
X202893489Y-110744838D02*
X202893489Y-109411504D01*
X202893489Y-109792457D02*
X202988727Y-109601980D01*
X202988727Y-109601980D02*
X203083965Y-109506742D01*
X203083965Y-109506742D02*
X203274441Y-109411504D01*
X203274441Y-109411504D02*
X203464918Y-109411504D01*
X204988727Y-110744838D02*
X204988727Y-109697219D01*
X204988727Y-109697219D02*
X204893489Y-109506742D01*
X204893489Y-109506742D02*
X204703013Y-109411504D01*
X204703013Y-109411504D02*
X204322060Y-109411504D01*
X204322060Y-109411504D02*
X204131584Y-109506742D01*
X204988727Y-110649600D02*
X204798251Y-110744838D01*
X204798251Y-110744838D02*
X204322060Y-110744838D01*
X204322060Y-110744838D02*
X204131584Y-110649600D01*
X204131584Y-110649600D02*
X204036346Y-110459123D01*
X204036346Y-110459123D02*
X204036346Y-110268647D01*
X204036346Y-110268647D02*
X204131584Y-110078171D01*
X204131584Y-110078171D02*
X204322060Y-109982933D01*
X204322060Y-109982933D02*
X204798251Y-109982933D01*
X204798251Y-109982933D02*
X204988727Y-109887695D01*
X206798251Y-110744838D02*
X206798251Y-108744838D01*
X206798251Y-110649600D02*
X206607775Y-110744838D01*
X206607775Y-110744838D02*
X206226822Y-110744838D01*
X206226822Y-110744838D02*
X206036346Y-110649600D01*
X206036346Y-110649600D02*
X205941108Y-110554361D01*
X205941108Y-110554361D02*
X205845870Y-110363885D01*
X205845870Y-110363885D02*
X205845870Y-109792457D01*
X205845870Y-109792457D02*
X205941108Y-109601980D01*
X205941108Y-109601980D02*
X206036346Y-109506742D01*
X206036346Y-109506742D02*
X206226822Y-109411504D01*
X206226822Y-109411504D02*
X206607775Y-109411504D01*
X206607775Y-109411504D02*
X206798251Y-109506742D01*
X234467219Y-108373183D02*
X235467219Y-108039850D01*
X235467219Y-108039850D02*
X234467219Y-107706517D01*
X234467219Y-107516040D02*
X234467219Y-106944612D01*
X235467219Y-107230326D02*
X234467219Y-107230326D01*
X234467219Y-106706516D02*
X234467219Y-106087469D01*
X234467219Y-106087469D02*
X234848171Y-106420802D01*
X234848171Y-106420802D02*
X234848171Y-106277945D01*
X234848171Y-106277945D02*
X234895790Y-106182707D01*
X234895790Y-106182707D02*
X234943409Y-106135088D01*
X234943409Y-106135088D02*
X235038647Y-106087469D01*
X235038647Y-106087469D02*
X235276742Y-106087469D01*
X235276742Y-106087469D02*
X235371980Y-106135088D01*
X235371980Y-106135088D02*
X235419600Y-106182707D01*
X235419600Y-106182707D02*
X235467219Y-106277945D01*
X235467219Y-106277945D02*
X235467219Y-106563659D01*
X235467219Y-106563659D02*
X235419600Y-106658897D01*
X235419600Y-106658897D02*
X235371980Y-106706516D01*
X227667219Y-108630326D02*
X226667219Y-108630326D01*
X227143409Y-108630326D02*
X227143409Y-108058898D01*
X227667219Y-108058898D02*
X226667219Y-108058898D01*
X226667219Y-107677945D02*
X226667219Y-107011279D01*
X226667219Y-107011279D02*
X227667219Y-107677945D01*
X227667219Y-107677945D02*
X227667219Y-107011279D01*
X227667219Y-106106517D02*
X227667219Y-106677945D01*
X227667219Y-106392231D02*
X226667219Y-106392231D01*
X226667219Y-106392231D02*
X226810076Y-106487469D01*
X226810076Y-106487469D02*
X226905314Y-106582707D01*
X226905314Y-106582707D02*
X226952933Y-106677945D01*
X113024266Y-103521326D02*
X113024266Y-102759422D01*
X113405219Y-101759422D02*
X113405219Y-102330850D01*
X113405219Y-102045136D02*
X112405219Y-102045136D01*
X112405219Y-102045136D02*
X112548076Y-102140374D01*
X112548076Y-102140374D02*
X112643314Y-102235612D01*
X112643314Y-102235612D02*
X112690933Y-102330850D01*
X112405219Y-100854660D02*
X112405219Y-101330850D01*
X112405219Y-101330850D02*
X112881409Y-101378469D01*
X112881409Y-101378469D02*
X112833790Y-101330850D01*
X112833790Y-101330850D02*
X112786171Y-101235612D01*
X112786171Y-101235612D02*
X112786171Y-100997517D01*
X112786171Y-100997517D02*
X112833790Y-100902279D01*
X112833790Y-100902279D02*
X112881409Y-100854660D01*
X112881409Y-100854660D02*
X112976647Y-100807041D01*
X112976647Y-100807041D02*
X113214742Y-100807041D01*
X113214742Y-100807041D02*
X113309980Y-100854660D01*
X113309980Y-100854660D02*
X113357600Y-100902279D01*
X113357600Y-100902279D02*
X113405219Y-100997517D01*
X113405219Y-100997517D02*
X113405219Y-101235612D01*
X113405219Y-101235612D02*
X113357600Y-101330850D01*
X113357600Y-101330850D02*
X113309980Y-101378469D01*
X112405219Y-100521326D02*
X113405219Y-100187993D01*
X113405219Y-100187993D02*
X112405219Y-99854660D01*
X100075266Y-103521326D02*
X100075266Y-102759422D01*
X100456219Y-103140374D02*
X99694314Y-103140374D01*
X100456219Y-101759422D02*
X100456219Y-102330850D01*
X100456219Y-102045136D02*
X99456219Y-102045136D01*
X99456219Y-102045136D02*
X99599076Y-102140374D01*
X99599076Y-102140374D02*
X99694314Y-102235612D01*
X99694314Y-102235612D02*
X99741933Y-102330850D01*
X99456219Y-100854660D02*
X99456219Y-101330850D01*
X99456219Y-101330850D02*
X99932409Y-101378469D01*
X99932409Y-101378469D02*
X99884790Y-101330850D01*
X99884790Y-101330850D02*
X99837171Y-101235612D01*
X99837171Y-101235612D02*
X99837171Y-100997517D01*
X99837171Y-100997517D02*
X99884790Y-100902279D01*
X99884790Y-100902279D02*
X99932409Y-100854660D01*
X99932409Y-100854660D02*
X100027647Y-100807041D01*
X100027647Y-100807041D02*
X100265742Y-100807041D01*
X100265742Y-100807041D02*
X100360980Y-100854660D01*
X100360980Y-100854660D02*
X100408600Y-100902279D01*
X100408600Y-100902279D02*
X100456219Y-100997517D01*
X100456219Y-100997517D02*
X100456219Y-101235612D01*
X100456219Y-101235612D02*
X100408600Y-101330850D01*
X100408600Y-101330850D02*
X100360980Y-101378469D01*
X99456219Y-100521326D02*
X100456219Y-100187993D01*
X100456219Y-100187993D02*
X99456219Y-99854660D01*
X110484266Y-102500326D02*
X110484266Y-101738422D01*
X109865219Y-100786041D02*
X109865219Y-101262231D01*
X109865219Y-101262231D02*
X110341409Y-101309850D01*
X110341409Y-101309850D02*
X110293790Y-101262231D01*
X110293790Y-101262231D02*
X110246171Y-101166993D01*
X110246171Y-101166993D02*
X110246171Y-100928898D01*
X110246171Y-100928898D02*
X110293790Y-100833660D01*
X110293790Y-100833660D02*
X110341409Y-100786041D01*
X110341409Y-100786041D02*
X110436647Y-100738422D01*
X110436647Y-100738422D02*
X110674742Y-100738422D01*
X110674742Y-100738422D02*
X110769980Y-100786041D01*
X110769980Y-100786041D02*
X110817600Y-100833660D01*
X110817600Y-100833660D02*
X110865219Y-100928898D01*
X110865219Y-100928898D02*
X110865219Y-101166993D01*
X110865219Y-101166993D02*
X110817600Y-101262231D01*
X110817600Y-101262231D02*
X110769980Y-101309850D01*
X109865219Y-100452707D02*
X110865219Y-100119374D01*
X110865219Y-100119374D02*
X109865219Y-99786041D01*
X230267219Y-108630326D02*
X229267219Y-108630326D01*
X229743409Y-108630326D02*
X229743409Y-108058898D01*
X230267219Y-108058898D02*
X229267219Y-108058898D01*
X229267219Y-107677945D02*
X229267219Y-107011279D01*
X229267219Y-107011279D02*
X230267219Y-107677945D01*
X230267219Y-107677945D02*
X230267219Y-107011279D01*
X229362457Y-106677945D02*
X229314838Y-106630326D01*
X229314838Y-106630326D02*
X229267219Y-106535088D01*
X229267219Y-106535088D02*
X229267219Y-106296993D01*
X229267219Y-106296993D02*
X229314838Y-106201755D01*
X229314838Y-106201755D02*
X229362457Y-106154136D01*
X229362457Y-106154136D02*
X229457695Y-106106517D01*
X229457695Y-106106517D02*
X229552933Y-106106517D01*
X229552933Y-106106517D02*
X229695790Y-106154136D01*
X229695790Y-106154136D02*
X230267219Y-106725564D01*
X230267219Y-106725564D02*
X230267219Y-106106517D01*
X239467219Y-108373183D02*
X240467219Y-108039850D01*
X240467219Y-108039850D02*
X239467219Y-107706517D01*
X239467219Y-107516040D02*
X239467219Y-106944612D01*
X240467219Y-107230326D02*
X239467219Y-107230326D01*
X239562457Y-106658897D02*
X239514838Y-106611278D01*
X239514838Y-106611278D02*
X239467219Y-106516040D01*
X239467219Y-106516040D02*
X239467219Y-106277945D01*
X239467219Y-106277945D02*
X239514838Y-106182707D01*
X239514838Y-106182707D02*
X239562457Y-106135088D01*
X239562457Y-106135088D02*
X239657695Y-106087469D01*
X239657695Y-106087469D02*
X239752933Y-106087469D01*
X239752933Y-106087469D02*
X239895790Y-106135088D01*
X239895790Y-106135088D02*
X240467219Y-106706516D01*
X240467219Y-106706516D02*
X240467219Y-106087469D01*
X121607768Y-37744838D02*
X121607768Y-35744838D01*
X121607768Y-35744838D02*
X122274435Y-37173409D01*
X122274435Y-37173409D02*
X122941101Y-35744838D01*
X122941101Y-35744838D02*
X122941101Y-37744838D01*
X124274434Y-35744838D02*
X124655387Y-35744838D01*
X124655387Y-35744838D02*
X124845863Y-35840076D01*
X124845863Y-35840076D02*
X125036339Y-36030552D01*
X125036339Y-36030552D02*
X125131577Y-36411504D01*
X125131577Y-36411504D02*
X125131577Y-37078171D01*
X125131577Y-37078171D02*
X125036339Y-37459123D01*
X125036339Y-37459123D02*
X124845863Y-37649600D01*
X124845863Y-37649600D02*
X124655387Y-37744838D01*
X124655387Y-37744838D02*
X124274434Y-37744838D01*
X124274434Y-37744838D02*
X124083958Y-37649600D01*
X124083958Y-37649600D02*
X123893482Y-37459123D01*
X123893482Y-37459123D02*
X123798244Y-37078171D01*
X123798244Y-37078171D02*
X123798244Y-36411504D01*
X123798244Y-36411504D02*
X123893482Y-36030552D01*
X123893482Y-36030552D02*
X124083958Y-35840076D01*
X124083958Y-35840076D02*
X124274434Y-35744838D01*
X125988720Y-37744838D02*
X125988720Y-35744838D01*
X125988720Y-35744838D02*
X127131577Y-37744838D01*
X127131577Y-37744838D02*
X127131577Y-35744838D01*
X128083958Y-36982933D02*
X129607768Y-36982933D01*
X130941100Y-35744838D02*
X131131577Y-35744838D01*
X131131577Y-35744838D02*
X131322053Y-35840076D01*
X131322053Y-35840076D02*
X131417291Y-35935314D01*
X131417291Y-35935314D02*
X131512529Y-36125790D01*
X131512529Y-36125790D02*
X131607767Y-36506742D01*
X131607767Y-36506742D02*
X131607767Y-36982933D01*
X131607767Y-36982933D02*
X131512529Y-37363885D01*
X131512529Y-37363885D02*
X131417291Y-37554361D01*
X131417291Y-37554361D02*
X131322053Y-37649600D01*
X131322053Y-37649600D02*
X131131577Y-37744838D01*
X131131577Y-37744838D02*
X130941100Y-37744838D01*
X130941100Y-37744838D02*
X130750624Y-37649600D01*
X130750624Y-37649600D02*
X130655386Y-37554361D01*
X130655386Y-37554361D02*
X130560148Y-37363885D01*
X130560148Y-37363885D02*
X130464910Y-36982933D01*
X130464910Y-36982933D02*
X130464910Y-36506742D01*
X130464910Y-36506742D02*
X130560148Y-36125790D01*
X130560148Y-36125790D02*
X130655386Y-35935314D01*
X130655386Y-35935314D02*
X130750624Y-35840076D01*
X130750624Y-35840076D02*
X130941100Y-35744838D01*
X132750624Y-36601980D02*
X132560148Y-36506742D01*
X132560148Y-36506742D02*
X132464910Y-36411504D01*
X132464910Y-36411504D02*
X132369672Y-36221028D01*
X132369672Y-36221028D02*
X132369672Y-36125790D01*
X132369672Y-36125790D02*
X132464910Y-35935314D01*
X132464910Y-35935314D02*
X132560148Y-35840076D01*
X132560148Y-35840076D02*
X132750624Y-35744838D01*
X132750624Y-35744838D02*
X133131577Y-35744838D01*
X133131577Y-35744838D02*
X133322053Y-35840076D01*
X133322053Y-35840076D02*
X133417291Y-35935314D01*
X133417291Y-35935314D02*
X133512529Y-36125790D01*
X133512529Y-36125790D02*
X133512529Y-36221028D01*
X133512529Y-36221028D02*
X133417291Y-36411504D01*
X133417291Y-36411504D02*
X133322053Y-36506742D01*
X133322053Y-36506742D02*
X133131577Y-36601980D01*
X133131577Y-36601980D02*
X132750624Y-36601980D01*
X132750624Y-36601980D02*
X132560148Y-36697219D01*
X132560148Y-36697219D02*
X132464910Y-36792457D01*
X132464910Y-36792457D02*
X132369672Y-36982933D01*
X132369672Y-36982933D02*
X132369672Y-37363885D01*
X132369672Y-37363885D02*
X132464910Y-37554361D01*
X132464910Y-37554361D02*
X132560148Y-37649600D01*
X132560148Y-37649600D02*
X132750624Y-37744838D01*
X132750624Y-37744838D02*
X133131577Y-37744838D01*
X133131577Y-37744838D02*
X133322053Y-37649600D01*
X133322053Y-37649600D02*
X133417291Y-37554361D01*
X133417291Y-37554361D02*
X133512529Y-37363885D01*
X133512529Y-37363885D02*
X133512529Y-36982933D01*
X133512529Y-36982933D02*
X133417291Y-36792457D01*
X133417291Y-36792457D02*
X133322053Y-36697219D01*
X133322053Y-36697219D02*
X133131577Y-36601980D01*
X134369672Y-37554361D02*
X134464910Y-37649600D01*
X134464910Y-37649600D02*
X134369672Y-37744838D01*
X134369672Y-37744838D02*
X134274434Y-37649600D01*
X134274434Y-37649600D02*
X134369672Y-37554361D01*
X134369672Y-37554361D02*
X134369672Y-37744838D01*
X134369672Y-36506742D02*
X134464910Y-36601980D01*
X134464910Y-36601980D02*
X134369672Y-36697219D01*
X134369672Y-36697219D02*
X134274434Y-36601980D01*
X134274434Y-36601980D02*
X134369672Y-36506742D01*
X134369672Y-36506742D02*
X134369672Y-36697219D01*
X136750625Y-37173409D02*
X137703006Y-37173409D01*
X136560149Y-37744838D02*
X137226815Y-35744838D01*
X137226815Y-35744838D02*
X137893482Y-37744838D01*
X138560149Y-36411504D02*
X138560149Y-37744838D01*
X138560149Y-36601980D02*
X138655387Y-36506742D01*
X138655387Y-36506742D02*
X138845863Y-36411504D01*
X138845863Y-36411504D02*
X139131578Y-36411504D01*
X139131578Y-36411504D02*
X139322054Y-36506742D01*
X139322054Y-36506742D02*
X139417292Y-36697219D01*
X139417292Y-36697219D02*
X139417292Y-37744838D01*
X142560150Y-36697219D02*
X141893483Y-36697219D01*
X141893483Y-37744838D02*
X141893483Y-35744838D01*
X141893483Y-35744838D02*
X142845864Y-35744838D01*
X143607769Y-37744838D02*
X143607769Y-35744838D01*
X143607769Y-35744838D02*
X144369674Y-35744838D01*
X144369674Y-35744838D02*
X144560150Y-35840076D01*
X144560150Y-35840076D02*
X144655388Y-35935314D01*
X144655388Y-35935314D02*
X144750626Y-36125790D01*
X144750626Y-36125790D02*
X144750626Y-36411504D01*
X144750626Y-36411504D02*
X144655388Y-36601980D01*
X144655388Y-36601980D02*
X144560150Y-36697219D01*
X144560150Y-36697219D02*
X144369674Y-36792457D01*
X144369674Y-36792457D02*
X143607769Y-36792457D01*
X146655388Y-35840076D02*
X146464912Y-35744838D01*
X146464912Y-35744838D02*
X146179198Y-35744838D01*
X146179198Y-35744838D02*
X145893483Y-35840076D01*
X145893483Y-35840076D02*
X145703007Y-36030552D01*
X145703007Y-36030552D02*
X145607769Y-36221028D01*
X145607769Y-36221028D02*
X145512531Y-36601980D01*
X145512531Y-36601980D02*
X145512531Y-36887695D01*
X145512531Y-36887695D02*
X145607769Y-37268647D01*
X145607769Y-37268647D02*
X145703007Y-37459123D01*
X145703007Y-37459123D02*
X145893483Y-37649600D01*
X145893483Y-37649600D02*
X146179198Y-37744838D01*
X146179198Y-37744838D02*
X146369674Y-37744838D01*
X146369674Y-37744838D02*
X146655388Y-37649600D01*
X146655388Y-37649600D02*
X146750626Y-37554361D01*
X146750626Y-37554361D02*
X146750626Y-36887695D01*
X146750626Y-36887695D02*
X146369674Y-36887695D01*
X147512531Y-37173409D02*
X148464912Y-37173409D01*
X147322055Y-37744838D02*
X147988721Y-35744838D01*
X147988721Y-35744838D02*
X148655388Y-37744838D01*
X151512532Y-36697219D02*
X151798246Y-36792457D01*
X151798246Y-36792457D02*
X151893484Y-36887695D01*
X151893484Y-36887695D02*
X151988722Y-37078171D01*
X151988722Y-37078171D02*
X151988722Y-37363885D01*
X151988722Y-37363885D02*
X151893484Y-37554361D01*
X151893484Y-37554361D02*
X151798246Y-37649600D01*
X151798246Y-37649600D02*
X151607770Y-37744838D01*
X151607770Y-37744838D02*
X150845865Y-37744838D01*
X150845865Y-37744838D02*
X150845865Y-35744838D01*
X150845865Y-35744838D02*
X151512532Y-35744838D01*
X151512532Y-35744838D02*
X151703008Y-35840076D01*
X151703008Y-35840076D02*
X151798246Y-35935314D01*
X151798246Y-35935314D02*
X151893484Y-36125790D01*
X151893484Y-36125790D02*
X151893484Y-36316266D01*
X151893484Y-36316266D02*
X151798246Y-36506742D01*
X151798246Y-36506742D02*
X151703008Y-36601980D01*
X151703008Y-36601980D02*
X151512532Y-36697219D01*
X151512532Y-36697219D02*
X150845865Y-36697219D01*
X153703008Y-37744838D02*
X153703008Y-36697219D01*
X153703008Y-36697219D02*
X153607770Y-36506742D01*
X153607770Y-36506742D02*
X153417294Y-36411504D01*
X153417294Y-36411504D02*
X153036341Y-36411504D01*
X153036341Y-36411504D02*
X152845865Y-36506742D01*
X153703008Y-37649600D02*
X153512532Y-37744838D01*
X153512532Y-37744838D02*
X153036341Y-37744838D01*
X153036341Y-37744838D02*
X152845865Y-37649600D01*
X152845865Y-37649600D02*
X152750627Y-37459123D01*
X152750627Y-37459123D02*
X152750627Y-37268647D01*
X152750627Y-37268647D02*
X152845865Y-37078171D01*
X152845865Y-37078171D02*
X153036341Y-36982933D01*
X153036341Y-36982933D02*
X153512532Y-36982933D01*
X153512532Y-36982933D02*
X153703008Y-36887695D01*
X154560151Y-37649600D02*
X154750627Y-37744838D01*
X154750627Y-37744838D02*
X155131579Y-37744838D01*
X155131579Y-37744838D02*
X155322056Y-37649600D01*
X155322056Y-37649600D02*
X155417294Y-37459123D01*
X155417294Y-37459123D02*
X155417294Y-37363885D01*
X155417294Y-37363885D02*
X155322056Y-37173409D01*
X155322056Y-37173409D02*
X155131579Y-37078171D01*
X155131579Y-37078171D02*
X154845865Y-37078171D01*
X154845865Y-37078171D02*
X154655389Y-36982933D01*
X154655389Y-36982933D02*
X154560151Y-36792457D01*
X154560151Y-36792457D02*
X154560151Y-36697219D01*
X154560151Y-36697219D02*
X154655389Y-36506742D01*
X154655389Y-36506742D02*
X154845865Y-36411504D01*
X154845865Y-36411504D02*
X155131579Y-36411504D01*
X155131579Y-36411504D02*
X155322056Y-36506742D01*
X157036342Y-37649600D02*
X156845866Y-37744838D01*
X156845866Y-37744838D02*
X156464913Y-37744838D01*
X156464913Y-37744838D02*
X156274437Y-37649600D01*
X156274437Y-37649600D02*
X156179199Y-37459123D01*
X156179199Y-37459123D02*
X156179199Y-36697219D01*
X156179199Y-36697219D02*
X156274437Y-36506742D01*
X156274437Y-36506742D02*
X156464913Y-36411504D01*
X156464913Y-36411504D02*
X156845866Y-36411504D01*
X156845866Y-36411504D02*
X157036342Y-36506742D01*
X157036342Y-36506742D02*
X157131580Y-36697219D01*
X157131580Y-36697219D02*
X157131580Y-36887695D01*
X157131580Y-36887695D02*
X156179199Y-37078171D01*
X158845866Y-37744838D02*
X158845866Y-35744838D01*
X158845866Y-37649600D02*
X158655390Y-37744838D01*
X158655390Y-37744838D02*
X158274437Y-37744838D01*
X158274437Y-37744838D02*
X158083961Y-37649600D01*
X158083961Y-37649600D02*
X157988723Y-37554361D01*
X157988723Y-37554361D02*
X157893485Y-37363885D01*
X157893485Y-37363885D02*
X157893485Y-36792457D01*
X157893485Y-36792457D02*
X157988723Y-36601980D01*
X157988723Y-36601980D02*
X158083961Y-36506742D01*
X158083961Y-36506742D02*
X158274437Y-36411504D01*
X158274437Y-36411504D02*
X158655390Y-36411504D01*
X158655390Y-36411504D02*
X158845866Y-36506742D01*
X161322057Y-37744838D02*
X161322057Y-35744838D01*
X162274438Y-36411504D02*
X162274438Y-37744838D01*
X162274438Y-36601980D02*
X162369676Y-36506742D01*
X162369676Y-36506742D02*
X162560152Y-36411504D01*
X162560152Y-36411504D02*
X162845867Y-36411504D01*
X162845867Y-36411504D02*
X163036343Y-36506742D01*
X163036343Y-36506742D02*
X163131581Y-36697219D01*
X163131581Y-36697219D02*
X163131581Y-37744838D01*
X163988724Y-37649600D02*
X164179200Y-37744838D01*
X164179200Y-37744838D02*
X164560152Y-37744838D01*
X164560152Y-37744838D02*
X164750629Y-37649600D01*
X164750629Y-37649600D02*
X164845867Y-37459123D01*
X164845867Y-37459123D02*
X164845867Y-37363885D01*
X164845867Y-37363885D02*
X164750629Y-37173409D01*
X164750629Y-37173409D02*
X164560152Y-37078171D01*
X164560152Y-37078171D02*
X164274438Y-37078171D01*
X164274438Y-37078171D02*
X164083962Y-36982933D01*
X164083962Y-36982933D02*
X163988724Y-36792457D01*
X163988724Y-36792457D02*
X163988724Y-36697219D01*
X163988724Y-36697219D02*
X164083962Y-36506742D01*
X164083962Y-36506742D02*
X164274438Y-36411504D01*
X164274438Y-36411504D02*
X164560152Y-36411504D01*
X164560152Y-36411504D02*
X164750629Y-36506742D01*
X165417296Y-36411504D02*
X166179200Y-36411504D01*
X165703010Y-35744838D02*
X165703010Y-37459123D01*
X165703010Y-37459123D02*
X165798248Y-37649600D01*
X165798248Y-37649600D02*
X165988724Y-37744838D01*
X165988724Y-37744838D02*
X166179200Y-37744838D01*
X166845867Y-37744838D02*
X166845867Y-36411504D01*
X166845867Y-36792457D02*
X166941105Y-36601980D01*
X166941105Y-36601980D02*
X167036343Y-36506742D01*
X167036343Y-36506742D02*
X167226819Y-36411504D01*
X167226819Y-36411504D02*
X167417296Y-36411504D01*
X168941105Y-36411504D02*
X168941105Y-37744838D01*
X168083962Y-36411504D02*
X168083962Y-37459123D01*
X168083962Y-37459123D02*
X168179200Y-37649600D01*
X168179200Y-37649600D02*
X168369676Y-37744838D01*
X168369676Y-37744838D02*
X168655391Y-37744838D01*
X168655391Y-37744838D02*
X168845867Y-37649600D01*
X168845867Y-37649600D02*
X168941105Y-37554361D01*
X169893486Y-37744838D02*
X169893486Y-36411504D01*
X169893486Y-36601980D02*
X169988724Y-36506742D01*
X169988724Y-36506742D02*
X170179200Y-36411504D01*
X170179200Y-36411504D02*
X170464915Y-36411504D01*
X170464915Y-36411504D02*
X170655391Y-36506742D01*
X170655391Y-36506742D02*
X170750629Y-36697219D01*
X170750629Y-36697219D02*
X170750629Y-37744838D01*
X170750629Y-36697219D02*
X170845867Y-36506742D01*
X170845867Y-36506742D02*
X171036343Y-36411504D01*
X171036343Y-36411504D02*
X171322057Y-36411504D01*
X171322057Y-36411504D02*
X171512534Y-36506742D01*
X171512534Y-36506742D02*
X171607772Y-36697219D01*
X171607772Y-36697219D02*
X171607772Y-37744838D01*
X173322058Y-37649600D02*
X173131582Y-37744838D01*
X173131582Y-37744838D02*
X172750629Y-37744838D01*
X172750629Y-37744838D02*
X172560153Y-37649600D01*
X172560153Y-37649600D02*
X172464915Y-37459123D01*
X172464915Y-37459123D02*
X172464915Y-36697219D01*
X172464915Y-36697219D02*
X172560153Y-36506742D01*
X172560153Y-36506742D02*
X172750629Y-36411504D01*
X172750629Y-36411504D02*
X173131582Y-36411504D01*
X173131582Y-36411504D02*
X173322058Y-36506742D01*
X173322058Y-36506742D02*
X173417296Y-36697219D01*
X173417296Y-36697219D02*
X173417296Y-36887695D01*
X173417296Y-36887695D02*
X172464915Y-37078171D01*
X174274439Y-36411504D02*
X174274439Y-37744838D01*
X174274439Y-36601980D02*
X174369677Y-36506742D01*
X174369677Y-36506742D02*
X174560153Y-36411504D01*
X174560153Y-36411504D02*
X174845868Y-36411504D01*
X174845868Y-36411504D02*
X175036344Y-36506742D01*
X175036344Y-36506742D02*
X175131582Y-36697219D01*
X175131582Y-36697219D02*
X175131582Y-37744838D01*
X175798249Y-36411504D02*
X176560153Y-36411504D01*
X176083963Y-35744838D02*
X176083963Y-37459123D01*
X176083963Y-37459123D02*
X176179201Y-37649600D01*
X176179201Y-37649600D02*
X176369677Y-37744838D01*
X176369677Y-37744838D02*
X176560153Y-37744838D01*
X178464916Y-36411504D02*
X179226820Y-36411504D01*
X178750630Y-37744838D02*
X178750630Y-36030552D01*
X178750630Y-36030552D02*
X178845868Y-35840076D01*
X178845868Y-35840076D02*
X179036344Y-35744838D01*
X179036344Y-35744838D02*
X179226820Y-35744838D01*
X180179201Y-37744838D02*
X179988725Y-37649600D01*
X179988725Y-37649600D02*
X179893487Y-37554361D01*
X179893487Y-37554361D02*
X179798249Y-37363885D01*
X179798249Y-37363885D02*
X179798249Y-36792457D01*
X179798249Y-36792457D02*
X179893487Y-36601980D01*
X179893487Y-36601980D02*
X179988725Y-36506742D01*
X179988725Y-36506742D02*
X180179201Y-36411504D01*
X180179201Y-36411504D02*
X180464916Y-36411504D01*
X180464916Y-36411504D02*
X180655392Y-36506742D01*
X180655392Y-36506742D02*
X180750630Y-36601980D01*
X180750630Y-36601980D02*
X180845868Y-36792457D01*
X180845868Y-36792457D02*
X180845868Y-37363885D01*
X180845868Y-37363885D02*
X180750630Y-37554361D01*
X180750630Y-37554361D02*
X180655392Y-37649600D01*
X180655392Y-37649600D02*
X180464916Y-37744838D01*
X180464916Y-37744838D02*
X180179201Y-37744838D01*
X181703011Y-37744838D02*
X181703011Y-36411504D01*
X181703011Y-36792457D02*
X181798249Y-36601980D01*
X181798249Y-36601980D02*
X181893487Y-36506742D01*
X181893487Y-36506742D02*
X182083963Y-36411504D01*
X182083963Y-36411504D02*
X182274440Y-36411504D01*
X185607773Y-37744838D02*
X184941106Y-36792457D01*
X184464916Y-37744838D02*
X184464916Y-35744838D01*
X184464916Y-35744838D02*
X185226821Y-35744838D01*
X185226821Y-35744838D02*
X185417297Y-35840076D01*
X185417297Y-35840076D02*
X185512535Y-35935314D01*
X185512535Y-35935314D02*
X185607773Y-36125790D01*
X185607773Y-36125790D02*
X185607773Y-36411504D01*
X185607773Y-36411504D02*
X185512535Y-36601980D01*
X185512535Y-36601980D02*
X185417297Y-36697219D01*
X185417297Y-36697219D02*
X185226821Y-36792457D01*
X185226821Y-36792457D02*
X184464916Y-36792457D01*
X187607773Y-37744838D02*
X186941106Y-36792457D01*
X186464916Y-37744838D02*
X186464916Y-35744838D01*
X186464916Y-35744838D02*
X187226821Y-35744838D01*
X187226821Y-35744838D02*
X187417297Y-35840076D01*
X187417297Y-35840076D02*
X187512535Y-35935314D01*
X187512535Y-35935314D02*
X187607773Y-36125790D01*
X187607773Y-36125790D02*
X187607773Y-36411504D01*
X187607773Y-36411504D02*
X187512535Y-36601980D01*
X187512535Y-36601980D02*
X187417297Y-36697219D01*
X187417297Y-36697219D02*
X187226821Y-36792457D01*
X187226821Y-36792457D02*
X186464916Y-36792457D01*
X188369678Y-37173409D02*
X189322059Y-37173409D01*
X188179202Y-37744838D02*
X188845868Y-35744838D01*
X188845868Y-35744838D02*
X189512535Y-37744838D01*
X190179202Y-37744838D02*
X190179202Y-35744838D01*
X190179202Y-35744838D02*
X190845869Y-37173409D01*
X190845869Y-37173409D02*
X191512535Y-35744838D01*
X191512535Y-35744838D02*
X191512535Y-37744838D01*
X195131583Y-37554361D02*
X195036345Y-37649600D01*
X195036345Y-37649600D02*
X194750631Y-37744838D01*
X194750631Y-37744838D02*
X194560155Y-37744838D01*
X194560155Y-37744838D02*
X194274440Y-37649600D01*
X194274440Y-37649600D02*
X194083964Y-37459123D01*
X194083964Y-37459123D02*
X193988726Y-37268647D01*
X193988726Y-37268647D02*
X193893488Y-36887695D01*
X193893488Y-36887695D02*
X193893488Y-36601980D01*
X193893488Y-36601980D02*
X193988726Y-36221028D01*
X193988726Y-36221028D02*
X194083964Y-36030552D01*
X194083964Y-36030552D02*
X194274440Y-35840076D01*
X194274440Y-35840076D02*
X194560155Y-35744838D01*
X194560155Y-35744838D02*
X194750631Y-35744838D01*
X194750631Y-35744838D02*
X195036345Y-35840076D01*
X195036345Y-35840076D02*
X195131583Y-35935314D01*
X195988726Y-37744838D02*
X195988726Y-35744838D01*
X196845869Y-37744838D02*
X196845869Y-36697219D01*
X196845869Y-36697219D02*
X196750631Y-36506742D01*
X196750631Y-36506742D02*
X196560155Y-36411504D01*
X196560155Y-36411504D02*
X196274440Y-36411504D01*
X196274440Y-36411504D02*
X196083964Y-36506742D01*
X196083964Y-36506742D02*
X195988726Y-36601980D01*
X198655393Y-37744838D02*
X198655393Y-36697219D01*
X198655393Y-36697219D02*
X198560155Y-36506742D01*
X198560155Y-36506742D02*
X198369679Y-36411504D01*
X198369679Y-36411504D02*
X197988726Y-36411504D01*
X197988726Y-36411504D02*
X197798250Y-36506742D01*
X198655393Y-37649600D02*
X198464917Y-37744838D01*
X198464917Y-37744838D02*
X197988726Y-37744838D01*
X197988726Y-37744838D02*
X197798250Y-37649600D01*
X197798250Y-37649600D02*
X197703012Y-37459123D01*
X197703012Y-37459123D02*
X197703012Y-37268647D01*
X197703012Y-37268647D02*
X197798250Y-37078171D01*
X197798250Y-37078171D02*
X197988726Y-36982933D01*
X197988726Y-36982933D02*
X198464917Y-36982933D01*
X198464917Y-36982933D02*
X198655393Y-36887695D01*
X199607774Y-37744838D02*
X199607774Y-36411504D01*
X199607774Y-36792457D02*
X199703012Y-36601980D01*
X199703012Y-36601980D02*
X199798250Y-36506742D01*
X199798250Y-36506742D02*
X199988726Y-36411504D01*
X199988726Y-36411504D02*
X200179203Y-36411504D01*
X201703012Y-37744838D02*
X201703012Y-36697219D01*
X201703012Y-36697219D02*
X201607774Y-36506742D01*
X201607774Y-36506742D02*
X201417298Y-36411504D01*
X201417298Y-36411504D02*
X201036345Y-36411504D01*
X201036345Y-36411504D02*
X200845869Y-36506742D01*
X201703012Y-37649600D02*
X201512536Y-37744838D01*
X201512536Y-37744838D02*
X201036345Y-37744838D01*
X201036345Y-37744838D02*
X200845869Y-37649600D01*
X200845869Y-37649600D02*
X200750631Y-37459123D01*
X200750631Y-37459123D02*
X200750631Y-37268647D01*
X200750631Y-37268647D02*
X200845869Y-37078171D01*
X200845869Y-37078171D02*
X201036345Y-36982933D01*
X201036345Y-36982933D02*
X201512536Y-36982933D01*
X201512536Y-36982933D02*
X201703012Y-36887695D01*
X203512536Y-37649600D02*
X203322060Y-37744838D01*
X203322060Y-37744838D02*
X202941107Y-37744838D01*
X202941107Y-37744838D02*
X202750631Y-37649600D01*
X202750631Y-37649600D02*
X202655393Y-37554361D01*
X202655393Y-37554361D02*
X202560155Y-37363885D01*
X202560155Y-37363885D02*
X202560155Y-36792457D01*
X202560155Y-36792457D02*
X202655393Y-36601980D01*
X202655393Y-36601980D02*
X202750631Y-36506742D01*
X202750631Y-36506742D02*
X202941107Y-36411504D01*
X202941107Y-36411504D02*
X203322060Y-36411504D01*
X203322060Y-36411504D02*
X203512536Y-36506742D01*
X204083965Y-36411504D02*
X204845869Y-36411504D01*
X204369679Y-35744838D02*
X204369679Y-37459123D01*
X204369679Y-37459123D02*
X204464917Y-37649600D01*
X204464917Y-37649600D02*
X204655393Y-37744838D01*
X204655393Y-37744838D02*
X204845869Y-37744838D01*
X206274441Y-37649600D02*
X206083965Y-37744838D01*
X206083965Y-37744838D02*
X205703012Y-37744838D01*
X205703012Y-37744838D02*
X205512536Y-37649600D01*
X205512536Y-37649600D02*
X205417298Y-37459123D01*
X205417298Y-37459123D02*
X205417298Y-36697219D01*
X205417298Y-36697219D02*
X205512536Y-36506742D01*
X205512536Y-36506742D02*
X205703012Y-36411504D01*
X205703012Y-36411504D02*
X206083965Y-36411504D01*
X206083965Y-36411504D02*
X206274441Y-36506742D01*
X206274441Y-36506742D02*
X206369679Y-36697219D01*
X206369679Y-36697219D02*
X206369679Y-36887695D01*
X206369679Y-36887695D02*
X205417298Y-37078171D01*
X207226822Y-37744838D02*
X207226822Y-36411504D01*
X207226822Y-36792457D02*
X207322060Y-36601980D01*
X207322060Y-36601980D02*
X207417298Y-36506742D01*
X207417298Y-36506742D02*
X207607774Y-36411504D01*
X207607774Y-36411504D02*
X207798251Y-36411504D01*
X208464917Y-37744838D02*
X208464917Y-36411504D01*
X208464917Y-35744838D02*
X208369679Y-35840076D01*
X208369679Y-35840076D02*
X208464917Y-35935314D01*
X208464917Y-35935314D02*
X208560155Y-35840076D01*
X208560155Y-35840076D02*
X208464917Y-35744838D01*
X208464917Y-35744838D02*
X208464917Y-35935314D01*
X209226822Y-36411504D02*
X210274441Y-36411504D01*
X210274441Y-36411504D02*
X209226822Y-37744838D01*
X209226822Y-37744838D02*
X210274441Y-37744838D01*
X211893489Y-37744838D02*
X211893489Y-36697219D01*
X211893489Y-36697219D02*
X211798251Y-36506742D01*
X211798251Y-36506742D02*
X211607775Y-36411504D01*
X211607775Y-36411504D02*
X211226822Y-36411504D01*
X211226822Y-36411504D02*
X211036346Y-36506742D01*
X211893489Y-37649600D02*
X211703013Y-37744838D01*
X211703013Y-37744838D02*
X211226822Y-37744838D01*
X211226822Y-37744838D02*
X211036346Y-37649600D01*
X211036346Y-37649600D02*
X210941108Y-37459123D01*
X210941108Y-37459123D02*
X210941108Y-37268647D01*
X210941108Y-37268647D02*
X211036346Y-37078171D01*
X211036346Y-37078171D02*
X211226822Y-36982933D01*
X211226822Y-36982933D02*
X211703013Y-36982933D01*
X211703013Y-36982933D02*
X211893489Y-36887695D01*
X212560156Y-36411504D02*
X213322060Y-36411504D01*
X212845870Y-35744838D02*
X212845870Y-37459123D01*
X212845870Y-37459123D02*
X212941108Y-37649600D01*
X212941108Y-37649600D02*
X213131584Y-37744838D01*
X213131584Y-37744838D02*
X213322060Y-37744838D01*
X213988727Y-37744838D02*
X213988727Y-36411504D01*
X213988727Y-35744838D02*
X213893489Y-35840076D01*
X213893489Y-35840076D02*
X213988727Y-35935314D01*
X213988727Y-35935314D02*
X214083965Y-35840076D01*
X214083965Y-35840076D02*
X213988727Y-35744838D01*
X213988727Y-35744838D02*
X213988727Y-35935314D01*
X215226822Y-37744838D02*
X215036346Y-37649600D01*
X215036346Y-37649600D02*
X214941108Y-37554361D01*
X214941108Y-37554361D02*
X214845870Y-37363885D01*
X214845870Y-37363885D02*
X214845870Y-36792457D01*
X214845870Y-36792457D02*
X214941108Y-36601980D01*
X214941108Y-36601980D02*
X215036346Y-36506742D01*
X215036346Y-36506742D02*
X215226822Y-36411504D01*
X215226822Y-36411504D02*
X215512537Y-36411504D01*
X215512537Y-36411504D02*
X215703013Y-36506742D01*
X215703013Y-36506742D02*
X215798251Y-36601980D01*
X215798251Y-36601980D02*
X215893489Y-36792457D01*
X215893489Y-36792457D02*
X215893489Y-37363885D01*
X215893489Y-37363885D02*
X215798251Y-37554361D01*
X215798251Y-37554361D02*
X215703013Y-37649600D01*
X215703013Y-37649600D02*
X215512537Y-37744838D01*
X215512537Y-37744838D02*
X215226822Y-37744838D01*
X216750632Y-36411504D02*
X216750632Y-37744838D01*
X216750632Y-36601980D02*
X216845870Y-36506742D01*
X216845870Y-36506742D02*
X217036346Y-36411504D01*
X217036346Y-36411504D02*
X217322061Y-36411504D01*
X217322061Y-36411504D02*
X217512537Y-36506742D01*
X217512537Y-36506742D02*
X217607775Y-36697219D01*
X217607775Y-36697219D02*
X217607775Y-37744838D01*
X102615266Y-102505326D02*
X102615266Y-101743422D01*
X102996219Y-102124374D02*
X102234314Y-102124374D01*
X101996219Y-100791041D02*
X101996219Y-101267231D01*
X101996219Y-101267231D02*
X102472409Y-101314850D01*
X102472409Y-101314850D02*
X102424790Y-101267231D01*
X102424790Y-101267231D02*
X102377171Y-101171993D01*
X102377171Y-101171993D02*
X102377171Y-100933898D01*
X102377171Y-100933898D02*
X102424790Y-100838660D01*
X102424790Y-100838660D02*
X102472409Y-100791041D01*
X102472409Y-100791041D02*
X102567647Y-100743422D01*
X102567647Y-100743422D02*
X102805742Y-100743422D01*
X102805742Y-100743422D02*
X102900980Y-100791041D01*
X102900980Y-100791041D02*
X102948600Y-100838660D01*
X102948600Y-100838660D02*
X102996219Y-100933898D01*
X102996219Y-100933898D02*
X102996219Y-101171993D01*
X102996219Y-101171993D02*
X102948600Y-101267231D01*
X102948600Y-101267231D02*
X102900980Y-101314850D01*
X101996219Y-100457707D02*
X102996219Y-100124374D01*
X102996219Y-100124374D02*
X101996219Y-99791041D01*
X201636219Y-51784094D02*
X202445742Y-51784094D01*
X202445742Y-51784094D02*
X202540980Y-51736475D01*
X202540980Y-51736475D02*
X202588600Y-51688856D01*
X202588600Y-51688856D02*
X202636219Y-51593618D01*
X202636219Y-51593618D02*
X202636219Y-51403142D01*
X202636219Y-51403142D02*
X202588600Y-51307904D01*
X202588600Y-51307904D02*
X202540980Y-51260285D01*
X202540980Y-51260285D02*
X202445742Y-51212666D01*
X202445742Y-51212666D02*
X201636219Y-51212666D01*
X202636219Y-50212666D02*
X202636219Y-50784094D01*
X202636219Y-50498380D02*
X201636219Y-50498380D01*
X201636219Y-50498380D02*
X201779076Y-50593618D01*
X201779076Y-50593618D02*
X201874314Y-50688856D01*
X201874314Y-50688856D02*
X201921933Y-50784094D01*
X201636219Y-49593618D02*
X201636219Y-49498380D01*
X201636219Y-49498380D02*
X201683838Y-49403142D01*
X201683838Y-49403142D02*
X201731457Y-49355523D01*
X201731457Y-49355523D02*
X201826695Y-49307904D01*
X201826695Y-49307904D02*
X202017171Y-49260285D01*
X202017171Y-49260285D02*
X202255266Y-49260285D01*
X202255266Y-49260285D02*
X202445742Y-49307904D01*
X202445742Y-49307904D02*
X202540980Y-49355523D01*
X202540980Y-49355523D02*
X202588600Y-49403142D01*
X202588600Y-49403142D02*
X202636219Y-49498380D01*
X202636219Y-49498380D02*
X202636219Y-49593618D01*
X202636219Y-49593618D02*
X202588600Y-49688856D01*
X202588600Y-49688856D02*
X202540980Y-49736475D01*
X202540980Y-49736475D02*
X202445742Y-49784094D01*
X202445742Y-49784094D02*
X202255266Y-49831713D01*
X202255266Y-49831713D02*
X202017171Y-49831713D01*
X202017171Y-49831713D02*
X201826695Y-49784094D01*
X201826695Y-49784094D02*
X201731457Y-49736475D01*
X201731457Y-49736475D02*
X201683838Y-49688856D01*
X201683838Y-49688856D02*
X201636219Y-49593618D01*
X96912219Y-96063333D02*
X97626504Y-96063333D01*
X97626504Y-96063333D02*
X97769361Y-96110952D01*
X97769361Y-96110952D02*
X97864600Y-96206190D01*
X97864600Y-96206190D02*
X97912219Y-96349047D01*
X97912219Y-96349047D02*
X97912219Y-96444285D01*
X97007457Y-95634761D02*
X96959838Y-95587142D01*
X96959838Y-95587142D02*
X96912219Y-95491904D01*
X96912219Y-95491904D02*
X96912219Y-95253809D01*
X96912219Y-95253809D02*
X96959838Y-95158571D01*
X96959838Y-95158571D02*
X97007457Y-95110952D01*
X97007457Y-95110952D02*
X97102695Y-95063333D01*
X97102695Y-95063333D02*
X97197933Y-95063333D01*
X97197933Y-95063333D02*
X97340790Y-95110952D01*
X97340790Y-95110952D02*
X97912219Y-95682380D01*
X97912219Y-95682380D02*
X97912219Y-95063333D01*
X93238095Y-106452219D02*
X93238095Y-105452219D01*
X93238095Y-105928409D02*
X93809523Y-105928409D01*
X93809523Y-106452219D02*
X93809523Y-105452219D01*
X94238095Y-105547457D02*
X94285714Y-105499838D01*
X94285714Y-105499838D02*
X94380952Y-105452219D01*
X94380952Y-105452219D02*
X94619047Y-105452219D01*
X94619047Y-105452219D02*
X94714285Y-105499838D01*
X94714285Y-105499838D02*
X94761904Y-105547457D01*
X94761904Y-105547457D02*
X94809523Y-105642695D01*
X94809523Y-105642695D02*
X94809523Y-105737933D01*
X94809523Y-105737933D02*
X94761904Y-105880790D01*
X94761904Y-105880790D02*
X94190476Y-106452219D01*
X94190476Y-106452219D02*
X94809523Y-106452219D01*
X195000409Y-59507333D02*
X195000409Y-59840666D01*
X195524219Y-59840666D02*
X194524219Y-59840666D01*
X194524219Y-59840666D02*
X194524219Y-59364476D01*
X195000409Y-58650190D02*
X195048028Y-58507333D01*
X195048028Y-58507333D02*
X195095647Y-58459714D01*
X195095647Y-58459714D02*
X195190885Y-58412095D01*
X195190885Y-58412095D02*
X195333742Y-58412095D01*
X195333742Y-58412095D02*
X195428980Y-58459714D01*
X195428980Y-58459714D02*
X195476600Y-58507333D01*
X195476600Y-58507333D02*
X195524219Y-58602571D01*
X195524219Y-58602571D02*
X195524219Y-58983523D01*
X195524219Y-58983523D02*
X194524219Y-58983523D01*
X194524219Y-58983523D02*
X194524219Y-58650190D01*
X194524219Y-58650190D02*
X194571838Y-58554952D01*
X194571838Y-58554952D02*
X194619457Y-58507333D01*
X194619457Y-58507333D02*
X194714695Y-58459714D01*
X194714695Y-58459714D02*
X194809933Y-58459714D01*
X194809933Y-58459714D02*
X194905171Y-58507333D01*
X194905171Y-58507333D02*
X194952790Y-58554952D01*
X194952790Y-58554952D02*
X195000409Y-58650190D01*
X195000409Y-58650190D02*
X195000409Y-58983523D01*
X194524219Y-57554952D02*
X194524219Y-57745428D01*
X194524219Y-57745428D02*
X194571838Y-57840666D01*
X194571838Y-57840666D02*
X194619457Y-57888285D01*
X194619457Y-57888285D02*
X194762314Y-57983523D01*
X194762314Y-57983523D02*
X194952790Y-58031142D01*
X194952790Y-58031142D02*
X195333742Y-58031142D01*
X195333742Y-58031142D02*
X195428980Y-57983523D01*
X195428980Y-57983523D02*
X195476600Y-57935904D01*
X195476600Y-57935904D02*
X195524219Y-57840666D01*
X195524219Y-57840666D02*
X195524219Y-57650190D01*
X195524219Y-57650190D02*
X195476600Y-57554952D01*
X195476600Y-57554952D02*
X195428980Y-57507333D01*
X195428980Y-57507333D02*
X195333742Y-57459714D01*
X195333742Y-57459714D02*
X195095647Y-57459714D01*
X195095647Y-57459714D02*
X195000409Y-57507333D01*
X195000409Y-57507333D02*
X194952790Y-57554952D01*
X194952790Y-57554952D02*
X194905171Y-57650190D01*
X194905171Y-57650190D02*
X194905171Y-57840666D01*
X194905171Y-57840666D02*
X194952790Y-57935904D01*
X194952790Y-57935904D02*
X195000409Y-57983523D01*
X195000409Y-57983523D02*
X195095647Y-58031142D01*
X98438095Y-36852219D02*
X98438095Y-35852219D01*
X98438095Y-36328409D02*
X99009523Y-36328409D01*
X99009523Y-36852219D02*
X99009523Y-35852219D01*
X100009523Y-36852219D02*
X99438095Y-36852219D01*
X99723809Y-36852219D02*
X99723809Y-35852219D01*
X99723809Y-35852219D02*
X99628571Y-35995076D01*
X99628571Y-35995076D02*
X99533333Y-36090314D01*
X99533333Y-36090314D02*
X99438095Y-36137933D01*
X141692219Y-51815904D02*
X142501742Y-51815904D01*
X142501742Y-51815904D02*
X142596980Y-51768285D01*
X142596980Y-51768285D02*
X142644600Y-51720666D01*
X142644600Y-51720666D02*
X142692219Y-51625428D01*
X142692219Y-51625428D02*
X142692219Y-51434952D01*
X142692219Y-51434952D02*
X142644600Y-51339714D01*
X142644600Y-51339714D02*
X142596980Y-51292095D01*
X142596980Y-51292095D02*
X142501742Y-51244476D01*
X142501742Y-51244476D02*
X141692219Y-51244476D01*
X141692219Y-50339714D02*
X141692219Y-50530190D01*
X141692219Y-50530190D02*
X141739838Y-50625428D01*
X141739838Y-50625428D02*
X141787457Y-50673047D01*
X141787457Y-50673047D02*
X141930314Y-50768285D01*
X141930314Y-50768285D02*
X142120790Y-50815904D01*
X142120790Y-50815904D02*
X142501742Y-50815904D01*
X142501742Y-50815904D02*
X142596980Y-50768285D01*
X142596980Y-50768285D02*
X142644600Y-50720666D01*
X142644600Y-50720666D02*
X142692219Y-50625428D01*
X142692219Y-50625428D02*
X142692219Y-50434952D01*
X142692219Y-50434952D02*
X142644600Y-50339714D01*
X142644600Y-50339714D02*
X142596980Y-50292095D01*
X142596980Y-50292095D02*
X142501742Y-50244476D01*
X142501742Y-50244476D02*
X142263647Y-50244476D01*
X142263647Y-50244476D02*
X142168409Y-50292095D01*
X142168409Y-50292095D02*
X142120790Y-50339714D01*
X142120790Y-50339714D02*
X142073171Y-50434952D01*
X142073171Y-50434952D02*
X142073171Y-50625428D01*
X142073171Y-50625428D02*
X142120790Y-50720666D01*
X142120790Y-50720666D02*
X142168409Y-50768285D01*
X142168409Y-50768285D02*
X142263647Y-50815904D01*
X171156219Y-51784094D02*
X171965742Y-51784094D01*
X171965742Y-51784094D02*
X172060980Y-51736475D01*
X172060980Y-51736475D02*
X172108600Y-51688856D01*
X172108600Y-51688856D02*
X172156219Y-51593618D01*
X172156219Y-51593618D02*
X172156219Y-51403142D01*
X172156219Y-51403142D02*
X172108600Y-51307904D01*
X172108600Y-51307904D02*
X172060980Y-51260285D01*
X172060980Y-51260285D02*
X171965742Y-51212666D01*
X171965742Y-51212666D02*
X171156219Y-51212666D01*
X172156219Y-50212666D02*
X172156219Y-50784094D01*
X172156219Y-50498380D02*
X171156219Y-50498380D01*
X171156219Y-50498380D02*
X171299076Y-50593618D01*
X171299076Y-50593618D02*
X171394314Y-50688856D01*
X171394314Y-50688856D02*
X171441933Y-50784094D01*
X172156219Y-49260285D02*
X172156219Y-49831713D01*
X172156219Y-49545999D02*
X171156219Y-49545999D01*
X171156219Y-49545999D02*
X171299076Y-49641237D01*
X171299076Y-49641237D02*
X171394314Y-49736475D01*
X171394314Y-49736475D02*
X171441933Y-49831713D01*
X140803333Y-93066980D02*
X140755714Y-93114600D01*
X140755714Y-93114600D02*
X140612857Y-93162219D01*
X140612857Y-93162219D02*
X140517619Y-93162219D01*
X140517619Y-93162219D02*
X140374762Y-93114600D01*
X140374762Y-93114600D02*
X140279524Y-93019361D01*
X140279524Y-93019361D02*
X140231905Y-92924123D01*
X140231905Y-92924123D02*
X140184286Y-92733647D01*
X140184286Y-92733647D02*
X140184286Y-92590790D01*
X140184286Y-92590790D02*
X140231905Y-92400314D01*
X140231905Y-92400314D02*
X140279524Y-92305076D01*
X140279524Y-92305076D02*
X140374762Y-92209838D01*
X140374762Y-92209838D02*
X140517619Y-92162219D01*
X140517619Y-92162219D02*
X140612857Y-92162219D01*
X140612857Y-92162219D02*
X140755714Y-92209838D01*
X140755714Y-92209838D02*
X140803333Y-92257457D01*
X141708095Y-92162219D02*
X141231905Y-92162219D01*
X141231905Y-92162219D02*
X141184286Y-92638409D01*
X141184286Y-92638409D02*
X141231905Y-92590790D01*
X141231905Y-92590790D02*
X141327143Y-92543171D01*
X141327143Y-92543171D02*
X141565238Y-92543171D01*
X141565238Y-92543171D02*
X141660476Y-92590790D01*
X141660476Y-92590790D02*
X141708095Y-92638409D01*
X141708095Y-92638409D02*
X141755714Y-92733647D01*
X141755714Y-92733647D02*
X141755714Y-92971742D01*
X141755714Y-92971742D02*
X141708095Y-93066980D01*
X141708095Y-93066980D02*
X141660476Y-93114600D01*
X141660476Y-93114600D02*
X141565238Y-93162219D01*
X141565238Y-93162219D02*
X141327143Y-93162219D01*
X141327143Y-93162219D02*
X141231905Y-93114600D01*
X141231905Y-93114600D02*
X141184286Y-93066980D01*
X113538095Y-43624219D02*
X113538095Y-44433742D01*
X113538095Y-44433742D02*
X113585714Y-44528980D01*
X113585714Y-44528980D02*
X113633333Y-44576600D01*
X113633333Y-44576600D02*
X113728571Y-44624219D01*
X113728571Y-44624219D02*
X113919047Y-44624219D01*
X113919047Y-44624219D02*
X114014285Y-44576600D01*
X114014285Y-44576600D02*
X114061904Y-44528980D01*
X114061904Y-44528980D02*
X114109523Y-44433742D01*
X114109523Y-44433742D02*
X114109523Y-43624219D01*
X114490476Y-43624219D02*
X115109523Y-43624219D01*
X115109523Y-43624219D02*
X114776190Y-44005171D01*
X114776190Y-44005171D02*
X114919047Y-44005171D01*
X114919047Y-44005171D02*
X115014285Y-44052790D01*
X115014285Y-44052790D02*
X115061904Y-44100409D01*
X115061904Y-44100409D02*
X115109523Y-44195647D01*
X115109523Y-44195647D02*
X115109523Y-44433742D01*
X115109523Y-44433742D02*
X115061904Y-44528980D01*
X115061904Y-44528980D02*
X115014285Y-44576600D01*
X115014285Y-44576600D02*
X114919047Y-44624219D01*
X114919047Y-44624219D02*
X114633333Y-44624219D01*
X114633333Y-44624219D02*
X114538095Y-44576600D01*
X114538095Y-44576600D02*
X114490476Y-44528980D01*
X102606095Y-70308219D02*
X102606095Y-71117742D01*
X102606095Y-71117742D02*
X102653714Y-71212980D01*
X102653714Y-71212980D02*
X102701333Y-71260600D01*
X102701333Y-71260600D02*
X102796571Y-71308219D01*
X102796571Y-71308219D02*
X102987047Y-71308219D01*
X102987047Y-71308219D02*
X103082285Y-71260600D01*
X103082285Y-71260600D02*
X103129904Y-71212980D01*
X103129904Y-71212980D02*
X103177523Y-71117742D01*
X103177523Y-71117742D02*
X103177523Y-70308219D01*
X104082285Y-70641552D02*
X104082285Y-71308219D01*
X103844190Y-70260600D02*
X103606095Y-70974885D01*
X103606095Y-70974885D02*
X104225142Y-70974885D01*
X95369142Y-69190980D02*
X95321523Y-69238600D01*
X95321523Y-69238600D02*
X95178666Y-69286219D01*
X95178666Y-69286219D02*
X95083428Y-69286219D01*
X95083428Y-69286219D02*
X94940571Y-69238600D01*
X94940571Y-69238600D02*
X94845333Y-69143361D01*
X94845333Y-69143361D02*
X94797714Y-69048123D01*
X94797714Y-69048123D02*
X94750095Y-68857647D01*
X94750095Y-68857647D02*
X94750095Y-68714790D01*
X94750095Y-68714790D02*
X94797714Y-68524314D01*
X94797714Y-68524314D02*
X94845333Y-68429076D01*
X94845333Y-68429076D02*
X94940571Y-68333838D01*
X94940571Y-68333838D02*
X95083428Y-68286219D01*
X95083428Y-68286219D02*
X95178666Y-68286219D01*
X95178666Y-68286219D02*
X95321523Y-68333838D01*
X95321523Y-68333838D02*
X95369142Y-68381457D01*
X96321523Y-69286219D02*
X95750095Y-69286219D01*
X96035809Y-69286219D02*
X96035809Y-68286219D01*
X96035809Y-68286219D02*
X95940571Y-68429076D01*
X95940571Y-68429076D02*
X95845333Y-68524314D01*
X95845333Y-68524314D02*
X95750095Y-68571933D01*
X97178666Y-68619552D02*
X97178666Y-69286219D01*
X96940571Y-68238600D02*
X96702476Y-68952885D01*
X96702476Y-68952885D02*
X97321523Y-68952885D01*
X199509142Y-92812980D02*
X199461523Y-92860600D01*
X199461523Y-92860600D02*
X199318666Y-92908219D01*
X199318666Y-92908219D02*
X199223428Y-92908219D01*
X199223428Y-92908219D02*
X199080571Y-92860600D01*
X199080571Y-92860600D02*
X198985333Y-92765361D01*
X198985333Y-92765361D02*
X198937714Y-92670123D01*
X198937714Y-92670123D02*
X198890095Y-92479647D01*
X198890095Y-92479647D02*
X198890095Y-92336790D01*
X198890095Y-92336790D02*
X198937714Y-92146314D01*
X198937714Y-92146314D02*
X198985333Y-92051076D01*
X198985333Y-92051076D02*
X199080571Y-91955838D01*
X199080571Y-91955838D02*
X199223428Y-91908219D01*
X199223428Y-91908219D02*
X199318666Y-91908219D01*
X199318666Y-91908219D02*
X199461523Y-91955838D01*
X199461523Y-91955838D02*
X199509142Y-92003457D01*
X200461523Y-92908219D02*
X199890095Y-92908219D01*
X200175809Y-92908219D02*
X200175809Y-91908219D01*
X200175809Y-91908219D02*
X200080571Y-92051076D01*
X200080571Y-92051076D02*
X199985333Y-92146314D01*
X199985333Y-92146314D02*
X199890095Y-92193933D01*
X201413904Y-92908219D02*
X200842476Y-92908219D01*
X201128190Y-92908219D02*
X201128190Y-91908219D01*
X201128190Y-91908219D02*
X201032952Y-92051076D01*
X201032952Y-92051076D02*
X200937714Y-92146314D01*
X200937714Y-92146314D02*
X200842476Y-92193933D01*
X127821333Y-86684219D02*
X127488000Y-86208028D01*
X127249905Y-86684219D02*
X127249905Y-85684219D01*
X127249905Y-85684219D02*
X127630857Y-85684219D01*
X127630857Y-85684219D02*
X127726095Y-85731838D01*
X127726095Y-85731838D02*
X127773714Y-85779457D01*
X127773714Y-85779457D02*
X127821333Y-85874695D01*
X127821333Y-85874695D02*
X127821333Y-86017552D01*
X127821333Y-86017552D02*
X127773714Y-86112790D01*
X127773714Y-86112790D02*
X127726095Y-86160409D01*
X127726095Y-86160409D02*
X127630857Y-86208028D01*
X127630857Y-86208028D02*
X127249905Y-86208028D01*
X128202286Y-85779457D02*
X128249905Y-85731838D01*
X128249905Y-85731838D02*
X128345143Y-85684219D01*
X128345143Y-85684219D02*
X128583238Y-85684219D01*
X128583238Y-85684219D02*
X128678476Y-85731838D01*
X128678476Y-85731838D02*
X128726095Y-85779457D01*
X128726095Y-85779457D02*
X128773714Y-85874695D01*
X128773714Y-85874695D02*
X128773714Y-85969933D01*
X128773714Y-85969933D02*
X128726095Y-86112790D01*
X128726095Y-86112790D02*
X128154667Y-86684219D01*
X128154667Y-86684219D02*
X128773714Y-86684219D01*
X118628095Y-70308219D02*
X118628095Y-71117742D01*
X118628095Y-71117742D02*
X118675714Y-71212980D01*
X118675714Y-71212980D02*
X118723333Y-71260600D01*
X118723333Y-71260600D02*
X118818571Y-71308219D01*
X118818571Y-71308219D02*
X119009047Y-71308219D01*
X119009047Y-71308219D02*
X119104285Y-71260600D01*
X119104285Y-71260600D02*
X119151904Y-71212980D01*
X119151904Y-71212980D02*
X119199523Y-71117742D01*
X119199523Y-71117742D02*
X119199523Y-70308219D01*
X120199523Y-71308219D02*
X119628095Y-71308219D01*
X119913809Y-71308219D02*
X119913809Y-70308219D01*
X119913809Y-70308219D02*
X119818571Y-70451076D01*
X119818571Y-70451076D02*
X119723333Y-70546314D01*
X119723333Y-70546314D02*
X119628095Y-70593933D01*
X127821333Y-74684219D02*
X127488000Y-74208028D01*
X127249905Y-74684219D02*
X127249905Y-73684219D01*
X127249905Y-73684219D02*
X127630857Y-73684219D01*
X127630857Y-73684219D02*
X127726095Y-73731838D01*
X127726095Y-73731838D02*
X127773714Y-73779457D01*
X127773714Y-73779457D02*
X127821333Y-73874695D01*
X127821333Y-73874695D02*
X127821333Y-74017552D01*
X127821333Y-74017552D02*
X127773714Y-74112790D01*
X127773714Y-74112790D02*
X127726095Y-74160409D01*
X127726095Y-74160409D02*
X127630857Y-74208028D01*
X127630857Y-74208028D02*
X127249905Y-74208028D01*
X128726095Y-73684219D02*
X128249905Y-73684219D01*
X128249905Y-73684219D02*
X128202286Y-74160409D01*
X128202286Y-74160409D02*
X128249905Y-74112790D01*
X128249905Y-74112790D02*
X128345143Y-74065171D01*
X128345143Y-74065171D02*
X128583238Y-74065171D01*
X128583238Y-74065171D02*
X128678476Y-74112790D01*
X128678476Y-74112790D02*
X128726095Y-74160409D01*
X128726095Y-74160409D02*
X128773714Y-74255647D01*
X128773714Y-74255647D02*
X128773714Y-74493742D01*
X128773714Y-74493742D02*
X128726095Y-74588980D01*
X128726095Y-74588980D02*
X128678476Y-74636600D01*
X128678476Y-74636600D02*
X128583238Y-74684219D01*
X128583238Y-74684219D02*
X128345143Y-74684219D01*
X128345143Y-74684219D02*
X128249905Y-74636600D01*
X128249905Y-74636600D02*
X128202286Y-74588980D01*
X127821333Y-90684219D02*
X127488000Y-90208028D01*
X127249905Y-90684219D02*
X127249905Y-89684219D01*
X127249905Y-89684219D02*
X127630857Y-89684219D01*
X127630857Y-89684219D02*
X127726095Y-89731838D01*
X127726095Y-89731838D02*
X127773714Y-89779457D01*
X127773714Y-89779457D02*
X127821333Y-89874695D01*
X127821333Y-89874695D02*
X127821333Y-90017552D01*
X127821333Y-90017552D02*
X127773714Y-90112790D01*
X127773714Y-90112790D02*
X127726095Y-90160409D01*
X127726095Y-90160409D02*
X127630857Y-90208028D01*
X127630857Y-90208028D02*
X127249905Y-90208028D01*
X128773714Y-90684219D02*
X128202286Y-90684219D01*
X128488000Y-90684219D02*
X128488000Y-89684219D01*
X128488000Y-89684219D02*
X128392762Y-89827076D01*
X128392762Y-89827076D02*
X128297524Y-89922314D01*
X128297524Y-89922314D02*
X128202286Y-89969933D01*
X201636219Y-82295904D02*
X202445742Y-82295904D01*
X202445742Y-82295904D02*
X202540980Y-82248285D01*
X202540980Y-82248285D02*
X202588600Y-82200666D01*
X202588600Y-82200666D02*
X202636219Y-82105428D01*
X202636219Y-82105428D02*
X202636219Y-81914952D01*
X202636219Y-81914952D02*
X202588600Y-81819714D01*
X202588600Y-81819714D02*
X202540980Y-81772095D01*
X202540980Y-81772095D02*
X202445742Y-81724476D01*
X202445742Y-81724476D02*
X201636219Y-81724476D01*
X202636219Y-81200666D02*
X202636219Y-81010190D01*
X202636219Y-81010190D02*
X202588600Y-80914952D01*
X202588600Y-80914952D02*
X202540980Y-80867333D01*
X202540980Y-80867333D02*
X202398123Y-80772095D01*
X202398123Y-80772095D02*
X202207647Y-80724476D01*
X202207647Y-80724476D02*
X201826695Y-80724476D01*
X201826695Y-80724476D02*
X201731457Y-80772095D01*
X201731457Y-80772095D02*
X201683838Y-80819714D01*
X201683838Y-80819714D02*
X201636219Y-80914952D01*
X201636219Y-80914952D02*
X201636219Y-81105428D01*
X201636219Y-81105428D02*
X201683838Y-81200666D01*
X201683838Y-81200666D02*
X201731457Y-81248285D01*
X201731457Y-81248285D02*
X201826695Y-81295904D01*
X201826695Y-81295904D02*
X202064790Y-81295904D01*
X202064790Y-81295904D02*
X202160028Y-81248285D01*
X202160028Y-81248285D02*
X202207647Y-81200666D01*
X202207647Y-81200666D02*
X202255266Y-81105428D01*
X202255266Y-81105428D02*
X202255266Y-80914952D01*
X202255266Y-80914952D02*
X202207647Y-80819714D01*
X202207647Y-80819714D02*
X202160028Y-80772095D01*
X202160028Y-80772095D02*
X202064790Y-80724476D01*
X137501333Y-93066980D02*
X137453714Y-93114600D01*
X137453714Y-93114600D02*
X137310857Y-93162219D01*
X137310857Y-93162219D02*
X137215619Y-93162219D01*
X137215619Y-93162219D02*
X137072762Y-93114600D01*
X137072762Y-93114600D02*
X136977524Y-93019361D01*
X136977524Y-93019361D02*
X136929905Y-92924123D01*
X136929905Y-92924123D02*
X136882286Y-92733647D01*
X136882286Y-92733647D02*
X136882286Y-92590790D01*
X136882286Y-92590790D02*
X136929905Y-92400314D01*
X136929905Y-92400314D02*
X136977524Y-92305076D01*
X136977524Y-92305076D02*
X137072762Y-92209838D01*
X137072762Y-92209838D02*
X137215619Y-92162219D01*
X137215619Y-92162219D02*
X137310857Y-92162219D01*
X137310857Y-92162219D02*
X137453714Y-92209838D01*
X137453714Y-92209838D02*
X137501333Y-92257457D01*
X138358476Y-92162219D02*
X138168000Y-92162219D01*
X138168000Y-92162219D02*
X138072762Y-92209838D01*
X138072762Y-92209838D02*
X138025143Y-92257457D01*
X138025143Y-92257457D02*
X137929905Y-92400314D01*
X137929905Y-92400314D02*
X137882286Y-92590790D01*
X137882286Y-92590790D02*
X137882286Y-92971742D01*
X137882286Y-92971742D02*
X137929905Y-93066980D01*
X137929905Y-93066980D02*
X137977524Y-93114600D01*
X137977524Y-93114600D02*
X138072762Y-93162219D01*
X138072762Y-93162219D02*
X138263238Y-93162219D01*
X138263238Y-93162219D02*
X138358476Y-93114600D01*
X138358476Y-93114600D02*
X138406095Y-93066980D01*
X138406095Y-93066980D02*
X138453714Y-92971742D01*
X138453714Y-92971742D02*
X138453714Y-92733647D01*
X138453714Y-92733647D02*
X138406095Y-92638409D01*
X138406095Y-92638409D02*
X138358476Y-92590790D01*
X138358476Y-92590790D02*
X138263238Y-92543171D01*
X138263238Y-92543171D02*
X138072762Y-92543171D01*
X138072762Y-92543171D02*
X137977524Y-92590790D01*
X137977524Y-92590790D02*
X137929905Y-92638409D01*
X137929905Y-92638409D02*
X137882286Y-92733647D01*
X118666666Y-94924409D02*
X118333333Y-94924409D01*
X118333333Y-95448219D02*
X118333333Y-94448219D01*
X118333333Y-94448219D02*
X118809523Y-94448219D01*
X119523809Y-94924409D02*
X119666666Y-94972028D01*
X119666666Y-94972028D02*
X119714285Y-95019647D01*
X119714285Y-95019647D02*
X119761904Y-95114885D01*
X119761904Y-95114885D02*
X119761904Y-95257742D01*
X119761904Y-95257742D02*
X119714285Y-95352980D01*
X119714285Y-95352980D02*
X119666666Y-95400600D01*
X119666666Y-95400600D02*
X119571428Y-95448219D01*
X119571428Y-95448219D02*
X119190476Y-95448219D01*
X119190476Y-95448219D02*
X119190476Y-94448219D01*
X119190476Y-94448219D02*
X119523809Y-94448219D01*
X119523809Y-94448219D02*
X119619047Y-94495838D01*
X119619047Y-94495838D02*
X119666666Y-94543457D01*
X119666666Y-94543457D02*
X119714285Y-94638695D01*
X119714285Y-94638695D02*
X119714285Y-94733933D01*
X119714285Y-94733933D02*
X119666666Y-94829171D01*
X119666666Y-94829171D02*
X119619047Y-94876790D01*
X119619047Y-94876790D02*
X119523809Y-94924409D01*
X119523809Y-94924409D02*
X119190476Y-94924409D01*
X120333333Y-94876790D02*
X120238095Y-94829171D01*
X120238095Y-94829171D02*
X120190476Y-94781552D01*
X120190476Y-94781552D02*
X120142857Y-94686314D01*
X120142857Y-94686314D02*
X120142857Y-94638695D01*
X120142857Y-94638695D02*
X120190476Y-94543457D01*
X120190476Y-94543457D02*
X120238095Y-94495838D01*
X120238095Y-94495838D02*
X120333333Y-94448219D01*
X120333333Y-94448219D02*
X120523809Y-94448219D01*
X120523809Y-94448219D02*
X120619047Y-94495838D01*
X120619047Y-94495838D02*
X120666666Y-94543457D01*
X120666666Y-94543457D02*
X120714285Y-94638695D01*
X120714285Y-94638695D02*
X120714285Y-94686314D01*
X120714285Y-94686314D02*
X120666666Y-94781552D01*
X120666666Y-94781552D02*
X120619047Y-94829171D01*
X120619047Y-94829171D02*
X120523809Y-94876790D01*
X120523809Y-94876790D02*
X120333333Y-94876790D01*
X120333333Y-94876790D02*
X120238095Y-94924409D01*
X120238095Y-94924409D02*
X120190476Y-94972028D01*
X120190476Y-94972028D02*
X120142857Y-95067266D01*
X120142857Y-95067266D02*
X120142857Y-95257742D01*
X120142857Y-95257742D02*
X120190476Y-95352980D01*
X120190476Y-95352980D02*
X120238095Y-95400600D01*
X120238095Y-95400600D02*
X120333333Y-95448219D01*
X120333333Y-95448219D02*
X120523809Y-95448219D01*
X120523809Y-95448219D02*
X120619047Y-95400600D01*
X120619047Y-95400600D02*
X120666666Y-95352980D01*
X120666666Y-95352980D02*
X120714285Y-95257742D01*
X120714285Y-95257742D02*
X120714285Y-95067266D01*
X120714285Y-95067266D02*
X120666666Y-94972028D01*
X120666666Y-94972028D02*
X120619047Y-94924409D01*
X120619047Y-94924409D02*
X120523809Y-94876790D01*
X92130666Y-71556409D02*
X91797333Y-71556409D01*
X91797333Y-72080219D02*
X91797333Y-71080219D01*
X91797333Y-71080219D02*
X92273523Y-71080219D01*
X92987809Y-71556409D02*
X93130666Y-71604028D01*
X93130666Y-71604028D02*
X93178285Y-71651647D01*
X93178285Y-71651647D02*
X93225904Y-71746885D01*
X93225904Y-71746885D02*
X93225904Y-71889742D01*
X93225904Y-71889742D02*
X93178285Y-71984980D01*
X93178285Y-71984980D02*
X93130666Y-72032600D01*
X93130666Y-72032600D02*
X93035428Y-72080219D01*
X93035428Y-72080219D02*
X92654476Y-72080219D01*
X92654476Y-72080219D02*
X92654476Y-71080219D01*
X92654476Y-71080219D02*
X92987809Y-71080219D01*
X92987809Y-71080219D02*
X93083047Y-71127838D01*
X93083047Y-71127838D02*
X93130666Y-71175457D01*
X93130666Y-71175457D02*
X93178285Y-71270695D01*
X93178285Y-71270695D02*
X93178285Y-71365933D01*
X93178285Y-71365933D02*
X93130666Y-71461171D01*
X93130666Y-71461171D02*
X93083047Y-71508790D01*
X93083047Y-71508790D02*
X92987809Y-71556409D01*
X92987809Y-71556409D02*
X92654476Y-71556409D01*
X94130666Y-71080219D02*
X93654476Y-71080219D01*
X93654476Y-71080219D02*
X93606857Y-71556409D01*
X93606857Y-71556409D02*
X93654476Y-71508790D01*
X93654476Y-71508790D02*
X93749714Y-71461171D01*
X93749714Y-71461171D02*
X93987809Y-71461171D01*
X93987809Y-71461171D02*
X94083047Y-71508790D01*
X94083047Y-71508790D02*
X94130666Y-71556409D01*
X94130666Y-71556409D02*
X94178285Y-71651647D01*
X94178285Y-71651647D02*
X94178285Y-71889742D01*
X94178285Y-71889742D02*
X94130666Y-71984980D01*
X94130666Y-71984980D02*
X94083047Y-72032600D01*
X94083047Y-72032600D02*
X93987809Y-72080219D01*
X93987809Y-72080219D02*
X93749714Y-72080219D01*
X93749714Y-72080219D02*
X93654476Y-72032600D01*
X93654476Y-72032600D02*
X93606857Y-71984980D01*
X171156219Y-80263904D02*
X171965742Y-80263904D01*
X171965742Y-80263904D02*
X172060980Y-80216285D01*
X172060980Y-80216285D02*
X172108600Y-80168666D01*
X172108600Y-80168666D02*
X172156219Y-80073428D01*
X172156219Y-80073428D02*
X172156219Y-79882952D01*
X172156219Y-79882952D02*
X172108600Y-79787714D01*
X172108600Y-79787714D02*
X172060980Y-79740095D01*
X172060980Y-79740095D02*
X171965742Y-79692476D01*
X171965742Y-79692476D02*
X171156219Y-79692476D01*
X171156219Y-79311523D02*
X171156219Y-78644857D01*
X171156219Y-78644857D02*
X172156219Y-79073428D01*
X119166666Y-99360409D02*
X118833333Y-99360409D01*
X118833333Y-99884219D02*
X118833333Y-98884219D01*
X118833333Y-98884219D02*
X119309523Y-98884219D01*
X120023809Y-99360409D02*
X120166666Y-99408028D01*
X120166666Y-99408028D02*
X120214285Y-99455647D01*
X120214285Y-99455647D02*
X120261904Y-99550885D01*
X120261904Y-99550885D02*
X120261904Y-99693742D01*
X120261904Y-99693742D02*
X120214285Y-99788980D01*
X120214285Y-99788980D02*
X120166666Y-99836600D01*
X120166666Y-99836600D02*
X120071428Y-99884219D01*
X120071428Y-99884219D02*
X119690476Y-99884219D01*
X119690476Y-99884219D02*
X119690476Y-98884219D01*
X119690476Y-98884219D02*
X120023809Y-98884219D01*
X120023809Y-98884219D02*
X120119047Y-98931838D01*
X120119047Y-98931838D02*
X120166666Y-98979457D01*
X120166666Y-98979457D02*
X120214285Y-99074695D01*
X120214285Y-99074695D02*
X120214285Y-99169933D01*
X120214285Y-99169933D02*
X120166666Y-99265171D01*
X120166666Y-99265171D02*
X120119047Y-99312790D01*
X120119047Y-99312790D02*
X120023809Y-99360409D01*
X120023809Y-99360409D02*
X119690476Y-99360409D01*
X120738095Y-99884219D02*
X120928571Y-99884219D01*
X120928571Y-99884219D02*
X121023809Y-99836600D01*
X121023809Y-99836600D02*
X121071428Y-99788980D01*
X121071428Y-99788980D02*
X121166666Y-99646123D01*
X121166666Y-99646123D02*
X121214285Y-99455647D01*
X121214285Y-99455647D02*
X121214285Y-99074695D01*
X121214285Y-99074695D02*
X121166666Y-98979457D01*
X121166666Y-98979457D02*
X121119047Y-98931838D01*
X121119047Y-98931838D02*
X121023809Y-98884219D01*
X121023809Y-98884219D02*
X120833333Y-98884219D01*
X120833333Y-98884219D02*
X120738095Y-98931838D01*
X120738095Y-98931838D02*
X120690476Y-98979457D01*
X120690476Y-98979457D02*
X120642857Y-99074695D01*
X120642857Y-99074695D02*
X120642857Y-99312790D01*
X120642857Y-99312790D02*
X120690476Y-99408028D01*
X120690476Y-99408028D02*
X120738095Y-99455647D01*
X120738095Y-99455647D02*
X120833333Y-99503266D01*
X120833333Y-99503266D02*
X121023809Y-99503266D01*
X121023809Y-99503266D02*
X121119047Y-99455647D01*
X121119047Y-99455647D02*
X121166666Y-99408028D01*
X121166666Y-99408028D02*
X121214285Y-99312790D01*
X242222219Y-104333333D02*
X242936504Y-104333333D01*
X242936504Y-104333333D02*
X243079361Y-104380952D01*
X243079361Y-104380952D02*
X243174600Y-104476190D01*
X243174600Y-104476190D02*
X243222219Y-104619047D01*
X243222219Y-104619047D02*
X243222219Y-104714285D01*
X242222219Y-103952380D02*
X242222219Y-103333333D01*
X242222219Y-103333333D02*
X242603171Y-103666666D01*
X242603171Y-103666666D02*
X242603171Y-103523809D01*
X242603171Y-103523809D02*
X242650790Y-103428571D01*
X242650790Y-103428571D02*
X242698409Y-103380952D01*
X242698409Y-103380952D02*
X242793647Y-103333333D01*
X242793647Y-103333333D02*
X243031742Y-103333333D01*
X243031742Y-103333333D02*
X243126980Y-103380952D01*
X243126980Y-103380952D02*
X243174600Y-103428571D01*
X243174600Y-103428571D02*
X243222219Y-103523809D01*
X243222219Y-103523809D02*
X243222219Y-103809523D01*
X243222219Y-103809523D02*
X243174600Y-103904761D01*
X243174600Y-103904761D02*
X243126980Y-103952380D01*
X162933142Y-81890980D02*
X162885523Y-81938600D01*
X162885523Y-81938600D02*
X162742666Y-81986219D01*
X162742666Y-81986219D02*
X162647428Y-81986219D01*
X162647428Y-81986219D02*
X162504571Y-81938600D01*
X162504571Y-81938600D02*
X162409333Y-81843361D01*
X162409333Y-81843361D02*
X162361714Y-81748123D01*
X162361714Y-81748123D02*
X162314095Y-81557647D01*
X162314095Y-81557647D02*
X162314095Y-81414790D01*
X162314095Y-81414790D02*
X162361714Y-81224314D01*
X162361714Y-81224314D02*
X162409333Y-81129076D01*
X162409333Y-81129076D02*
X162504571Y-81033838D01*
X162504571Y-81033838D02*
X162647428Y-80986219D01*
X162647428Y-80986219D02*
X162742666Y-80986219D01*
X162742666Y-80986219D02*
X162885523Y-81033838D01*
X162885523Y-81033838D02*
X162933142Y-81081457D01*
X163885523Y-81986219D02*
X163314095Y-81986219D01*
X163599809Y-81986219D02*
X163599809Y-80986219D01*
X163599809Y-80986219D02*
X163504571Y-81129076D01*
X163504571Y-81129076D02*
X163409333Y-81224314D01*
X163409333Y-81224314D02*
X163314095Y-81271933D01*
X164790285Y-80986219D02*
X164314095Y-80986219D01*
X164314095Y-80986219D02*
X164266476Y-81462409D01*
X164266476Y-81462409D02*
X164314095Y-81414790D01*
X164314095Y-81414790D02*
X164409333Y-81367171D01*
X164409333Y-81367171D02*
X164647428Y-81367171D01*
X164647428Y-81367171D02*
X164742666Y-81414790D01*
X164742666Y-81414790D02*
X164790285Y-81462409D01*
X164790285Y-81462409D02*
X164837904Y-81557647D01*
X164837904Y-81557647D02*
X164837904Y-81795742D01*
X164837904Y-81795742D02*
X164790285Y-81890980D01*
X164790285Y-81890980D02*
X164742666Y-81938600D01*
X164742666Y-81938600D02*
X164647428Y-81986219D01*
X164647428Y-81986219D02*
X164409333Y-81986219D01*
X164409333Y-81986219D02*
X164314095Y-81938600D01*
X164314095Y-81938600D02*
X164266476Y-81890980D01*
X250238095Y-106452219D02*
X250238095Y-105452219D01*
X250238095Y-105928409D02*
X250809523Y-105928409D01*
X250809523Y-106452219D02*
X250809523Y-105452219D01*
X251714285Y-105785552D02*
X251714285Y-106452219D01*
X251476190Y-105404600D02*
X251238095Y-106118885D01*
X251238095Y-106118885D02*
X251857142Y-106118885D01*
X201636219Y-101091904D02*
X202445742Y-101091904D01*
X202445742Y-101091904D02*
X202540980Y-101044285D01*
X202540980Y-101044285D02*
X202588600Y-100996666D01*
X202588600Y-100996666D02*
X202636219Y-100901428D01*
X202636219Y-100901428D02*
X202636219Y-100710952D01*
X202636219Y-100710952D02*
X202588600Y-100615714D01*
X202588600Y-100615714D02*
X202540980Y-100568095D01*
X202540980Y-100568095D02*
X202445742Y-100520476D01*
X202445742Y-100520476D02*
X201636219Y-100520476D01*
X202064790Y-99901428D02*
X202017171Y-99996666D01*
X202017171Y-99996666D02*
X201969552Y-100044285D01*
X201969552Y-100044285D02*
X201874314Y-100091904D01*
X201874314Y-100091904D02*
X201826695Y-100091904D01*
X201826695Y-100091904D02*
X201731457Y-100044285D01*
X201731457Y-100044285D02*
X201683838Y-99996666D01*
X201683838Y-99996666D02*
X201636219Y-99901428D01*
X201636219Y-99901428D02*
X201636219Y-99710952D01*
X201636219Y-99710952D02*
X201683838Y-99615714D01*
X201683838Y-99615714D02*
X201731457Y-99568095D01*
X201731457Y-99568095D02*
X201826695Y-99520476D01*
X201826695Y-99520476D02*
X201874314Y-99520476D01*
X201874314Y-99520476D02*
X201969552Y-99568095D01*
X201969552Y-99568095D02*
X202017171Y-99615714D01*
X202017171Y-99615714D02*
X202064790Y-99710952D01*
X202064790Y-99710952D02*
X202064790Y-99901428D01*
X202064790Y-99901428D02*
X202112409Y-99996666D01*
X202112409Y-99996666D02*
X202160028Y-100044285D01*
X202160028Y-100044285D02*
X202255266Y-100091904D01*
X202255266Y-100091904D02*
X202445742Y-100091904D01*
X202445742Y-100091904D02*
X202540980Y-100044285D01*
X202540980Y-100044285D02*
X202588600Y-99996666D01*
X202588600Y-99996666D02*
X202636219Y-99901428D01*
X202636219Y-99901428D02*
X202636219Y-99710952D01*
X202636219Y-99710952D02*
X202588600Y-99615714D01*
X202588600Y-99615714D02*
X202540980Y-99568095D01*
X202540980Y-99568095D02*
X202445742Y-99520476D01*
X202445742Y-99520476D02*
X202255266Y-99520476D01*
X202255266Y-99520476D02*
X202160028Y-99568095D01*
X202160028Y-99568095D02*
X202112409Y-99615714D01*
X202112409Y-99615714D02*
X202064790Y-99710952D01*
X141041219Y-80263904D02*
X141850742Y-80263904D01*
X141850742Y-80263904D02*
X141945980Y-80216285D01*
X141945980Y-80216285D02*
X141993600Y-80168666D01*
X141993600Y-80168666D02*
X142041219Y-80073428D01*
X142041219Y-80073428D02*
X142041219Y-79882952D01*
X142041219Y-79882952D02*
X141993600Y-79787714D01*
X141993600Y-79787714D02*
X141945980Y-79740095D01*
X141945980Y-79740095D02*
X141850742Y-79692476D01*
X141850742Y-79692476D02*
X141041219Y-79692476D01*
X141041219Y-78740095D02*
X141041219Y-79216285D01*
X141041219Y-79216285D02*
X141517409Y-79263904D01*
X141517409Y-79263904D02*
X141469790Y-79216285D01*
X141469790Y-79216285D02*
X141422171Y-79121047D01*
X141422171Y-79121047D02*
X141422171Y-78882952D01*
X141422171Y-78882952D02*
X141469790Y-78787714D01*
X141469790Y-78787714D02*
X141517409Y-78740095D01*
X141517409Y-78740095D02*
X141612647Y-78692476D01*
X141612647Y-78692476D02*
X141850742Y-78692476D01*
X141850742Y-78692476D02*
X141945980Y-78740095D01*
X141945980Y-78740095D02*
X141993600Y-78787714D01*
X141993600Y-78787714D02*
X142041219Y-78882952D01*
X142041219Y-78882952D02*
X142041219Y-79121047D01*
X142041219Y-79121047D02*
X141993600Y-79216285D01*
X141993600Y-79216285D02*
X141945980Y-79263904D01*
X245038095Y-36652219D02*
X245038095Y-35652219D01*
X245038095Y-36128409D02*
X245609523Y-36128409D01*
X245609523Y-36652219D02*
X245609523Y-35652219D01*
X245990476Y-35652219D02*
X246609523Y-35652219D01*
X246609523Y-35652219D02*
X246276190Y-36033171D01*
X246276190Y-36033171D02*
X246419047Y-36033171D01*
X246419047Y-36033171D02*
X246514285Y-36080790D01*
X246514285Y-36080790D02*
X246561904Y-36128409D01*
X246561904Y-36128409D02*
X246609523Y-36223647D01*
X246609523Y-36223647D02*
X246609523Y-36461742D01*
X246609523Y-36461742D02*
X246561904Y-36556980D01*
X246561904Y-36556980D02*
X246514285Y-36604600D01*
X246514285Y-36604600D02*
X246419047Y-36652219D01*
X246419047Y-36652219D02*
X246133333Y-36652219D01*
X246133333Y-36652219D02*
X246038095Y-36604600D01*
X246038095Y-36604600D02*
X245990476Y-36556980D01*
X127821333Y-78684219D02*
X127488000Y-78208028D01*
X127249905Y-78684219D02*
X127249905Y-77684219D01*
X127249905Y-77684219D02*
X127630857Y-77684219D01*
X127630857Y-77684219D02*
X127726095Y-77731838D01*
X127726095Y-77731838D02*
X127773714Y-77779457D01*
X127773714Y-77779457D02*
X127821333Y-77874695D01*
X127821333Y-77874695D02*
X127821333Y-78017552D01*
X127821333Y-78017552D02*
X127773714Y-78112790D01*
X127773714Y-78112790D02*
X127726095Y-78160409D01*
X127726095Y-78160409D02*
X127630857Y-78208028D01*
X127630857Y-78208028D02*
X127249905Y-78208028D01*
X128678476Y-78017552D02*
X128678476Y-78684219D01*
X128440381Y-77636600D02*
X128202286Y-78350885D01*
X128202286Y-78350885D02*
X128821333Y-78350885D01*
X136834666Y-70032409D02*
X136501333Y-70032409D01*
X136501333Y-70556219D02*
X136501333Y-69556219D01*
X136501333Y-69556219D02*
X136977523Y-69556219D01*
X137691809Y-70032409D02*
X137834666Y-70080028D01*
X137834666Y-70080028D02*
X137882285Y-70127647D01*
X137882285Y-70127647D02*
X137929904Y-70222885D01*
X137929904Y-70222885D02*
X137929904Y-70365742D01*
X137929904Y-70365742D02*
X137882285Y-70460980D01*
X137882285Y-70460980D02*
X137834666Y-70508600D01*
X137834666Y-70508600D02*
X137739428Y-70556219D01*
X137739428Y-70556219D02*
X137358476Y-70556219D01*
X137358476Y-70556219D02*
X137358476Y-69556219D01*
X137358476Y-69556219D02*
X137691809Y-69556219D01*
X137691809Y-69556219D02*
X137787047Y-69603838D01*
X137787047Y-69603838D02*
X137834666Y-69651457D01*
X137834666Y-69651457D02*
X137882285Y-69746695D01*
X137882285Y-69746695D02*
X137882285Y-69841933D01*
X137882285Y-69841933D02*
X137834666Y-69937171D01*
X137834666Y-69937171D02*
X137787047Y-69984790D01*
X137787047Y-69984790D02*
X137691809Y-70032409D01*
X137691809Y-70032409D02*
X137358476Y-70032409D01*
X138263238Y-69556219D02*
X138882285Y-69556219D01*
X138882285Y-69556219D02*
X138548952Y-69937171D01*
X138548952Y-69937171D02*
X138691809Y-69937171D01*
X138691809Y-69937171D02*
X138787047Y-69984790D01*
X138787047Y-69984790D02*
X138834666Y-70032409D01*
X138834666Y-70032409D02*
X138882285Y-70127647D01*
X138882285Y-70127647D02*
X138882285Y-70365742D01*
X138882285Y-70365742D02*
X138834666Y-70460980D01*
X138834666Y-70460980D02*
X138787047Y-70508600D01*
X138787047Y-70508600D02*
X138691809Y-70556219D01*
X138691809Y-70556219D02*
X138406095Y-70556219D01*
X138406095Y-70556219D02*
X138310857Y-70508600D01*
X138310857Y-70508600D02*
X138263238Y-70460980D01*
X141956219Y-101345904D02*
X142765742Y-101345904D01*
X142765742Y-101345904D02*
X142860980Y-101298285D01*
X142860980Y-101298285D02*
X142908600Y-101250666D01*
X142908600Y-101250666D02*
X142956219Y-101155428D01*
X142956219Y-101155428D02*
X142956219Y-100964952D01*
X142956219Y-100964952D02*
X142908600Y-100869714D01*
X142908600Y-100869714D02*
X142860980Y-100822095D01*
X142860980Y-100822095D02*
X142765742Y-100774476D01*
X142765742Y-100774476D02*
X141956219Y-100774476D01*
X142051457Y-100345904D02*
X142003838Y-100298285D01*
X142003838Y-100298285D02*
X141956219Y-100203047D01*
X141956219Y-100203047D02*
X141956219Y-99964952D01*
X141956219Y-99964952D02*
X142003838Y-99869714D01*
X142003838Y-99869714D02*
X142051457Y-99822095D01*
X142051457Y-99822095D02*
X142146695Y-99774476D01*
X142146695Y-99774476D02*
X142241933Y-99774476D01*
X142241933Y-99774476D02*
X142384790Y-99822095D01*
X142384790Y-99822095D02*
X142956219Y-100393523D01*
X142956219Y-100393523D02*
X142956219Y-99774476D01*
X127821333Y-82684219D02*
X127488000Y-82208028D01*
X127249905Y-82684219D02*
X127249905Y-81684219D01*
X127249905Y-81684219D02*
X127630857Y-81684219D01*
X127630857Y-81684219D02*
X127726095Y-81731838D01*
X127726095Y-81731838D02*
X127773714Y-81779457D01*
X127773714Y-81779457D02*
X127821333Y-81874695D01*
X127821333Y-81874695D02*
X127821333Y-82017552D01*
X127821333Y-82017552D02*
X127773714Y-82112790D01*
X127773714Y-82112790D02*
X127726095Y-82160409D01*
X127726095Y-82160409D02*
X127630857Y-82208028D01*
X127630857Y-82208028D02*
X127249905Y-82208028D01*
X128154667Y-81684219D02*
X128773714Y-81684219D01*
X128773714Y-81684219D02*
X128440381Y-82065171D01*
X128440381Y-82065171D02*
X128583238Y-82065171D01*
X128583238Y-82065171D02*
X128678476Y-82112790D01*
X128678476Y-82112790D02*
X128726095Y-82160409D01*
X128726095Y-82160409D02*
X128773714Y-82255647D01*
X128773714Y-82255647D02*
X128773714Y-82493742D01*
X128773714Y-82493742D02*
X128726095Y-82588980D01*
X128726095Y-82588980D02*
X128678476Y-82636600D01*
X128678476Y-82636600D02*
X128583238Y-82684219D01*
X128583238Y-82684219D02*
X128297524Y-82684219D01*
X128297524Y-82684219D02*
X128202286Y-82636600D01*
X128202286Y-82636600D02*
X128154667Y-82588980D01*
D11*
%TO.C,U10*%
X203334000Y-45406000D02*
X203334000Y-55686000D01*
X203334000Y-55686000D02*
X221354000Y-55686000D01*
X203394000Y-47896000D02*
X203394000Y-49546000D01*
X203394000Y-51546000D02*
X203394000Y-53196000D01*
X203394000Y-53196000D02*
X221294000Y-53196000D01*
X221294000Y-47896000D02*
X203394000Y-47896000D01*
X221294000Y-53196000D02*
X221294000Y-47896000D01*
X221354000Y-45406000D02*
X203334000Y-45406000D01*
X221354000Y-55686000D02*
X221354000Y-45406000D01*
X203394000Y-49546000D02*
G75*
G02*
X203394000Y-51546000I0J-1000000D01*
G01*
%TO.C,J2*%
X98670000Y-93130000D02*
X114030000Y-93130000D01*
X98670000Y-95730000D02*
X98670000Y-93130000D01*
X98670000Y-98330000D02*
X98670000Y-97000000D01*
X100000000Y-98330000D02*
X98670000Y-98330000D01*
X101270000Y-95730000D02*
X98670000Y-95730000D01*
X101270000Y-98330000D02*
X101270000Y-95730000D01*
X101270000Y-98330000D02*
X114030000Y-98330000D01*
X114030000Y-98330000D02*
X114030000Y-93130000D01*
%TO.C,FB6*%
X192330000Y-58238748D02*
X192330000Y-58761252D01*
X193750000Y-58238748D02*
X193750000Y-58761252D01*
%TO.C,U6*%
X143385000Y-45650000D02*
X143385000Y-55930000D01*
X143385000Y-55930000D02*
X161405000Y-55930000D01*
X143445000Y-48140000D02*
X143445000Y-49790000D01*
X143445000Y-51790000D02*
X143445000Y-53440000D01*
X143445000Y-53440000D02*
X161345000Y-53440000D01*
X161345000Y-48140000D02*
X143445000Y-48140000D01*
X161345000Y-53440000D02*
X161345000Y-48140000D01*
X161405000Y-45650000D02*
X143385000Y-45650000D01*
X161405000Y-55930000D02*
X161405000Y-45650000D01*
X143445000Y-49790000D02*
G75*
G02*
X143445000Y-51790000I0J-1000000D01*
G01*
%TO.C,U11*%
X172854000Y-45406000D02*
X172854000Y-55686000D01*
X172854000Y-55686000D02*
X190874000Y-55686000D01*
X172914000Y-47896000D02*
X172914000Y-49546000D01*
X172914000Y-51546000D02*
X172914000Y-53196000D01*
X172914000Y-53196000D02*
X190814000Y-53196000D01*
X190814000Y-47896000D02*
X172914000Y-47896000D01*
X190814000Y-53196000D02*
X190814000Y-47896000D01*
X190874000Y-45406000D02*
X172854000Y-45406000D01*
X190874000Y-55686000D02*
X190874000Y-45406000D01*
X172914000Y-49546000D02*
G75*
G02*
X172914000Y-51546000I0J-1000000D01*
G01*
%TO.C,C5*%
X140060000Y-95516248D02*
X140060000Y-96938752D01*
X141880000Y-95516248D02*
X141880000Y-96938752D01*
%TO.C,U3*%
X109160000Y-45854000D02*
X109160000Y-66414000D01*
X109160000Y-66414000D02*
X119440000Y-66414000D01*
X111650000Y-45914000D02*
X111650000Y-66354000D01*
X111650000Y-66354000D02*
X116950000Y-66354000D01*
X113300000Y-45914000D02*
X111650000Y-45914000D01*
X116950000Y-45914000D02*
X115300000Y-45914000D01*
X116950000Y-66354000D02*
X116950000Y-45914000D01*
X119440000Y-45854000D02*
X109160000Y-45854000D01*
X119440000Y-66414000D02*
X119440000Y-45854000D01*
X115300000Y-45914000D02*
G75*
G02*
X113300000Y-45914000I-1000000J0D01*
G01*
%TO.C,U4*%
X98238000Y-72270000D02*
X98238000Y-82670000D01*
X98238000Y-82670000D02*
X108518000Y-82670000D01*
X100728000Y-72330000D02*
X100728000Y-82610000D01*
X100728000Y-82610000D02*
X106028000Y-82610000D01*
X102378000Y-72330000D02*
X100728000Y-72330000D01*
X106028000Y-72330000D02*
X104378000Y-72330000D01*
X106028000Y-82610000D02*
X106028000Y-72330000D01*
X108518000Y-72270000D02*
X98238000Y-72270000D01*
X108518000Y-82670000D02*
X108518000Y-72270000D01*
X104378000Y-72330000D02*
G75*
G02*
X102378000Y-72330000I-1000000J0D01*
G01*
%TO.C,C14*%
X95102000Y-72847252D02*
X95102000Y-71424748D01*
X96922000Y-72847252D02*
X96922000Y-71424748D01*
%TO.C,C11*%
X199242000Y-95300748D02*
X199242000Y-96723252D01*
X201062000Y-95300748D02*
X201062000Y-96723252D01*
%TO.C,R2*%
X132807064Y-85322000D02*
X131352936Y-85322000D01*
X132807064Y-87142000D02*
X131352936Y-87142000D01*
%TO.C,U1*%
X114250000Y-72270000D02*
X114250000Y-82670000D01*
X114250000Y-82670000D02*
X124530000Y-82670000D01*
X116740000Y-72330000D02*
X116740000Y-82610000D01*
X116740000Y-82610000D02*
X122040000Y-82610000D01*
X118390000Y-72330000D02*
X116740000Y-72330000D01*
X122040000Y-72330000D02*
X120390000Y-72330000D01*
X122040000Y-82610000D02*
X122040000Y-72330000D01*
X124530000Y-72270000D02*
X114250000Y-72270000D01*
X124530000Y-82670000D02*
X124530000Y-72270000D01*
X120390000Y-72330000D02*
G75*
G02*
X118390000Y-72330000I-1000000J0D01*
G01*
%TO.C,R5*%
X132807064Y-73322000D02*
X131352936Y-73322000D01*
X132807064Y-75142000D02*
X131352936Y-75142000D01*
%TO.C,R1*%
X132807064Y-89322000D02*
X131352936Y-89322000D01*
X132807064Y-91142000D02*
X131352936Y-91142000D01*
%TO.C,U9*%
X203334000Y-74362000D02*
X203334000Y-84642000D01*
X203334000Y-84642000D02*
X221354000Y-84642000D01*
X203394000Y-76852000D02*
X203394000Y-78502000D01*
X203394000Y-80502000D02*
X203394000Y-82152000D01*
X203394000Y-82152000D02*
X221294000Y-82152000D01*
X221294000Y-76852000D02*
X203394000Y-76852000D01*
X221294000Y-82152000D02*
X221294000Y-76852000D01*
X221354000Y-74362000D02*
X203334000Y-74362000D01*
X221354000Y-84642000D02*
X221354000Y-74362000D01*
X203394000Y-78502000D02*
G75*
G02*
X203394000Y-80502000I0J-1000000D01*
G01*
%TO.C,C6*%
X136710000Y-95516248D02*
X136710000Y-96938752D01*
X138530000Y-95516248D02*
X138530000Y-96938752D01*
%TO.C,FB8*%
X119761252Y-92290000D02*
X119238748Y-92290000D01*
X119761252Y-93710000D02*
X119238748Y-93710000D01*
%TO.C,FB5*%
X92254000Y-74414748D02*
X92254000Y-74937252D01*
X93674000Y-74414748D02*
X93674000Y-74937252D01*
%TO.C,U7*%
X172854000Y-74362000D02*
X172854000Y-84642000D01*
X172854000Y-84642000D02*
X190874000Y-84642000D01*
X172914000Y-76852000D02*
X172914000Y-78502000D01*
X172914000Y-80502000D02*
X172914000Y-82152000D01*
X172914000Y-82152000D02*
X190814000Y-82152000D01*
X190814000Y-76852000D02*
X172914000Y-76852000D01*
X190814000Y-82152000D02*
X190814000Y-76852000D01*
X190874000Y-74362000D02*
X172854000Y-74362000D01*
X190874000Y-84642000D02*
X190874000Y-74362000D01*
X172914000Y-78502000D02*
G75*
G02*
X172914000Y-80502000I0J-1000000D01*
G01*
%TO.C,FB9*%
X120261252Y-96690000D02*
X119738748Y-96690000D01*
X120261252Y-98110000D02*
X119738748Y-98110000D01*
%TO.C,J3*%
X225970000Y-102670000D02*
X225970000Y-105330000D01*
X238730000Y-102670000D02*
X225970000Y-102670000D01*
X238730000Y-102670000D02*
X238730000Y-105330000D01*
X238730000Y-105330000D02*
X225970000Y-105330000D01*
X241330000Y-104000000D02*
X241330000Y-105330000D01*
X241330000Y-105330000D02*
X240000000Y-105330000D01*
%TO.C,C15*%
X162666000Y-85801252D02*
X162666000Y-84378748D01*
X164486000Y-85801252D02*
X164486000Y-84378748D01*
%TO.C,U8*%
X203334000Y-93158000D02*
X203334000Y-103438000D01*
X203334000Y-103438000D02*
X221354000Y-103438000D01*
X203394000Y-95648000D02*
X203394000Y-97298000D01*
X203394000Y-99298000D02*
X203394000Y-100948000D01*
X203394000Y-100948000D02*
X221294000Y-100948000D01*
X221294000Y-95648000D02*
X203394000Y-95648000D01*
X221294000Y-100948000D02*
X221294000Y-95648000D01*
X221354000Y-93158000D02*
X203334000Y-93158000D01*
X221354000Y-103438000D02*
X221354000Y-93158000D01*
X203394000Y-97298000D02*
G75*
G02*
X203394000Y-99298000I0J-1000000D01*
G01*
%TO.C,U5*%
X143390000Y-74362000D02*
X143390000Y-84642000D01*
X143390000Y-84642000D02*
X161410000Y-84642000D01*
X143450000Y-76852000D02*
X143450000Y-78502000D01*
X143450000Y-80502000D02*
X143450000Y-82152000D01*
X143450000Y-82152000D02*
X161350000Y-82152000D01*
X161350000Y-76852000D02*
X143450000Y-76852000D01*
X161350000Y-82152000D02*
X161350000Y-76852000D01*
X161410000Y-74362000D02*
X143390000Y-74362000D01*
X161410000Y-84642000D02*
X161410000Y-74362000D01*
X143450000Y-78502000D02*
G75*
G02*
X143450000Y-80502000I0J-1000000D01*
G01*
%TO.C,R4*%
X132807064Y-77322000D02*
X131352936Y-77322000D01*
X132807064Y-79142000D02*
X131352936Y-79142000D01*
%TO.C,FB3*%
X137929252Y-67362000D02*
X137406748Y-67362000D01*
X137929252Y-68782000D02*
X137406748Y-68782000D01*
%TO.C,U2*%
X143654000Y-93402000D02*
X143654000Y-103682000D01*
X143654000Y-103682000D02*
X154054000Y-103682000D01*
X143714000Y-95892000D02*
X143714000Y-97542000D01*
X143714000Y-99542000D02*
X143714000Y-101192000D01*
X143714000Y-101192000D02*
X153994000Y-101192000D01*
X153994000Y-95892000D02*
X143714000Y-95892000D01*
X153994000Y-101192000D02*
X153994000Y-95892000D01*
X154054000Y-93402000D02*
X143654000Y-93402000D01*
X154054000Y-103682000D02*
X154054000Y-93402000D01*
X143714000Y-97542000D02*
G75*
G02*
X143714000Y-99542000I0J-1000000D01*
G01*
%TO.C,R3*%
X132807064Y-81322000D02*
X131352936Y-81322000D01*
X132807064Y-83142000D02*
X131352936Y-83142000D01*
%TD*%
M02*
