%TF.GenerationSoftware,KiCad,Pcbnew,8.0.1*%
%TF.CreationDate,2024-04-03T15:50:24+05:30*%
%TF.ProjectId,FinalCircuit,46696e61-6c43-4697-9263-7569742e6b69,rev?*%
%TF.SameCoordinates,Original*%
%TF.FileFunction,Soldermask,Top*%
%TF.FilePolarity,Negative*%
%FSLAX46Y46*%
G04 Gerber Fmt 4.6, Leading zero omitted, Abs format (unit mm)*
G04 Created by KiCad (PCBNEW 8.0.1) date 2024-04-03 15:50:24*
%MOMM*%
%LPD*%
G01*
G04 APERTURE LIST*
G04 Aperture macros list*
%AMRoundRect*
0 Rectangle with rounded corners*
0 $1 Rounding radius*
0 $2 $3 $4 $5 $6 $7 $8 $9 X,Y pos of 4 corners*
0 Add a 4 corners polygon primitive as box body*
4,1,4,$2,$3,$4,$5,$6,$7,$8,$9,$2,$3,0*
0 Add four circle primitives for the rounded corners*
1,1,$1+$1,$2,$3*
1,1,$1+$1,$4,$5*
1,1,$1+$1,$6,$7*
1,1,$1+$1,$8,$9*
0 Add four rect primitives between the rounded corners*
20,1,$1+$1,$2,$3,$4,$5,0*
20,1,$1+$1,$4,$5,$6,$7,0*
20,1,$1+$1,$6,$7,$8,$9,0*
20,1,$1+$1,$8,$9,$2,$3,0*%
G04 Aperture macros list end*
%ADD10R,1.600000X1.600000*%
%ADD11O,1.600000X1.600000*%
%ADD12R,1.700000X1.700000*%
%ADD13O,1.700000X1.700000*%
%ADD14C,3.000000*%
%ADD15RoundRect,0.250000X-0.450000X0.325000X-0.450000X-0.325000X0.450000X-0.325000X0.450000X0.325000X0*%
%ADD16RoundRect,0.250000X-0.650000X0.412500X-0.650000X-0.412500X0.650000X-0.412500X0.650000X0.412500X0*%
%ADD17RoundRect,0.250000X0.650000X-0.412500X0.650000X0.412500X-0.650000X0.412500X-0.650000X-0.412500X0*%
%ADD18RoundRect,0.250000X0.400000X0.625000X-0.400000X0.625000X-0.400000X-0.625000X0.400000X-0.625000X0*%
%ADD19RoundRect,0.250000X0.325000X0.450000X-0.325000X0.450000X-0.325000X-0.450000X0.325000X-0.450000X0*%
G04 APERTURE END LIST*
D10*
%TO.C,U10*%
X204724000Y-54356000D03*
D11*
X207264000Y-54356000D03*
X209804000Y-54356000D03*
X212344000Y-54356000D03*
X214884000Y-54356000D03*
X217424000Y-54356000D03*
X219964000Y-54356000D03*
X219964000Y-46736000D03*
X217424000Y-46736000D03*
X214884000Y-46736000D03*
X212344000Y-46736000D03*
X209804000Y-46736000D03*
X207264000Y-46736000D03*
X204724000Y-46736000D03*
%TD*%
D12*
%TO.C,J2*%
X100000000Y-97000000D03*
D13*
X100000000Y-94460000D03*
X102540000Y-97000000D03*
X102540000Y-94460000D03*
X105080000Y-97000000D03*
X105080000Y-94460000D03*
X107620000Y-97000000D03*
X107620000Y-94460000D03*
X110160000Y-97000000D03*
X110160000Y-94460000D03*
X112700000Y-97000000D03*
X112700000Y-94460000D03*
%TD*%
D14*
%TO.C,H2*%
X94000000Y-110000000D03*
%TD*%
D15*
%TO.C,FB6*%
X193040000Y-57475000D03*
X193040000Y-59525000D03*
%TD*%
D14*
%TO.C,H1*%
X94742000Y-36322000D03*
%TD*%
D10*
%TO.C,U6*%
X144775000Y-54600000D03*
D11*
X147315000Y-54600000D03*
X149855000Y-54600000D03*
X152395000Y-54600000D03*
X154935000Y-54600000D03*
X157475000Y-54600000D03*
X160015000Y-54600000D03*
X160015000Y-46980000D03*
X157475000Y-46980000D03*
X154935000Y-46980000D03*
X152395000Y-46980000D03*
X149855000Y-46980000D03*
X147315000Y-46980000D03*
X144775000Y-46980000D03*
%TD*%
D10*
%TO.C,U11*%
X174244000Y-54356000D03*
D11*
X176784000Y-54356000D03*
X179324000Y-54356000D03*
X181864000Y-54356000D03*
X184404000Y-54356000D03*
X186944000Y-54356000D03*
X189484000Y-54356000D03*
X189484000Y-46736000D03*
X186944000Y-46736000D03*
X184404000Y-46736000D03*
X181864000Y-46736000D03*
X179324000Y-46736000D03*
X176784000Y-46736000D03*
X174244000Y-46736000D03*
%TD*%
D16*
%TO.C,C5*%
X140970000Y-94665000D03*
X140970000Y-97790000D03*
%TD*%
D10*
%TO.C,U3*%
X110490000Y-47244000D03*
D11*
X110490000Y-49784000D03*
X110490000Y-52324000D03*
X110490000Y-54864000D03*
X110490000Y-57404000D03*
X110490000Y-59944000D03*
X110490000Y-62484000D03*
X110490000Y-65024000D03*
X118110000Y-65024000D03*
X118110000Y-62484000D03*
X118110000Y-59944000D03*
X118110000Y-57404000D03*
X118110000Y-54864000D03*
X118110000Y-52324000D03*
X118110000Y-49784000D03*
X118110000Y-47244000D03*
%TD*%
D10*
%TO.C,U4*%
X99568000Y-73660000D03*
D11*
X99568000Y-76200000D03*
X99568000Y-78740000D03*
X99568000Y-81280000D03*
X107188000Y-81280000D03*
X107188000Y-78740000D03*
X107188000Y-76200000D03*
X107188000Y-73660000D03*
%TD*%
D17*
%TO.C,C14*%
X96012000Y-73698500D03*
X96012000Y-70573500D03*
%TD*%
D16*
%TO.C,C11*%
X200152000Y-94449500D03*
X200152000Y-97574500D03*
%TD*%
D18*
%TO.C,R2*%
X133630000Y-86232000D03*
X130530000Y-86232000D03*
%TD*%
D10*
%TO.C,U1*%
X115580000Y-73660000D03*
D11*
X115580000Y-76200000D03*
X115580000Y-78740000D03*
X115580000Y-81280000D03*
X123200000Y-81280000D03*
X123200000Y-78740000D03*
X123200000Y-76200000D03*
X123200000Y-73660000D03*
%TD*%
D18*
%TO.C,R5*%
X133630000Y-74232000D03*
X130530000Y-74232000D03*
%TD*%
%TO.C,R1*%
X133630000Y-90232000D03*
X130530000Y-90232000D03*
%TD*%
D10*
%TO.C,U9*%
X204724000Y-83312000D03*
D11*
X207264000Y-83312000D03*
X209804000Y-83312000D03*
X212344000Y-83312000D03*
X214884000Y-83312000D03*
X217424000Y-83312000D03*
X219964000Y-83312000D03*
X219964000Y-75692000D03*
X217424000Y-75692000D03*
X214884000Y-75692000D03*
X212344000Y-75692000D03*
X209804000Y-75692000D03*
X207264000Y-75692000D03*
X204724000Y-75692000D03*
%TD*%
D16*
%TO.C,C6*%
X137620000Y-94665000D03*
X137620000Y-97790000D03*
%TD*%
D19*
%TO.C,FB8*%
X120525000Y-93000000D03*
X118475000Y-93000000D03*
%TD*%
D15*
%TO.C,FB5*%
X92964000Y-73651000D03*
X92964000Y-75701000D03*
%TD*%
D10*
%TO.C,U7*%
X174244000Y-83312000D03*
D11*
X176784000Y-83312000D03*
X179324000Y-83312000D03*
X181864000Y-83312000D03*
X184404000Y-83312000D03*
X186944000Y-83312000D03*
X189484000Y-83312000D03*
X189484000Y-75692000D03*
X186944000Y-75692000D03*
X184404000Y-75692000D03*
X181864000Y-75692000D03*
X179324000Y-75692000D03*
X176784000Y-75692000D03*
X174244000Y-75692000D03*
%TD*%
D19*
%TO.C,FB9*%
X121025000Y-97400000D03*
X118975000Y-97400000D03*
%TD*%
D12*
%TO.C,J3*%
X240000000Y-104000000D03*
D13*
X237460000Y-104000000D03*
X234920000Y-104000000D03*
X232380000Y-104000000D03*
X229840000Y-104000000D03*
X227300000Y-104000000D03*
%TD*%
D17*
%TO.C,C15*%
X163576000Y-86652500D03*
X163576000Y-83527500D03*
%TD*%
D14*
%TO.C,H4*%
X251000000Y-110000000D03*
%TD*%
D10*
%TO.C,U8*%
X204724000Y-102108000D03*
D11*
X207264000Y-102108000D03*
X209804000Y-102108000D03*
X212344000Y-102108000D03*
X214884000Y-102108000D03*
X217424000Y-102108000D03*
X219964000Y-102108000D03*
X219964000Y-94488000D03*
X217424000Y-94488000D03*
X214884000Y-94488000D03*
X212344000Y-94488000D03*
X209804000Y-94488000D03*
X207264000Y-94488000D03*
X204724000Y-94488000D03*
%TD*%
D10*
%TO.C,U5*%
X144780000Y-83312000D03*
D11*
X147320000Y-83312000D03*
X149860000Y-83312000D03*
X152400000Y-83312000D03*
X154940000Y-83312000D03*
X157480000Y-83312000D03*
X160020000Y-83312000D03*
X160020000Y-75692000D03*
X157480000Y-75692000D03*
X154940000Y-75692000D03*
X152400000Y-75692000D03*
X149860000Y-75692000D03*
X147320000Y-75692000D03*
X144780000Y-75692000D03*
%TD*%
D14*
%TO.C,H3*%
X250698000Y-36068000D03*
%TD*%
D18*
%TO.C,R4*%
X133630000Y-78232000D03*
X130530000Y-78232000D03*
%TD*%
D19*
%TO.C,FB3*%
X138693000Y-68072000D03*
X136643000Y-68072000D03*
%TD*%
D10*
%TO.C,U2*%
X145044000Y-102352000D03*
D11*
X147584000Y-102352000D03*
X150124000Y-102352000D03*
X152664000Y-102352000D03*
X152664000Y-94732000D03*
X150124000Y-94732000D03*
X147584000Y-94732000D03*
X145044000Y-94732000D03*
%TD*%
D18*
%TO.C,R3*%
X133630000Y-82232000D03*
X130530000Y-82232000D03*
%TD*%
D12*
%TO.C,J1*%
X240538000Y-94437200D03*
D13*
X237998000Y-94437200D03*
X240538000Y-91897200D03*
X237998000Y-91897200D03*
X240538000Y-89357200D03*
X237998000Y-89357200D03*
X240538000Y-86817200D03*
X237998000Y-86817200D03*
X240538000Y-84277200D03*
X237998000Y-84277200D03*
X240538000Y-81737200D03*
X237998000Y-81737200D03*
X240538000Y-79197200D03*
X237998000Y-79197200D03*
X240538000Y-76657200D03*
X237998000Y-76657200D03*
X240538000Y-74117200D03*
X237998000Y-74117200D03*
X240538000Y-71577200D03*
X237998000Y-71577200D03*
X240538000Y-69037200D03*
X237998000Y-69037200D03*
X240538000Y-66497200D03*
X237998000Y-66497200D03*
X240538000Y-63957200D03*
X237998000Y-63957200D03*
X240538000Y-61417200D03*
X237998000Y-61417200D03*
X240538000Y-58877200D03*
X237998000Y-58877200D03*
X240538000Y-56337200D03*
X237998000Y-56337200D03*
X240538000Y-53797200D03*
X237998000Y-53797200D03*
X240538000Y-51257200D03*
X237998000Y-51257200D03*
X240538000Y-48717200D03*
X237998000Y-48717200D03*
X240538000Y-46177200D03*
X237998000Y-46177200D03*
%TD*%
M02*
